<svg width="123" height="123" viewBox="0 0 123 123" fill="none" xmlns="http://www.w3.org/2000/svg">
<g clip-path="url(#clip0_10_2)">
<path d="M61.456 0C78.435 0 93.774 6.883 104.918 17.994C116.029 29.105 122.913 44.478 122.913 61.456C122.913 78.435 116.029 93.773 104.918 104.918C93.808 116.029 78.435 122.912 61.456 122.912C44.478 122.912 29.139 116.029 17.995 104.918C6.883 93.807 0 78.434 0 61.456C0 44.478 6.883 29.138 17.995 17.994C29.105 6.883 44.478 0 61.456 0ZM61.456 33.891C64.438 33.891 67.291 34.35 69.978 35.235L91.643 13.799C82.925 8.26 72.567 5.047 61.456 5.047C50.935 5.047 41.102 7.932 32.679 12.946L54.344 34.841C56.606 34.218 58.998 33.923 61.49 33.923L61.456 33.891ZM74.665 37.267C76.992 38.545 79.09 40.119 80.926 41.954C82.99 44.019 84.761 46.444 86.072 49.099L107.082 28.319C105.346 25.926 103.411 23.665 101.313 21.567C99.51 19.764 97.609 18.092 95.578 16.552L74.633 37.267H74.665ZM87.973 53.95C88.661 56.343 89.022 58.867 89.022 61.456C89.022 64.473 88.531 67.389 87.613 70.143L109.016 91.776C114.587 83.024 117.832 72.633 117.832 61.457C117.832 50.805 114.882 40.874 109.769 32.384L87.973 53.95ZM85.58 74.764C84.335 77.026 82.762 79.09 80.926 80.926C78.828 83.024 76.37 84.793 73.65 86.137L94.463 107.147C96.889 105.377 99.184 103.444 101.314 101.313C103.085 99.543 104.723 97.674 106.263 95.676L85.58 74.764ZM68.831 88.006C66.472 88.66 64.013 88.988 61.456 88.988C58.277 88.988 55.262 88.465 52.41 87.48L30.843 108.818C39.66 114.521 50.149 117.832 61.424 117.832C72.011 117.832 81.942 114.914 90.399 109.834L68.799 88.006H68.831ZM47.854 85.416C45.691 84.203 43.724 82.695 41.987 80.959C39.791 78.762 37.956 76.205 36.612 73.387L15.536 94.232C17.339 96.789 19.371 99.148 21.567 101.378C23.238 103.048 25.042 104.655 26.942 106.097L47.821 85.449L47.854 85.416ZM34.842 68.471C34.252 66.242 33.957 63.881 33.957 61.489C33.957 58.376 34.481 55.393 35.432 52.574L14.062 30.974C8.392 39.758 5.114 50.214 5.114 61.456C5.114 71.912 7.966 81.744 12.947 90.135L34.842 68.438V68.471ZM37.497 47.985C38.743 45.789 40.25 43.79 42.02 42.02C44.183 39.857 46.708 38.054 49.493 36.71L28.68 15.667C26.189 17.47 23.829 19.469 21.633 21.632C19.928 23.337 18.322 25.172 16.815 27.106L37.498 48.018L37.497 47.985ZM77.615 45.363C73.485 41.233 67.782 38.676 61.489 38.676C55.196 38.676 49.493 41.233 45.363 45.363C41.233 49.493 38.676 55.196 38.676 61.488C38.676 67.781 41.233 73.484 45.363 77.615C49.493 81.744 55.196 84.301 61.489 84.301C67.782 84.301 73.485 81.744 77.615 77.615C81.745 73.484 84.302 67.781 84.302 61.488C84.302 55.196 81.745 49.493 77.615 45.363Z" fill="#10579F"/>
</g>
<defs>
<clipPath id="clip0_10_2">
<rect width="122.913" height="122.912" fill="white"/>
</clipPath>
</defs>
</svg>
