<svg width="470" height="513" viewBox="0 0 470 513" fill="none" xmlns="http://www.w3.org/2000/svg">
<g clip-path="url(#clip0_10_5)">
<path fill-rule="evenodd" clip-rule="evenodd" d="M96.63 258.11V163.25C71.73 172.83 54.68 146.87 71.52 125.92H71.53C71.8 125.58 72.12 125.27 72.48 124.99L230.59 1.53001C231.602 0.604086 232.908 0.0652384 234.278 0.00852167C235.649 -0.048195 236.995 0.380864 238.08 1.22001L396.56 124.42L396.55 124.43C396.79 124.62 397.02 124.83 397.23 125.06C417.28 146.63 396.14 175.12 371.79 163.62V259.73C370.75 259.93 369.73 260.14 368.73 260.38L360.18 253.44V156.78C360.18 156.39 360.22 156.02 360.29 155.66L235.56 58.7L108.04 155.71C108.17 156.19 108.24 156.69 108.24 157.21V261.57C105.02 260.23 101.68 259.2 98.23 258.44L96.63 258.11ZM60.32 401.58C65.94 401.58 70.48 406.13 70.48 411.74C70.48 417.35 65.94 421.9 60.32 421.9C54.71 421.9 50.16 417.35 50.16 411.74C50.16 406.13 54.71 401.58 60.32 401.58ZM356.1 312.9C356.09 310.97 356.21 309.15 356.45 307.42L336.47 294.08C333.59 292.16 330.44 289.96 327.29 287.75C302.37 270.29 278.78 259.43 247.98 267.4C230.02 272.05 225.72 280.31 214.22 294C213.81 294.78 213.23 295.46 212.54 295.99L175.53 340.03C177.42 349.7 185.92 353.87 195.19 353.1C207.73 352.06 220.08 339.93 229.29 331.51C234.03 327.17 238.78 322.84 243.76 319.87C255.29 313 266.76 312.77 278.11 331.81L336.3 436.76H356.08L356.1 312.9ZM360.78 296.11C361.68 294.86 362.71 293.71 363.86 292.67C368.95 288.1 376.22 285.87 385.54 285.86V285.83L436.13 285.85C456.26 285.77 472.43 293.43 469.7 316.37L458.51 431.94C457.06 450.33 448.86 465.26 428.32 464.4L382.84 464.41C376.47 464.74 371.07 463.01 366.55 459.4C363.23 456.76 360.5 453.15 358.3 448.64H342.57C344.69 454.83 344.58 460.72 342.89 465.93C341.15 471.31 337.76 475.88 333.43 479.31C329.21 482.67 324.03 484.97 318.64 485.85C313.36 486.72 307.84 486.24 302.71 484.11C296.74 490.35 290.46 494.28 283.9 496.09C277.32 497.9 270.66 497.53 263.91 495.17C257.51 502.26 250.43 506.71 242.63 508.4C234.69 510.12 226.25 508.93 217.31 504.72C214.52 506.9 211.6 508.62 208.56 509.88C204.24 511.67 199.7 512.49 194.98 512.35C183.64 512.02 176 508.67 169.92 503.23C164.12 498.05 160.23 491.4 155.84 483.74L130.76 440.01H111.32C108.36 454.87 99.29 464.16 82.97 463.82L40.56 463.83C18.01 467.49 11.34 445.58 9.43999 427.65L9.37999 427.15L0.619995 318.56C-2.33001 298.69 5.15999 285.16 26.26 284.18L26.99 284.14H80.69V284.16C93.81 284.02 107.14 287.64 111.27 301.5H147.81C157 295.31 165.6 290.44 175.11 287.48C184.44 284.57 194.46 283.54 206.42 284.97C219.2 269.78 224.95 261.18 245.02 255.99C279.89 246.97 305.94 258.4 334.03 278.09C336.96 280.14 339.87 282.18 343.01 284.28L360.78 296.11ZM100.64 309.09C100.485 308.547 100.404 307.985 100.4 307.42C100.4 307.26 100.41 307.1 100.42 306.95C98.72 296.96 89.37 295.84 80.76 295.94H80.69V295.96H26.76C12.75 296.61 10.39 304.15 12.33 316.99L12.39 317.53L21.17 426.41C22.27 436.77 24.78 454.72 39.1 452.12C39.46 452.05 39.81 452.02 40.16 452.02L82.64 452L83.28 452.04C97.46 452.28 100.31 441.31 100.66 429.13L100.64 309.09ZM112.47 428.19H134.18C136.48 428.19 138.46 429.49 139.44 431.4L166.09 477.87C169.99 484.68 173.44 490.57 177.78 494.45C181.84 498.08 187.15 500.33 195.3 500.58C198.36 500.67 201.29 500.13 204.08 498.98C205.79 498.27 207.47 497.32 209.11 496.13L191.75 463.64C188.11 456.8 198.51 451.26 202.15 458.09L221.02 493.41C228.05 496.98 234.41 498.09 240.14 496.85C245.38 495.72 250.31 492.57 254.96 487.5L227.76 444.81C223.6 438.29 233.54 431.96 237.69 438.48L266.36 483.48C271.38 485.52 276.21 485.99 280.81 484.72C285.2 483.51 289.59 480.7 293.98 476.15L268.02 427.27C264.37 420.4 274.81 414.86 278.46 421.72L305.32 472.29C308.81 474.32 312.85 474.85 316.74 474.21C320.14 473.65 323.41 472.2 326.09 470.07C328.67 468.02 330.68 465.37 331.66 462.33C332.74 459 332.63 455.08 330.78 450.82C330.39 449.93 330.24 449 330.3 448.09C329.481 447.737 328.753 447.202 328.171 446.526C327.589 445.851 327.168 445.052 326.94 444.19L267.98 337.83C261.43 326.87 255.52 326.59 249.81 329.99C245.76 332.4 241.5 336.3 237.24 340.2C225.53 350.89 212.55 363.52 196.16 364.88C179.33 366.27 164.89 356.18 163.45 338.74C163.3 336.94 163.97 335.26 165.16 334.08L197.02 296.16C190.24 296.07 184.25 296.99 178.62 298.75C170.04 301.42 162.03 306.08 153.27 312.06C152.227 312.881 150.938 313.329 149.61 313.33H112.47V428.19ZM408.05 401.58C413.66 401.58 418.21 406.13 418.21 411.74C418.21 417.35 413.66 421.9 408.05 421.9C402.43 421.9 397.88 417.35 397.88 411.74C397.88 406.13 402.43 401.58 408.05 401.58ZM203.3 116.61H266.69C268.92 116.61 270.74 118.39 270.74 120.58V165.38C270.74 167.57 268.92 169.35 266.69 169.35H203.3C201.06 169.35 199.25 167.57 199.25 165.38V120.58C199.25 118.39 201.06 116.61 203.3 116.61ZM264.17 145.42H237.55V162.94H264.17V145.42ZM231.15 145.42H205.82V162.94H231.15V145.42ZM205.82 140.54H231.15V123.01H205.82V140.54ZM237.55 140.54H264.17V123.01H237.55V140.54ZM197.45 196.58H266.91C270.03 196.58 272.55 199.18 272.55 202.39V225.58C268.86 225.44 265.11 225.49 261.28 225.74V208.2H203.08V230.67L191.81 234.59V202.39C191.81 199.18 194.33 196.58 197.45 196.58Z" fill="#10579F"/>
</g>
<defs>
<clipPath id="clip0_10_5">
<rect width="470" height="512.37" fill="white"/>
</clipPath>
</defs>
</svg>
