<?xml version="1.0" encoding="utf-8"?>
<!-- Generator: Adobe Illustrator 23.1.0, SVG Export Plug-In . SVG Version: 6.00 Build 0)  -->
<svg version="1.1" id="Layer_1" xmlns="http://www.w3.org/2000/svg" xmlns:xlink="http://www.w3.org/1999/xlink" x="0px" y="0px"
	 viewBox="0 0 150 150" style="enable-background:new 0 0 150 150;" xml:space="preserve">
<style type="text/css">
	.st0{fill:#10579F;}
	.st1{fill:url(#SVGID_1_);}
	.st2{fill:url(#SVGID_2_);}
	.st3{fill:#DDDDDD;}
</style>
<path class="st0" d="M44.5,73.7H27.2c-0.9,0-1.6,0.7-1.6,1.6v17.5c0,0.9,0.7,1.6,1.6,1.6c0.9,0,1.6-0.7,1.6-1.6V76.9h15.6
	c0.9,0,1.6-0.7,1.6-1.6C46.1,74.4,45.3,73.7,44.5,73.7z"/>
<path class="st0" d="M27.2,97.9c-0.9,0-1.6,0.7-1.6,1.6v2.2c0,0.9,0.7,1.6,1.6,1.6c0.9,0,1.6-0.7,1.6-1.6v-2.2
	C28.8,98.7,28.1,97.9,27.2,97.9z"/>
<path class="st0" d="M100.7,21.6c-0.6,0.7-0.5,1.7,0.1,2.3l23.5,20.7c0.7,0.6,1.7,0.5,2.3-0.1c0.6-0.7,0.5-1.7-0.1-2.3l-23.5-20.7
	C102.3,20.8,101.3,20.9,100.7,21.6z"/>
<path class="st0" d="M94.6,16.2c-0.6,0.7-0.5,1.7,0.2,2.3l1,0.9c0.7,0.6,1.7,0.5,2.3-0.2c0.6-0.7,0.5-1.7-0.2-2.3l-1-0.9
	C96.2,15.5,95.2,15.6,94.6,16.2z"/>
<path class="st0" d="M71,29.9c-7.1,0-12.8,5.8-12.8,12.8c0,7.1,5.7,12.8,12.8,12.8c7,0,12.8-5.7,12.8-12.8
	C83.8,35.7,78.1,29.9,71,29.9z M71,52.3c-5.3,0-9.6-4.3-9.6-9.6c0-5.3,4.3-9.6,9.6-9.6c5.3,0,9.6,4.3,9.6,9.6
	C80.6,48,76.3,52.3,71,52.3z"/>
<path class="st0" d="M52.1,114c0,0.9-0.7,1.6-1.6,1.6h-2.3c-0.9,0-1.6-0.7-1.6-1.6c0-0.9,0.7-1.6,1.6-1.6h2.3
	C51.4,112.4,52.1,113.1,52.1,114z"/>
<path class="st0" d="M133.4,59.5L74.3,7.7c-1.9-1.7-4.8-1.7-6.7,0L42.8,29.6v-6.7h2.4c1.4,0,2.6-1.2,2.6-2.6v-7.8
	c0-1.4-1.2-2.6-2.6-2.6h-26c-1.4,0-2.6,1.2-2.6,2.6v7.8c0,1.4,1.2,2.6,2.6,2.6h2.4v25.3L8.7,59.5c-3.5,3.1-1.3,8.8,3.3,8.8h5.1v72
	h-5.6c-0.9,0-1.6,0.7-1.6,1.6c0,0.9,0.7,1.6,1.6,1.6h109.9c2.1,0,3.7-1.7,3.7-3.8v-30.7c0-1.6-0.1-2.8-0.1-3.7h0.1V68.3h5.1
	C134.7,68.3,136.9,62.6,133.4,59.5z M19.8,19.7v-6.5h24.7v6.5H19.8z M39.6,22.9v9.5l-14.8,13V22.9H39.6z M74.9,140.4H41.3V90.3
	c0-1.4,1.2-2.5,2.6-2.5h28.7c1.4,0,2.5,1.2,2.5,2.5v15.2c-0.1,0.9,0,1.9,0,3.7C75.1,121.9,74.8,139.7,74.9,140.4z M121.8,139.8
	c0,0.3-0.2,0.5-0.5,0.5H78.6c-0.1,0-0.5-0.2-0.5-0.5v-30.7c0-0.2,0.1-0.3,0.2-0.4c-0.1-0.6-0.2-1.3-0.2-2c0-0.4,0.1-0.9,0.1-1.4h0
	V90.3c0-3.2-2.6-5.8-5.8-5.8H43.8c-3.2,0-5.8,2.6-5.8,5.8v50.1H20.3v-72h101.5v37c0,0,0,0-0.1,0c0.1,1.2,0.1,2.4,0,3.6
	c0,0.1,0.1,0.1,0.1,0.2V139.8z M130.1,65.1H12c-1.7,0-2.5-2.1-1.2-3.2l59-51.8c0.7-0.6,1.7-0.6,2.4,0l59.1,51.8
	C132.5,63,131.8,65.1,130.1,65.1z"/>
<linearGradient id="SVGID_1_" gradientUnits="userSpaceOnUse" x1="32.1557" y1="138.8171" x2="32.1557" y2="132.3243" gradientTransform="matrix(1 0 0 -1 0 152)">
	<stop  offset="0" style="stop-color:#DDDDDD;stop-opacity:0"/>
	<stop  offset="1" style="stop-color:#DDDDDD"/>
</linearGradient>
<path class="st1" d="M19.8,13.2h24.7v6.5H19.8V13.2z"/>
<linearGradient id="SVGID_2_" gradientUnits="userSpaceOnUse" x1="32.167" y1="129.1089" x2="32.167" y2="106.6303" gradientTransform="matrix(1 0 0 -1 0 152)">
	<stop  offset="0" style="stop-color:#DDDDDD;stop-opacity:0"/>
	<stop  offset="1" style="stop-color:#DDDDDD"/>
</linearGradient>
<path class="st2" d="M39.6,22.9v9.5l-14.8,13V22.9H39.6z"/>
<path class="st3" d="M80.6,42.7c0,5.3-4.3,9.6-9.6,9.6c-5.3,0-9.6-4.3-9.6-9.6c0-5.3,4.3-9.6,9.6-9.6C76.3,33.1,80.6,37.4,80.6,42.7
	z"/>
<g>
	<path class="st0" d="M78.8,124c-0.1-0.2-0.1-0.4,0.1-0.5l8.4-6.2c0.2-0.2,0.5-0.2,0.7,0l8.4,6.2c0.2,0.1,0.2,0.3,0.1,0.5
		c-0.1,0.1-0.2,0.1-0.3,0.1c-0.1,0-0.2,0-0.2-0.1l-8.4-6.2l-8.4,6.2C79.2,124.2,78.9,124.2,78.8,124L78.8,124z M85.9,124.5l0,0.9
		c0,0.6,0.6,1.1,1.2,1.1h0l1.1,0h0c0.3,0,0.5,0.2,0.5,0.4l0,0.9c0,0.1-0.1,0.2-0.1,0.2c-0.1,0.1-0.2,0.1-0.4,0.1l-0.5,0h0l-0.5,0h0
		c-0.3,0-0.5-0.2-0.5-0.4v0c0-0.2-0.2-0.4-0.4-0.4c-0.2,0-0.4,0.2-0.4,0.4v0c0,0.6,0.6,1.1,1.2,1.1h0l0.2,0l0,0.5
		c0,0.2,0.2,0.4,0.4,0.4h0c0.2,0,0.4-0.2,0.4-0.4l0-0.5l0.2,0c0.3,0,0.6-0.1,0.8-0.3c0.2-0.2,0.4-0.5,0.4-0.8l0-0.9
		c0-0.6-0.6-1.1-1.2-1.1h0l-1.1,0h0c-0.3,0-0.5-0.2-0.5-0.4l0-0.9c0-0.2,0.2-0.4,0.5-0.4l1.1,0h0c0.3,0,0.5,0.2,0.5,0.4
		c0,0.2,0.2,0.4,0.4,0.4h0c0.2,0,0.4-0.2,0.4-0.4c0-0.6-0.6-1.1-1.2-1.1h0l-0.2,0l0-0.5c0-0.2-0.2-0.4-0.4-0.4
		c-0.2,0-0.4,0.2-0.4,0.4l0,0.5l-0.2,0C86.5,123.4,85.9,123.9,85.9,124.5L85.9,124.5z M80.8,124.2c-0.2,0-0.4,0.2-0.4,0.4v6.9
		c0,0.3,0.3,0.6,0.6,0.6h13.3c0.3,0,0.6-0.3,0.6-0.6v-6.9c0-0.2-0.2-0.4-0.4-0.4c-0.2,0-0.4,0.2-0.4,0.4v6.8H81.2v-6.8
		C81.2,124.3,81,124.2,80.8,124.2z M99.4,107.6c-0.1,0-0.2,0-0.3,0c-1.3-0.2-2.2-1.2-2.5-2.3l-8.6,1.5l3.7,11.3
		c0.1,0.2,0,0.4-0.2,0.5c0,0-0.1,0-0.1,0c-0.2,0-0.3-0.1-0.3-0.3l-3.5-10.6l-3.1,10.6c0,0.2-0.2,0.3-0.4,0.3c0,0-0.1,0-0.1,0
		c-0.2-0.1-0.3-0.3-0.2-0.5l3.4-11.5c0.1-0.2,0.3-0.4,0.5-0.5l8.8-1.5c0-0.3,0-0.5,0-0.8c0.2-0.9,0.7-1.6,1.4-2.1
		c0.7-0.5,1.6-0.7,2.5-0.5c0.9,0.2,1.6,0.7,2.1,1.4c0.2,0.3,0.3,0.6,0.4,0.9l8.9-1.5c0.2,0,0.3,0,0.4,0.1h0c0.1,0.1,0.2,0.2,0.3,0.4
		l3.4,11.6c0.1,0.2-0.1,0.4-0.2,0.5c0,0-0.1,0-0.1,0c-0.2,0-0.3-0.1-0.4-0.3l-3.1-10.7l-3.4,10.7c0,0.2-0.2,0.3-0.3,0.3
		c0,0-0.1,0-0.1,0c-0.2-0.1-0.3-0.3-0.2-0.5l3.6-11.2l-8.6,1.5c0,0.3,0,0.5,0,0.8c-0.3,1.4-1.4,2.4-2.8,2.6 M99.2,106.9
		c1.4,0.3,2.7-0.7,3-2c0.1-0.7,0-1.3-0.4-1.9c-0.4-0.6-1-0.9-1.6-1.1c-0.2,0-0.3,0-0.5,0c-0.5,0-1,0.2-1.4,0.4
		c-0.6,0.4-0.9,1-1.1,1.6C96.9,105.3,97.8,106.6,99.2,106.9z M120.5,120.1c0.1,0,0.2-0.1,0.3-0.1c0.1-0.2,0.1-0.4-0.1-0.5l-8.4-6.2
		c-0.2-0.2-0.5-0.2-0.7,0l-8.4,6.2c-0.2,0.1-0.2,0.3-0.1,0.5c0.1,0.2,0.3,0.2,0.5,0.1l8.4-6.2l8.4,6.2
		C120.4,120,120.5,120.1,120.5,120.1L120.5,120.1z M110.2,120.4l0,0.9c0,0.6,0.6,1.1,1.2,1.1l1.1,0h0c0.3,0,0.5,0.2,0.5,0.4l0,0.9
		c0,0.1-0.1,0.2-0.1,0.2c-0.1,0.1-0.2,0.1-0.4,0.1l-0.5,0c0,0,0,0,0,0h0c0,0,0,0,0,0l-0.5,0h0c-0.3,0-0.5-0.2-0.5-0.4v0
		c0-0.2-0.2-0.4-0.4-0.4c-0.2,0-0.4,0.2-0.4,0.4v0c0,0.6,0.6,1.1,1.2,1.1h0.2l0,0.5c0,0.2,0.2,0.4,0.4,0.4h0c0.2,0,0.4-0.2,0.4-0.4
		l0-0.5h0.2c0.3,0,0.6-0.1,0.8-0.3c0.2-0.2,0.4-0.5,0.4-0.8l0-0.9c0-0.6-0.6-1.1-1.2-1.1h0l-1.1,0c-0.3,0-0.5-0.2-0.5-0.4l0-0.9
		c0-0.2,0.2-0.4,0.5-0.4l1.1,0h0c0.3,0,0.5,0.2,0.5,0.4c0,0.2,0.2,0.4,0.4,0.4h0c0.2,0,0.4-0.2,0.4-0.4c0-0.6-0.6-1.1-1.2-1.1h0
		l-0.2,0l0-0.5c0-0.2-0.2-0.4-0.4-0.4s-0.4,0.2-0.4,0.4l0,0.5l-0.2,0C110.7,119.3,110.2,119.8,110.2,120.4L110.2,120.4z
		 M119.2,127.4v-6.9c0-0.2-0.2-0.4-0.4-0.4c-0.2,0-0.4,0.2-0.4,0.4v6.8h-13.1v-6.8c0-0.2-0.2-0.4-0.4-0.4c-0.2,0-0.4,0.2-0.4,0.4
		v6.9c0,0.3,0.3,0.6,0.6,0.6h13.3C118.9,128,119.2,127.7,119.2,127.4L119.2,127.4z"/>
</g>
</svg>
