<?xml version="1.0" encoding="utf-8"?>
<!-- Generator: Adobe Illustrator 23.1.0, SVG Export Plug-In . SVG Version: 6.00 Build 0)  -->
<svg version="1.1" id="Layer_1" xmlns="http://www.w3.org/2000/svg" xmlns:xlink="http://www.w3.org/1999/xlink" x="0px" y="0px"
	 viewBox="0 0 150 150" style="enable-background:new 0 0 150 150;" xml:space="preserve">
<style type="text/css">
	.st0{fill:#10579F;}
	.st1{fill:#DDDDDD;}
	.st2{fill:url(#SVGID_1_);}
	.st3{fill:url(#SVGID_2_);}
	.st4{fill:url(#SVGID_3_);}
</style>
<path class="st0" d="M9.6,96.2c0.9,0,1.6-0.7,1.6-1.6v-0.7c0-0.9-0.7-1.6-1.6-1.6C8.7,92.3,8,93,8,93.9v0.7
	C8,95.5,8.7,96.2,9.6,96.2z"/>
<path class="st0" d="M8,123.5c0,0.9,0.7,1.6,1.6,1.6c0.9,0,1.6-0.7,1.6-1.6v-23.3c0-0.9-0.7-1.6-1.6-1.6c-0.9,0-1.6,0.7-1.6,1.6
	V123.5z"/>
<path class="st0" d="M103.6,26.7c-0.7-0.6-1.7-0.5-2.3,0.1c-0.6,0.7-0.5,1.7,0.1,2.3l18.6,16.3c0.7,0.6,1.7,0.5,2.3-0.1
	c0.6-0.7,0.5-1.7-0.1-2.3L103.6,26.7z"/>
<path class="st0" d="M97.1,21c-0.7-0.6-1.7-0.5-2.3,0.2c-0.6,0.7-0.5,1.7,0.2,2.3l1.2,1c0.7,0.6,1.7,0.5,2.3-0.2
	c0.6-0.7,0.5-1.7-0.2-2.3L97.1,21z"/>
<path class="st0" d="M121.8,87.7v-4.8h1.9c0.9,0,1.6-0.7,1.6-1.6c0-0.9-0.7-1.6-1.6-1.6h-2.9V68.6h4.9c4.5,0,6.7-5.6,3.3-8.6
	L71.8,9.8c-1.8-1.6-4.6-1.6-6.5,0l-24,21.1v-6.3h2.3c1.4,0,2.5-1.1,2.5-2.5v-7.5c0-1.4-1.1-2.6-2.5-2.6H18.3c-1.4,0-2.5,1.1-2.5,2.6
	V22c0,1.4,1.1,2.5,2.5,2.5h2.3V49L8.1,59.9c-3.4,3-1.3,8.6,3.3,8.6h4.9v69.5c-1.7,0-3.4,0.1-5.1,0.1c-0.9,0-1.6,0.8-1.6,1.6
	c0,0.9,0.7,1.6,1.6,1.6h0c1,0,105.4,0,105.4,0c14.9-0.1,26.9-12.2,26.9-27.1C143.6,101.2,134.2,90.2,121.8,87.7z M19,21.4v-6.2h23.8
	v6.2H19z M38,24.6v9.1L23.8,46.2V24.6H38z M11.4,65.4c-1.6,0-2.3-2-1.1-3l57.1-50.2c0.7-0.6,1.6-0.6,2.3,0l57.2,50.2
	c1.2,1,0.5,3-1.1,3H11.4z M69.4,138H36.8V89.8c0-1.3,1.1-2.4,2.4-2.4H67c1.3,0,2.4,1.1,2.4,2.4V138z M72.6,138V89.8
	c0-3.1-2.5-5.6-5.6-5.6H39.2c-3.1,0-5.7,2.5-5.7,5.6V138H19.5V68.6h98.1v11.1h-8.5c-0.9,0-1.6,0.7-1.6,1.6c0,0.9,0.7,1.6,1.6,1.6
	h1.9v4.8c-12.4,2.5-21.7,13.7-21.7,26.6v0c0,10.1,5.8,19.1,14.2,23.7H72.6z M118.6,82.9v4.3c-1.2-0.1-3.1-0.1-4.4,0v-4.3H118.6z
	 M116.5,138.2c-13.4,0-23.9-11-23.9-23.9c0-13.1,10.8-24.1,24.3-23.9c12.9,0.2,23.5,10.7,23.5,23.9
	C140.4,127.5,129.6,138.2,116.5,138.2z"/>
<path class="st1" d="M118.6,82.9v4.3c-1.2-0.1-3.1-0.1-4.4,0v-4.3H118.6z"/>
<linearGradient id="SVGID_1_" gradientUnits="userSpaceOnUse" x1="30.8828" y1="136.8201" x2="30.8828" y2="130.6272" gradientTransform="matrix(1 0 0 -1 0 152)">
	<stop  offset="0" style="stop-color:#DDDDDD;stop-opacity:0"/>
	<stop  offset="1" style="stop-color:#DDDDDD"/>
</linearGradient>
<path class="st2" d="M19,15.2h23.8v6.2H19V15.2z"/>
<linearGradient id="SVGID_2_" gradientUnits="userSpaceOnUse" x1="30.8937" y1="127.413" x2="30.8937" y2="105.8129" gradientTransform="matrix(1 0 0 -1 0 152)">
	<stop  offset="0" style="stop-color:#DDDDDD;stop-opacity:0"/>
	<stop  offset="1" style="stop-color:#DDDDDD"/>
</linearGradient>
<path class="st3" d="M38,24.6v9.1L23.8,46.2V24.6H38z"/>
<linearGradient id="SVGID_3_" gradientUnits="userSpaceOnUse" x1="53.0722" y1="64.6488" x2="53.0722" y2="13.97" gradientTransform="matrix(1 0 0 -1 0 152)">
	<stop  offset="0" style="stop-color:#DDDDDD;stop-opacity:0"/>
	<stop  offset="1" style="stop-color:#DDDDDD"/>
</linearGradient>
<path class="st4" d="M67,87.4H39.2c-1.3,0-2.4,1.1-2.4,2.4V138h32.6V89.8C69.4,88.4,68.3,87.4,67,87.4z M62.9,114.4h-2.2
	c-0.9,0-1.6-0.7-1.6-1.6c0-0.9,0.7-1.6,1.6-1.6h2.2c0.9,0,1.6,0.7,1.6,1.6C64.5,113.7,63.8,114.4,62.9,114.4z"/>
<path class="st0" d="M68.5,31.3c-6.9,0-12.5,5.6-12.5,12.5c0,6.9,5.6,12.4,12.5,12.4c6.9,0,12.4-5.6,12.4-12.4
	C81,36.9,75.4,31.3,68.5,31.3z M68.5,53c-5.1,0-9.3-4.1-9.3-9.2c0-5.1,4.2-9.3,9.3-9.3c5.1,0,9.2,4.2,9.2,9.3
	C77.8,48.8,73.6,53,68.5,53z"/>
<path class="st1" d="M77.8,43.7c0,5.1-4.1,9.2-9.2,9.2c-5.1,0-9.3-4.1-9.3-9.2c0-5.1,4.2-9.3,9.3-9.3C73.6,34.5,77.8,38.6,77.8,43.7
	z"/>
<path class="st0" d="M64.5,112.8c0,0.9-0.7,1.6-1.6,1.6h-2.2c-0.9,0-1.6-0.7-1.6-1.6c0-0.9,0.7-1.6,1.6-1.6h2.2
	C63.8,111.2,64.5,111.9,64.5,112.8z"/>
<path class="st0" d="M95.7,89.3c0.3,0,0.7-0.1,1-0.3c0.2-0.2,0.5-0.4,0.8-0.6c0.7-0.5,0.9-1.5,0.4-2.2c-0.5-0.7-1.5-0.9-2.2-0.4
	c-0.3,0.2-0.6,0.4-0.8,0.6C94,87,93.9,88,94.4,88.7C94.7,89.1,95.2,89.3,95.7,89.3z"/>
<path class="st0" d="M83.1,108.8c0.1,0,0.2,0,0.3,0c0.7,0,1.4-0.5,1.6-1.3c1.2-5.7,4-10.9,7.9-15.2c0.6-0.6,0.6-1.7-0.1-2.3
	c-0.6-0.6-1.7-0.6-2.3,0.1c-4.4,4.7-7.4,10.5-8.7,16.7C81.6,107.7,82.2,108.6,83.1,108.8z"/>
<path class="st0" d="M116.5,96.1c-0.9,0-1.6,0.7-1.6,1.6s0.7,1.6,1.6,1.6c8.3,0,15,6.7,15,15c0,8.3-6.7,15-15,15
	c-5.3,0-10.1-2.7-12.8-7.2c-0.5-0.8-1.5-1-2.2-0.5c-0.8,0.5-1,1.5-0.5,2.2c3.3,5.5,9.2,8.8,15.6,8.8c10,0,18.2-8.2,18.2-18.2
	C134.7,104.2,126.5,96.1,116.5,96.1z"/>
<path class="st0" d="M118,111.6v-6.5c0-0.9-0.7-1.6-1.6-1.6c-0.9,0-1.6,0.7-1.6,1.6v6.5c-2.3,0.7-3.9,2.8-3.9,5.3
	c0,3.1,2.5,5.5,5.6,5.5c3.1,0,5.6-2.5,5.6-5.5C122,114.4,120.3,112.3,118,111.6z M116.4,119.2c-1.3,0-2.3-1.1-2.3-2.3
	c0-1.3,1.1-2.4,2.3-2.4c1.3,0,2.4,1.1,2.4,2.4C118.8,118.2,117.7,119.2,116.4,119.2z"/>
<path class="st1" d="M118.8,116.9c0,1.3-1.1,2.3-2.4,2.3c-1.3,0-2.3-1.1-2.3-2.3c0-1.3,1.1-2.4,2.3-2.4
	C117.7,114.5,118.8,115.6,118.8,116.9z"/>
</svg>
