<?xml version="1.0" encoding="utf-8"?>
<!-- Generator: Adobe Illustrator 23.1.0, SVG Export Plug-In . SVG Version: 6.00 Build 0)  -->
<svg version="1.1" id="Layer_1" xmlns="http://www.w3.org/2000/svg" xmlns:xlink="http://www.w3.org/1999/xlink" x="0px" y="0px"
	 viewBox="0 0 150 150" style="enable-background:new 0 0 150 150;" xml:space="preserve">
<style type="text/css">
	.st0{fill:#10579F;}
	.st1{fill:url(#SVGID_1_);}
	.st2{fill:url(#SVGID_2_);}
	.st3{fill:url(#SVGID_3_);}
	.st4{fill:#DDDDDD;}
</style>
<path class="st0" d="M44.5,73.7H27.2c-0.9,0-1.6,0.7-1.6,1.6v17.5c0,0.9,0.7,1.6,1.6,1.6c0.9,0,1.6-0.7,1.6-1.6V76.9h15.6
	c0.9,0,1.6-0.7,1.6-1.6C46.1,74.4,45.3,73.7,44.5,73.7z"/>
<path class="st0" d="M27.2,97.9c-0.9,0-1.6,0.7-1.6,1.6v2.2c0,0.9,0.7,1.6,1.6,1.6c0.9,0,1.6-0.7,1.6-1.6v-2.2
	C28.8,98.7,28.1,97.9,27.2,97.9z"/>
<path class="st0" d="M100.7,21.6c-0.6,0.7-0.5,1.7,0.1,2.3l23.5,20.7c0.7,0.6,1.7,0.5,2.3-0.1c0.6-0.7,0.5-1.7-0.1-2.3l-23.5-20.7
	C102.3,20.8,101.3,20.9,100.7,21.6z"/>
<path class="st0" d="M94.6,16.2c-0.6,0.7-0.5,1.7,0.2,2.3l1,0.9c0.7,0.6,1.7,0.5,2.3-0.2c0.6-0.7,0.5-1.7-0.2-2.3l-1-0.9
	C96.2,15.5,95.2,15.6,94.6,16.2z"/>
<path class="st0" d="M71,29.9c-7.1,0-12.8,5.8-12.8,12.8c0,7.1,5.7,12.8,12.8,12.8c7,0,12.8-5.7,12.8-12.8
	C83.8,35.7,78.1,29.9,71,29.9z M71,52.3c-5.3,0-9.6-4.3-9.6-9.6c0-5.3,4.3-9.6,9.6-9.6c5.3,0,9.6,4.3,9.6,9.6
	C80.6,48,76.3,52.3,71,52.3z"/>
<path class="st0" d="M52.1,114c0,0.9-0.7,1.6-1.6,1.6h-2.3c-0.9,0-1.6-0.7-1.6-1.6c0-0.9,0.7-1.6,1.6-1.6h2.3
	C51.4,112.4,52.1,113.1,52.1,114z"/>
<path class="st0" d="M113.7,96.9H98c-0.9,0-1.6,0.7-1.6,1.6c0,0.9,0.7,1.6,1.6,1.6h15.6c0.9,0,1.6-0.7,1.6-1.6
	C115.3,97.6,114.5,96.9,113.7,96.9z"/>
<path class="st0" d="M92.5,96.9h-0.3c-0.9,0-1.6,0.7-1.6,1.6c0,0.9,0.7,1.6,1.6,1.6h0.3c0.9,0,1.6-0.7,1.6-1.6
	C94.1,97.6,93.4,96.9,92.5,96.9z"/>
<path class="st0" d="M139.3,105.4H125V68.3h5.1c4.7,0,6.8-5.8,3.3-8.9L74.3,7.7c-1.9-1.7-4.8-1.7-6.7,0L42.8,29.6v-6.7h2.4
	c1.4,0,2.6-1.2,2.6-2.6v-7.8c0-1.4-1.2-2.6-2.6-2.6h-26c-1.4,0-2.6,1.2-2.6,2.6v7.8c0,1.4,1.2,2.6,2.6,2.6h2.4v25.3L8.7,59.5
	c-3.5,3.1-1.3,8.9,3.3,8.9h5.1v72h-5.6c-0.9,0-1.6,0.7-1.6,1.6c0,0.9,0.7,1.6,1.6,1.6h0.1h127.7c2.1,0,3.7-1.7,3.7-3.8v-30.7
	C143,107.1,141.4,105.4,139.3,105.4z M19.8,19.7v-6.5h24.7v6.5H19.8z M39.6,22.9v9.5l-14.8,13V22.9H39.6z M12,65.1
	c-1.7,0-2.5-2.1-1.2-3.2l59-51.8c0.7-0.6,1.7-0.6,2.4,0l59.1,51.8c1.3,1.1,0.5,3.2-1.2,3.2H12z M38,90.3v50.1H20.3v-72h101.5v37.1
	H78.3V90.3c0-3.2-2.6-5.8-5.8-5.8H43.8C40.6,84.5,38,87.1,38,90.3z M75.1,105.5c-1.8,0.3-3.2,1.9-3.2,3.7c0,12.8,0,30.6,0,31.2H41.3
	V90.3c0-1.4,1.2-2.5,2.6-2.5h28.7c1.4,0,2.5,1.2,2.5,2.5V105.5L75.1,105.5z M139.8,139.8c0,0.3-0.2,0.5-0.5,0.5H75.6
	c-0.2,0-0.5-0.2-0.5-0.5v-30.7c0-0.3,0.3-0.5,0.5-0.5c1.2,0,46.5,0,63.8,0c0.3,0,0.5,0.2,0.5,0.5V139.8z"/>
<linearGradient id="SVGID_1_" gradientUnits="userSpaceOnUse" x1="58.1599" y1="64.2875" x2="58.1599" y2="11.637" gradientTransform="matrix(1 0 0 -1 0 152)">
	<stop  offset="0" style="stop-color:#DDDDDD;stop-opacity:0"/>
	<stop  offset="1" style="stop-color:#DDDDDD"/>
</linearGradient>
<path class="st1" d="M72.5,87.7H43.8c-1.4,0-2.6,1.2-2.6,2.5v50.1h30.6c-0.1-0.6,0-18.5,0-31.2c0-1.8,1.4-3.4,3.2-3.7V90.3
	C75.1,88.9,73.9,87.7,72.5,87.7z M50.5,115.6h-2.3c-0.9,0-1.6-0.7-1.6-1.6c0-0.9,0.7-1.6,1.6-1.6h2.3c0.9,0,1.6,0.7,1.6,1.6
	C52.1,114.9,51.4,115.6,50.5,115.6z"/>
<linearGradient id="SVGID_2_" gradientUnits="userSpaceOnUse" x1="32.1557" y1="138.8171" x2="32.1557" y2="132.3243" gradientTransform="matrix(1 0 0 -1 0 152)">
	<stop  offset="0" style="stop-color:#DDDDDD;stop-opacity:0"/>
	<stop  offset="1" style="stop-color:#DDDDDD"/>
</linearGradient>
<path class="st2" d="M19.8,13.2h24.7v6.5H19.8V13.2z"/>
<linearGradient id="SVGID_3_" gradientUnits="userSpaceOnUse" x1="32.167" y1="129.1089" x2="32.167" y2="106.6303" gradientTransform="matrix(1 0 0 -1 0 152)">
	<stop  offset="0" style="stop-color:#DDDDDD;stop-opacity:0"/>
	<stop  offset="1" style="stop-color:#DDDDDD"/>
</linearGradient>
<path class="st3" d="M39.6,22.9v9.5l-14.8,13V22.9H39.6z"/>
<path class="st4" d="M80.6,42.7c0,5.3-4.3,9.6-9.6,9.6c-5.3,0-9.6-4.3-9.6-9.6c0-5.3,4.3-9.6,9.6-9.6C76.3,33.1,80.6,37.4,80.6,42.7
	z"/>
<path class="st0" d="M88.3,118.8c-3.1,0-5.7,2.6-5.7,5.7c0,3.2,2.6,5.7,5.7,5.7c3.1,0,5.7-2.6,5.7-5.7
	C94,121.4,91.5,118.8,88.3,118.8z M88.3,127c-1.4,0-2.5-1.1-2.5-2.5c0-1.3,1.1-2.5,2.5-2.5c1.4,0,2.5,1.1,2.5,2.5
	C90.8,125.9,89.7,127,88.3,127z"/>
<path class="st4" d="M90.8,124.5c0,1.4-1.1,2.5-2.5,2.5c-1.4,0-2.5-1.1-2.5-2.5c0-1.3,1.1-2.5,2.5-2.5
	C89.7,122,90.8,123.1,90.8,124.5z"/>
<path class="st0" d="M126.5,118.8c-3.1,0-5.7,2.6-5.7,5.7c0,3.2,2.5,5.7,5.7,5.7c3.1,0,5.7-2.6,5.7-5.7
	C132.2,121.4,129.7,118.8,126.5,118.8z M126.5,127c-1.4,0-2.5-1.1-2.5-2.5c0-1.3,1.1-2.5,2.5-2.5c1.4,0,2.5,1.1,2.5,2.5
	C129,125.9,127.9,127,126.5,127z"/>
<path class="st4" d="M129,124.5c0,1.4-1.1,2.5-2.5,2.5c-1.4,0-2.5-1.1-2.5-2.5c0-1.3,1.1-2.5,2.5-2.5C127.9,122,129,123.1,129,124.5
	z"/>
<path class="st0" d="M107.4,117c1.6,0,2.9,1.3,2.9,2.9c0,0.9,0.7,1.6,1.6,1.6c0.9,0,1.6-0.7,1.6-1.6c0-2.8-1.9-5.2-4.5-5.9v-1.2
	c0-0.9-0.7-1.6-1.6-1.6c-0.9,0-1.6,0.7-1.6,1.6v1.2c-2.6,0.7-4.5,3.1-4.5,5.9c0,3.4,2.8,6.1,6.1,6.1c1.6,0,2.9,1.3,2.9,2.9
	c0,1.6-1.3,2.9-2.9,2.9c-1.6,0-2.9-1.3-2.9-2.9c0-0.9-0.7-1.6-1.6-1.6s-1.6,0.7-1.6,1.6c0,2.8,1.9,5.2,4.5,5.9v1.2
	c0,0.9,0.7,1.6,1.6,1.6c0.9,0,1.6-0.7,1.6-1.6v-1.2c2.6-0.7,4.5-3.1,4.5-5.9c0-3.4-2.8-6.1-6.1-6.1c-1.6,0-2.9-1.3-2.9-2.9
	C104.5,118.4,105.8,117,107.4,117z"/>
</svg>
