<svg width="112" height="123" viewBox="0 0 112 123" fill="none" xmlns="http://www.w3.org/2000/svg">
<g clip-path="url(#clip0_10_7)">
<path d="M40.95 10.96C41.47 10.81 42.01 10.73 42.57 10.73C43.34 10.73 44.07 10.88 44.75 11.15C45.45 11.43 46.08 11.84 46.61 12.34C47.14 12.85 47.57 13.45 47.86 14.13C48.14 14.78 48.3 15.5 48.3 16.24V18.81H58.79C61.33 15.14 65.38 10.92 68.16 8.03C69.05 7.1 69.82 6.3 70.34 5.73V5.72C70.35 5.7 70.37 5.68 70.39 5.67C71.43 4.37 72.55 3.52 73.65 3.04C74.92 2.48 76.18 2.41 77.28 2.7C77.72 2.82 78.14 2.99 78.52 3.22C78.91 3.45 79.27 3.73 79.59 4.06C79.91 4.38 80.19 4.75 80.43 5.16C80.66 5.56 80.85 6 80.98 6.46C81.29 7.55 81.31 8.78 80.94 10.06C80.62 11.18 80 12.33 79.01 13.43L78.98 13.46C78.84 13.62 78.58 13.9 78.24 14.3L77.76 14.85H77.97C78.18 14.85 78.39 14.86 78.6 14.88C78.79 14.9 78.99 14.92 79.18 14.95H101.12C101.82 14.95 102.5 15.11 103.12 15.39C103.75 15.68 104.33 16.11 104.8 16.65C105.27 17.18 105.66 17.81 105.92 18.51C106.17 19.18 106.31 19.92 106.31 20.68C106.31 21.25 106.23 21.81 106.08 22.35C106.01 22.61 105.92 22.86 105.82 23.1H106.02C106.73 23.1 107.4 23.26 108.02 23.54C108.65 23.83 109.23 24.27 109.7 24.8C110.17 25.33 110.55 25.96 110.81 26.66C111.06 27.33 111.2 28.07 111.2 28.83C111.2 29.59 111.06 30.33 110.81 31C110.55 31.7 110.17 32.33 109.7 32.86C109.22 33.39 108.65 33.82 108.02 34.12C107.4 34.41 106.73 34.56 106.02 34.56H105.84C105.95 34.81 106.04 35.07 106.12 35.33C106.28 35.88 106.36 36.45 106.36 37.03V37.04C106.36 37.8 106.22 38.54 105.97 39.21C105.71 39.91 105.33 40.54 104.86 41.07C104.38 41.6 103.81 42.04 103.18 42.33C102.56 42.62 101.89 42.77 101.18 42.77H100.73C100.83 43 100.91 43.25 100.97 43.49C101.11 44 101.18 44.55 101.18 45.1V45.12C101.18 45.88 101.04 46.6 100.79 47.27C100.53 47.97 100.15 48.6 99.68 49.13C99.2 49.66 98.63 50.09 98 50.39C97.38 50.68 96.71 50.83 96 50.83H95.18V67.54C98.85 70.26 103.07 74.6 105.97 77.58C106.89 78.53 107.68 79.34 108.27 79.91L108.29 79.92C108.31 79.94 108.32 79.95 108.34 79.97C109.63 81.08 110.47 82.27 110.95 83.44C111.5 84.79 111.57 86.12 111.28 87.29C111.16 87.75 110.99 88.2 110.77 88.61C110.54 89.03 110.26 89.41 109.94 89.75C109.61 90.1 109.24 90.4 108.84 90.64C108.44 90.88 108 91.08 107.53 91.23C106.44 91.56 105.19 91.58 103.91 91.19C102.78 90.84 101.62 90.17 100.51 89.1C100.35 88.95 100.05 88.66 99.67 88.3L99.13 87.79V88.04C99.13 88.26 99.12 88.48 99.1 88.71C99.08 88.91 99.06 89.11 99.03 89.33V112.1C99.03 112.84 98.87 113.56 98.59 114.21C98.3 114.89 97.87 115.49 97.34 116C96.81 116.51 96.18 116.92 95.48 117.19C94.8 117.46 94.07 117.61 93.3 117.61C92.72 117.61 92.16 117.52 91.63 117.37C91.37 117.29 91.12 117.2 90.88 117.09V117.34C90.88 118.08 90.72 118.8 90.44 119.45C90.15 120.13 89.72 120.73 89.19 121.24C88.66 121.75 88.03 122.16 87.33 122.43C86.65 122.7 85.92 122.85 85.15 122.85C84.38 122.85 83.65 122.7 82.97 122.43C82.27 122.15 81.64 121.74 81.11 121.24C80.58 120.73 80.15 120.13 79.86 119.45C79.58 118.8 79.42 118.08 79.42 117.34V117.12C79.19 117.23 78.94 117.32 78.7 117.4L78.66 117.42C78.11 117.59 77.53 117.67 76.95 117.67H76.94C76.17 117.67 75.44 117.52 74.76 117.25C74.06 116.97 73.43 116.56 72.9 116.06C72.37 115.55 71.94 114.95 71.65 114.27C71.37 113.62 71.21 112.9 71.21 112.16V111.65C70.98 111.75 70.74 111.84 70.49 111.91C69.97 112.06 69.43 112.14 68.87 112.14C68.1 112.14 67.37 111.99 66.69 111.72C65.99 111.44 65.36 111.03 64.83 110.53C64.3 110.02 63.87 109.42 63.58 108.74C63.3 108.09 63.14 107.37 63.14 106.63V104.06H52.66C50.12 107.73 46.07 111.95 43.29 114.84C42.39 115.77 41.63 116.57 41.11 117.14L41.05 117.21C40.01 118.5 38.9 119.34 37.8 119.83C36.53 120.39 35.27 120.46 34.17 120.17C33.73 120.05 33.31 119.88 32.93 119.65C32.54 119.42 32.18 119.14 31.86 118.81C31.55 118.5 31.28 118.14 31.05 117.74L31.03 117.7C30.8 117.3 30.62 116.86 30.48 116.4C30.17 115.31 30.15 114.08 30.52 112.8C30.84 111.68 31.46 110.53 32.45 109.43L32.48 109.4C32.62 109.24 32.88 108.96 33.22 108.56L33.7 108.01H33.49C33.28 108.01 33.07 108 32.86 107.98C32.67 107.96 32.47 107.94 32.28 107.91H10.08C9.38001 107.91 8.70001 107.75 8.08001 107.47C7.45001 107.18 6.87001 106.74 6.40001 106.21C5.93001 105.68 5.54001 105.05 5.29001 104.35C5.04001 103.68 4.90001 102.94 4.90001 102.18C4.90001 101.61 4.98001 101.05 5.13001 100.51C5.20001 100.25 5.29001 100 5.39001 99.76H5.19001C4.48001 99.76 3.81001 99.6 3.19001 99.32C2.56001 99.03 1.98001 98.59 1.51001 98.06C1.04001 97.53 0.660008 96.9 0.400008 96.2C0.140008 95.54 8.31112e-06 94.8 8.31112e-06 94.04C8.31112e-06 93.28 0.140008 92.54 0.390008 91.87C0.650008 91.17 1.03001 90.54 1.50001 90.01C1.98001 89.48 2.55001 89.05 3.18001 88.75C3.80001 88.46 4.47001 88.31 5.18001 88.31H5.36001C5.25001 88.06 5.16001 87.8 5.08001 87.54C4.92001 86.99 4.84001 86.42 4.84001 85.84V85.83C4.84001 85.07 4.98001 84.33 5.23001 83.66C5.49001 82.96 5.87001 82.33 6.34001 81.8C6.82001 81.27 7.39001 80.83 8.02001 80.54C8.64001 80.25 9.31001 80.1 10.02 80.1H10.47C10.38 79.87 10.3 79.64 10.23 79.4L10.22 79.38C10.08 78.87 10.01 78.32 10.01 77.77V77.75C10.01 76.99 10.15 76.27 10.4 75.6C10.66 74.9 11.04 74.27 11.51 73.74C11.99 73.21 12.56 72.77 13.19 72.48C13.81 72.19 14.48 72.04 15.19 72.04H16.26V55.33C12.59 52.61 8.37001 48.27 5.47001 45.29C4.54001 44.33 3.75001 43.52 3.16001 42.95L3.11001 42.9C1.82001 41.79 0.970008 40.6 0.490008 39.43C-0.0599917 38.08 -0.129992 36.75 0.160008 35.58C0.280008 35.12 0.450008 34.67 0.670008 34.26C0.900008 33.84 1.18001 33.46 1.50001 33.12C1.83001 32.77 2.20001 32.47 2.60001 32.23C3.00001 31.99 3.44001 31.79 3.91001 31.64C5.00001 31.31 6.25001 31.29 7.53001 31.68C8.66001 32.03 9.82001 32.7 10.93 33.77C11.09 33.92 11.39 34.21 11.77 34.57L12.31 35.08V34.83C12.31 34.61 12.32 34.39 12.34 34.16C12.36 33.96 12.38 33.76 12.41 33.54V10.76C12.41 10.02 12.57 9.3 12.85 8.65C13.14 7.97 13.57 7.37 14.1 6.86C14.63 6.35 15.26 5.94 15.96 5.67C16.64 5.4 17.37 5.25 18.14 5.25C18.72 5.25 19.28 5.34 19.81 5.49C20.07 5.57 20.32 5.66 20.56 5.77V5.51C20.56 4.77 20.72 4.05 21 3.4C21.29 2.72 21.72 2.12 22.25 1.61C22.78 1.1 23.41 0.69 24.11 0.42C24.79 0.15 25.53 0 26.3 0C27.07 0 27.8 0.15 28.48 0.42C29.18 0.7 29.81 1.11 30.34 1.61C30.87 2.12 31.3 2.72 31.59 3.4C31.87 4.05 32.03 4.77 32.03 5.51V5.73C32.28 5.62 32.53 5.52 32.79 5.44C33.34 5.27 33.92 5.18 34.5 5.18H34.51C35.28 5.18 36.01 5.33 36.69 5.6C37.39 5.88 38.02 6.29 38.55 6.79C39.08 7.3 39.51 7.9 39.8 8.58C40.08 9.23 40.24 9.95 40.24 10.69V11.2C40.46 11.12 40.7 11.03 40.95 10.96ZM20.14 56.76V72.04H32.25H32.26C32.34 72.04 32.42 72.05 32.5 72.06C32.54 72.07 32.58 72.07 32.61 72.08C32.73 72.07 32.86 72.06 32.99 72.05C33.16 72.04 33.33 72.03 33.48 72.03H40.19V55.51C40.19 52.93 40.27 52.88 41.04 52.39C41.36 52.19 41.86 51.87 42.64 50.85C43.37 49.91 43.94 48.85 44.34 47.71C44.72 46.61 44.92 45.43 44.92 44.21V34.82C44.92 34.74 44.92 34.67 44.91 34.59V16.25C44.91 15.96 44.85 15.68 44.75 15.43L44.74 15.41C44.62 15.14 44.45 14.89 44.23 14.68C44.02 14.48 43.77 14.31 43.49 14.2L43.47 14.19C43.2 14.08 42.89 14.02 42.57 14.02C42.25 14.02 41.95 14.08 41.67 14.19C41.38 14.3 41.12 14.47 40.91 14.68C40.69 14.89 40.52 15.13 40.4 15.4C40.29 15.66 40.23 15.94 40.23 16.24V26.04V26.09C40.23 26.37 40 26.6 39.72 26.6H37.35C37.07 26.6 36.84 26.37 36.84 26.09V10.71C36.84 10.41 36.78 10.13 36.67 9.87C36.55 9.6 36.38 9.35 36.16 9.15C35.94 8.94 35.69 8.77 35.4 8.66C35.13 8.55 34.82 8.49 34.5 8.49C34.18 8.49 33.88 8.55 33.6 8.66C33.31 8.77 33.05 8.94 32.84 9.15C32.62 9.36 32.45 9.6 32.33 9.87C32.22 10.13 32.16 10.41 32.16 10.71V26.09C32.16 26.37 31.93 26.6 31.65 26.6H29.14C28.86 26.6 28.63 26.37 28.63 26.09V5.52C28.63 5.23 28.57 4.95 28.47 4.7L28.46 4.68C28.34 4.41 28.17 4.16 27.95 3.96C27.73 3.75 27.47 3.58 27.19 3.47C26.92 3.36 26.61 3.3 26.29 3.3C25.98 3.3 25.68 3.36 25.42 3.46H25.4C25.11 3.57 24.85 3.74 24.64 3.95C24.42 4.16 24.25 4.4 24.13 4.67C24.02 4.93 23.96 5.21 23.96 5.51V26.09C23.96 26.37 23.73 26.6 23.45 26.6H21C20.72 26.6 20.49 26.37 20.49 26.09V10.76C20.49 10.46 20.43 10.18 20.32 9.92C20.2 9.65 20.02 9.4 19.81 9.2C19.59 8.99 19.34 8.82 19.05 8.71C18.78 8.6 18.47 8.54 18.15 8.54C17.83 8.54 17.53 8.6 17.25 8.71C16.97 8.82 16.72 8.98 16.51 9.18L16.49 9.2C16.27 9.41 16.1 9.65 15.98 9.93C15.87 10.19 15.81 10.47 15.81 10.77C15.81 14.49 15.79 18.66 15.78 22.82C15.76 26.49 15.75 30.15 15.75 34.83L15.47 39.35C15.46 39.53 15.35 39.7 15.18 39.78L14.28 40.2C14.2 40.24 14.12 40.27 14.02 40.27C13.86 40.27 13.7 40.25 13.54 40.2C13.38 40.15 13.23 40.09 13.1 40C12.8 39.83 12.42 39.56 12.02 39.24C11.6 38.9 11.17 38.53 10.75 38.16C9.86001 37.36 8.93001 36.47 8.58001 36.13C7.92001 35.5 7.27001 35.1 6.67001 34.88C6.03001 34.66 5.44001 34.64 4.95001 34.79C4.78001 34.84 4.61001 34.92 4.45001 35.02C4.29001 35.12 4.15001 35.23 4.02001 35.37C3.89001 35.5 3.78001 35.66 3.69001 35.82C3.60001 35.99 3.53001 36.17 3.48001 36.36C3.33001 36.95 3.39001 37.64 3.73001 38.38C4.04001 39.06 4.57001 39.76 5.38001 40.46L5.42001 40.49L5.51001 40.57L5.57001 40.63C5.90001 40.95 6.36001 41.41 6.94001 41.99C9.62001 44.67 14.64 49.68 18.5 52.5C18.54 52.53 18.58 52.56 18.62 52.6C18.89 52.91 19.12 53.24 19.33 53.59C19.54 53.94 19.71 54.31 19.85 54.69C19.96 55.02 20.05 55.35 20.1 55.7C20.15 56.03 20.17 56.38 20.16 56.75L20.14 56.76ZM44.05 54.28V72.16C45.45 72.37 46.78 72.81 48.01 73.45C49.37 74.16 50.61 75.13 51.68 76.28H63.34C63.58 74.92 64.01 73.61 64.62 72.4C65.33 70.98 66.27 69.7 67.4 68.59V50.72C66 50.51 64.67 50.07 63.44 49.43C62.07 48.72 60.84 47.75 59.77 46.6H48.1C47.86 47.96 47.43 49.27 46.82 50.48C46.12 51.88 45.17 53.17 44.05 54.28ZM63.14 88.06V80.15H52.8C50.36 80.15 50.32 80.07 49.85 79.29C49.66 78.97 49.37 78.48 48.42 77.69C47.54 76.96 46.56 76.39 45.5 76C44.48 75.62 43.38 75.42 42.25 75.42H33.48C33.41 75.42 33.34 75.42 33.26 75.43H15.21C14.94 75.43 14.69 75.49 14.45 75.6C14.2 75.72 13.98 75.89 13.79 76.1C13.6 76.32 13.44 76.58 13.33 76.86C13.23 77.14 13.17 77.44 13.17 77.77C13.17 78.09 13.23 78.4 13.33 78.68C13.44 78.97 13.6 79.23 13.79 79.45C13.98 79.66 14.2 79.83 14.45 79.95C14.68 80.06 14.94 80.12 15.21 80.12H25.28H25.33C25.61 80.12 25.84 80.35 25.84 80.63V83C25.84 83.28 25.61 83.51 25.33 83.51H10.03C9.76001 83.51 9.51001 83.57 9.27001 83.68C9.02001 83.8 8.79001 83.97 8.60001 84.18C8.41001 84.4 8.25001 84.66 8.14001 84.94C8.04001 85.22 7.98001 85.52 7.98001 85.85C7.98001 86.17 8.04001 86.48 8.14001 86.76C8.25001 87.05 8.41001 87.31 8.60001 87.53C8.79001 87.74 9.01001 87.91 9.27001 88.03C9.50001 88.14 9.76001 88.2 10.03 88.2H25.32C25.6 88.2 25.83 88.43 25.83 88.71V91.22C25.83 91.5 25.6 91.73 25.32 91.73H5.18001C4.91001 91.73 4.66001 91.79 4.42001 91.9C4.17001 92.02 3.94001 92.19 3.76001 92.4C3.57001 92.62 3.41001 92.88 3.30001 93.17C3.20001 93.45 3.14001 93.75 3.14001 94.08C3.14001 94.41 3.20001 94.71 3.30001 94.99C3.40001 95.27 3.55001 95.52 3.74001 95.73L3.76001 95.75C3.95001 95.96 4.18001 96.13 4.43001 96.25C4.66001 96.36 4.92001 96.42 5.19001 96.42H25.33C25.61 96.42 25.84 96.65 25.84 96.93V99.38C25.84 99.66 25.61 99.89 25.33 99.89H10.08C9.81001 99.89 9.56001 99.95 9.32001 100.06C9.08001 100.17 8.86001 100.33 8.68001 100.53L8.66001 100.56C8.47001 100.78 8.31001 101.04 8.20001 101.32C8.10001 101.6 8.04001 101.9 8.04001 102.23C8.04001 102.55 8.10001 102.86 8.20001 103.14C8.31001 103.43 8.46001 103.69 8.66001 103.91C8.84001 104.12 9.06001 104.28 9.30001 104.4L9.32001 104.41C9.55001 104.52 9.81001 104.58 10.08 104.58C13.54 104.58 17.67 104.6 21.8 104.61C25.44 104.63 29.08 104.64 33.48 104.64L37.7 104.92C37.88 104.93 38.05 105.04 38.13 105.22L38.53 106.12C38.57 106.19 38.59 106.27 38.59 106.36C38.59 106.52 38.57 106.68 38.53 106.83C38.49 106.97 38.43 107.11 38.35 107.25C38.19 107.56 37.93 107.94 37.63 108.35C37.34 108.73 36.99 109.17 36.61 109.62C35.87 110.5 35.08 111.39 34.75 111.76L34.72 111.8C34.13 112.46 33.75 113.11 33.56 113.71C33.35 114.36 33.34 114.95 33.48 115.45C33.53 115.63 33.6 115.8 33.69 115.95C33.78 116.11 33.89 116.25 34.02 116.38C34.14 116.51 34.28 116.61 34.44 116.7C34.59 116.79 34.76 116.86 34.93 116.9C35.46 117.04 36.1 116.98 36.77 116.66C37.39 116.36 38.05 115.83 38.69 115.03L38.72 114.98L38.8 114.89L38.87 114.81C39.21 114.44 39.62 114 40.12 113.46C42.62 110.78 47.3 105.76 49.94 101.9C49.97 101.86 50 101.82 50.04 101.78C50.33 101.52 50.64 101.27 50.97 101.06C51.3 100.85 51.64 100.67 52.01 100.54C52.32 100.43 52.63 100.34 52.97 100.29C53.29 100.24 53.62 100.22 53.96 100.23H63.16V89.41V89.4C63.16 89.32 63.17 89.24 63.18 89.16C63.19 89.12 63.2 89.07 63.2 89.03C63.19 88.9 63.17 88.76 63.17 88.61C63.14 88.39 63.14 88.22 63.14 88.06ZM48.31 34.82V42.73H58.65C61.09 42.73 61.13 42.81 61.6 43.59C61.79 43.91 62.08 44.4 63.03 45.19C63.91 45.92 64.89 46.49 65.95 46.88C66.97 47.26 68.07 47.46 69.2 47.46H77.97C78.04 47.46 78.11 47.46 78.19 47.45H95.99C96.26 47.45 96.51 47.39 96.75 47.28C97 47.16 97.22 46.99 97.42 46.78C97.61 46.56 97.77 46.3 97.88 46.02C97.98 45.74 98.04 45.44 98.04 45.11C98.04 44.79 97.98 44.48 97.88 44.2C97.77 43.91 97.61 43.65 97.42 43.43C97.23 43.22 97.01 43.05 96.76 42.93C96.53 42.82 96.27 42.76 96 42.76H86.18H86.13C85.85 42.76 85.62 42.53 85.62 42.25V39.88C85.62 39.6 85.85 39.37 86.13 39.37H101.18C101.45 39.37 101.7 39.31 101.94 39.2C102.18 39.09 102.4 38.93 102.58 38.73L102.6 38.7C102.79 38.48 102.95 38.22 103.06 37.94C103.16 37.66 103.22 37.36 103.22 37.03C103.22 36.71 103.16 36.4 103.06 36.12C102.95 35.83 102.79 35.57 102.6 35.35C102.41 35.14 102.19 34.97 101.93 34.85C101.7 34.74 101.44 34.68 101.17 34.68H86.12C85.84 34.68 85.61 34.45 85.61 34.17V31.66C85.61 31.38 85.84 31.15 86.12 31.15H106.02C106.29 31.15 106.54 31.09 106.78 30.98C107.03 30.86 107.26 30.69 107.45 30.48C107.64 30.26 107.8 30 107.91 29.72C108.01 29.44 108.07 29.14 108.07 28.81C108.07 28.49 108.01 28.18 107.91 27.9C107.81 27.62 107.66 27.37 107.47 27.16L107.45 27.14C107.26 26.93 107.03 26.76 106.79 26.64C106.56 26.53 106.3 26.47 106.03 26.47H86.13C85.85 26.47 85.62 26.24 85.62 25.96V23.51C85.62 23.23 85.85 23 86.13 23H101.13C101.4 23 101.65 22.94 101.89 22.83C102.14 22.71 102.37 22.54 102.56 22.33C102.75 22.11 102.91 21.85 103.02 21.57C103.12 21.29 103.18 20.99 103.18 20.66C103.18 20.34 103.12 20.03 103.02 19.75C102.91 19.46 102.76 19.2 102.56 18.98C102.37 18.77 102.14 18.6 101.89 18.48C101.66 18.37 101.4 18.31 101.13 18.31C97.67 18.31 93.6 18.29 89.54 18.28C85.96 18.27 82.38 18.25 77.99 18.25L73.75 18C73.57 17.99 73.4 17.88 73.32 17.7L72.92 16.8C72.88 16.73 72.86 16.65 72.86 16.56C72.86 16.4 72.88 16.24 72.92 16.09C72.96 15.95 73.02 15.81 73.1 15.67C73.26 15.36 73.52 14.98 73.82 14.57C74.11 14.19 74.46 13.75 74.84 13.3C75.57 12.43 76.36 11.55 76.7 11.17L76.74 11.12C77.33 10.46 77.71 9.81 77.9 9.21C78.11 8.56 78.12 7.97 77.98 7.47C77.93 7.29 77.86 7.12 77.77 6.97C77.68 6.81 77.57 6.67 77.44 6.54C77.32 6.41 77.18 6.31 77.02 6.22C76.87 6.12 76.7 6.05 76.53 6C76 5.86 75.36 5.92 74.69 6.24C74.07 6.54 73.41 7.07 72.77 7.87L72.74 7.92L72.66 8.01L72.57 8.1C72.23 8.47 71.82 8.91 71.32 9.45C68.82 12.13 64.14 17.15 61.5 21.01C61.47 21.05 61.44 21.09 61.4 21.13C61.11 21.39 60.8 21.63 60.47 21.85C60.14 22.06 59.8 22.24 59.43 22.37C59.12 22.48 58.81 22.57 58.47 22.62C58.15 22.67 57.82 22.69 57.48 22.68H48.28V33.5V33.51C48.28 33.59 48.27 33.67 48.26 33.75C48.25 33.79 48.24 33.84 48.24 33.88C48.25 34.01 48.27 34.15 48.27 34.3C48.3 34.49 48.31 34.66 48.31 34.82ZM77.96 50.85H71.25V67.38C71.25 69.96 71.17 70.01 70.4 70.5C70.08 70.7 69.58 71.02 68.8 72.04C68.07 72.98 67.5 74.04 67.1 75.18C66.72 76.28 66.52 77.46 66.52 78.68V88.07C66.52 88.15 66.52 88.22 66.53 88.3V106.64C66.53 106.93 66.59 107.2 66.69 107.45L66.7 107.47C66.82 107.74 66.99 107.99 67.21 108.2C67.43 108.41 67.69 108.58 67.97 108.69C68.24 108.8 68.55 108.86 68.87 108.86C69.19 108.86 69.49 108.8 69.77 108.69C70.06 108.58 70.32 108.41 70.53 108.2C70.75 107.99 70.92 107.75 71.04 107.48C71.15 107.22 71.21 106.94 71.21 106.64V96.84V96.79C71.21 96.51 71.44 96.28 71.72 96.28H74.09C74.37 96.28 74.6 96.51 74.6 96.79V112.17C74.6 112.47 74.66 112.75 74.77 113.01C74.88 113.27 75.05 113.51 75.25 113.71L75.28 113.73C75.49 113.93 75.74 114.1 76.02 114.21L76.04 114.22C76.31 114.33 76.62 114.39 76.94 114.39C77.26 114.39 77.56 114.33 77.84 114.22C78.13 114.11 78.38 113.94 78.6 113.73C78.82 113.52 78.99 113.28 79.11 113.01C79.22 112.75 79.28 112.47 79.28 112.17V96.79C79.28 96.51 79.51 96.28 79.79 96.28H82.3C82.58 96.28 82.81 96.51 82.81 96.79V117.37C82.81 117.67 82.87 117.95 82.98 118.21C83.1 118.48 83.27 118.73 83.49 118.93C83.71 119.14 83.97 119.31 84.25 119.42C84.52 119.53 84.83 119.59 85.15 119.59C85.46 119.59 85.76 119.53 86.02 119.43L86.04 119.42C86.33 119.31 86.59 119.14 86.8 118.93C87.02 118.72 87.19 118.48 87.31 118.21C87.42 117.95 87.48 117.67 87.48 117.37V96.79C87.48 96.51 87.71 96.28 87.99 96.28H90.44C90.72 96.28 90.95 96.51 90.95 96.79V112.12C90.95 112.42 91.01 112.7 91.12 112.96C91.24 113.23 91.41 113.48 91.63 113.69C91.85 113.9 92.1 114.07 92.39 114.18C92.66 114.29 92.97 114.35 93.29 114.35C93.61 114.35 93.91 114.29 94.19 114.18C94.48 114.07 94.73 113.9 94.95 113.69C95.17 113.48 95.34 113.24 95.46 112.96C95.57 112.7 95.63 112.42 95.63 112.12C95.63 108.4 95.65 104.23 95.66 100.07C95.68 96.4 95.69 92.74 95.69 88.06L95.97 83.54C95.98 83.36 96.09 83.19 96.26 83.11L97.16 82.69C97.24 82.65 97.32 82.62 97.42 82.62C97.58 82.62 97.74 82.64 97.9 82.69C98.06 82.74 98.21 82.8 98.34 82.89C98.64 83.06 99.02 83.33 99.42 83.65C99.84 83.99 100.27 84.36 100.69 84.73C101.58 85.53 102.51 86.42 102.86 86.76C103.52 87.39 104.17 87.79 104.77 88.01C105.41 88.24 106 88.25 106.49 88.1C106.66 88.05 106.83 87.97 106.99 87.87C107.15 87.77 107.29 87.65 107.42 87.52C107.55 87.39 107.66 87.23 107.75 87.07C107.84 86.9 107.91 86.72 107.96 86.53C108.11 85.94 108.05 85.25 107.71 84.51C107.4 83.83 106.87 83.13 106.06 82.43L106.02 82.4L105.93 82.32L105.87 82.26C105.54 81.94 105.08 81.48 104.51 80.91C101.83 78.23 96.81 73.22 92.95 70.39C92.91 70.36 92.87 70.33 92.83 70.29C92.57 69.98 92.33 69.65 92.12 69.3C91.91 68.95 91.74 68.58 91.6 68.2C91.49 67.87 91.4 67.54 91.35 67.19C91.3 66.86 91.28 66.51 91.29 66.14V50.83H79.18H79.17C79.09 50.83 79.01 50.82 78.93 50.81C78.89 50.8 78.85 50.8 78.82 50.79C78.7 50.8 78.58 50.81 78.45 50.82H78.44C78.28 50.84 78.12 50.85 77.96 50.85Z" fill="#10579F"/>
</g>
<defs>
<clipPath id="clip0_10_7">
<rect width="111.44" height="122.88" fill="white"/>
</clipPath>
</defs>
</svg>
