<?xml version="1.0" encoding="utf-8"?>
<!-- Generator: Adobe Illustrator 23.0.0, SVG Export Plug-In . SVG Version: 6.00 Build 0)  -->
<svg version="1.1" xmlns="http://www.w3.org/2000/svg" xmlns:xlink="http://www.w3.org/1999/xlink" x="0px" y="0px"
	 viewBox="0 0 36 36" style="enable-background:new 0 0 36 36;" xml:space="preserve">
<style type="text/css">
	.st0{display:none;}
	.st1{display:inline;}
	.st2{fill:#0A66C2;}
	.st3{fill:#FFFFFF;}
	.st4{fill:#1877F2;}
	.st5{fill:#1DA1F2;}
	.st6{display:inline;fill:#1DA1F2;}
	.st7{fill:#EF0075;}
	.st8{fill:#E60019;}
	.st9{fill:none;}
	.st10{fill:#23A1C0;}
	.st11{display:inline;fill:#23A1C0;}
	.st12{fill:#CCCCCC;}
	.st13{fill-rule:evenodd;clip-rule:evenodd;fill:#4285F4;}
	.st14{fill-rule:evenodd;clip-rule:evenodd;fill:#34A853;}
	.st15{fill-rule:evenodd;clip-rule:evenodd;fill:#FBBC05;}
	.st16{fill-rule:evenodd;clip-rule:evenodd;fill:#EA4335;}
</style>
<g id="icon-linkedin" class="st0">
	<g class="st1">
		<circle id="Ellipse_32" class="st2" cx="18" cy="18" r="18"/>
		<path id="linkedin-in-brands" class="st3" d="M13.7,26.1h-3.5V14.7h3.5V26.1z M12,13.1c-1.1,0-2.1-0.9-2.1-2.1S10.8,9,11.9,9
			c1.1,0,2.1,0.9,2.1,2.1C14,12.2,13.1,13.1,12,13.1z M27,26.1h-3.5v-5.6c0-1.3,0-3-1.8-3c-1.8,0-2.1,1.4-2.1,2.9v5.7h-3.5V14.7h3.4
			v1.6h0c0.7-1.2,2-1.9,3.4-1.8c3.6,0,4.2,2.4,4.2,5.4L27,26.1L27,26.1z"/>
	</g>
</g>
<g id="icon-facebook" class="st0">
	<g id="Group_1" transform="translate(-508.27 -492.5)" class="st1">
		<path id="Path_1" class="st4" d="M544.3,510.5c0-10-8.1-18.1-18-18.1c-9.9,0-18,8.1-18,18.1c0,8.9,6.4,16.5,15.2,17.9v-12.7h-4.6
			v-5.2h4.6v-4c0-4.5,2.7-7,6.8-7c1.3,0,2.7,0.1,4,0.4v4.5H532c-1.4-0.2-2.7,0.8-2.9,2.2c0,0.2,0,0.4,0,0.6v3.4h5l-0.8,5.2h-4.2
			v12.7C537.8,527,544.3,519.4,544.3,510.5z"/>
	</g>
</g>
<g id="icon-twitter" class="st0">
	<g class="st1">
		<g id="Dark_Blue">
			<circle id="Ellipse_38" class="st5" cx="18.1" cy="17.9" r="18"/>
		</g>
		<g id="Logo__x2014__FIXED" transform="translate(35.357 45.132)">
			<path id="Path_6" class="st3" d="M-20.6-17.7c8,0,12.3-6.6,12.3-12.3c0-0.2,0-0.4,0-0.6c0.9-0.6,1.6-1.4,2.2-2.2
				c-0.8,0.3-1.6,0.6-2.5,0.7c0.9-0.5,1.6-1.4,1.9-2.4c-0.9,0.5-1.8,0.9-2.8,1.1c-1.6-1.7-4.4-1.8-6.1-0.2c-0.9,0.8-1.4,2-1.4,3.2
				c0,0.3,0,0.7,0.1,1c-3.5-0.2-6.7-1.8-8.9-4.5c-1.1,2-0.6,4.5,1.4,5.8c-0.7,0-1.4-0.2-2-0.5v0.1c0,2.1,1.5,3.8,3.5,4.3
				c-0.4,0.1-0.8,0.2-1.1,0.2c-0.3,0-0.5,0-0.8-0.1c0.6,1.8,2.2,3,4,3c-1.5,1.2-3.4,1.9-5.4,1.9c-0.3,0-0.7,0-1-0.1
				C-25.2-18.4-22.9-17.7-20.6-17.7"/>
		</g>
	</g>
</g>
<g id="icon-twitter_-_transparent" class="st0">
	<path class="st6" d="M18.1-0.1c-9.9,0-18,8.1-18,18c0,9.9,8.1,18,18,18c9.9,0,18-8.1,18-18C36.1,8,28-0.1,18.1-0.1z M27.1,14.5
		c0,0.2,0,0.4,0,0.6c0,5.7-4.4,12.3-12.3,12.3v0c-2.4,0-4.7-0.7-6.6-2c0.3,0,0.7,0.1,1,0.1c2,0,3.9-0.6,5.4-1.9c-1.9,0-3.5-1.2-4-3
		c0.3,0.1,0.5,0.1,0.8,0.1c0.4,0,0.8-0.1,1.1-0.2c-2-0.4-3.5-2.2-3.5-4.3v-0.1c0.6,0.3,1.3,0.5,2,0.5C9.1,15.5,8.5,13,9.6,11
		c2.2,2.7,5.5,4.4,8.9,4.5c-0.1-0.3-0.1-0.7-0.1-1c0-1.2,0.5-2.3,1.4-3.2c1.7-1.6,4.5-1.6,6.1,0.2c1-0.2,1.9-0.5,2.8-1.1
		c-0.3,1-1,1.9-1.9,2.4c0.9-0.1,1.7-0.3,2.5-0.7C28.7,13.1,28,13.9,27.1,14.5z"/>
</g>
<g id="icon-instagram" class="st0">
	<g class="st1">
		<g id="Facebook">
			<circle id="Ellipse_34" class="st7" cx="18" cy="18" r="18"/>
		</g>
		<g id="Group_4" transform="translate(-234.833 -234.833)">
			<path id="Path_2" class="st3" d="M253,243.7c3,0,3.4,0,4.6,0.1c0.7,0,1.4,0.1,2.1,0.4c1,0.4,1.8,1.2,2.1,2.1
				c0.2,0.7,0.4,1.4,0.4,2.1c0.1,1.2,0.1,1.6,0.1,4.6c0,3,0,3.4-0.1,4.6c0,0.7-0.1,1.4-0.4,2.1c-0.4,1-1.2,1.8-2.1,2.1
				c-0.7,0.2-1.4,0.4-2.1,0.4c-1.2,0.1-1.6,0.1-4.6,0.1s-3.4,0-4.6-0.1c-0.7,0-1.4-0.1-2.1-0.4c-1-0.4-1.8-1.2-2.1-2.1
				c-0.2-0.7-0.4-1.4-0.4-2.1c-0.1-1.2-0.1-1.6-0.1-4.6c0-3,0-3.4,0.1-4.6c0-0.7,0.1-1.4,0.4-2.1c0.4-1,1.2-1.8,2.1-2.1
				c0.7-0.2,1.4-0.4,2.1-0.4C249.6,243.7,250,243.7,253,243.7 M253,241.7c-3.1,0-3.5,0-4.7,0.1c-0.9,0-1.9,0.2-2.7,0.5
				c-1.5,0.6-2.7,1.8-3.3,3.3c-0.3,0.9-0.5,1.8-0.5,2.7c-0.1,1.2-0.1,1.6-0.1,4.7c0,3.1,0,3.5,0.1,4.7c0,0.9,0.2,1.9,0.5,2.7
				c0.6,1.5,1.8,2.7,3.3,3.3c0.9,0.3,1.8,0.5,2.7,0.5c1.2,0.1,1.6,0.1,4.7,0.1s3.5,0,4.7-0.1c0.9,0,1.9-0.2,2.7-0.5
				c1.5-0.6,2.7-1.8,3.3-3.3c0.3-0.9,0.5-1.8,0.5-2.7c0.1-1.2,0.1-1.6,0.1-4.7s0-3.5-0.1-4.7c0-0.9-0.2-1.9-0.5-2.7
				c-0.6-1.5-1.8-2.7-3.3-3.3c-0.9-0.3-1.8-0.5-2.7-0.5C256.5,241.7,256.1,241.7,253,241.7L253,241.7z"/>
			<path id="Path_3" class="st3" d="M253,247.1c-3.3,0-5.9,2.6-5.9,5.9c0,3.3,2.6,5.9,5.9,5.9s5.9-2.6,5.9-5.9
				C258.9,249.7,256.3,247.1,253,247.1L253,247.1z M253,256.8c-2.1,0-3.8-1.7-3.8-3.8c0-2.1,1.7-3.8,3.8-3.8c2.1,0,3.8,1.7,3.8,3.8
				c0,0,0,0,0,0C256.8,255.1,255.1,256.8,253,256.8L253,256.8z"/>
			<circle id="Ellipse_35" class="st3" cx="259.1" cy="247" r="1.3"/>
		</g>
	</g>
</g>
<g id="icon-instagram_-_transparent" class="st0">
	<g class="st1">
		<path class="st7" d="M18.2,14.3c-2.1,0-3.8,1.7-3.8,3.8c0,2.1,1.7,3.8,3.8,3.8v0c2.1,0,3.8-1.7,3.8-3.8c0,0,0,0,0,0
			C22,16.1,20.3,14.3,18.2,14.3z"/>
		<path class="st7" d="M27,11.5c-0.4-1-1.2-1.8-2.1-2.1C24.2,9.1,23.5,9,22.7,9c-1.2-0.1-1.6-0.1-4.6-0.1v0c-3,0-3.4,0-4.6,0.1
			c-0.7,0-1.4,0.1-2.1,0.4c-1,0.4-1.8,1.2-2.1,2.1C9.1,12.2,9,12.9,9,13.6c-0.1,1.2-0.1,1.6-0.1,4.6c0,3,0,3.4,0.1,4.6
			c0,0.7,0.1,1.4,0.4,2.1c0.4,1,1.2,1.8,2.1,2.1c0.7,0.2,1.4,0.4,2.1,0.4c1.2,0.1,1.6,0.1,4.6,0.1c3,0,3.4,0,4.6-0.1
			c0.7,0,1.4-0.1,2.1-0.4c1-0.4,1.8-1.2,2.1-2.1c0.2-0.7,0.4-1.4,0.4-2.1c0.1-1.2,0.1-1.6,0.1-4.6c0-3,0-3.4-0.1-4.6
			C27.4,12.9,27.2,12.2,27,11.5z M18.2,24.1c-3.3,0-5.9-2.6-5.9-5.9c0-3.3,2.6-5.9,5.9-5.9c3.3,0,5.9,2.6,5.9,5.9
			S21.4,24.1,18.2,24.1z M24.2,13.5c-0.7,0-1.3-0.6-1.3-1.3c0-0.7,0.6-1.3,1.3-1.3c0.7,0,1.3,0.6,1.3,1.3
			C25.6,12.9,25,13.5,24.2,13.5z"/>
		<path class="st7" d="M18,0C8.1,0,0,8.1,0,18c0,9.9,8.1,18,18,18s18-8.1,18-18C36,8.1,27.9,0,18,0z M29.4,22.8
			c0,0.9-0.2,1.9-0.5,2.7c-0.6,1.5-1.8,2.7-3.3,3.3c-0.9,0.3-1.8,0.5-2.7,0.5c-1.2,0.1-1.6,0.1-4.7,0.1c-3.1,0-3.5,0-4.7-0.1
			c-0.9,0-1.9-0.2-2.7-0.5c-1.5-0.6-2.7-1.8-3.3-3.3c-0.3-0.9-0.5-1.8-0.5-2.7c-0.1-1.2-0.1-1.6-0.1-4.7s0-3.5,0.1-4.7
			c0-0.9,0.2-1.9,0.5-2.7C8,9.2,9.2,8,10.8,7.5c0.9-0.3,1.8-0.5,2.7-0.5c1.2-0.1,1.6-0.1,4.7-0.1v0c3.1,0,3.5,0,4.7,0.1
			c0.9,0,1.9,0.2,2.7,0.5c1.5,0.6,2.7,1.8,3.3,3.3c0.3,0.9,0.5,1.8,0.5,2.7c0.1,1.2,0.1,1.6,0.1,4.7C29.5,21.2,29.5,21.6,29.4,22.8z
			"/>
	</g>
</g>
<g id="icon-pinterest" class="st0">
	<g id="art" class="st1">
		<g>
			<circle class="st3" cx="18" cy="18" r="18"/>
			<g>
				<path class="st8" d="M18,0C8.1,0,0,8.1,0,18c0,7.6,4.7,14.2,11.4,16.8c-0.2-1.4-0.3-3.6,0.1-5.2c0.3-1.4,2.1-8.9,2.1-8.9
					s-0.5-1.1-0.5-2.7c0-2.5,1.5-4.4,3.3-4.4c1.5,0,2.3,1.2,2.3,2.5c0,1.5-1,3.8-1.5,6c-0.4,1.8,0.9,3.3,2.7,3.3
					c3.2,0,5.7-3.4,5.7-8.2c0-4.3-3.1-7.3-7.5-7.3c-5.1,0-8.1,3.8-8.1,7.8c0,1.5,0.6,3.2,1.3,4.1c0.1,0.2,0.2,0.3,0.1,0.5
					c-0.1,0.6-0.4,1.8-0.5,2c-0.1,0.3-0.3,0.4-0.6,0.2c-2.3-1.1-3.7-4.3-3.7-7c0-5.7,4.1-10.9,11.9-10.9c6.2,0,11.1,4.4,11.1,10.4
					c0,6.2-3.9,11.2-9.3,11.2c-1.8,0-3.5-0.9-4.1-2.1c0,0-0.9,3.4-1.1,4.3c-0.4,1.6-1.5,3.5-2.2,4.7c1.7,0.5,3.5,0.8,5.3,0.8
					c9.9,0,18-8.1,18-18C36,8.1,27.9,0,18,0z"/>
			</g>
		</g>
	</g>
</g>
<g id="icon-pinterest_-_transparent" class="st0">
	<g class="st1">
		<path class="st9" d="M12.7,35l-0.1,0.1c0,0,0,0,0,0c0.7-1.2,1.8-3.1,2.2-4.7c0.2-0.8,1.1-4.3,1.1-4.3c0.6,1.1,2.3,2.1,4.1,2.1
			c5.4,0,9.3-5,9.3-11.2c0-6-4.9-10.4-11.1-10.4c-7.8,0-11.9,5.2-11.9,10.9c0,2.6,1.4,5.9,3.7,7c0.3,0.2,0.5,0.1,0.6-0.2
			c0.1-0.3,0.4-1.5,0.5-2c0-0.2,0-0.3-0.1-0.5c-0.7-0.9-1.3-2.6-1.3-4.1c0-4,3-7.8,8.1-7.8c4.4,0,7.5,3,7.5,7.3
			c0,4.9-2.5,8.2-5.7,8.2c-1.8,0-3.1-1.5-2.7-3.3c0.5-2.1,1.5-4.5,1.5-6c0-1.4-0.7-2.5-2.3-2.5c-1.8,0-3.3,1.9-3.3,4.4
			c0,1.6,0.5,2.7,0.5,2.7s-1.8,7.5-2.1,8.9c-0.3,1.5-0.2,3.6-0.1,5"/>
		<path class="st9" d="M11.4,34.7C11.4,34.7,11.4,34.7,11.4,34.7L11.4,34.7C11.4,34.7,11.4,34.7,11.4,34.7z"/>
		<path class="st8" d="M18,0C8.1,0,0,8.1,0,18c0,7.6,4.7,14.1,11.4,16.8l0,0c0,0,0,0,0,0c0,0,0,0,0,0l0-0.1l0,0
			c-0.2-1.4-0.3-3.5,0.1-5c0.3-1.4,2.1-8.9,2.1-8.9s-0.5-1.1-0.5-2.7c0-2.5,1.5-4.4,3.3-4.4c1.5,0,2.3,1.2,2.3,2.5
			c0,1.5-1,3.8-1.5,6c-0.4,1.8,0.9,3.3,2.7,3.3c3.2,0,5.7-3.4,5.7-8.2c0-4.3-3.1-7.3-7.5-7.3c-5.1,0-8.1,3.8-8.1,7.8
			c0,1.5,0.6,3.2,1.3,4.1c0.1,0.2,0.2,0.3,0.1,0.5c-0.1,0.6-0.4,1.8-0.5,2c-0.1,0.3-0.3,0.4-0.6,0.2c-2.3-1.1-3.7-4.3-3.7-7
			c0-5.7,4.1-10.9,11.9-10.9c6.2,0,11.1,4.4,11.1,10.4c0,6.2-3.9,11.2-9.3,11.2c-1.8,0-3.5-0.9-4.1-2.1c0,0-0.9,3.4-1.1,4.3
			c-0.4,1.6-1.5,3.5-2.2,4.7c0,0,0,0,0,0l0,0c0,0,0,0,0,0c1.7,0.5,3.5,0.8,5.4,0.8c9.9,0,18-8.1,18-18C36,8.1,27.9,0,18,0z"/>
		<line class="st3" x1="12.6" y1="35.2" x2="12.7" y2="35"/>
		<path class="st3" d="M11.4,34.6C11.4,34.6,11.4,34.7,11.4,34.6l0,0.1"/>
		<line class="st3" x1="11.4" y1="34.8" x2="11.5" y2="34.9"/>
		<line class="st3" x1="12.6" y1="35.3" x2="12.6" y2="35.2"/>
		<path class="st3" d="M11.4,34.6L11.4,34.6C11.4,34.7,11.4,34.6,11.4,34.6L11.4,34.6z"/>
		<line class="st3" x1="12.6" y1="35.2" x2="12.6" y2="35.2"/>
		<line class="st3" x1="11.4" y1="34.7" x2="11.4" y2="34.8"/>
	</g>
</g>
<g id="icon-email" class="st0">
	<g class="st1">
		<circle class="st10" cx="18.1" cy="18.1" r="18"/>
		<g>
			<path class="st3" d="M18.1,20.6c-0.3,0-0.8-0.2-1.3-0.5c-0.3-0.2-0.7-0.4-1.2-0.9L15.2,19c-3.2-2.3-5.4-4-6.5-4.8L8.4,14
				c-0.2-0.2-0.4-0.4-0.4-0.7v-0.7c0-0.5,0.2-1,0.5-1.3s0.8-0.5,1.3-0.5h16.3c0.5,0,1,0.2,1.3,0.5c0.4,0.4,0.5,0.8,0.5,1.3v0.7
				c0,0.3-0.1,0.6-0.4,0.7l-0.2,0.2c-1.1,0.9-3.3,2.5-6.6,4.9l-0.4,0.3c-0.5,0.4-0.9,0.7-1.2,0.9C18.8,20.5,18.4,20.6,18.1,20.6z
				 M27.7,15.6c-0.9,0.7-2.9,2.2-6,4.4l-0.4,0.3c-0.6,0.5-1.1,0.8-1.5,1c-0.6,0.4-1.2,0.5-1.7,0.5c-0.5,0-1.1-0.2-1.7-0.5
				c-0.4-0.2-0.9-0.5-1.5-1L14.5,20c-3.2-2.3-5.2-3.8-6-4.4c-0.1-0.1-0.2-0.1-0.3,0s-0.1,0.1-0.1,0.2v8c0,0.5,0.2,1,0.5,1.3
				c0.4,0.4,0.8,0.5,1.3,0.5h16.3c0.5,0,1-0.2,1.3-0.5c0.4-0.4,0.5-0.8,0.5-1.3v-8c0-0.1,0-0.2-0.1-0.2
				C27.8,15.5,27.7,15.5,27.7,15.6z"/>
		</g>
	</g>
</g>
<g id="icon-email_-_transparent" class="st0">
	<path class="st11" d="M18.1,0.1c-9.9,0-18,8.1-18,18c0,9.9,8.1,18,18,18s18-8.1,18-18C36.1,8.2,28,0.1,18.1,0.1z M28.1,23.8
		c0,0.5-0.2,1-0.5,1.3c-0.4,0.4-0.8,0.5-1.3,0.5H9.9c-0.5,0-1-0.2-1.3-0.5c-0.4-0.4-0.5-0.8-0.5-1.3v-8c0-0.1,0-0.2,0.1-0.2
		s0.2,0,0.3,0c0.9,0.7,2.9,2.1,6,4.4l0.4,0.4c0.6,0.5,1.1,0.8,1.5,1c0.6,0.3,1.2,0.5,1.7,0.5c0.5,0,1.1-0.2,1.7-0.5
		c0.4-0.2,0.9-0.5,1.5-1l0.4-0.3c3.1-2.2,5.1-3.7,6-4.4c0.1-0.1,0.2-0.1,0.3,0c0.1,0.1,0.1,0.1,0.1,0.2V23.8z M28.1,13.3
		c0,0.3-0.1,0.6-0.4,0.7l-0.2,0.2c-1.1,0.9-3.3,2.5-6.6,4.9l-0.4,0.3c-0.5,0.4-0.9,0.7-1.2,0.9c-0.5,0.3-0.9,0.5-1.3,0.5
		c-0.3,0-0.8-0.2-1.3-0.5c-0.3-0.2-0.7-0.4-1.2-0.9L15.2,19c-3.2-2.3-5.4-4-6.5-4.8L8.4,14c-0.2-0.2-0.4-0.4-0.4-0.7v-0.7
		c0-0.5,0.2-1,0.5-1.3s0.8-0.5,1.3-0.5h16.3c0.5,0,1,0.2,1.3,0.5c0.4,0.4,0.5,0.8,0.5,1.3V13.3z"/>
</g>
<g id="icon-email_copy">
	<g>
		<g>
			<path class="st12" d="M18.1,1.1c9.4,0,17,7.6,17,17s-7.6,17-17,17s-17-7.6-17-17S8.7,1.1,18.1,1.1 M18.1,0.1c-9.9,0-18,8.1-18,18
				s8.1,18,18,18s18-8.1,18-18S28,0.1,18.1,0.1L18.1,0.1z"/>
		</g>
		<g id="logo_googleg_48dp" transform="translate(15.000000, 15.000000)">
			<path id="Shape" class="st13" d="M11.8,3.1c0-0.7-0.1-1.3-0.2-1.9H2.9v3.6h5C7.7,6,7,6.9,6.1,7.6v2.3h3
				C10.8,8.3,11.8,5.9,11.8,3.1L11.8,3.1z"/>
			<path class="st14" d="M2.9,12.1c2.5,0,4.6-0.8,6.1-2.2l-3-2.3C5.2,8.1,4.2,8.5,2.9,8.5c-2.4,0-4.4-1.6-5.1-3.8h-3.1v2.4
				C-3.8,10.1-0.7,12.1,2.9,12.1L2.9,12.1z"/>
			<path class="st15" d="M-2.2,4.7c-0.2-0.6-0.3-1.1-0.3-1.7s0.1-1.2,0.3-1.7v-2.4h-3.1c-0.6,1.2-1,2.6-1,4.1s0.4,2.9,1,4.1
				L-2.2,4.7L-2.2,4.7z"/>
			<path class="st16" d="M2.9-2.6c1.4,0,2.6,0.5,3.5,1.4l2.6-2.6C7.5-5.4,5.4-6.3,2.9-6.3c-3.6,0-6.7,2.1-8.2,5.1l3.1,2.4
				C-1.5-1,0.5-2.6,2.9-2.6L2.9-2.6z"/>
			<path class="st9" d="M-6.3-6.3h18.4v18.4H-6.3V-6.3z"/>
		</g>
	</g>
</g>
</svg>
