<svg id="icon-linkedin_-_transparent" data-name="icon-linkedin - transparent" xmlns="http://www.w3.org/2000/svg" viewBox="0 0 36 36"><defs><style>.cls-1{fill:#0a66c2;}</style></defs><title>r.ca social media icons 2019b</title><path class="cls-1" d="M18,0A18,18,0,1,0,36,18,18,18,0,0,0,18,0Zm-4.27,26.1H10.18V14.68h3.54ZM12,13.12A2.07,2.07,0,1,1,14,11.05,2.07,2.07,0,0,1,12,13.12ZM27,26.1H23.45V20.54c0-1.32,0-3-1.84-3S19.48,19,19.48,20.44V26.1H15.94V14.68h3.4v1.56h.05a3.74,3.74,0,0,1,3.36-1.85c3.59,0,4.25,2.37,4.25,5.43Z"/></svg>