<?xml version="1.0" encoding="utf-8"?>
<!-- Generator: Adobe Illustrator 23.1.0, SVG Export Plug-In . SVG Version: 6.00 Build 0)  -->
<svg version="1.1" id="Layer_1" xmlns="http://www.w3.org/2000/svg" xmlns:xlink="http://www.w3.org/1999/xlink" x="0px" y="0px"
	 viewBox="0 0 527 242" style="enable-background:new 0 0 527 242;" xml:space="preserve">
<style type="text/css">
	.st0{fill-rule:evenodd;clip-rule:evenodd;fill:#C43029;}
	.st1{fill:#07579F;}
	.st2{fill:#939598;}
	.st3{fill:#FFFFFF;}
	.st4{opacity:0.83;fill:#FFFFFF;}
	.st5{fill:#393033;}
</style>
<g>
	<path class="st0" d="M97.6-137.5l0.1,0.2C97.7-137.3,97.6-137.4,97.6-137.5L97.6-137.5z M62.4-197.3l-0.9-0.6L62.4-197.3
		L62.4-197.3z M61.5-197.9l-0.9-0.6L61.5-197.9L61.5-197.9z M60.6-198.5l-0.9-0.6L60.6-198.5L60.6-198.5z M59.7-199.1l-1-0.4
		L59.7-199.1L59.7-199.1z M57.9-200.2l0.1,0.2C58-200.1,57.8-200.2,57.9-200.2L57.9-200.2z M57-200.8l0.1,0.2
		C57.1-200.7,56.9-200.8,57-200.8L57-200.8z M56.1-201.4l0.1,0.2C56.2-201.3,56-201.4,56.1-201.4L56.1-201.4z M55.2-202l0.1,0.2
		C55.3-201.8,55.1-201.9,55.2-202L55.2-202z M128.3-230.5L128.3-230.5L128.3-230.5z M62.4-197.3c1.6,0.3,6.3,2.9,7.8,3.7
		c15.3,8,15.8,8.3,29.1,17.1c4.5,3,17.9,12.7,21.3,13.9l-18.5-27.9c-1.4-2-2.5-3.5-3.8-5.7c-4.8-7.6-22.8-33.5-25.2-40
		c-1.5-4-6.6-18.6-4.8-21.5c3.7,0.7,0.8,3.8,4.5,13.9c3.3,8.9,12.3,21.8,17.7,30.3c1.4,2.2,2.5,4,3.8,6.1l9.6,14.1
		c4.9,6.6,9.1,13.6,13.6,20.5c2,3.1,5.3,9.6,9.4,10.3l1.6-64.6c-0.3,3.2,0.2,12.5,0.4,16.3c0.3,5.6,0.4,11.1,0.9,16.3
		c0.9,10.3,0.7,14.8,0.7,24.8l-0.4,9.1c4.6-2.4,4.8-5.7,11.4-5.9c4.7-0.1,4.5,0.4,5.1,1.4c-3.1-0.3-7.2,0.6-8.8,2.1
		c-1.3,1.3-4.1,5.7-4.4,8.1c6.5,0.7,16.1-1,21.2-2.4c3.6-1,6.2-1.6,9.4-3l8.4-4.4l2.3-2.2l-2.6-0.8c-6.8-0.8-15.1-2.9-20.8-6.4
		c-8.4-5.1-7.5-10.4-3-19.3c4.2-8.3,11.9-19,18-26.4c1.2-1.5,6.3-6.8,6.9-8.3c-1.4,0.2-3.8,1-5.3,1.5c-4.6,1.5-13.9,4.2-18.3,1.8
		c-1.4-0.8-2.5-2.4-3.6-3.7c-4.9-6.2-2.4-12.5-1.4-17.7c-6.4-1.2-17-8.8-21.1-14c-1-1.2-1.3-2.2-2.2-3c-1,1.6-1.9,4.6-4.8,9.2
		c-1.9,3-3.6,5.1-6,7.7c-1.5,1.6-2,1.9-3.5,3.2c-9.1,8.3-8.1,4.8-12.2,2.2c-2.5-1.6-4.7-1.5-7.6-6.1c-4.3-6.6-3.6-9.5-2.2-15.9
		c2.4-10.9,0.8-10.6,0-17.3c-2.3,0.4-4.1,4.4-9.1,5.5c-4.5,1-9.5-1.8-11-4.1c-2.1-3.4-0.6-14.4-3.8-21c-0.6-1.1-0.6-1.5-1.9-2
		c-1.4,3.9-3,5.4-4.8,11.9c-1.2,4.2-1.2,10.4-2,15.4c-0.4,2.4-0.9,4-1.3,7.1c-0.4,3.3,0.6,9.5-2.7,13.5c-1.6,2-3.3,2.3-4.5,3.7
		c4.3,1.6,11.9,12.3,14.1,17.1l4.6,10.7c0.9,2.2,4.3,9.4,2,11.3c-3.4,2.7-6.6-4.2-9-5.1c-4.3-1.6-2.2,3.3-12.1-1.2
		c-10.2-4.7-6.4-4.7-17.7-7.1c-2.3-0.5-5-1-7.1-1.7c0.8,1.5,6.3,5.4,8,6.6c5.2,3.9,10.5,9.5,13.8,15.1c1.5,2.5,4.8,7.9-0.8,8.6
		c0.4,2.6,2.9,4.1,4.6,5.9c1.7,1.9,3.3,3.7,5.5,5.1c6.3,4.3,11.9,5,8.4,10.7c-6.8-0.7-8-0.6-14.4,1.2c-1.7,0.5-2.7,1-4.3,1.2
		c0.4,2.3,2.4,3.7,3.9,5.2c6.5,6.5,5.3,6.4,16.1,11.9l28.3,10.8l1.2-1.8c0.9,5.6,7.7,3.8-5.3,17.7c-1.4,1.5-3.7,3.5-4.4,5.4
		l13.2-3.7c12-3.5,24.1-11.1,32-20.5c0.7,0.6,2.6,3.5,3.5,4.6c1.3,1.6,2.3,2.9,3.6,4.5c1.4,1.8,2.5,2.6,3.9,4.3
		c7.8,9.3,24,18.4,34.6,24.5c5.6,3.2,22.3,13.4,20.2,1.6c-2.8-15.9-12.3-11-20.5-12.7c-6.4-1.3-9-1-13.9-3.6
		c-9.4-4.9-20.4-14.7-27.7-22.7c-2-2.2-1.3-2.5-4.3-3.9c-8.1-3.7-12.3-3.7-17.9,2.6l-7.5,9.6c1.1-5.8,7.5-13.9,14.7-17
		c3.1-1.3,4.1-1.8,8.5-1.4c-1.2-2.1-24.7-19.2-28.2-21.4C91.5-178.7,64.1-195.5,62.4-197.3L62.4-197.3z"/>
</g>
<g>
	
		<text transform="matrix(1 0 0 1 185.942 -120.7779)" class="st5" style="font-family:'FuturaBT-BookItalic'; font-size:22px; letter-spacing:8;">Go With The Pros</text>
	
		<text transform="matrix(0.8914 0 0 1 255.0498 -224.4945)" class="st1" style="font-family:'TimesNewRomanPS-BoldMT'; font-size:38.1415px;">Real Estate</text>
	<g>
		
			<text transform="matrix(1 0 0 1 311.2477 -147.5933)" class="st1" style="font-family:'TimesNewRomanPS-BoldMT'; font-size:34px;">Inc.</text>
	</g>
	<g>
		<g>
			<path class="st1" d="M175.4-194.9c0,3.5,0,6.2,0,10.7c0,2.2,0.1,3.4,0.3,3.9c0.2,0.5,0.5,0.9,1,1.1s1.3,0.4,2.5,0.4
				c0,0.4,0,0.5,0,0.9c-5.5,0.1-8.3,0.1-13.9,0.1c0-0.3,0-0.5,0-0.8c1.3,0,2.1-0.1,2.6-0.4c0.4-0.3,0.8-0.7,0.9-1.2s0.3-1.7,0.3-3.9
				c0-10.4,0-13.8,0-24.2c0-2.2-0.1-3.4-0.3-3.9c-0.2-0.5-0.5-0.9-1-1.2c-0.5-0.3-1.3-0.4-2.6-0.4c0-0.3,0-0.5,0-0.8
				c4.8,0,7.1,0,11.9,0.1c3.9,0,6.7,0.8,8.4,2.6c1.7,1.8,2.6,4.4,2.6,7.4c0,2.6-0.6,4.7-1.7,6.2c-1.1,1.5-2.6,2.3-4.5,2.9
				C180.7-195,178.5-194.8,175.4-194.9z M175.4-212.7c0,5.9,0,11.2,0,16.2c0.4,0,0.8,0,1,0c1.6,0,2.9-0.5,3.8-1.7
				c0.9-1.2,1.3-3.2,1.3-6.2c0-3-0.4-5.1-1.3-6.4c-0.9-1.3-2.2-1.9-4-1.9C175.9-212.7,175.8-212.7,175.4-212.7z"/>
			<path class="st1" d="M200.4-194.9c0,3.5,0,6.1,0,10.4c0,2.1,0.1,3.3,0.3,3.8c0.2,0.5,0.5,0.8,1,1.1c0.5,0.3,1.3,0.4,2.6,0.3
				c0,0.3,0,0.5,0,0.8c-5.6,0.2-8.4,0.2-14,0.4c0-0.3,0-0.5,0-0.9c1.3,0,2.1-0.2,2.6-0.5c0.4-0.3,0.8-0.7,0.9-1.2s0.3-1.7,0.3-3.8
				c0-10.1,0-13.6,0-23.6c0-2.1-0.1-3.3-0.3-3.8c-0.2-0.5-0.5-0.9-1-1.2c-0.5-0.3-1.3-0.4-2.6-0.5c0-0.4,0-0.5,0-0.8
				c5.1,0.1,7.6,0.2,12.7,0.3c3.3,0.1,5.7,0.4,7.2,1c1.5,0.6,2.8,1.6,3.7,3.2c1,1.6,1.4,3.6,1.4,5.9c0,2.8-0.7,4.9-2.2,6.4
				c-0.9,0.9-2.2,1.6-3.9,2c2.6,4.1,3.9,7.3,6.6,12.1c0.9,1.6,1.5,2.4,1.8,2.8c0.6,0.5,1.2,0.7,1.9,0.7c0,0.3,0,0.5,0,0.8
				c-3.4,0.1-5.2,0.2-8.6,0.3c-3.5-5.3-5.3-10.5-8.8-16.2C201.5-194.9,201.1-194.9,200.4-194.9z M200.4-212.4c0,5.9,0,10.8,0,15.9
				c0.5,0,0.7,0,1.1,0c1.9,0,3.3-0.2,4.2-0.6c0.9-0.4,1.7-1.1,2.2-2.2c0.5-1.1,0.8-2.7,0.8-4.7c0-2.9-0.5-5.1-1.5-6.4
				c-1-1.3-2.5-2-4.7-2C201.7-212.3,201.3-212.4,200.4-212.4z"/>
			<path class="st1" d="M235.2-213.3c4.2,0.2,7.9,1.4,10.6,4.7c2.7,3.4,4.1,8.1,4.1,12.2c0,3.5-1,7.6-3,10.9
				c-2.7,4.4-6.5,6.3-11.4,6.5c-4.9,0.2-8.7-1.2-11.4-5.6c-2.1-3.4-3.2-8.1-3.2-11.8c0-4.2,1.4-9.4,4.1-12.8
				C227.7-212.6,231.3-213.5,235.2-213.3z M235.4-211.9c-2.5-0.1-4.4,1.2-5.7,4.5c-1.1,2.7-1.6,7.2-1.6,11.2c0,4.8,0.8,10.2,2.5,13
				c1.1,1.9,2.7,2.7,4.8,2.6c1.4-0.1,2.5-0.5,3.5-1.3c1.2-1.1,2.1-2.8,2.8-5.2c0.7-2.4,1-5.8,1-8.9c0-3.7-0.3-7.4-1-9.7
				c-0.7-2.3-1.5-3.9-2.6-4.8C238-211.4,236.8-211.8,235.4-211.9z"/>
			<path class="st1" d="M262.6-210.1c0,4.9,0,8.3,0,13c0.3,0,0.5,0,0.8,0c1.2,0,2.2-0.2,3-0.6c0.8-0.4,1.4-1,1.9-2
				c0.5-1,0.9-2.3,1-4c0.3,0,0.4,0,0.7,0c0,6.4,0,8.7,0,15.2c-0.3,0-0.4,0-0.7,0c-0.3-3-0.9-5-2.1-5.8c-1.1-0.9-2.4-1.3-3.9-1.3
				c-0.3,0-0.5,0-0.8,0c0,3.4,0,5.7,0,9.7c0,1.7,0.1,2.6,0.2,3c0.2,0.4,0.5,0.7,0.9,1c0.4,0.3,1.1,0.4,1.8,0.3c0.4,0,0.5,0,0.9,0
				c0,0.3,0,0.5,0,0.8c-5.7,0.2-8.6,0.3-14.3,0.6c0-0.3,0-0.5,0-0.8c0.4,0,0.5,0,0.9,0c0.8,0,1.4-0.2,1.9-0.5
				c0.3-0.2,0.6-0.6,0.8-1.1c0.1-0.4,0.2-1.3,0.2-3c0-8.7,0-12.2,0-20.9c0-1.7-0.1-2.7-0.2-3.1c-0.1-0.4-0.4-0.8-0.9-1.1
				c-0.4-0.3-1.1-0.5-1.8-0.5c-0.4,0-0.5,0-0.9,0c0-0.3,0-0.5,0-0.8c9.2,0.4,13.8,0.6,23,0.9c0,3.2,0,5.1,0,8.7c-0.3,0-0.5,0-0.8,0
				c-0.2-2.1-0.7-3.7-1.4-4.7c-0.8-1-1.9-1.8-3.4-2.2c-0.8-0.2-2.3-0.4-4.5-0.5C264.2-210.1,263.7-210.1,262.6-210.1z"/>
			<path class="st1" d="M287.7-209.2c0,4.6,0,7.5,0,12c0.2,0,0.3,0,0.5,0c1.7,0,3-0.5,3.8-1.7c0.8-1.1,1.3-2.9,1.5-5.2
				c0.3,0,0.5,0,0.8,0c0,6.2,0,8.8,0,15c-0.3,0-0.5,0-0.8,0c-0.2-1.7-0.5-3.1-1-4.1c-0.5-1-1.1-1.7-1.8-2.1c-0.7-0.3-1.7-0.5-3-0.5
				c0,3,0,4.9,0,8.3c0,1.7,0.1,2.7,0.2,3c0.1,0.4,0.4,0.6,0.7,0.9c0.3,0.2,0.9,0.3,1.7,0.3c0.7,0,1,0,1.6,0c2.5-0.1,4.6-0.7,6.1-2
				c1.5-1.3,2.6-3.3,3.3-5.8c0.3,0,0.4,0,0.7,0c-0.5,3.7-0.7,5.7-1.2,9.1c-9.4,0.3-14.2,0.4-23.6,0.8c0-0.3,0-0.5,0-0.8
				c0.4,0,0.5,0,0.9,0c0.8,0,1.4-0.2,1.9-0.5c0.3-0.2,0.6-0.6,0.8-1.1c0.1-0.3,0.2-1.3,0.2-2.8c0-8.1,0-11.5,0-19.6
				c0-1.4,0-2.2-0.1-2.5c-0.1-0.5-0.4-0.9-0.7-1.2c-0.5-0.4-1.2-0.6-2.1-0.7c-0.4,0-0.5,0-0.9,0c0-0.3,0-0.5,0-0.8
				c9.1,0.3,13.7,0.5,22.8,0.7c0,3.2,0,5,0,8.5c-0.3,0-0.5,0-0.8,0c-0.4-2.1-0.9-3.7-1.6-4.6c-0.7-0.9-1.7-1.6-3-2.1
				c-0.8-0.3-2.2-0.4-4.2-0.5C289.4-209.2,288.8-209.2,287.7-209.2z"/>
			<path class="st1" d="M323.3-210.6c0.1,3.6,0.1,5.5,0.2,9.2c-0.3,0-0.5,0-0.8,0c-0.4-2.3-1.3-4.2-2.9-5.6
				c-1.5-1.4-3.2-2.1-4.9-2.2c-1.4,0-2.5,0.3-3.3,1s-1.2,1.6-1.2,2.6c0,0.6,0.1,1.2,0.4,1.7c0.4,0.7,1,1.3,1.9,2
				c0.6,0.5,2.1,1.3,4.4,2.4c3.2,1.6,5.4,3,6.5,4.4c1.1,1.4,1.7,3,1.7,4.8c0,2.3-0.9,4.3-2.7,6c-1.8,1.7-4,2.5-6.8,2.5
				c-0.9,0-1.7-0.1-2.4-0.2c-0.8-0.2-1.7-0.5-2.9-0.9c-0.6-0.3-1.2-0.4-1.6-0.4c-0.3,0-0.7,0.2-1.1,0.4c-0.4,0.3-0.7,0.7-0.9,1.2
				c-0.3,0-0.4,0-0.7,0c0-4,0-6.4,0-10.7c0.3,0,0.4,0,0.7,0c0.6,3,1.7,5.4,3.4,6.9c1.7,1.5,3.5,2.2,5.4,2.2c1.5,0,2.7-0.5,3.6-1.3
				c0.9-0.8,1.3-1.8,1.3-2.9c0-0.7-0.2-1.3-0.5-1.9c-0.3-0.6-0.9-1.2-1.6-1.8c-0.7-0.6-1.9-1.3-3.7-2.2c-2.5-1.2-4.3-2.3-5.4-3.1
				c-1.1-0.8-1.9-1.8-2.5-2.9c-0.6-1.1-0.9-2.3-0.9-3.7c0-2.3,0.8-4.2,2.4-5.7c1.6-1.5,3.6-2.2,6-2.2c0.9,0,1.7,0.1,2.6,0.4
				c0.6,0.2,1.4,0.5,2.3,0.9c0.9,0.4,1.5,0.7,1.9,0.7c0.3,0,0.6-0.1,0.8-0.3c0.2-0.2,0.4-0.7,0.6-1.5
				C323-210.6,323.1-210.6,323.3-210.6z"/>
			<path class="st1" d="M346.3-210.6c0.1,3.6,0.1,5.5,0.2,9.1c-0.3,0-0.5,0-0.8,0c-0.4-2.3-1.3-4.2-2.9-5.5
				c-1.5-1.4-3.2-2.1-4.9-2.1c-1.4,0-2.5,0.4-3.3,1.1s-1.2,1.6-1.2,2.5c0,0.6,0.1,1.1,0.4,1.6c0.4,0.6,1,1.3,1.9,1.9
				c0.6,0.4,2.1,1.2,4.4,2.4c3.2,1.6,5.4,3,6.5,4.4c1.1,1.4,1.7,3,1.7,4.8c0,2.3-0.9,4.3-2.7,5.9c-1.8,1.6-4,2.4-6.8,2.4
				c-0.9,0-1.7-0.1-2.4-0.3c-0.8-0.2-1.7-0.5-2.9-1c-0.6-0.3-1.2-0.4-1.6-0.4c-0.3,0-0.7,0.1-1.1,0.4c-0.4,0.3-0.7,0.7-0.9,1.2
				c-0.3,0-0.4,0-0.7,0c0-4.1,0-6.2,0-10.3c0.3,0,0.4,0,0.7,0c0.6,2.9,1.7,5.1,3.4,6.7c1.7,1.5,3.5,2.3,5.4,2.3
				c1.5,0,2.7-0.4,3.6-1.2c0.9-0.8,1.3-1.8,1.3-2.9c0-0.7-0.2-1.3-0.5-1.9c-0.3-0.6-0.9-1.2-1.6-1.7c-0.7-0.5-1.9-1.3-3.7-2.1
				c-2.5-1.2-4.3-2.3-5.4-3.1c-1.1-0.9-1.9-1.8-2.5-2.9c-0.6-1.1-0.9-2.2-0.9-3.5c0-2.2,0.8-4.1,2.4-5.6c1.6-1.5,3.6-2.3,6-2.3
				c0.9,0,1.7,0.1,2.6,0.3c0.6,0.2,1.4,0.4,2.3,0.9c0.9,0.4,1.5,0.6,1.9,0.6c0.3,0,0.6-0.1,0.8-0.3c0.2-0.2,0.4-0.7,0.6-1.5
				C345.9-210.6,346-210.6,346.3-210.6z"/>
			<path class="st1" d="M365-183c0,0.3,0,0.4,0,0.7c-5.7-0.1-8.6-0.2-14.3-0.3c0-0.3,0-0.4,0-0.7c0.4,0,0.5,0,0.9,0
				c0.8,0,1.4-0.1,1.9-0.4c0.3-0.2,0.6-0.5,0.8-1c0.1-0.3,0.2-1.2,0.2-2.6c0-7.4,0-10.9,0-18.2c0-1.4-0.1-2.3-0.2-2.7
				c-0.1-0.3-0.4-0.7-0.9-0.9c-0.5-0.3-1.1-0.4-1.8-0.4c-0.4,0-0.5,0-0.9,0c0-0.3,0-0.4,0-0.7c5.7-0.1,8.6-0.1,14.3-0.3
				c0,0.3,0,0.4,0,0.7c-0.4,0-0.5,0-0.9,0c-0.8,0-1.4,0.2-1.9,0.5c-0.3,0.2-0.6,0.5-0.8,1c-0.1,0.3-0.2,1.2-0.2,2.6
				c-0.1,7.5-0.1,10.9,0,18.4c0,1.5,0.1,2.3,0.2,2.7c0.2,0.4,0.5,0.7,0.9,0.9c0.5,0.3,1.1,0.4,1.8,0.4C364.5-183,364.6-183,365-183z
				"/>
			<path class="st1" d="M382-211.1c4.2-0.1,7.9,0.7,10.6,3.6c2.7,2.9,3.9,7.2,3.9,11.1c0,3.4-0.9,7.1-2.9,10
				c-2.6,3.9-6.5,5.4-11.4,5.2c-4.9-0.2-8.7-1.9-11.5-5.5c-2.2-2.8-3.2-6.3-3.3-9.8c0-3.9,1.4-7.7,4.2-10.6
				C374.5-209.9,378.1-211,382-211.1z M382.2-209.9c-2.5,0.1-4.4,1.4-5.8,4.2c-1.1,2.3-1.7,5.7-1.7,9.5c0,4.5,0.9,8.5,2.6,11
				c1.2,1.7,2.8,2.5,4.8,2.6c1.4,0,2.6-0.3,3.5-0.9c1.2-0.9,2.1-2.3,2.7-4.5c0.6-2.1,0.9-5,0.9-8c0-3.6-0.3-6.7-0.9-8.7
				c-0.6-2-1.5-3.4-2.5-4.1C384.8-209.6,383.6-209.9,382.2-209.9z"/>
			<path class="st1" d="M408.6-211.7c5.4,6.7,7.6,11.1,13.2,19.1c-0.2-5.5,0-7.8,0.2-13.6c0.1-2-0.1-3.3-0.6-4
				c-0.6-0.9-1.7-1.2-3.2-1.1c0-0.3,0-0.5,0-0.8c3.6-0.1,5.5-0.2,9.1-0.4c0,0.3,0,0.5,0,0.8c-1.2,0.2-1.9,0.4-2.4,0.7
				c-0.4,0.3-0.7,0.7-1,1.4c-0.2,0.6-0.4,1.7-0.4,3.3c-0.4,11.4,0.2,17.7,0.2,26.8c-0.3,0-0.4,0-0.7,0c-6.2-8.8-12.8-17.3-18.7-26.3
				c-0.2,8.2-0.2,11.4,0,19.6c0.1,1.8,0.4,3,1.2,3.7c0.7,0.6,1.6,0.9,2.5,1c0.3,0,0.4,0,0.6,0c0,0.3,0,0.5,0,0.8
				c-3.9-0.2-5.9-0.2-9.8-0.4c0-0.3,0-0.5,0-0.8c1.5,0,2.6-0.2,3.1-0.9c0.6-0.6,0.9-1.8,0.8-3.5c-0.2-9-0.2-13,0-21.7
				c-0.2-0.3-0.3-0.5-0.6-0.8c-0.6-0.8-1.1-1.3-1.5-1.5c-0.4-0.2-1.1-0.3-1.9-0.3c0-0.3,0-0.5,0-0.8
				C402.7-211.5,404.6-211.6,408.6-211.7z"/>
			<path class="st1" d="M445.1-189.1c-3.9-0.1-5.8-0.1-9.7-0.1c-0.4,1.4-0.6,2.1-1,3.4c-0.3,1.1-0.5,2.1-0.5,2.8c0,0.9,0.4,1.6,1,2
				c0.4,0.3,1.3,0.5,2.7,0.7c0,0.3,0,0.5,0,0.8c-3.7-0.1-5.5-0.2-9.1-0.4c0-0.3,0-0.5,0-0.8c1-0.1,1.8-0.5,2.4-1.3
				c0.6-0.8,1.3-2.4,2.2-5.1c2.7-9.1,6.6-17.8,10.1-26.6c0.2,0,0.2,0,0.4,0c3,9.3,5.8,18.8,9.6,27.9c1.1,2.9,1.9,4.6,2.6,5.3
				c0.5,0.5,1.1,0.8,2,0.9c0,0.3,0,0.5,0,0.8c-5.3-0.2-8-0.3-13.3-0.5c0-0.3,0-0.5,0-0.8c0.2,0,0.3,0,0.5,0c1.1,0,1.8-0.1,2.2-0.4
				c0.3-0.2,0.4-0.6,0.4-1.1c0-0.3-0.1-0.6-0.2-0.9c0-0.2-0.3-0.8-0.7-2C446.1-186.3,445.8-187.3,445.1-189.1z M444.3-191.1
				c-1.8-4.9-2.6-6.2-4-11.1c-1.9,4.9-2.7,6.3-4.2,11C439.4-191.1,441-191.1,444.3-191.1z"/>
			<path class="st1" d="M483.7-191.3c-0.1,5.3,0,8.9-0.4,13.2c-9.7-0.2-14.6-0.3-24.4-0.7c0-0.3,0-0.5,0-0.8c0.4,0,0.5,0,0.9,0
				c0.8,0,1.4-0.1,1.9-0.4c0.3-0.2,0.6-0.6,0.8-1.2c0.1-0.4,0.2-1.5,0.1-3.4c-0.5-9.9-0.5-13.5,0-23.4c0.1-1.9,0.1-3-0.1-3.5
				c-0.1-0.4-0.4-0.8-0.9-1.1c-0.4-0.3-1.1-0.4-1.8-0.4c-0.4,0-0.5,0-0.9,0c0-0.3,0-0.5,0-0.8c5.9-0.2,8.8-0.3,14.6-0.4
				c0,0.3,0,0.5,0,0.8c-0.5,0-0.7,0-1.2,0c-0.8,0-1.4,0.2-1.9,0.6c-0.3,0.2-0.6,0.6-0.9,1.2c-0.2,0.4-0.3,1.5-0.4,3.4
				c-0.5,9.7-0.6,13,0,22.9c0.1,2,0.2,3.2,0.4,3.7c0.2,0.5,0.5,0.9,1,1.1c0.3,0.2,1.2,0.3,2.5,0.3c0.9,0,1.4,0,2.3,0.1
				c1.5,0,2.7-0.2,3.6-0.9c0.9-0.6,1.7-1.7,2.3-3.3c0.6-1.6,1.1-4,1.6-7C483.2-191.3,483.4-191.3,483.7-191.3z"/>
			<path class="st1" d="M505.2-215.3c0.1,3.7-0.2,7.1-0.4,12.4c-0.3,0-0.5,0-0.8,0c-0.2-3.3-1-6.2-2.4-8.1c-1.4-1.9-3.1-2.7-4.8-2.6
				c-1.4,0-2.5,0.4-3.3,1.4s-1.3,2.1-1.4,3.5c0,0.9,0,1.7,0.3,2.4c0.3,0.9,0.9,1.9,1.7,2.8c0.6,0.6,2,1.8,4.2,3.3
				c3.1,2.1,5.2,3.6,6.4,5.2c1.1,1.6,1.8,3.8,2,6.5c0.2,3.4-0.5,6.4-2.2,8.5c-1.7,2.1-4,2.8-6.7,2.8c-0.9,0-1.7-0.1-2.4-0.3
				c-0.8-0.2-1.7-0.6-2.9-1.1c-0.7-0.3-1.2-0.5-1.6-0.5c-0.4,0-0.7,0.2-1.1,0.5c-0.4,0.3-0.7,0.8-0.9,1.3c-0.3,0-0.4,0-0.7,0
				c0-4.2-0.4-8.3-0.7-14c0.3,0,0.4,0,0.7,0c0.8,4,2.2,7.5,4,9.6c1.8,2.1,3.6,3,5.6,3c1.5,0,2.7-0.4,3.5-1.5c0.8-1.1,1.2-2.4,1.1-4
				c-0.1-1-0.3-1.9-0.7-2.8c-0.4-0.9-1-1.8-1.7-2.6c-0.7-0.8-2-1.8-3.9-3c-2.6-1.6-4.4-2.8-5.5-3.7c-1.1-0.9-1.9-2-2.4-3.4
				c-0.5-1.4-0.7-3.1-0.6-4.9c0.2-3.2,1.1-5.9,2.8-7.9c1.7-2,3.7-2.7,6.1-2.7c0.9,0,1.7,0.1,2.6,0.3c0.6,0.2,1.4,0.5,2.3,1
				c0.9,0.5,1.5,0.8,1.9,0.8c0.3,0,0.6-0.1,0.8-0.4c0.2-0.3,0.4-0.9,0.6-1.7C504.9-215.3,505-215.3,505.2-215.3z"/>
		</g>
	</g>
	<rect x="378.3" y="-161.4" class="st2" width="108.8" height="1.2"/>
	<rect x="378.3" y="-154.1" class="st2" width="108.8" height="1.2"/>
	<rect x="186.3" y="-161.4" class="st2" width="108.8" height="1.2"/>
	<rect x="186.3" y="-154.1" class="st2" width="108.8" height="1.2"/>
</g>
<g>
	<path class="st0" d="M703.2,528.4l0.1,0.2C703.3,528.5,703.2,528.4,703.2,528.4L703.2,528.4z M668,468.5l-0.9-0.6L668,468.5
		L668,468.5z M667.1,468l-0.9-0.6L667.1,468L667.1,468z M666.2,467.4l-0.9-0.6L666.2,467.4L666.2,467.4z M665.3,466.8l-1-0.4
		L665.3,466.8L665.3,466.8z M663.5,465.6l0.1,0.2C663.6,465.8,663.4,465.7,663.5,465.6L663.5,465.6z M662.6,465.1l0.1,0.2
		C662.7,465.2,662.5,465.1,662.6,465.1L662.6,465.1z M661.7,464.5l0.1,0.2C661.8,464.6,661.6,464.5,661.7,464.5L661.7,464.5z
		 M660.8,463.9l0.1,0.2C660.9,464,660.7,463.9,660.8,463.9L660.8,463.9z M733.9,435.4L733.9,435.4L733.9,435.4z M668,468.5
		c1.6,0.3,6.3,2.9,7.8,3.7c15.3,8,15.8,8.3,29.1,17.1c4.5,3,17.9,12.7,21.3,13.9l-18.5-27.9c-1.4-2-2.5-3.5-3.8-5.7
		c-4.8-7.6-22.8-33.5-25.2-40c-1.5-4-6.6-18.6-4.8-21.5c3.7,0.7,0.8,3.8,4.5,13.9c3.3,8.9,12.3,21.8,17.7,30.3
		c1.4,2.2,2.5,4,3.8,6.1l9.6,14.1c4.9,6.6,9.1,13.6,13.6,20.5c2,3.1,5.3,9.6,9.4,10.3l1.6-64.6c-0.3,3.2,0.2,12.5,0.4,16.3
		c0.3,5.6,0.4,11.1,0.9,16.3c0.9,10.3,0.7,14.8,0.7,24.8l-0.4,9.1c4.6-2.4,4.8-5.7,11.4-5.9c4.7-0.1,4.5,0.4,5.1,1.4
		c-3.1-0.3-7.2,0.6-8.8,2.1c-1.3,1.3-4.1,5.7-4.4,8.1c6.5,0.7,16.1-1,21.2-2.4c3.6-1,6.2-1.6,9.4-3l8.4-4.4l2.3-2.2l-2.6-0.8
		c-6.8-0.8-15.1-2.9-20.8-6.4c-8.4-5.1-7.5-10.4-3-19.3c4.2-8.3,11.9-19,18-26.4c1.2-1.5,6.3-6.8,6.9-8.3c-1.4,0.2-3.8,1-5.3,1.5
		c-4.6,1.5-13.9,4.2-18.3,1.8c-1.4-0.8-2.5-2.4-3.6-3.7c-4.9-6.2-2.4-12.5-1.4-17.7c-6.4-1.2-17-8.8-21.1-14c-1-1.2-1.3-2.2-2.2-3
		c-1,1.6-1.9,4.6-4.8,9.2c-1.9,3-3.6,5.1-6,7.7c-1.5,1.6-2,1.9-3.5,3.2c-9.1,8.3-8.1,4.8-12.2,2.2c-2.5-1.6-4.7-1.5-7.6-6.1
		c-4.3-6.6-3.6-9.5-2.2-15.9c2.4-10.9,0.8-10.6,0-17.3c-2.3,0.4-4.1,4.4-9.1,5.5c-4.5,1-9.5-1.8-11-4.1c-2.1-3.4-0.6-14.4-3.8-21
		c-0.6-1.1-0.6-1.5-1.9-2c-1.4,3.9-3,5.4-4.8,11.9c-1.2,4.2-1.2,10.4-2,15.4c-0.4,2.4-0.9,4-1.3,7.1c-0.4,3.3,0.6,9.5-2.7,13.5
		c-1.6,2-3.3,2.3-4.5,3.7c4.3,1.6,11.9,12.3,14.1,17.1l4.6,10.7c0.9,2.2,4.3,9.4,2,11.3c-3.4,2.7-6.6-4.2-9-5.1
		c-4.3-1.6-2.2,3.3-12.1-1.2c-10.2-4.7-6.4-4.7-17.7-7.1c-2.3-0.5-5-1-7.1-1.7c0.8,1.5,6.3,5.4,8,6.6c5.2,3.9,10.5,9.5,13.8,15.1
		c1.5,2.5,4.8,7.9-0.8,8.6c0.4,2.6,2.9,4.1,4.6,5.9c1.7,1.9,3.3,3.7,5.5,5.1c6.3,4.3,11.9,5,8.4,10.7c-6.8-0.7-8-0.6-14.4,1.2
		c-1.7,0.5-2.7,1-4.3,1.2c0.4,2.3,2.4,3.7,3.9,5.2c6.5,6.5,5.3,6.4,16.1,11.9l28.3,10.8l1.2-1.8c0.9,5.6,7.7,3.8-5.3,17.7
		c-1.4,1.5-3.7,3.5-4.4,5.4l13.2-3.7c12-3.5,24.1-11.1,32-20.5c0.7,0.6,2.6,3.5,3.5,4.6c1.3,1.6,2.3,2.9,3.6,4.5
		c1.4,1.8,2.5,2.6,3.9,4.3c7.8,9.3,24,18.4,34.6,24.5c5.6,3.2,22.3,13.4,20.2,1.6c-2.8-15.9-12.3-11-20.5-12.7
		c-6.4-1.3-9-1-13.9-3.6c-9.4-4.9-20.4-14.7-27.7-22.7c-2-2.2-1.3-2.5-4.3-3.9c-8.1-3.7-12.3-3.7-17.9,2.6l-7.5,9.6
		c1.1-5.8,7.5-13.9,14.7-17c3.1-1.3,4.1-1.8,8.5-1.4c-1.2-2.1-24.7-19.2-28.2-21.4C697.1,487.2,669.7,470.4,668,468.5L668,468.5z"/>
</g>
<g>
	
		<text transform="matrix(1 0 0 1 791.5594 545.1019)" class="st3" style="font-family:'FuturaBT-BookItalic'; font-size:22px; letter-spacing:8;">Go With The Pros</text>
	<g>
		<path class="st3" d="M869.7,429.9v7.1c0,1.4,0.1,2.2,0.2,2.6c0.1,0.4,0.4,0.6,0.8,0.8c0.4,0.2,1.1,0.3,2.1,0.3v0.7h-11.5v-0.7
			c1,0,1.7-0.1,2.1-0.3c0.4-0.2,0.6-0.5,0.8-0.8s0.2-1.2,0.2-2.6v-16.4c0-1.4-0.1-2.2-0.2-2.6c-0.1-0.4-0.4-0.6-0.8-0.8
			c-0.4-0.2-1.1-0.3-2.1-0.3v-0.7h10.5c2.7,0,4.7,0.2,6,0.6c1.3,0.4,2.3,1.2,3.1,2.3s1.2,2.5,1.2,4c0,1.9-0.6,3.4-1.8,4.6
			c-0.8,0.8-1.8,1.3-3.2,1.7l5.4,8.5c0.7,1.1,1.2,1.8,1.5,2.1c0.5,0.4,1,0.6,1.6,0.6v0.7h-7.1l-7.3-11.5H869.7z M869.7,417.5v11.1
			h0.9c1.5,0,2.7-0.2,3.5-0.5s1.4-0.9,1.8-1.7c0.4-0.8,0.7-1.9,0.7-3.2c0-1.9-0.4-3.3-1.2-4.3c-0.8-0.9-2.1-1.4-3.9-1.4H869.7z"/>
		<path class="st3" d="M899.5,432.1H891c0.1,2.3,0.6,4.1,1.6,5.5c0.8,1,1.7,1.5,2.8,1.5c0.7,0,1.3-0.2,1.8-0.6
			c0.5-0.4,1.1-1.2,1.7-2.2l0.6,0.4c-0.8,1.9-1.8,3.3-2.8,4.1c-1,0.8-2.2,1.2-3.5,1.2c-2.3,0-4-1-5.2-3c-1-1.6-1.4-3.6-1.4-6
			c0-2.9,0.7-5.2,2.1-6.9c1.4-1.7,3-2.6,4.9-2.6c1.6,0,2.9,0.7,4.1,2.2C898.8,427.1,899.4,429.2,899.5,432.1z M895.4,430.8
			c0-2-0.1-3.4-0.3-4.1c-0.2-0.7-0.5-1.3-0.9-1.7c-0.2-0.2-0.5-0.3-0.9-0.3c-0.6,0-1,0.3-1.4,1c-0.7,1.1-1,2.6-1,4.5v0.7H895.4z"/>
		<path class="st3" d="M910,438.8c-1.9,1.9-3.6,2.8-5.1,2.8c-0.9,0-1.6-0.3-2.2-1c-0.6-0.7-0.9-1.5-0.9-2.4c0-1.3,0.5-2.5,1.5-3.6
			c1-1.1,3.2-2.5,6.7-4.2v-1.8c0-1.3-0.1-2.1-0.2-2.5c-0.1-0.3-0.4-0.6-0.7-0.9c-0.4-0.3-0.8-0.4-1.2-0.4c-0.7,0-1.3,0.2-1.8,0.5
			c-0.3,0.2-0.4,0.5-0.4,0.8c0,0.3,0.2,0.6,0.5,1c0.4,0.5,0.6,1,0.6,1.5c0,0.6-0.2,1.1-0.6,1.6c-0.4,0.4-0.9,0.6-1.6,0.6
			c-0.7,0-1.3-0.2-1.8-0.7c-0.5-0.5-0.7-1-0.7-1.7c0-0.9,0.3-1.7,0.9-2.6s1.5-1.4,2.6-1.9c1.1-0.4,2.3-0.7,3.5-0.7
			c1.5,0,2.6,0.4,3.5,1.1c0.9,0.7,1.4,1.5,1.7,2.3c0.2,0.5,0.2,1.7,0.2,3.6v6.8c0,0.8,0,1.3,0.1,1.5c0.1,0.2,0.1,0.4,0.2,0.5
			c0.1,0.1,0.2,0.1,0.4,0.1c0.3,0,0.6-0.2,0.9-0.7l0.5,0.4c-0.6,0.9-1.1,1.6-1.7,2c-0.6,0.4-1.3,0.6-2,0.6c-0.9,0-1.6-0.2-2.1-0.7
			S910.1,439.8,910,438.8z M910,437.5v-5.8c-1.3,0.9-2.3,1.8-3,2.8c-0.4,0.7-0.6,1.3-0.6,2c0,0.6,0.2,1.1,0.5,1.5
			c0.3,0.3,0.7,0.5,1.2,0.5C908.7,438.5,909.3,438.2,910,437.5z"/>
		<path class="st3" d="M924.5,416.1v21.6c0,1.2,0.1,2,0.4,2.4c0.3,0.3,0.8,0.5,1.5,0.6v0.7H918v-0.7c0.7,0,1.2-0.2,1.5-0.7
			c0.2-0.3,0.3-1,0.3-2.3v-18c0-1.2-0.1-2-0.4-2.3c-0.3-0.3-0.7-0.5-1.5-0.6v-0.7H924.5z"/>
		<path class="st3" d="M944.5,417.6v10.3h0.4c1.4,0,2.5-0.5,3.1-1.5c0.6-1,1.1-2.5,1.2-4.5h0.6v13.2h-0.6c-0.1-1.4-0.4-2.6-0.8-3.5
			c-0.4-0.9-0.9-1.5-1.5-1.9s-1.4-0.5-2.5-0.5v7.1c0,1.4,0.1,2.2,0.2,2.6c0.1,0.3,0.3,0.6,0.6,0.8c0.3,0.2,0.8,0.3,1.4,0.3h1.3
			c2.1,0,3.8-0.5,5.1-1.6c1.3-1.1,2.2-2.8,2.7-5h0.6l-1,8h-19.5v-0.7h0.7c0.7,0,1.2-0.1,1.6-0.4c0.3-0.2,0.5-0.5,0.7-0.9
			c0.1-0.3,0.2-1.1,0.2-2.3v-16.6c0-1.1,0-1.8-0.1-2.1c-0.1-0.4-0.3-0.8-0.6-1c-0.4-0.3-1-0.5-1.7-0.5h-0.7v-0.7h18.8v7.5h-0.6
			c-0.3-1.8-0.8-3.1-1.4-3.9c-0.6-0.8-1.4-1.4-2.5-1.8c-0.6-0.2-1.8-0.3-3.5-0.3H944.5z"/>
		<path class="st3" d="M968.9,423.5l0.2,5.9h-0.6c-0.7-1.8-1.4-3-2.1-3.6c-0.7-0.6-1.4-1-2.2-1c-0.5,0-0.8,0.2-1.2,0.5
			c-0.3,0.3-0.5,0.7-0.5,1.2c0,0.3,0.1,0.7,0.3,1c0.4,0.5,1.3,1.4,3,2.6s2.7,2.3,3.2,3.1c0.5,0.9,0.8,1.8,0.8,2.9
			c0,1-0.2,1.9-0.6,2.8s-1,1.6-1.8,2.1c-0.8,0.5-1.7,0.7-2.6,0.7c-0.7,0-1.7-0.3-3-0.8c-0.3-0.1-0.6-0.2-0.7-0.2
			c-0.4,0-0.7,0.3-0.9,0.9h-0.5l-0.3-6.3h0.6c0.5,1.6,1.2,2.9,2.1,3.7c0.9,0.8,1.7,1.2,2.5,1.2c0.5,0,1-0.2,1.3-0.5
			c0.3-0.4,0.5-0.8,0.5-1.3c0-0.6-0.2-1.1-0.5-1.5s-1.1-1.1-2.2-2c-1.7-1.3-2.8-2.3-3.3-3c-0.7-1-1.1-2.1-1.1-3.4
			c0-1.3,0.4-2.6,1.2-3.6c0.8-1.1,2-1.6,3.6-1.6c0.8,0,1.7,0.2,2.4,0.7c0.3,0.2,0.5,0.3,0.7,0.3c0.2,0,0.4,0,0.5-0.1
			c0.1-0.1,0.3-0.4,0.6-0.8H968.9z"/>
		<path class="st3" d="M978.5,417.6v6.4h3.7v1.8h-3.7v10.7c0,1,0,1.7,0.1,1.9c0.1,0.3,0.2,0.5,0.4,0.7c0.2,0.2,0.4,0.3,0.6,0.3
			c0.7,0,1.4-0.6,2-1.8l0.5,0.4c-0.9,2.4-2.4,3.6-4.4,3.6c-1,0-1.8-0.3-2.5-0.9s-1.1-1.3-1.3-2.1c-0.1-0.4-0.2-1.6-0.2-3.4v-9.4h-2
			v-0.7c1.4-1.1,2.6-2.3,3.6-3.5s1.8-2.6,2.6-4.1H978.5z"/>
		<path class="st3" d="M992.2,438.8c-1.9,1.9-3.6,2.8-5.1,2.8c-0.9,0-1.6-0.3-2.2-1c-0.6-0.7-0.9-1.5-0.9-2.4c0-1.3,0.5-2.5,1.5-3.6
			c1-1.1,3.2-2.5,6.7-4.2v-1.8c0-1.3-0.1-2.1-0.2-2.5c-0.1-0.3-0.4-0.6-0.7-0.9c-0.4-0.3-0.8-0.4-1.2-0.4c-0.7,0-1.3,0.2-1.8,0.5
			c-0.3,0.2-0.4,0.5-0.4,0.8c0,0.3,0.2,0.6,0.5,1c0.4,0.5,0.6,1,0.6,1.5c0,0.6-0.2,1.1-0.6,1.6c-0.4,0.4-0.9,0.6-1.6,0.6
			c-0.7,0-1.3-0.2-1.8-0.7c-0.5-0.5-0.7-1-0.7-1.7c0-0.9,0.3-1.7,0.9-2.6s1.5-1.4,2.6-1.9c1.1-0.4,2.3-0.7,3.5-0.7
			c1.5,0,2.6,0.4,3.5,1.1c0.9,0.7,1.4,1.5,1.7,2.3c0.2,0.5,0.2,1.7,0.2,3.6v6.8c0,0.8,0,1.3,0.1,1.5c0.1,0.2,0.1,0.4,0.2,0.5
			c0.1,0.1,0.2,0.1,0.4,0.1c0.3,0,0.6-0.2,0.9-0.7l0.5,0.4c-0.6,0.9-1.1,1.6-1.7,2c-0.6,0.4-1.3,0.6-2,0.6c-0.9,0-1.6-0.2-2.1-0.7
			S992.3,439.8,992.2,438.8z M992.2,437.5v-5.8c-1.3,0.9-2.3,1.8-3,2.8c-0.4,0.7-0.6,1.3-0.6,2c0,0.6,0.2,1.1,0.5,1.5
			c0.3,0.3,0.7,0.5,1.2,0.5C990.8,438.5,991.5,438.2,992.2,437.5z"/>
		<path class="st3" d="M1006.8,417.6v6.4h3.7v1.8h-3.7v10.7c0,1,0,1.7,0.1,1.9c0.1,0.3,0.2,0.5,0.4,0.7c0.2,0.2,0.4,0.3,0.6,0.3
			c0.7,0,1.4-0.6,2-1.8l0.5,0.4c-0.9,2.4-2.4,3.6-4.4,3.6c-1,0-1.8-0.3-2.5-0.9s-1.1-1.3-1.3-2.1c-0.1-0.4-0.2-1.6-0.2-3.4v-9.4h-2
			v-0.7c1.4-1.1,2.6-2.3,3.6-3.5s1.8-2.6,2.6-4.1H1006.8z"/>
		<path class="st3" d="M1025.1,432.1h-8.5c0.1,2.3,0.6,4.1,1.6,5.5c0.8,1,1.7,1.5,2.8,1.5c0.7,0,1.3-0.2,1.8-0.6
			c0.5-0.4,1.1-1.2,1.7-2.2l0.6,0.4c-0.8,1.9-1.8,3.3-2.8,4.1c-1,0.8-2.2,1.2-3.5,1.2c-2.3,0-4-1-5.2-3c-1-1.6-1.4-3.6-1.4-6
			c0-2.9,0.7-5.2,2.1-6.9c1.4-1.7,3-2.6,4.9-2.6c1.6,0,2.9,0.7,4.1,2.2C1024.4,427.1,1025,429.2,1025.1,432.1z M1021,430.8
			c0-2-0.1-3.4-0.3-4.1c-0.2-0.7-0.5-1.3-0.9-1.7c-0.2-0.2-0.5-0.3-0.9-0.3c-0.6,0-1,0.3-1.4,1c-0.7,1.1-1,2.6-1,4.5v0.7H1021z"/>
	</g>
	<g>
		<g>
			<path class="st3" d="M926.3,519.7v0.6h-11.8v-0.6h0.7c0.7,0,1.2-0.1,1.6-0.3c0.3-0.2,0.5-0.4,0.7-0.8c0.1-0.3,0.2-1,0.2-2.1
				v-14.8c0-1.2-0.1-1.9-0.2-2.2c-0.1-0.3-0.4-0.5-0.7-0.8c-0.4-0.2-0.9-0.3-1.5-0.3h-0.7v-0.6h11.8v0.6h-0.7
				c-0.7,0-1.2,0.1-1.6,0.3c-0.3,0.2-0.5,0.4-0.7,0.8c-0.1,0.3-0.2,1-0.2,2.1v14.8c0,1.2,0.1,1.9,0.2,2.2c0.1,0.3,0.4,0.5,0.7,0.8
				c0.4,0.2,0.9,0.3,1.5,0.3H926.3z"/>
			<path class="st3" d="M934.6,504.8v2c0.8-0.9,1.6-1.5,2.3-1.9s1.5-0.6,2.4-0.6c1,0,1.8,0.3,2.5,0.8s1.1,1.3,1.3,2.1
				c0.2,0.6,0.3,1.8,0.3,3.6v6c0,1.2,0.1,1.9,0.3,2.2c0.2,0.3,0.7,0.5,1.4,0.6v0.6h-7.9v-0.6c0.6-0.1,1-0.3,1.3-0.7
				c0.2-0.3,0.3-1,0.3-2.1V510c0-1.3,0-2.1-0.1-2.4s-0.3-0.6-0.5-0.8c-0.2-0.2-0.5-0.3-0.8-0.3c-1,0-1.8,0.7-2.7,2v8.3
				c0,1.2,0.1,1.9,0.3,2.2c0.2,0.3,0.6,0.5,1.2,0.6v0.6h-7.9v-0.6c0.7-0.1,1.1-0.3,1.4-0.6c0.2-0.2,0.3-1,0.3-2.2v-8.8
				c0-1.2-0.1-1.9-0.3-2.2c-0.2-0.3-0.7-0.5-1.4-0.6v-0.6H934.6z"/>
			<path class="st3" d="M959.8,516.3l0.5,0.4c-0.7,1.4-1.6,2.4-2.7,3.1c-1.1,0.7-2.2,1-3.5,1c-2.1,0-3.7-0.8-5-2.3s-1.9-3.4-1.9-5.6
				c0-2.1,0.6-4,1.7-5.6c1.4-1.9,3.2-2.9,5.6-2.9c1.6,0,2.9,0.4,3.8,1.2c0.9,0.8,1.4,1.7,1.4,2.7c0,0.6-0.2,1.1-0.6,1.5
				c-0.4,0.4-0.9,0.6-1.5,0.6c-0.7,0-1.2-0.2-1.6-0.6c-0.4-0.4-0.7-1.2-0.8-2.3c-0.1-0.7-0.2-1.2-0.5-1.5c-0.3-0.3-0.6-0.4-0.9-0.4
				c-0.5,0-1,0.3-1.4,0.8c-0.6,0.9-0.9,2.2-0.9,3.9c0,1.5,0.2,2.9,0.7,4.2s1.1,2.3,1.9,3c0.6,0.5,1.3,0.7,2.2,0.7
				c0.5,0,1.1-0.1,1.5-0.4C958.6,517.5,959.2,517,959.8,516.3z"/>
			<path class="st3" d="M965.3,515.2c0.8,0,1.4,0.3,2,0.8c0.5,0.5,0.8,1.2,0.8,2s-0.3,1.4-0.8,2c-0.5,0.5-1.2,0.8-2,0.8
				s-1.4-0.3-2-0.8c-0.5-0.5-0.8-1.2-0.8-2s0.3-1.4,0.8-2C963.9,515.4,964.6,515.2,965.3,515.2z"/>
		</g>
	</g>
	<g>
		<g>
			<path class="st3" d="M781,471c0,3.5,0,6.2,0,10.7c0,2.2,0.1,3.4,0.3,3.9c0.2,0.5,0.5,0.9,1,1.1c0.5,0.3,1.3,0.4,2.5,0.4
				c0,0.4,0,0.5,0,0.9c-5.5,0.1-8.3,0.1-13.9,0.1c0-0.3,0-0.5,0-0.8c1.3,0,2.1-0.1,2.6-0.4c0.4-0.3,0.8-0.7,0.9-1.2
				c0.2-0.5,0.3-1.7,0.3-3.9c0-10.4,0-13.8,0-24.2c0-2.2-0.1-3.4-0.3-3.9c-0.2-0.5-0.5-0.9-1-1.2c-0.5-0.3-1.3-0.4-2.6-0.4
				c0-0.3,0-0.5,0-0.8c4.8,0,7.1,0,11.9,0.1c3.9,0,6.7,0.8,8.4,2.6c1.7,1.8,2.6,4.4,2.6,7.4c0,2.6-0.6,4.7-1.7,6.2
				c-1.1,1.5-2.6,2.3-4.5,2.9C786.3,470.8,784.1,471,781,471z M781,453.2c0,5.9,0,11.2,0,16.2c0.4,0,0.8,0,1,0
				c1.6,0,2.9-0.5,3.8-1.7c0.9-1.2,1.3-3.2,1.3-6.2c0-3-0.4-5.1-1.3-6.4c-0.9-1.3-2.2-1.9-4-1.9C781.5,453.2,781.4,453.2,781,453.2z
				"/>
			<path class="st3" d="M806,470.9c0,3.5,0,6.1,0,10.4c0,2.1,0.1,3.3,0.3,3.8c0.2,0.5,0.5,0.8,1,1.1s1.3,0.4,2.6,0.3
				c0,0.3,0,0.5,0,0.8c-5.6,0.2-8.4,0.2-14,0.4c0-0.3,0-0.5,0-0.9c1.3,0,2.1-0.2,2.6-0.5c0.4-0.3,0.8-0.7,0.9-1.2
				c0.2-0.5,0.3-1.7,0.3-3.8c0-10.1,0-13.6,0-23.6c0-2.1-0.1-3.3-0.3-3.8c-0.2-0.5-0.5-0.9-1-1.2c-0.5-0.3-1.3-0.4-2.6-0.5
				c0-0.4,0-0.5,0-0.8c5.1,0.1,7.6,0.2,12.7,0.3c3.3,0.1,5.7,0.4,7.2,1c1.5,0.6,2.8,1.6,3.7,3.2c1,1.6,1.4,3.6,1.4,5.9
				c0,2.8-0.7,4.9-2.2,6.4c-0.9,0.9-2.2,1.6-3.9,2c2.6,4.1,3.9,7.3,6.6,12.1c0.9,1.6,1.5,2.4,1.8,2.8c0.6,0.5,1.2,0.7,1.9,0.7
				c0,0.3,0,0.5,0,0.8c-3.4,0.1-5.2,0.2-8.6,0.3c-3.5-5.3-5.3-10.5-8.8-16.2C807.1,470.9,806.8,470.9,806,470.9z M806,453.5
				c0,5.9,0,10.8,0,15.9c0.5,0,0.7,0,1.1,0c1.9,0,3.3-0.2,4.2-0.6s1.7-1.1,2.2-2.2c0.5-1.1,0.8-2.7,0.8-4.7c0-2.9-0.5-5.1-1.5-6.4
				c-1-1.3-2.5-2-4.7-2C807.3,453.5,806.9,453.5,806,453.5z"/>
			<path class="st3" d="M840.8,452.6c4.2,0.2,7.9,1.4,10.6,4.7c2.7,3.4,4.1,8.1,4.1,12.2c0,3.5-1,7.6-3,10.9
				c-2.7,4.4-6.5,6.3-11.4,6.5c-4.9,0.2-8.7-1.2-11.4-5.6c-2.1-3.4-3.2-8.1-3.2-11.8c0-4.2,1.4-9.4,4.1-12.8
				C833.4,453.3,836.9,452.4,840.8,452.6z M841,454c-2.5-0.1-4.4,1.2-5.7,4.5c-1.1,2.7-1.6,7.2-1.6,11.2c0,4.8,0.8,10.2,2.5,13
				c1.1,1.9,2.7,2.7,4.8,2.6c1.4-0.1,2.5-0.5,3.5-1.3c1.2-1.1,2.1-2.8,2.8-5.2c0.7-2.4,1-5.8,1-8.9c0-3.7-0.3-7.4-1-9.7
				c-0.7-2.3-1.5-3.9-2.6-4.8C843.6,454.5,842.4,454,841,454z"/>
			<path class="st3" d="M868.3,455.8c0,4.9,0,8.3,0,13c0.3,0,0.5,0,0.8,0c1.2,0,2.2-0.2,3-0.6c0.8-0.4,1.4-1,1.9-2
				c0.5-1,0.9-2.3,1-4c0.3,0,0.4,0,0.7,0c0,6.4,0,8.7,0,15.2c-0.3,0-0.4,0-0.7,0c-0.3-3-0.9-5-2.1-5.8c-1.1-0.9-2.4-1.3-3.9-1.3
				c-0.3,0-0.5,0-0.8,0c0,3.4,0,5.7,0,9.7c0,1.7,0.1,2.6,0.2,3c0.2,0.4,0.5,0.7,0.9,1c0.4,0.3,1.1,0.4,1.8,0.3c0.4,0,0.5,0,0.9,0
				c0,0.3,0,0.5,0,0.8c-5.7,0.2-8.6,0.3-14.3,0.6c0-0.3,0-0.5,0-0.8c0.4,0,0.5,0,0.9,0c0.8,0,1.4-0.2,1.9-0.5
				c0.3-0.2,0.6-0.6,0.8-1.1c0.1-0.4,0.2-1.3,0.2-3c0-8.7,0-12.2,0-20.9c0-1.7-0.1-2.7-0.2-3.1c-0.1-0.4-0.4-0.8-0.9-1.1
				c-0.4-0.3-1.1-0.5-1.8-0.5c-0.4,0-0.5,0-0.9,0c0-0.3,0-0.5,0-0.8c9.2,0.4,13.8,0.6,23,0.9c0,3.2,0,5.1,0,8.7c-0.3,0-0.5,0-0.8,0
				c-0.2-2.1-0.7-3.7-1.4-4.7s-1.9-1.8-3.4-2.2c-0.8-0.2-2.3-0.4-4.5-0.5C869.8,455.8,869.3,455.8,868.3,455.8z"/>
			<path class="st3" d="M893.3,456.6c0,4.6,0,7.5,0,12c0.2,0,0.3,0,0.5,0c1.7,0,3-0.5,3.8-1.7c0.8-1.1,1.3-2.9,1.5-5.2
				c0.3,0,0.5,0,0.8,0c0,6.2,0,8.8,0,15c-0.3,0-0.5,0-0.8,0c-0.2-1.7-0.5-3.1-1-4.1c-0.5-1-1.1-1.7-1.8-2.1c-0.7-0.3-1.7-0.5-3-0.5
				c0,3,0,4.9,0,8.3c0,1.7,0.1,2.7,0.2,3c0.1,0.4,0.4,0.6,0.7,0.9c0.3,0.2,0.9,0.3,1.7,0.3c0.7,0,1,0,1.6,0c2.5-0.1,4.6-0.7,6.1-2
				c1.5-1.3,2.6-3.3,3.3-5.8c0.3,0,0.4,0,0.7,0c-0.5,3.7-0.7,5.7-1.2,9.1c-9.4,0.3-14.2,0.4-23.6,0.8c0-0.3,0-0.5,0-0.8
				c0.4,0,0.5,0,0.9,0c0.8,0,1.4-0.2,1.9-0.5c0.3-0.2,0.6-0.6,0.8-1.1c0.1-0.3,0.2-1.3,0.2-2.8c0-8.1,0-11.5,0-19.6
				c0-1.4,0-2.2-0.1-2.5c-0.1-0.5-0.4-0.9-0.7-1.2c-0.5-0.4-1.2-0.6-2.1-0.7c-0.4,0-0.5,0-0.9,0c0-0.3,0-0.5,0-0.8
				c9.1,0.3,13.7,0.5,22.8,0.7c0,3.2,0,5,0,8.5c-0.3,0-0.5,0-0.8,0c-0.4-2.1-0.9-3.7-1.6-4.6c-0.7-0.9-1.7-1.6-3-2.1
				c-0.8-0.3-2.2-0.4-4.2-0.5C895,456.7,894.5,456.7,893.3,456.6z"/>
			<path class="st3" d="M929,455.3c0.1,3.6,0.1,5.5,0.2,9.2c-0.3,0-0.5,0-0.8,0c-0.4-2.3-1.3-4.2-2.9-5.6c-1.5-1.4-3.2-2.1-4.9-2.2
				c-1.4,0-2.5,0.3-3.3,1s-1.2,1.6-1.2,2.6c0,0.6,0.1,1.2,0.4,1.7c0.4,0.7,1,1.3,1.9,2c0.6,0.5,2.1,1.3,4.4,2.4
				c3.2,1.6,5.4,3,6.5,4.4c1.1,1.4,1.7,3,1.7,4.8c0,2.3-0.9,4.3-2.7,6c-1.8,1.7-4,2.5-6.8,2.5c-0.9,0-1.7-0.1-2.4-0.2
				c-0.8-0.2-1.7-0.5-2.9-0.9c-0.6-0.3-1.2-0.4-1.6-0.4c-0.3,0-0.7,0.2-1.1,0.4s-0.7,0.7-0.9,1.2c-0.3,0-0.4,0-0.7,0
				c0-4,0-6.4,0-10.7c0.3,0,0.4,0,0.7,0c0.6,3,1.7,5.4,3.4,6.9c1.7,1.5,3.5,2.2,5.4,2.2c1.5,0,2.7-0.5,3.6-1.3
				c0.9-0.8,1.3-1.8,1.3-2.9c0-0.7-0.2-1.3-0.5-1.9c-0.3-0.6-0.9-1.2-1.6-1.8c-0.7-0.6-1.9-1.3-3.7-2.2c-2.5-1.2-4.3-2.3-5.4-3.1
				c-1.1-0.8-1.9-1.8-2.5-2.9c-0.6-1.1-0.9-2.3-0.9-3.7c0-2.3,0.8-4.2,2.4-5.7c1.6-1.5,3.6-2.2,6-2.2c0.9,0,1.7,0.1,2.6,0.4
				c0.6,0.2,1.4,0.5,2.3,0.9c0.9,0.4,1.5,0.7,1.9,0.7c0.3,0,0.6-0.1,0.8-0.3s0.4-0.7,0.6-1.5C928.6,455.3,928.7,455.3,929,455.3z"/>
			<path class="st3" d="M951.9,455.3c0.1,3.6,0.1,5.5,0.2,9.1c-0.3,0-0.5,0-0.8,0c-0.4-2.3-1.3-4.2-2.9-5.5
				c-1.5-1.4-3.2-2.1-4.9-2.1c-1.4,0-2.5,0.4-3.3,1.1c-0.8,0.7-1.2,1.6-1.2,2.5c0,0.6,0.1,1.1,0.4,1.6c0.4,0.6,1,1.3,1.9,1.9
				c0.6,0.4,2.1,1.2,4.4,2.4c3.2,1.6,5.4,3,6.5,4.4c1.1,1.4,1.7,3,1.7,4.8c0,2.3-0.9,4.3-2.7,5.9c-1.8,1.6-4,2.4-6.8,2.4
				c-0.9,0-1.7-0.1-2.4-0.3c-0.8-0.2-1.7-0.5-2.9-1c-0.6-0.3-1.2-0.4-1.6-0.4c-0.3,0-0.7,0.1-1.1,0.4c-0.4,0.3-0.7,0.7-0.9,1.2
				c-0.3,0-0.4,0-0.7,0c0-4.1,0-6.2,0-10.3c0.3,0,0.4,0,0.7,0c0.6,2.9,1.7,5.1,3.4,6.7c1.7,1.5,3.5,2.3,5.4,2.3
				c1.5,0,2.7-0.4,3.6-1.2c0.9-0.8,1.3-1.8,1.3-2.9c0-0.7-0.2-1.3-0.5-1.9c-0.3-0.6-0.9-1.2-1.6-1.7c-0.7-0.5-1.9-1.3-3.7-2.1
				c-2.5-1.2-4.3-2.3-5.4-3.1c-1.1-0.9-1.9-1.8-2.5-2.9c-0.6-1.1-0.9-2.2-0.9-3.5c0-2.2,0.8-4.1,2.4-5.6c1.6-1.5,3.6-2.3,6-2.3
				c0.9,0,1.7,0.1,2.6,0.3c0.6,0.2,1.4,0.4,2.3,0.9c0.9,0.4,1.5,0.6,1.9,0.6c0.3,0,0.6-0.1,0.8-0.3s0.4-0.7,0.6-1.5
				C951.5,455.3,951.7,455.3,951.9,455.3z"/>
			<path class="st3" d="M970.6,482.9c0,0.3,0,0.4,0,0.7c-5.7-0.1-8.6-0.2-14.3-0.3c0-0.3,0-0.4,0-0.7c0.4,0,0.5,0,0.9,0
				c0.8,0,1.4-0.1,1.9-0.4c0.3-0.2,0.6-0.5,0.8-1c0.1-0.3,0.2-1.2,0.2-2.6c0-7.4,0-10.9,0-18.2c0-1.4-0.1-2.3-0.2-2.7
				c-0.1-0.3-0.4-0.7-0.9-0.9c-0.5-0.3-1.1-0.4-1.8-0.4c-0.4,0-0.5,0-0.9,0c0-0.3,0-0.4,0-0.7c5.7-0.1,8.6-0.1,14.3-0.3
				c0,0.3,0,0.4,0,0.7c-0.4,0-0.5,0-0.9,0c-0.8,0-1.4,0.2-1.9,0.5c-0.3,0.2-0.6,0.5-0.8,1c-0.1,0.3-0.2,1.2-0.2,2.6
				c-0.1,7.5-0.1,10.9,0,18.4c0,1.5,0.1,2.3,0.2,2.7c0.2,0.4,0.5,0.7,0.9,0.9c0.5,0.3,1.1,0.4,1.8,0.4
				C970.1,482.9,970.3,482.9,970.6,482.9z"/>
			<path class="st3" d="M987.6,454.7c4.2-0.1,7.9,0.7,10.6,3.6c2.7,2.9,3.9,7.2,3.9,11.1c0,3.4-0.9,7.1-2.9,10
				c-2.6,3.9-6.5,5.4-11.4,5.2c-4.9-0.2-8.7-1.9-11.5-5.5c-2.2-2.8-3.2-6.3-3.3-9.8c0-3.9,1.4-7.7,4.2-10.6
				C980.1,456,983.7,454.9,987.6,454.7z M987.8,456c-2.5,0.1-4.4,1.4-5.8,4.2c-1.1,2.3-1.7,5.7-1.7,9.5c0,4.5,0.9,8.5,2.6,11
				c1.2,1.7,2.8,2.5,4.8,2.6c1.4,0,2.6-0.3,3.5-0.9c1.2-0.9,2.1-2.3,2.7-4.5c0.6-2.1,0.9-5,0.9-8c0-3.6-0.3-6.7-0.9-8.7
				c-0.6-2-1.5-3.4-2.5-4.1C990.4,456.3,989.2,456,987.8,456z"/>
			<path class="st3" d="M1014.2,454.1c5.4,6.7,7.6,11.1,13.2,19.1c-0.2-5.5,0-7.8,0.2-13.6c0.1-2-0.1-3.3-0.6-4
				c-0.6-0.9-1.7-1.2-3.2-1.1c0-0.3,0-0.5,0-0.8c3.6-0.1,5.5-0.2,9.1-0.4c0,0.3,0,0.5,0,0.8c-1.2,0.2-1.9,0.4-2.4,0.7
				c-0.4,0.3-0.7,0.7-1,1.4c-0.2,0.6-0.4,1.7-0.4,3.3c-0.4,11.4,0.2,17.7,0.2,26.8c-0.3,0-0.4,0-0.7,0c-6.2-8.8-12.8-17.3-18.7-26.3
				c-0.2,8.2-0.2,11.4,0,19.6c0.1,1.8,0.4,3,1.2,3.7c0.7,0.6,1.6,0.9,2.5,1c0.3,0,0.4,0,0.6,0c0,0.3,0,0.5,0,0.8
				c-3.9-0.2-5.9-0.2-9.8-0.4c0-0.3,0-0.5,0-0.8c1.5,0,2.6-0.2,3.2-0.9c0.6-0.6,0.9-1.8,0.8-3.5c-0.2-9-0.2-13,0-21.7
				c-0.2-0.3-0.3-0.5-0.6-0.8c-0.6-0.8-1.1-1.3-1.5-1.5c-0.4-0.2-1.1-0.3-1.9-0.3c0-0.3,0-0.5,0-0.8
				C1008.3,454.4,1010.3,454.3,1014.2,454.1z"/>
			<path class="st3" d="M1050.7,476.8c-3.9-0.1-5.8-0.1-9.7-0.1c-0.4,1.4-0.6,2.1-1,3.4c-0.3,1.1-0.5,2.1-0.5,2.8c0,0.9,0.4,1.6,1,2
				c0.4,0.3,1.3,0.5,2.7,0.7c0,0.3,0,0.5,0,0.8c-3.7-0.1-5.5-0.2-9.1-0.4c0-0.3,0-0.5,0-0.8c1-0.1,1.8-0.5,2.4-1.3
				c0.6-0.8,1.3-2.4,2.2-5.1c2.7-9.1,6.6-17.8,10.1-26.6c0.2,0,0.2,0,0.4,0c3,9.3,5.8,18.8,9.6,27.9c1.1,2.9,1.9,4.6,2.6,5.3
				c0.5,0.5,1.1,0.8,2,0.9c0,0.3,0,0.5,0,0.8c-5.3-0.2-8-0.3-13.3-0.5c0-0.3,0-0.5,0-0.8c0.2,0,0.3,0,0.5,0c1.1,0,1.8-0.1,2.2-0.4
				c0.3-0.2,0.4-0.6,0.4-1.1c0-0.3-0.1-0.6-0.2-0.9c0-0.2-0.3-0.8-0.7-2C1051.7,479.5,1051.4,478.6,1050.7,476.8z M1049.9,474.8
				c-1.8-4.9-2.6-6.2-4-11.1c-1.9,4.9-2.7,6.3-4.2,11C1045,474.7,1046.6,474.8,1049.9,474.8z"/>
			<path class="st3" d="M1089.3,474.6c-0.1,5.3,0,8.9-0.4,13.2c-9.7-0.2-14.6-0.3-24.4-0.7c0-0.3,0-0.5,0-0.8c0.4,0,0.5,0,0.9,0
				c0.8,0,1.4-0.1,1.9-0.4c0.3-0.2,0.6-0.6,0.8-1.2c0.1-0.4,0.2-1.5,0.1-3.4c-0.5-9.9-0.5-13.5,0-23.4c0.1-1.9,0.1-3-0.1-3.5
				c-0.1-0.4-0.4-0.8-0.9-1.1s-1.1-0.4-1.8-0.4c-0.4,0-0.5,0-0.9,0c0-0.3,0-0.5,0-0.8c5.9-0.2,8.8-0.3,14.6-0.4c0,0.3,0,0.5,0,0.8
				c-0.5,0-0.7,0-1.2,0c-0.8,0-1.4,0.2-1.9,0.6c-0.3,0.2-0.6,0.6-0.9,1.2c-0.2,0.4-0.3,1.5-0.4,3.4c-0.5,9.7-0.6,13,0,22.9
				c0.1,2,0.2,3.2,0.4,3.7c0.2,0.5,0.5,0.9,1,1.1c0.3,0.2,1.2,0.3,2.5,0.3c0.9,0,1.4,0,2.3,0.1c1.5,0,2.7-0.2,3.6-0.9
				c0.9-0.6,1.7-1.7,2.3-3.3c0.6-1.6,1.1-4,1.6-7C1088.8,474.6,1089,474.6,1089.3,474.6z"/>
			<path class="st3" d="M1110.8,450.6c0.1,3.7-0.2,7.1-0.4,12.4c-0.3,0-0.5,0-0.8,0c-0.2-3.3-1-6.2-2.4-8.1
				c-1.4-1.9-3.1-2.7-4.8-2.6c-1.4,0-2.5,0.4-3.3,1.4c-0.8,1-1.3,2.1-1.4,3.5c0,0.9,0,1.7,0.3,2.4c0.3,0.9,0.9,1.9,1.7,2.8
				c0.6,0.6,2,1.8,4.2,3.3c3.1,2.1,5.2,3.6,6.4,5.2c1.1,1.6,1.8,3.8,2,6.5c0.2,3.4-0.5,6.4-2.2,8.5c-1.7,2.1-4,2.8-6.7,2.8
				c-0.9,0-1.7-0.1-2.4-0.3s-1.7-0.6-2.9-1.1c-0.7-0.3-1.2-0.5-1.6-0.5c-0.4,0-0.7,0.2-1.1,0.5c-0.4,0.3-0.7,0.8-0.9,1.3
				c-0.3,0-0.4,0-0.7,0c0-4.2-0.4-8.3-0.7-14c0.3,0,0.4,0,0.7,0c0.8,4,2.2,7.5,4,9.6c1.8,2.1,3.6,3,5.6,3c1.5,0,2.7-0.4,3.5-1.5
				c0.8-1.1,1.2-2.4,1.1-4c-0.1-1-0.3-1.9-0.7-2.8c-0.4-0.9-1-1.8-1.7-2.6c-0.7-0.8-2-1.8-3.9-3c-2.6-1.6-4.4-2.8-5.5-3.7
				c-1.1-0.9-1.9-2-2.4-3.4c-0.5-1.4-0.7-3.1-0.6-4.9c0.2-3.2,1.1-5.9,2.8-7.9c1.7-2,3.7-2.7,6.1-2.7c0.9,0,1.7,0.1,2.6,0.3
				c0.6,0.2,1.4,0.5,2.3,1c0.9,0.5,1.5,0.8,1.9,0.8c0.3,0,0.6-0.1,0.8-0.4c0.2-0.3,0.4-0.9,0.6-1.7
				C1110.5,450.6,1110.6,450.6,1110.8,450.6z"/>
		</g>
	</g>
	<rect x="983.9" y="504.5" class="st4" width="108.8" height="1.2"/>
	<rect x="983.9" y="511.8" class="st4" width="108.8" height="1.2"/>
	<rect x="791.9" y="504.5" class="st4" width="108.8" height="1.2"/>
	<rect x="791.9" y="511.8" class="st4" width="108.8" height="1.2"/>
</g>
<g>
	<path class="st0" d="M129.4,595.5l0.1,0.2C129.5,595.7,129.4,595.6,129.4,595.5L129.4,595.5z M94.2,535.7l-0.9-0.6L94.2,535.7
		L94.2,535.7z M93.3,535.1l-0.9-0.6L93.3,535.1L93.3,535.1z M92.4,534.5l-0.9-0.6L92.4,534.5L92.4,534.5z M91.5,533.9l-1-0.4
		L91.5,533.9L91.5,533.9z M89.7,532.8l0.1,0.2C89.8,532.9,89.6,532.8,89.7,532.8L89.7,532.8z M88.8,532.2l0.1,0.2
		C88.9,532.3,88.7,532.2,88.8,532.2L88.8,532.2z M87.9,531.6l0.1,0.2C88,531.8,87.8,531.7,87.9,531.6L87.9,531.6z M87,531l0.1,0.2
		C87.1,531.2,86.9,531.1,87,531L87,531z M160.1,502.6L160.1,502.6L160.1,502.6z M94.2,535.7c1.6,0.3,6.3,2.9,7.8,3.7
		c15.3,8,15.8,8.3,29.1,17.1c4.5,3,17.9,12.7,21.3,13.9l-18.5-27.9c-1.4-2-2.5-3.5-3.8-5.7c-4.8-7.6-22.8-33.5-25.2-40
		c-1.5-4-6.6-18.6-4.8-21.5c3.7,0.7,0.8,3.8,4.5,13.9c3.3,8.9,12.3,21.8,17.7,30.3c1.4,2.2,2.5,4,3.8,6.1l9.6,14.1
		c4.9,6.6,9.1,13.6,13.6,20.5c2,3.1,5.3,9.6,9.4,10.3l1.6-64.6c-0.3,3.2,0.2,12.5,0.4,16.3c0.3,5.6,0.4,11.1,0.9,16.3
		c0.9,10.3,0.7,14.8,0.7,24.8l-0.4,9.1c4.6-2.4,4.8-5.7,11.4-5.9c4.7-0.1,4.5,0.4,5.1,1.4c-3.1-0.3-7.2,0.6-8.8,2.1
		c-1.3,1.3-4.1,5.7-4.4,8.1c6.5,0.7,16.1-1,21.2-2.4c3.6-1,6.2-1.6,9.4-3l8.4-4.4l2.3-2.2l-2.6-0.8c-6.8-0.8-15.1-2.9-20.8-6.4
		c-8.4-5.1-7.5-10.4-3-19.3c4.2-8.3,11.9-19,18-26.4c1.2-1.5,6.3-6.8,6.9-8.3c-1.4,0.2-3.8,1-5.3,1.5c-4.6,1.5-13.9,4.2-18.3,1.8
		c-1.4-0.8-2.5-2.4-3.6-3.7c-4.9-6.2-2.4-12.5-1.4-17.7c-6.4-1.2-17-8.8-21.1-14c-1-1.2-1.3-2.2-2.2-3c-1,1.6-1.9,4.6-4.8,9.2
		c-1.9,3-3.6,5.1-6,7.7c-1.5,1.6-2,1.9-3.5,3.2c-9.1,8.3-8.1,4.8-12.2,2.2c-2.5-1.6-4.7-1.5-7.6-6.1c-4.3-6.6-3.6-9.5-2.2-15.9
		c2.4-10.9,0.8-10.6,0-17.3c-2.3,0.4-4.1,4.4-9.1,5.5c-4.5,1-9.5-1.8-11-4.1c-2.1-3.4-0.6-14.4-3.8-21c-0.6-1.1-0.6-1.5-1.9-2
		c-1.4,3.9-3,5.4-4.8,11.9c-1.2,4.2-1.2,10.4-2,15.4c-0.4,2.4-0.9,4-1.3,7.1c-0.4,3.3,0.6,9.5-2.7,13.5c-1.6,2-3.3,2.3-4.5,3.7
		c4.3,1.6,11.9,12.3,14.1,17.1l4.6,10.7c0.9,2.2,4.3,9.4,2,11.3c-3.4,2.7-6.6-4.2-9-5.1c-4.3-1.6-2.2,3.3-12.1-1.2
		c-10.2-4.7-6.4-4.7-17.7-7.1c-2.3-0.5-5-1-7.1-1.7c0.8,1.5,6.3,5.4,8,6.6c5.2,3.9,10.5,9.5,13.8,15.1c1.5,2.5,4.8,7.9-0.8,8.6
		c0.4,2.6,2.9,4.1,4.6,5.9c1.7,1.9,3.3,3.7,5.5,5.1c6.3,4.3,11.9,5,8.4,10.7c-6.8-0.7-8-0.6-14.4,1.2c-1.7,0.5-2.7,1-4.3,1.2
		c0.4,2.3,2.4,3.7,3.9,5.2c6.5,6.5,5.3,6.4,16.1,11.9l28.3,10.8l1.2-1.8c0.9,5.6,7.7,3.8-5.3,17.7c-1.4,1.5-3.7,3.5-4.4,5.4
		l13.2-3.7c12-3.5,24.1-11.1,32-20.5c0.7,0.6,2.6,3.5,3.5,4.6c1.3,1.6,2.3,2.9,3.6,4.5c1.4,1.8,2.5,2.6,3.9,4.3
		c7.8,9.3,24,18.4,34.6,24.5c5.6,3.2,22.3,13.4,20.2,1.6c-2.8-15.9-12.3-11-20.5-12.7c-6.4-1.3-9-1-13.9-3.6
		c-9.4-4.9-20.4-14.7-27.7-22.7c-2-2.2-1.3-2.5-4.3-3.9c-8.1-3.7-12.3-3.7-17.9,2.6l-7.5,9.6c1.1-5.8,7.5-13.9,14.7-17
		c3.1-1.3,4.1-1.8,8.5-1.4c-1.2-2.1-24.7-19.2-28.2-21.4C123.3,554.3,95.9,537.5,94.2,535.7L94.2,535.7z"/>
</g>
<g>
	
		<text transform="matrix(1 0 0 1 217.7404 612.2433)" class="st5" style="font-family:'FuturaBT-BookItalic'; font-size:22px; letter-spacing:8;">Go With The Pros</text>
	
		<text transform="matrix(0.8914 0 0 1 286.8475 508.5267)" class="st1" style="font-family:'TimesNewRomanPS-BoldMT'; font-size:38.1415px;">Real Estate</text>
	<g>
		<text transform="matrix(1 0 0 1 340.0461 587.428)" class="st1" style="font-family:'TimesNewRomanPS-BoldMT'; font-size:34px;">Inc.</text>
	</g>
	<g>
		<g>
			<path class="st1" d="M207.2,538.2c0,3.5,0,6.2,0,10.7c0,2.2,0.1,3.4,0.3,3.9c0.2,0.5,0.5,0.9,1,1.1s1.3,0.4,2.5,0.4
				c0,0.4,0,0.5,0,0.9c-5.5,0.1-8.3,0.1-13.9,0.1c0-0.3,0-0.5,0-0.8c1.3,0,2.1-0.1,2.6-0.4c0.4-0.3,0.8-0.7,0.9-1.2s0.3-1.7,0.3-3.9
				c0-10.4,0-13.8,0-24.2c0-2.2-0.1-3.4-0.3-3.9c-0.2-0.5-0.5-0.9-1-1.2c-0.5-0.3-1.3-0.4-2.6-0.4c0-0.3,0-0.5,0-0.8
				c4.8,0,7.1,0,11.9,0.1c3.9,0,6.7,0.8,8.4,2.6c1.7,1.8,2.6,4.4,2.6,7.4c0,2.6-0.6,4.7-1.7,6.2c-1.1,1.5-2.6,2.3-4.5,2.9
				C212.5,538,210.3,538.2,207.2,538.2z M207.2,520.3c0,5.9,0,11.2,0,16.2c0.4,0,0.8,0,1,0c1.6,0,2.9-0.5,3.8-1.7
				c0.9-1.2,1.3-3.2,1.3-6.2c0-3-0.4-5.1-1.3-6.4s-2.2-1.9-4-1.9C207.7,520.3,207.5,520.3,207.2,520.3z"/>
			<path class="st1" d="M232.2,538.1c0,3.5,0,6.1,0,10.4c0,2.1,0.1,3.3,0.3,3.8c0.2,0.5,0.5,0.8,1,1.1s1.3,0.4,2.6,0.3
				c0,0.3,0,0.5,0,0.8c-5.6,0.2-8.4,0.2-14,0.4c0-0.3,0-0.5,0-0.9c1.3,0,2.1-0.2,2.6-0.5c0.4-0.3,0.8-0.7,0.9-1.2
				c0.2-0.5,0.3-1.7,0.3-3.8c0-10.1,0-13.6,0-23.6c0-2.1-0.1-3.3-0.3-3.8c-0.2-0.5-0.5-0.9-1-1.2c-0.5-0.3-1.3-0.4-2.6-0.5
				c0-0.4,0-0.5,0-0.8c5.1,0.1,7.6,0.2,12.7,0.3c3.3,0.1,5.7,0.4,7.2,1c1.5,0.6,2.8,1.6,3.7,3.2c1,1.6,1.4,3.6,1.4,5.9
				c0,2.8-0.7,4.9-2.2,6.4c-0.9,0.9-2.2,1.6-3.9,2c2.6,4.1,3.9,7.3,6.6,12.1c0.9,1.6,1.5,2.4,1.8,2.8c0.6,0.5,1.2,0.7,1.9,0.7
				c0,0.3,0,0.5,0,0.8c-3.4,0.1-5.2,0.2-8.6,0.3c-3.5-5.3-5.3-10.5-8.8-16.2C233.3,538.1,232.9,538.1,232.2,538.1z M232.2,520.6
				c0,5.9,0,10.8,0,15.9c0.5,0,0.7,0,1.1,0c1.9,0,3.3-0.2,4.2-0.6c0.9-0.4,1.7-1.1,2.2-2.2c0.5-1.1,0.8-2.7,0.8-4.7
				c0-2.9-0.5-5.1-1.5-6.4c-1-1.3-2.5-2-4.7-2C233.5,520.7,233.1,520.7,232.2,520.6z"/>
			<path class="st1" d="M267,519.7c4.2,0.2,7.9,1.4,10.6,4.7c2.7,3.4,4.1,8.1,4.1,12.2c0,3.5-1,7.6-3,10.9
				c-2.7,4.4-6.5,6.3-11.4,6.5c-4.9,0.2-8.7-1.2-11.4-5.6c-2.1-3.4-3.2-8.1-3.2-11.8c0-4.2,1.4-9.4,4.1-12.8
				C259.5,520.4,263.1,519.6,267,519.7z M267.2,521.1c-2.5-0.1-4.4,1.2-5.7,4.5c-1.1,2.7-1.6,7.2-1.6,11.2c0,4.8,0.8,10.2,2.5,13
				c1.1,1.9,2.7,2.7,4.8,2.6c1.4-0.1,2.5-0.5,3.5-1.3c1.2-1.1,2.1-2.8,2.8-5.2c0.7-2.4,1-5.8,1-8.9c0-3.7-0.3-7.4-1-9.7
				c-0.7-2.3-1.5-3.9-2.6-4.8C269.8,521.6,268.6,521.2,267.2,521.1z"/>
			<path class="st1" d="M294.4,522.9c0,4.9,0,8.3,0,13c0.3,0,0.5,0,0.8,0c1.2,0,2.2-0.2,3-0.6c0.8-0.4,1.4-1,1.9-2s0.9-2.3,1-4
				c0.3,0,0.4,0,0.7,0c0,6.4,0,8.7,0,15.2c-0.3,0-0.4,0-0.7,0c-0.3-3-0.9-5-2.1-5.8c-1.1-0.9-2.4-1.3-3.9-1.3c-0.3,0-0.5,0-0.8,0
				c0,3.4,0,5.7,0,9.7c0,1.7,0.1,2.6,0.2,3c0.2,0.4,0.5,0.7,0.9,1c0.4,0.3,1.1,0.4,1.8,0.3c0.4,0,0.5,0,0.9,0c0,0.3,0,0.5,0,0.8
				c-5.7,0.2-8.6,0.3-14.3,0.6c0-0.3,0-0.5,0-0.8c0.4,0,0.5,0,0.9,0c0.8,0,1.4-0.2,1.9-0.5c0.3-0.2,0.6-0.6,0.8-1.1
				c0.1-0.4,0.2-1.3,0.2-3c0-8.7,0-12.2,0-20.9c0-1.7-0.1-2.7-0.2-3.1c-0.1-0.4-0.4-0.8-0.9-1.1c-0.4-0.3-1.1-0.5-1.8-0.5
				c-0.4,0-0.5,0-0.9,0c0-0.3,0-0.5,0-0.8c9.2,0.4,13.8,0.6,23,0.9c0,3.2,0,5.1,0,8.7c-0.3,0-0.5,0-0.8,0c-0.2-2.1-0.7-3.7-1.4-4.7
				c-0.8-1-1.9-1.8-3.4-2.2c-0.8-0.2-2.3-0.4-4.5-0.5C296,523,295.5,523,294.4,522.9z"/>
			<path class="st1" d="M319.5,523.8c0,4.6,0,7.5,0,12c0.2,0,0.3,0,0.5,0c1.7,0,3-0.5,3.8-1.7c0.8-1.1,1.3-2.9,1.5-5.2
				c0.3,0,0.5,0,0.8,0c0,6.2,0,8.8,0,15c-0.3,0-0.5,0-0.8,0c-0.2-1.7-0.5-3.1-1-4.1c-0.5-1-1.1-1.7-1.8-2.1c-0.7-0.3-1.7-0.5-3-0.5
				c0,3,0,4.9,0,8.3c0,1.7,0.1,2.7,0.2,3c0.1,0.4,0.4,0.6,0.7,0.9c0.3,0.2,0.9,0.3,1.7,0.3c0.7,0,1,0,1.6,0c2.5-0.1,4.6-0.7,6.1-2
				c1.5-1.3,2.6-3.3,3.3-5.8c0.3,0,0.4,0,0.7,0c-0.5,3.7-0.7,5.7-1.2,9.1c-9.4,0.3-14.2,0.4-23.6,0.8c0-0.3,0-0.5,0-0.8
				c0.4,0,0.5,0,0.9,0c0.8,0,1.4-0.2,1.9-0.5c0.3-0.2,0.6-0.6,0.8-1.1c0.1-0.3,0.2-1.3,0.2-2.8c0-8.1,0-11.5,0-19.6
				c0-1.4,0-2.2-0.1-2.5c-0.1-0.5-0.4-0.9-0.7-1.2c-0.5-0.4-1.2-0.6-2.1-0.7c-0.4,0-0.5,0-0.9,0c0-0.3,0-0.5,0-0.8
				c9.1,0.3,13.7,0.5,22.8,0.7c0,3.2,0,5,0,8.5c-0.3,0-0.5,0-0.8,0c-0.4-2.1-0.9-3.7-1.6-4.6c-0.7-0.9-1.7-1.6-3-2.1
				c-0.8-0.3-2.2-0.4-4.2-0.5C321.2,523.8,320.6,523.8,319.5,523.8z"/>
			<path class="st1" d="M355.1,522.4c0.1,3.6,0.1,5.5,0.2,9.2c-0.3,0-0.5,0-0.8,0c-0.4-2.3-1.3-4.2-2.9-5.6
				c-1.5-1.4-3.2-2.1-4.9-2.2c-1.4,0-2.5,0.3-3.3,1s-1.2,1.6-1.2,2.6c0,0.6,0.1,1.2,0.4,1.7c0.4,0.7,1,1.3,1.9,2
				c0.6,0.5,2.1,1.3,4.4,2.4c3.2,1.6,5.4,3,6.5,4.4c1.1,1.4,1.7,3,1.7,4.8c0,2.3-0.9,4.3-2.7,6c-1.8,1.7-4,2.5-6.8,2.5
				c-0.9,0-1.7-0.1-2.4-0.2c-0.8-0.2-1.7-0.5-2.9-0.9c-0.6-0.3-1.2-0.4-1.6-0.4c-0.3,0-0.7,0.2-1.1,0.4s-0.7,0.7-0.9,1.2
				c-0.3,0-0.4,0-0.7,0c0-4,0-6.4,0-10.7c0.3,0,0.4,0,0.7,0c0.6,3,1.7,5.4,3.4,6.9c1.7,1.5,3.5,2.2,5.4,2.2c1.5,0,2.7-0.5,3.6-1.3
				c0.9-0.8,1.3-1.8,1.3-2.9c0-0.7-0.2-1.3-0.5-1.9c-0.3-0.6-0.9-1.2-1.6-1.8c-0.7-0.6-1.9-1.3-3.7-2.2c-2.5-1.2-4.3-2.3-5.4-3.1
				c-1.1-0.8-1.9-1.8-2.5-2.9c-0.6-1.1-0.9-2.3-0.9-3.7c0-2.3,0.8-4.2,2.4-5.7c1.6-1.5,3.6-2.2,6-2.2c0.9,0,1.7,0.1,2.6,0.4
				c0.6,0.2,1.4,0.5,2.3,0.9c0.9,0.4,1.5,0.7,1.9,0.7c0.3,0,0.6-0.1,0.8-0.3s0.4-0.7,0.6-1.5C354.8,522.4,354.9,522.4,355.1,522.4z"
				/>
			<path class="st1" d="M378.1,522.4c0.1,3.6,0.1,5.5,0.2,9.1c-0.3,0-0.5,0-0.8,0c-0.4-2.3-1.3-4.2-2.9-5.5
				c-1.5-1.4-3.2-2.1-4.9-2.1c-1.4,0-2.5,0.4-3.3,1.1c-0.8,0.7-1.2,1.6-1.2,2.5c0,0.6,0.1,1.1,0.4,1.6c0.4,0.6,1,1.3,1.9,1.9
				c0.6,0.4,2.1,1.2,4.4,2.4c3.2,1.6,5.4,3,6.5,4.4c1.1,1.4,1.7,3,1.7,4.8c0,2.3-0.9,4.3-2.7,5.9c-1.8,1.6-4,2.4-6.8,2.4
				c-0.9,0-1.7-0.1-2.4-0.3c-0.8-0.2-1.7-0.5-2.9-1c-0.6-0.3-1.2-0.4-1.6-0.4c-0.3,0-0.7,0.1-1.1,0.4c-0.4,0.3-0.7,0.7-0.9,1.2
				c-0.3,0-0.4,0-0.7,0c0-4.1,0-6.2,0-10.3c0.3,0,0.4,0,0.7,0c0.6,2.9,1.7,5.1,3.4,6.7c1.7,1.5,3.5,2.3,5.4,2.3
				c1.5,0,2.7-0.4,3.6-1.2c0.9-0.8,1.3-1.8,1.3-2.9c0-0.7-0.2-1.3-0.5-1.9c-0.3-0.6-0.9-1.2-1.6-1.7c-0.7-0.5-1.9-1.3-3.7-2.1
				c-2.5-1.2-4.3-2.3-5.4-3.1c-1.1-0.9-1.9-1.8-2.5-2.9c-0.6-1.1-0.9-2.2-0.9-3.5c0-2.2,0.8-4.1,2.4-5.6c1.6-1.5,3.6-2.3,6-2.3
				c0.9,0,1.7,0.1,2.6,0.3c0.6,0.2,1.4,0.4,2.3,0.9c0.9,0.4,1.5,0.6,1.9,0.6c0.3,0,0.6-0.1,0.8-0.3c0.2-0.2,0.4-0.7,0.6-1.5
				C377.7,522.4,377.8,522.4,378.1,522.4z"/>
			<path class="st1" d="M396.8,550.1c0,0.3,0,0.4,0,0.7c-5.7-0.1-8.6-0.2-14.3-0.3c0-0.3,0-0.4,0-0.7c0.4,0,0.5,0,0.9,0
				c0.8,0,1.4-0.1,1.9-0.4c0.3-0.2,0.6-0.5,0.8-1c0.1-0.3,0.2-1.2,0.2-2.6c0-7.4,0-10.9,0-18.2c0-1.4-0.1-2.3-0.2-2.7
				c-0.1-0.3-0.4-0.7-0.9-0.9c-0.5-0.3-1.1-0.4-1.8-0.4c-0.4,0-0.5,0-0.9,0c0-0.3,0-0.4,0-0.7c5.7-0.1,8.6-0.1,14.3-0.3
				c0,0.3,0,0.4,0,0.7c-0.4,0-0.5,0-0.9,0c-0.8,0-1.4,0.2-1.9,0.5c-0.3,0.2-0.6,0.5-0.8,1c-0.1,0.3-0.2,1.2-0.2,2.6
				c-0.1,7.5-0.1,10.9,0,18.4c0,1.5,0.1,2.3,0.2,2.7c0.2,0.4,0.5,0.7,0.9,0.9c0.5,0.3,1.1,0.4,1.8,0.4
				C396.3,550,396.4,550,396.8,550.1z"/>
			<path class="st1" d="M413.8,521.9c4.2-0.1,7.9,0.7,10.6,3.6c2.7,2.9,3.9,7.2,3.9,11.1c0,3.4-0.9,7.1-2.9,10
				c-2.6,3.9-6.5,5.4-11.4,5.2c-4.9-0.2-8.7-1.9-11.5-5.5c-2.2-2.8-3.2-6.3-3.3-9.8c0-3.9,1.4-7.7,4.2-10.6
				C406.3,523.2,409.9,522,413.8,521.9z M414,523.2c-2.5,0.1-4.4,1.4-5.8,4.2c-1.1,2.3-1.7,5.7-1.7,9.5c0,4.5,0.9,8.5,2.6,11
				c1.2,1.7,2.8,2.5,4.8,2.6c1.4,0,2.6-0.3,3.5-0.9c1.2-0.9,2.1-2.3,2.7-4.5c0.6-2.1,0.9-5,0.9-8c0-3.6-0.3-6.7-0.9-8.7
				c-0.6-2-1.5-3.4-2.5-4.1C416.6,523.4,415.4,523.1,414,523.2z"/>
			<path class="st1" d="M440.3,521.3c5.4,6.7,7.6,11.1,13.2,19.1c-0.2-5.5,0-7.8,0.2-13.6c0.1-2-0.1-3.3-0.6-4
				c-0.6-0.9-1.7-1.2-3.2-1.1c0-0.3,0-0.5,0-0.8c3.6-0.1,5.5-0.2,9.1-0.4c0,0.3,0,0.5,0,0.8c-1.2,0.2-1.9,0.4-2.4,0.7
				c-0.4,0.3-0.7,0.7-1,1.4c-0.2,0.6-0.4,1.7-0.4,3.3c-0.4,11.4,0.2,17.7,0.2,26.8c-0.3,0-0.4,0-0.7,0c-6.2-8.8-12.8-17.3-18.7-26.3
				c-0.2,8.2-0.2,11.4,0,19.6c0.1,1.8,0.4,3,1.2,3.7c0.7,0.6,1.6,0.9,2.5,1c0.3,0,0.4,0,0.6,0c0,0.3,0,0.5,0,0.8
				c-3.9-0.2-5.9-0.2-9.8-0.4c0-0.3,0-0.5,0-0.8c1.5,0,2.6-0.2,3.2-0.9c0.6-0.6,0.9-1.8,0.8-3.5c-0.2-9-0.2-13,0-21.7
				c-0.2-0.3-0.3-0.5-0.6-0.8c-0.6-0.8-1.1-1.3-1.5-1.5c-0.4-0.2-1.1-0.3-1.9-0.3c0-0.3,0-0.5,0-0.8
				C434.5,521.5,436.4,521.4,440.3,521.3z"/>
			<path class="st1" d="M476.9,543.9c-3.9-0.1-5.8-0.1-9.7-0.1c-0.4,1.4-0.6,2.1-1,3.4c-0.3,1.1-0.5,2.1-0.5,2.8c0,0.9,0.4,1.6,1,2
				c0.4,0.3,1.3,0.5,2.7,0.7c0,0.3,0,0.5,0,0.8c-3.7-0.1-5.5-0.2-9.1-0.4c0-0.3,0-0.5,0-0.8c1-0.1,1.8-0.5,2.4-1.3
				c0.6-0.8,1.3-2.4,2.2-5.1c2.7-9.1,6.6-17.8,10.1-26.6c0.2,0,0.2,0,0.4,0c3,9.3,5.8,18.8,9.6,27.9c1.1,2.9,1.9,4.6,2.6,5.3
				c0.5,0.5,1.1,0.8,2,0.9c0,0.3,0,0.5,0,0.8c-5.3-0.2-8-0.3-13.3-0.5c0-0.3,0-0.5,0-0.8c0.2,0,0.3,0,0.5,0c1.1,0,1.8-0.1,2.2-0.4
				c0.3-0.2,0.4-0.6,0.4-1.1c0-0.3-0.1-0.6-0.2-0.9c0-0.2-0.3-0.8-0.7-2C477.9,546.7,477.6,545.7,476.9,543.9z M476.1,541.9
				c-1.8-4.9-2.6-6.2-4-11.1c-1.9,4.9-2.7,6.3-4.2,11C471.2,541.9,472.8,541.9,476.1,541.9z"/>
			<path class="st1" d="M515.5,541.8c-0.1,5.3,0,8.9-0.4,13.2c-9.7-0.2-14.6-0.3-24.4-0.7c0-0.3,0-0.5,0-0.8c0.4,0,0.5,0,0.9,0
				c0.8,0,1.4-0.1,1.9-0.4c0.3-0.2,0.6-0.6,0.8-1.2c0.1-0.4,0.2-1.5,0.1-3.4c-0.5-9.9-0.5-13.5,0-23.4c0.1-1.9,0.1-3-0.1-3.5
				c-0.1-0.4-0.4-0.8-0.9-1.1c-0.4-0.3-1.1-0.4-1.8-0.4c-0.4,0-0.5,0-0.9,0c0-0.3,0-0.5,0-0.8c5.9-0.2,8.8-0.3,14.6-0.4
				c0,0.3,0,0.5,0,0.8c-0.5,0-0.7,0-1.2,0c-0.8,0-1.4,0.2-1.9,0.6c-0.3,0.2-0.6,0.6-0.9,1.2c-0.2,0.4-0.3,1.5-0.4,3.4
				c-0.5,9.7-0.6,13,0,22.9c0.1,2,0.2,3.2,0.4,3.7c0.2,0.5,0.5,0.9,1,1.1c0.3,0.2,1.2,0.3,2.5,0.3c0.9,0,1.4,0,2.3,0.1
				c1.5,0,2.7-0.2,3.6-0.9c0.9-0.6,1.7-1.7,2.3-3.3c0.6-1.6,1.1-4,1.6-7C515,541.8,515.1,541.8,515.5,541.8z"/>
			<path class="st1" d="M537,517.7c0.1,3.7-0.2,7.1-0.4,12.4c-0.3,0-0.5,0-0.8,0c-0.2-3.3-1-6.2-2.4-8.1c-1.4-1.9-3.1-2.7-4.8-2.6
				c-1.4,0-2.5,0.4-3.3,1.4c-0.8,1-1.3,2.1-1.4,3.5c0,0.9,0,1.7,0.3,2.4c0.3,0.9,0.9,1.9,1.7,2.8c0.6,0.6,2,1.8,4.2,3.3
				c3.1,2.1,5.2,3.6,6.4,5.2c1.1,1.6,1.8,3.8,2,6.5c0.2,3.4-0.5,6.4-2.2,8.5c-1.7,2.1-4,2.8-6.7,2.8c-0.9,0-1.7-0.1-2.4-0.3
				c-0.8-0.2-1.7-0.6-2.9-1.1c-0.7-0.3-1.2-0.5-1.6-0.5c-0.4,0-0.7,0.2-1.1,0.5c-0.4,0.3-0.7,0.8-0.9,1.3c-0.3,0-0.4,0-0.7,0
				c0-4.2-0.4-8.3-0.7-14c0.3,0,0.4,0,0.7,0c0.8,4,2.2,7.5,4,9.6c1.8,2.1,3.6,3,5.6,3c1.5,0,2.7-0.4,3.5-1.5c0.8-1.1,1.2-2.4,1.1-4
				c-0.1-1-0.3-1.9-0.7-2.8c-0.4-0.9-1-1.8-1.7-2.6c-0.7-0.8-2-1.8-3.9-3c-2.6-1.6-4.4-2.8-5.5-3.7c-1.1-0.9-1.9-2-2.4-3.4
				c-0.5-1.4-0.7-3.1-0.6-4.9c0.2-3.2,1.1-5.9,2.8-7.9c1.7-2,3.7-2.7,6.1-2.7c0.9,0,1.7,0.1,2.6,0.3c0.6,0.2,1.4,0.5,2.3,1
				c0.9,0.5,1.5,0.8,1.9,0.8c0.3,0,0.6-0.1,0.8-0.4c0.2-0.3,0.4-0.9,0.6-1.7C536.7,517.7,536.8,517.7,537,517.7z"/>
		</g>
	</g>
	<rect x="410.1" y="571.6" class="st2" width="108.8" height="1.2"/>
	<rect x="410.1" y="578.9" class="st2" width="108.8" height="1.2"/>
	<rect x="218.1" y="571.6" class="st2" width="108.8" height="1.2"/>
	<rect x="218.1" y="578.9" class="st2" width="108.8" height="1.2"/>
</g>
<g>
	<path class="st0" d="M99.2,188.6l0.1,0.1C99.4,188.8,99.2,188.7,99.2,188.6L99.2,188.6z M57.9,132.9l-1-0.5L57.9,132.9L57.9,132.9z
		 M56.9,132.4l-1-0.5L56.9,132.4L56.9,132.4z M56,131.9l-1-0.5L56,131.9L56,131.9z M55,131.4l-1-0.3L55,131.4L55,131.4z M53.1,130.5
		l0.1,0.1C53.2,130.6,53,130.5,53.1,130.5L53.1,130.5z M52.1,130l0.1,0.1C52.3,130.1,52.1,130,52.1,130L52.1,130z M51.2,129.5
		l0.1,0.1C51.3,129.6,51.1,129.5,51.2,129.5L51.2,129.5z M50.2,129l0.1,0.1C50.3,129.1,50.1,129.1,50.2,129L50.2,129z M119.9,92.9
		L119.9,92.9L119.9,92.9z M57.9,132.9c1.6,0.1,6.5,2.2,8.2,2.9c16,6.3,16.6,6.6,30.8,14c4.8,2.5,19.2,10.7,22.6,11.5l-21.3-25.8
		c-1.6-1.9-2.8-3.3-4.4-5.2c-5.5-7.1-26.2-30.9-29.3-37.1c-1.9-3.8-8.5-17.8-7-20.8c3.8,0.3,1.2,3.7,5.9,13.3
		c4.2,8.5,14.5,20.3,20.8,28.2c1.6,2,2.9,3.7,4.5,5.6l11,13c5.6,6,10.5,12.6,15.7,19c2.3,2.8,6.3,8.9,10.4,9.3l-5.3-64.4
		c0,3.2,1.5,12.4,2.1,16.1c0.9,5.5,1.6,11,2.6,16.1c2,10.1,2.3,14.6,3.3,24.6l0.6,9.1c4.3-2.9,4.1-6.2,10.7-7.1
		c4.7-0.6,4.5-0.1,5.2,0.9c-3.1,0-7.1,1.3-8.5,3c-1.2,1.4-3.4,6.1-3.5,8.5c6.5,0,15.9-2.7,20.8-4.7c3.4-1.4,6-2.3,9-4l7.9-5.3l2-2.4
		l-2.7-0.5c-6.9-0.1-15.3-1.3-21.4-4.1c-8.9-4.2-8.6-9.6-5.1-18.9c3.3-8.7,9.8-20.2,15.1-28.1c1.1-1.6,5.6-7.5,6-8.9
		c-1.4,0.3-3.6,1.4-5.1,2.1c-4.4,2-13.4,5.6-18,3.7c-1.5-0.6-2.8-2.1-3.9-3.3c-5.5-5.7-3.7-12.2-3.2-17.4
		c-6.5-0.5-17.8-6.9-22.5-11.6c-1.1-1.1-1.5-2-2.5-2.8c-0.8,1.7-1.4,4.7-3.8,9.6c-1.6,3.2-3,5.5-5.1,8.3c-1.3,1.7-1.8,2.1-3.1,3.6
		c-8.2,9.2-7.5,5.6-11.9,3.5c-2.7-1.3-4.8-1-8.2-5.2c-4.9-6.1-4.6-9.1-3.8-15.5c1.2-11.1-0.3-10.7-1.9-17.2
		c-2.2,0.6-3.6,4.8-8.5,6.4c-4.3,1.4-9.6-0.8-11.3-2.9c-2.5-3.1-2.1-14.2-6-20.4c-0.7-1.1-0.7-1.4-2.1-1.8c-0.9,4-2.4,5.7-3.5,12.4
		c-0.7,4.3-0.1,10.5-0.3,15.5c-0.1,2.5-0.5,4.1-0.5,7.2c0,3.3,1.6,9.4-1.2,13.7c-1.4,2.2-3,2.6-4.1,4.1c4.4,1.2,13.1,11,15.8,15.5
		l5.7,10.2c1.1,2.1,5.2,8.9,3.1,11c-3.1,3.1-7-3.4-9.5-4.1c-4.4-1.2-1.9,3.5-12.1,0.1c-10.7-3.6-6.8-4-18.3-5.2
		c-2.3-0.3-5.1-0.5-7.2-1c0.9,1.4,6.9,4.7,8.7,5.7c5.6,3.3,11.4,8.4,15.3,13.6c1.7,2.3,5.6,7.3,0.1,8.6c0.7,2.6,3.4,3.7,5.2,5.4
		c1.9,1.7,3.7,3.3,6,4.5c6.7,3.6,12.4,3.7,9.5,9.8c-6.9,0-8.1,0.2-14.2,2.7c-1.7,0.7-2.6,1.3-4.1,1.7c0.6,2.2,2.7,3.4,4.4,4.7
		c7.2,5.8,5.9,5.8,17.3,10.1l29.3,7.8l1-1.9c1.5,5.5,8.1,3-3.4,18.2c-1.2,1.6-3.3,3.9-3.8,5.8l12.7-5.1
		c11.6-4.8,22.8-13.6,29.6-23.8c0.8,0.6,2.9,3.2,4,4.2c1.5,1.5,2.6,2.6,4.1,4.1c1.6,1.6,2.7,2.3,4.3,3.8c8.8,8.4,25.8,15.7,37,20.7
		c5.9,2.6,23.6,11,20.3-0.6c-4.4-15.5-13.4-9.6-21.8-10.5c-6.5-0.6-9.1-0.1-14.2-2.1c-9.8-3.9-21.8-12.4-29.9-19.6
		c-2.2-2-1.6-2.4-4.7-3.4c-8.4-2.8-12.6-2.4-17.6,4.5l-6.5,10.4c0.5-5.9,6-14.6,12.8-18.4c2.9-1.6,3.9-2.2,8.3-2.2
		c-1.4-1.9-26.6-16.4-30.3-18.3C88.8,148.3,59.8,134.5,57.9,132.9L57.9,132.9z"/>
</g>
<g>
	<g>
		<path class="st5" d="M227.3,201.7h7.7v0.1c0,2.9-0.8,5.1-2.4,6.8s-3.8,2.5-6.6,2.5c-2.7,0-4.8-0.8-6.4-2.4
			c-1.6-1.6-2.4-3.8-2.4-6.4c0-1.5,0.3-2.8,0.8-4.1c0.5-1.3,1.3-2.4,2.3-3.4c0.9-0.9,2-1.6,3.2-2c1.2-0.5,2.4-0.7,3.8-0.7
			c1.7,0,3.2,0.3,4.5,0.9c1.3,0.6,2.4,1.5,3.4,2.8l-1.6,1.5c-0.9-1.1-1.8-1.9-2.8-2.4c-1-0.5-2.2-0.8-3.4-0.8
			c-2.3,0-4.1,0.8-5.6,2.4c-1.5,1.6-2.2,3.6-2.2,6c0,2.1,0.6,3.7,1.9,5c1.3,1.2,2.9,1.9,5,1.9c1.7,0,3.2-0.5,4.5-1.6
			c1.2-1.1,1.9-2.4,2.1-4H227L227.3,201.7z"/>
		<path class="st5" d="M243,205.4c0-1.9,0.6-3.4,1.8-4.7c1.2-1.3,2.7-1.9,4.6-1.9c1.6,0,3,0.5,4.1,1.6c1.1,1,1.6,2.3,1.6,3.9
			c0,2-0.6,3.7-1.8,4.9c-1.2,1.3-2.7,1.9-4.6,1.9c-1.7,0-3.1-0.5-4.2-1.6S243,207.1,243,205.4z M249.3,200.4c-1.2,0-2.3,0.5-3.1,1.4
			s-1.2,2.1-1.2,3.5c0,1.2,0.4,2.3,1.1,3s1.6,1.1,2.8,1.1c1.2,0,2.3-0.5,3.1-1.4s1.2-2.1,1.2-3.5c0-1.2-0.4-2.2-1.1-3
			C251.4,200.8,250.4,200.4,249.3,200.4z"/>
		<path class="st5" d="M281.4,211.3l-4.6-18.9h2.2l3,13.2l6.5-13.9l3.3,13.9l5.8-13.2h2.2l-8.6,18.9l-3.4-13.5L281.4,211.3z"/>
		<path class="st5" d="M305.9,210.6l1.5-11.3h2l-1.5,11.3H305.9z M307.5,193.9c0-0.4,0.1-0.7,0.4-0.9s0.6-0.4,1-0.4
			c0.4,0,0.7,0.1,1,0.4c0.3,0.3,0.4,0.6,0.4,0.9c0,0.4-0.1,0.7-0.4,1s-0.6,0.4-1,0.4c-0.4,0-0.7-0.1-1-0.4S307.5,194.2,307.5,193.9z
			"/>
		<path class="st5" d="M318.7,210.6l1.3-9.7h-2.1l0.2-1.6h2.1l0.6-4.6h2l-0.6,4.6h2.5l-0.2,1.6h-2.5l-1.3,9.7H318.7z"/>
		<path class="st5" d="M331.8,210.6l2.5-19.2h2l-1.4,9.7c0.6-0.8,1.2-1.3,1.9-1.7c0.7-0.4,1.5-0.6,2.3-0.6c1.1,0,1.9,0.3,2.6,0.9
			s0.9,1.4,0.9,2.4c0,0.2,0,0.4,0,0.6s0,0.4-0.1,0.7l-0.9,7.2h-2l0.9-7c0-0.1,0-0.1,0-0.2c0-0.4,0.1-0.7,0.1-0.8
			c0-0.7-0.2-1.2-0.6-1.6c-0.4-0.4-1-0.5-1.8-0.5c-1,0-1.9,0.4-2.5,1.1c-0.6,0.7-1.1,1.8-1.2,3.2l-0.8,5.7H331.8z"/>
		<path class="st5" d="M368.4,210.6l2.1-16.2H366l0.2-2h11.4l-0.3,2h-4.6l-2.1,16.2H368.4z"/>
		<path class="st5" d="M384.2,210.6l2.5-19.2h2l-1.4,9.7c0.6-0.8,1.2-1.3,1.9-1.7c0.7-0.4,1.5-0.6,2.3-0.6c1.1,0,1.9,0.3,2.6,0.9
			s0.9,1.4,0.9,2.4c0,0.2,0,0.4,0,0.6s0,0.4-0.1,0.7l-0.9,7.2h-2l0.9-7c0-0.1,0-0.1,0-0.2c0-0.4,0.1-0.7,0.1-0.8
			c0-0.7-0.2-1.2-0.6-1.6c-0.4-0.4-1-0.5-1.8-0.5c-1,0-1.9,0.4-2.5,1.1c-0.6,0.7-1.1,1.8-1.2,3.2l-0.8,5.7H384.2z"/>
		<path class="st5" d="M415,205.2l-9.1,0v0.2c0,1.2,0.3,2.2,0.9,2.9c0.6,0.7,1.5,1,2.5,1c0.7,0,1.3-0.2,1.8-0.5s1.1-0.8,1.6-1.5
			l1.4,1.1c-0.7,0.9-1.4,1.5-2.2,1.9s-1.7,0.6-2.6,0.6c-1.7,0-3-0.5-4-1.5c-1-1-1.5-2.4-1.5-4.1c0-1.9,0.6-3.5,1.7-4.7
			c1.2-1.2,2.6-1.9,4.4-1.9c1.6,0,2.8,0.5,3.7,1.5c0.9,1,1.3,2.3,1.3,4.1c0,0.2,0,0.4,0,0.5S415,205.1,415,205.2z M413.1,203.6
			c0-1-0.3-1.8-0.8-2.4s-1.3-0.8-2.3-0.8c-1,0-1.8,0.3-2.5,0.9s-1.2,1.4-1.4,2.3H413.1z"/>
		<path class="st5" d="M437.1,210.6l2.4-18.2h2.9c1.6,0,2.8,0.1,3.4,0.2c0.7,0.2,1.2,0.4,1.7,0.8c0.5,0.4,0.9,0.9,1.2,1.6
			s0.4,1.3,0.4,2.1c0,0.9-0.2,1.7-0.5,2.5c-0.3,0.7-0.8,1.3-1.5,1.8c-0.5,0.4-1.1,0.7-1.9,0.9s-1.9,0.3-3.4,0.3h-0.8h-0.8l-1,8
			H437.1z M440.6,200.7h1.5c0.9,0,1.6,0,2.1-0.1c0.5-0.1,0.8-0.2,1.2-0.3c0.6-0.3,1-0.6,1.3-1.2s0.4-1.1,0.4-1.8
			c0-0.5-0.1-1-0.3-1.4c-0.2-0.4-0.5-0.7-0.9-1c-0.3-0.2-0.6-0.3-1-0.4c-0.4-0.1-1-0.1-1.8-0.1h-0.7h-0.9L440.6,200.7z"/>
		<path class="st5" d="M463.8,201.1c-0.2-0.1-0.4-0.2-0.7-0.2s-0.4-0.1-0.7-0.1c-0.9,0-1.6,0.4-2.1,1.1c-0.5,0.7-0.9,1.9-1.1,3.4
			l-0.7,5.4h-1.9l1.5-11.3h2l-0.3,1.8c0.5-0.8,1-1.3,1.6-1.7s1.1-0.5,1.8-0.5c0.2,0,0.4,0,0.6,0.1s0.4,0.1,0.6,0.2L463.8,201.1z"/>
		<path class="st5" d="M471.2,205.4c0-1.9,0.6-3.4,1.8-4.7c1.2-1.3,2.7-1.9,4.6-1.9c1.6,0,3,0.5,4.1,1.6c1.1,1,1.6,2.3,1.6,3.9
			c0,2-0.6,3.7-1.8,4.9c-1.2,1.3-2.7,1.9-4.6,1.9c-1.7,0-3.1-0.5-4.2-1.6S471.2,207.1,471.2,205.4z M477.5,200.4
			c-1.2,0-2.3,0.5-3.1,1.4s-1.2,2.1-1.2,3.5c0,1.2,0.4,2.3,1.1,3s1.6,1.1,2.8,1.1c1.2,0,2.3-0.5,3.1-1.4s1.2-2.1,1.2-3.5
			c0-1.2-0.4-2.2-1.1-3C479.5,200.8,478.6,200.4,477.5,200.4z"/>
		<path class="st5" d="M490.9,208.9l1.3-1.5c0.4,0.7,0.9,1.2,1.4,1.5c0.5,0.3,1.1,0.5,1.7,0.5c0.7,0,1.3-0.2,1.7-0.5
			c0.4-0.3,0.6-0.8,0.6-1.3c0-0.6-0.6-1.2-1.8-1.7c-0.3-0.1-0.5-0.3-0.7-0.3c-1.1-0.5-1.8-1-2.2-1.5c-0.4-0.4-0.5-1-0.5-1.7
			c0-1,0.4-1.9,1.2-2.6c0.8-0.7,1.8-1,3-1c0.8,0,1.5,0.1,2.1,0.4c0.6,0.3,1.2,0.7,1.7,1.3l-1.2,1.4c-0.3-0.5-0.8-0.8-1.2-1
			c-0.5-0.2-1-0.4-1.6-0.4c-0.6,0-1.1,0.2-1.5,0.5c-0.4,0.3-0.6,0.7-0.6,1.2c0,0.6,0.7,1.2,2.1,1.8l0.2,0.1c1.1,0.5,1.9,1,2.2,1.4
			c0.4,0.5,0.6,1.1,0.6,1.8c0,1.1-0.4,2.1-1.1,2.7c-0.7,0.7-1.8,1-3.1,1c-1,0-1.8-0.2-2.5-0.5C492.1,210.2,491.5,209.7,490.9,208.9z
			"/>
	</g>
	<g>
		<path class="st1" d="M269.9,74.4v7.1c0,1.4,0.1,2.2,0.2,2.6c0.1,0.4,0.4,0.6,0.8,0.8c0.4,0.2,1.1,0.3,2.1,0.3v0.7h-11.5v-0.7
			c1,0,1.7-0.1,2.1-0.3c0.4-0.2,0.6-0.5,0.8-0.8s0.2-1.2,0.2-2.6V65c0-1.4-0.1-2.2-0.2-2.6c-0.1-0.4-0.4-0.6-0.8-0.8
			c-0.4-0.2-1.1-0.3-2.1-0.3v-0.7h10.5c2.7,0,4.7,0.2,6,0.6c1.3,0.4,2.3,1.2,3.1,2.3s1.2,2.5,1.2,4c0,1.9-0.6,3.4-1.8,4.6
			c-0.8,0.8-1.8,1.3-3.2,1.7l5.4,8.5c0.7,1.1,1.2,1.8,1.5,2.1c0.5,0.4,1,0.6,1.6,0.6v0.7h-7.1l-7.3-11.5H269.9z M269.9,62V73h0.9
			c1.5,0,2.7-0.2,3.5-0.5s1.4-0.9,1.8-1.7c0.4-0.8,0.7-1.9,0.7-3.2c0-1.9-0.4-3.3-1.2-4.3c-0.8-0.9-2.1-1.4-3.9-1.4H269.9z"/>
		<path class="st1" d="M299.7,76.5h-8.5c0.1,2.3,0.6,4.1,1.6,5.5c0.8,1,1.7,1.5,2.8,1.5c0.7,0,1.3-0.2,1.8-0.6
			c0.5-0.4,1.1-1.2,1.7-2.2l0.6,0.4c-0.8,1.9-1.8,3.3-2.8,4.1c-1,0.8-2.2,1.2-3.5,1.2c-2.3,0-4-1-5.2-3c-1-1.6-1.4-3.6-1.4-6
			c0-2.9,0.7-5.2,2.1-6.9c1.4-1.7,3-2.6,4.9-2.6c1.6,0,2.9,0.7,4.1,2.2C299,71.5,299.6,73.7,299.7,76.5z M295.6,75.3
			c0-2-0.1-3.4-0.3-4.1c-0.2-0.7-0.5-1.3-0.9-1.7c-0.2-0.2-0.5-0.3-0.9-0.3c-0.6,0-1,0.3-1.4,1c-0.7,1.1-1,2.6-1,4.5v0.7H295.6z"/>
		<path class="st1" d="M310.2,83.3c-1.9,1.9-3.6,2.8-5.1,2.8c-0.9,0-1.6-0.3-2.2-1c-0.6-0.7-0.9-1.5-0.9-2.4c0-1.3,0.5-2.5,1.5-3.6
			c1-1.1,3.2-2.5,6.7-4.2v-1.8c0-1.3-0.1-2.1-0.2-2.5c-0.1-0.3-0.4-0.6-0.7-0.9c-0.4-0.3-0.8-0.4-1.2-0.4c-0.7,0-1.3,0.2-1.8,0.5
			c-0.3,0.2-0.4,0.5-0.4,0.8c0,0.3,0.2,0.6,0.5,1c0.4,0.5,0.6,1,0.6,1.5c0,0.6-0.2,1.1-0.6,1.6c-0.4,0.4-0.9,0.6-1.6,0.6
			c-0.7,0-1.3-0.2-1.8-0.7c-0.5-0.5-0.7-1-0.7-1.7c0-0.9,0.3-1.7,0.9-2.6s1.5-1.4,2.6-1.9c1.1-0.4,2.3-0.7,3.5-0.7
			c1.5,0,2.6,0.4,3.5,1.1c0.9,0.7,1.4,1.5,1.7,2.3c0.2,0.5,0.2,1.7,0.2,3.6v6.8c0,0.8,0,1.3,0.1,1.5c0.1,0.2,0.1,0.4,0.2,0.5
			c0.1,0.1,0.2,0.1,0.4,0.1c0.3,0,0.6-0.2,0.9-0.7l0.5,0.4c-0.6,0.9-1.1,1.6-1.7,2c-0.6,0.4-1.3,0.6-2,0.6c-0.9,0-1.6-0.2-2.1-0.7
			S310.3,84.2,310.2,83.3z M310.2,81.9v-5.8c-1.3,0.9-2.3,1.8-3,2.8c-0.4,0.7-0.6,1.3-0.6,2c0,0.6,0.2,1.1,0.5,1.5
			c0.3,0.3,0.7,0.5,1.2,0.5C308.8,83,309.5,82.6,310.2,81.9z"/>
		<path class="st1" d="M324.7,60.6v21.6c0,1.2,0.1,2,0.4,2.4c0.3,0.3,0.8,0.5,1.5,0.6v0.7h-8.4v-0.7c0.7,0,1.2-0.2,1.5-0.7
			c0.2-0.3,0.3-1,0.3-2.3v-18c0-1.2-0.1-2-0.4-2.3c-0.3-0.3-0.7-0.5-1.5-0.6v-0.7H324.7z"/>
		<path class="st1" d="M344.7,62.1v10.3h0.4c1.4,0,2.5-0.5,3.1-1.5c0.6-1,1.1-2.5,1.2-4.5h0.6v13.2h-0.6c-0.1-1.4-0.4-2.6-0.8-3.5
			c-0.4-0.9-0.9-1.5-1.5-1.9s-1.4-0.5-2.5-0.5v7.1c0,1.4,0.1,2.2,0.2,2.6c0.1,0.3,0.3,0.6,0.6,0.8c0.3,0.2,0.8,0.3,1.4,0.3h1.3
			c2.1,0,3.8-0.5,5.1-1.6c1.3-1.1,2.2-2.8,2.7-5h0.6l-1,8h-19.5v-0.7h0.7c0.7,0,1.2-0.1,1.6-0.4c0.3-0.2,0.5-0.5,0.7-0.9
			c0.1-0.3,0.2-1.1,0.2-2.3V64.9c0-1.1,0-1.8-0.1-2.1c-0.1-0.4-0.3-0.8-0.6-1c-0.4-0.3-1-0.5-1.7-0.5h-0.7v-0.7H355v7.5h-0.6
			c-0.3-1.8-0.8-3.1-1.4-3.9c-0.6-0.8-1.4-1.4-2.5-1.8c-0.6-0.2-1.8-0.3-3.5-0.3H344.7z"/>
		<path class="st1" d="M369.1,68l0.2,5.9h-0.6c-0.7-1.8-1.4-3-2.1-3.6c-0.7-0.6-1.4-1-2.2-1c-0.5,0-0.8,0.2-1.2,0.5
			c-0.3,0.3-0.5,0.7-0.5,1.2c0,0.3,0.1,0.7,0.3,1c0.4,0.5,1.3,1.4,3,2.6s2.7,2.3,3.2,3.1c0.5,0.9,0.8,1.8,0.8,2.9
			c0,1-0.2,1.9-0.6,2.8s-1,1.6-1.8,2.1c-0.8,0.5-1.7,0.7-2.6,0.7c-0.7,0-1.7-0.3-3-0.8c-0.3-0.1-0.6-0.2-0.7-0.2
			c-0.4,0-0.7,0.3-0.9,0.9h-0.5l-0.3-6.3h0.6c0.5,1.6,1.2,2.9,2.1,3.7c0.9,0.8,1.7,1.2,2.5,1.2c0.5,0,1-0.2,1.3-0.5
			c0.3-0.4,0.5-0.8,0.5-1.3c0-0.6-0.2-1.1-0.5-1.5s-1.1-1.1-2.2-2c-1.7-1.3-2.8-2.3-3.3-3c-0.7-1-1.1-2.1-1.1-3.4
			c0-1.3,0.4-2.6,1.2-3.6c0.8-1.1,2-1.6,3.6-1.6c0.8,0,1.7,0.2,2.4,0.7c0.3,0.2,0.5,0.3,0.7,0.3c0.2,0,0.4,0,0.5-0.1
			c0.1-0.1,0.3-0.4,0.6-0.8H369.1z"/>
		<path class="st1" d="M378.7,62.1v6.4h3.7v1.8h-3.7V81c0,1,0,1.7,0.1,1.9c0.1,0.3,0.2,0.5,0.4,0.7c0.2,0.2,0.4,0.3,0.6,0.3
			c0.7,0,1.4-0.6,2-1.8l0.5,0.4c-0.9,2.4-2.4,3.6-4.4,3.6c-1,0-1.8-0.3-2.5-0.9s-1.1-1.3-1.3-2.1c-0.1-0.4-0.2-1.6-0.2-3.4v-9.4h-2
			v-0.7c1.4-1.1,2.6-2.3,3.6-3.5s1.8-2.6,2.6-4.1H378.7z"/>
		<path class="st1" d="M392.4,83.3c-1.9,1.9-3.6,2.8-5.1,2.8c-0.9,0-1.6-0.3-2.2-1c-0.6-0.7-0.9-1.5-0.9-2.4c0-1.3,0.5-2.5,1.5-3.6
			c1-1.1,3.2-2.5,6.7-4.2v-1.8c0-1.3-0.1-2.1-0.2-2.5c-0.1-0.3-0.4-0.6-0.7-0.9c-0.4-0.3-0.8-0.4-1.2-0.4c-0.7,0-1.3,0.2-1.8,0.5
			c-0.3,0.2-0.4,0.5-0.4,0.8c0,0.3,0.2,0.6,0.5,1c0.4,0.5,0.6,1,0.6,1.5c0,0.6-0.2,1.1-0.6,1.6c-0.4,0.4-0.9,0.6-1.6,0.6
			c-0.7,0-1.3-0.2-1.8-0.7c-0.5-0.5-0.7-1-0.7-1.7c0-0.9,0.3-1.7,0.9-2.6s1.5-1.4,2.6-1.9c1.1-0.4,2.3-0.7,3.5-0.7
			c1.5,0,2.6,0.4,3.5,1.1c0.9,0.7,1.4,1.5,1.7,2.3c0.2,0.5,0.2,1.7,0.2,3.6v6.8c0,0.8,0,1.3,0.1,1.5c0.1,0.2,0.1,0.4,0.2,0.5
			c0.1,0.1,0.2,0.1,0.4,0.1c0.3,0,0.6-0.2,0.9-0.7l0.5,0.4c-0.6,0.9-1.1,1.6-1.7,2c-0.6,0.4-1.3,0.6-2,0.6c-0.9,0-1.6-0.2-2.1-0.7
			S392.5,84.2,392.4,83.3z M392.4,81.9v-5.8c-1.3,0.9-2.3,1.8-3,2.8c-0.4,0.7-0.6,1.3-0.6,2c0,0.6,0.2,1.1,0.5,1.5
			c0.3,0.3,0.7,0.5,1.2,0.5C391,83,391.7,82.6,392.4,81.9z"/>
		<path class="st1" d="M407,62.1v6.4h3.7v1.8H407V81c0,1,0,1.7,0.1,1.9c0.1,0.3,0.2,0.5,0.4,0.7c0.2,0.2,0.4,0.3,0.6,0.3
			c0.7,0,1.4-0.6,2-1.8l0.5,0.4c-0.9,2.4-2.4,3.6-4.4,3.6c-1,0-1.8-0.3-2.5-0.9s-1.1-1.3-1.3-2.1c-0.1-0.4-0.2-1.6-0.2-3.4v-9.4h-2
			v-0.7c1.4-1.1,2.6-2.3,3.6-3.5s1.8-2.6,2.6-4.1H407z"/>
		<path class="st1" d="M425.3,76.5h-8.5c0.1,2.3,0.6,4.1,1.6,5.5c0.8,1,1.7,1.5,2.8,1.5c0.7,0,1.3-0.2,1.8-0.6
			c0.5-0.4,1.1-1.2,1.7-2.2l0.6,0.4c-0.8,1.9-1.8,3.3-2.8,4.1c-1,0.8-2.2,1.2-3.5,1.2c-2.3,0-4-1-5.2-3c-1-1.6-1.4-3.6-1.4-6
			c0-2.9,0.7-5.2,2.1-6.9c1.4-1.7,3-2.6,4.9-2.6c1.6,0,2.9,0.7,4.1,2.2C424.6,71.5,425.2,73.7,425.3,76.5z M421.2,75.3
			c0-2-0.1-3.4-0.3-4.1c-0.2-0.7-0.5-1.3-0.9-1.7c-0.2-0.2-0.5-0.3-0.9-0.3c-0.6,0-1,0.3-1.4,1c-0.7,1.1-1,2.6-1,4.5v0.7H421.2z"/>
	</g>
	<g>
		<g>
			<path class="st1" d="M327.5,170.2v0.6h-11.8v-0.6h0.7c0.7,0,1.2-0.1,1.6-0.3c0.3-0.2,0.5-0.4,0.7-0.8c0.1-0.3,0.2-1,0.2-2.1
				v-14.8c0-1.2-0.1-1.9-0.2-2.2c-0.1-0.3-0.4-0.5-0.7-0.8c-0.4-0.2-0.9-0.3-1.5-0.3h-0.7v-0.6h11.8v0.6h-0.7
				c-0.7,0-1.2,0.1-1.6,0.3c-0.3,0.2-0.5,0.4-0.7,0.8c-0.1,0.3-0.2,1-0.2,2.1v14.8c0,1.2,0.1,1.9,0.2,2.2c0.1,0.3,0.4,0.5,0.7,0.8
				c0.4,0.2,0.9,0.3,1.5,0.3H327.5z"/>
			<path class="st1" d="M335.8,155.2v2c0.8-0.9,1.6-1.5,2.3-1.9s1.5-0.6,2.4-0.6c1,0,1.8,0.3,2.5,0.8s1.1,1.3,1.3,2.1
				c0.2,0.6,0.3,1.8,0.3,3.6v6c0,1.2,0.1,1.9,0.3,2.2c0.2,0.3,0.7,0.5,1.4,0.6v0.6h-7.9v-0.6c0.6-0.1,1-0.3,1.3-0.7
				c0.2-0.3,0.3-1,0.3-2.1v-6.9c0-1.3,0-2.1-0.1-2.4s-0.3-0.6-0.5-0.8c-0.2-0.2-0.5-0.3-0.8-0.3c-1,0-1.8,0.7-2.7,2v8.3
				c0,1.2,0.1,1.9,0.3,2.2c0.2,0.3,0.6,0.5,1.2,0.6v0.6h-7.9v-0.6c0.7-0.1,1.1-0.3,1.4-0.6c0.2-0.2,0.3-1,0.3-2.2v-8.8
				c0-1.2-0.1-1.9-0.3-2.2c-0.2-0.3-0.7-0.5-1.4-0.6v-0.6H335.8z"/>
			<path class="st1" d="M361,166.8l0.5,0.4c-0.7,1.4-1.6,2.4-2.7,3.1c-1.1,0.7-2.2,1-3.5,1c-2.1,0-3.7-0.8-5-2.3s-1.9-3.4-1.9-5.6
				c0-2.1,0.6-4,1.7-5.6c1.4-1.9,3.2-2.9,5.6-2.9c1.6,0,2.9,0.4,3.8,1.2c0.9,0.8,1.4,1.7,1.4,2.7c0,0.6-0.2,1.1-0.6,1.5
				c-0.4,0.4-0.9,0.6-1.5,0.6c-0.7,0-1.2-0.2-1.6-0.6c-0.4-0.4-0.7-1.2-0.8-2.3c-0.1-0.7-0.2-1.2-0.5-1.5c-0.3-0.3-0.6-0.4-0.9-0.4
				c-0.5,0-1,0.3-1.4,0.8c-0.6,0.9-0.9,2.2-0.9,3.9c0,1.5,0.2,2.9,0.7,4.2s1.1,2.3,1.9,3c0.6,0.5,1.3,0.7,2.2,0.7
				c0.5,0,1.1-0.1,1.5-0.4C359.8,168,360.3,167.5,361,166.8z"/>
			<path class="st1" d="M366.5,165.7c0.8,0,1.4,0.3,2,0.8c0.5,0.5,0.8,1.2,0.8,2s-0.3,1.4-0.8,2c-0.5,0.5-1.2,0.8-2,0.8
				s-1.4-0.3-2-0.8c-0.5-0.5-0.8-1.2-0.8-2s0.3-1.4,0.8-2C365.1,165.9,365.8,165.7,366.5,165.7z"/>
		</g>
	</g>
	<g>
		<path class="st1" d="M186.8,113.3v11.4c0,2.2,0.1,3.6,0.4,4.2s0.8,1,1.5,1.4s2,0.5,3.8,0.5v1.1h-20.9v-1.1c1.9,0,3.2-0.2,3.9-0.5
			c0.7-0.4,1.2-0.8,1.4-1.4s0.4-2,0.4-4.2V98.1c0-2.2-0.1-3.6-0.4-4.2s-0.8-1-1.4-1.4c-0.7-0.3-2-0.5-3.8-0.5v-1.1h17.9
			c5.9,0,10.1,1,12.7,3.1c2.6,2.1,3.8,4.7,3.8,7.9c0,2.7-0.8,4.9-2.5,6.8c-1.7,1.9-3.9,3.2-6.8,3.9
			C194.8,113.1,191.5,113.3,186.8,113.3z M186.8,93.2V111c0.7,0,1.2,0.1,1.5,0.1c2.5,0,4.4-0.7,5.7-2.2c1.3-1.5,2-3.7,2-6.8
			c0-3-0.7-5.3-2-6.7s-3.3-2.1-6-2.1H186.8z"/>
		<path class="st1" d="M221.8,103.6v6.4c1.9-2.9,3.5-4.9,4.9-5.8c1.4-1,2.8-1.4,4.1-1.4c1.1,0,2,0.3,2.7,1c0.7,0.7,1,1.7,1,3
			c0,1.4-0.3,2.4-1,3.1c-0.7,0.7-1.4,1.1-2.4,1.1c-1.1,0-2-0.3-2.8-1s-1.3-1.1-1.4-1.2c-0.2-0.1-0.4-0.2-0.7-0.2
			c-0.6,0-1.1,0.2-1.7,0.7c-0.8,0.7-1.5,1.7-1.9,2.9c-0.6,2-1,4.1-1,6.5v6.5l0,1.7c0,1.2,0.1,1.9,0.2,2.2c0.2,0.5,0.6,0.9,1.1,1.2
			c0.5,0.3,1.3,0.4,2.4,0.5v1.1h-15.3v-1.1c1.2-0.1,2.1-0.4,2.5-1c0.4-0.6,0.7-2.1,0.7-4.6v-15.7c0-1.6-0.1-2.6-0.2-3.1
			c-0.2-0.6-0.5-1-0.9-1.2c-0.4-0.3-1.1-0.4-2-0.5v-1.1H221.8z"/>
		<path class="st1" d="M249.8,102.7c2.5,0,4.8,0.6,6.9,1.9s3.7,3.1,4.8,5.4c1.1,2.3,1.6,4.9,1.6,7.7c0,4-1,7.4-3.1,10.1
			c-2.5,3.3-5.9,4.9-10.2,4.9c-4.3,0-7.5-1.5-9.8-4.5s-3.5-6.4-3.5-10.4c0-4.1,1.2-7.6,3.5-10.6
			C242.5,104.3,245.7,102.7,249.8,102.7z M249.9,104.9c-1,0-1.9,0.4-2.6,1.2c-0.7,0.8-1.2,2.3-1.5,4.6c-0.2,2.3-0.3,5.5-0.3,9.6
			c0,2.2,0.1,4.2,0.4,6.1c0.2,1.4,0.7,2.5,1.4,3.3s1.6,1.1,2.5,1.1c0.9,0,1.7-0.3,2.3-0.8c0.8-0.7,1.3-1.6,1.6-2.9
			c0.4-1.9,0.6-5.8,0.6-11.6c0-3.4-0.2-5.8-0.6-7.1c-0.4-1.3-0.9-2.2-1.7-2.8C251.5,105.1,250.8,104.9,249.9,104.9z"/>
		<path class="st1" d="M279.9,106.6v19.6c0,1.9,0.2,3.1,0.6,3.6c0.6,0.7,1.8,1.1,3.6,1v1.1h-16.7v-1.1c1.3,0,2.2-0.2,2.7-0.4
			c0.5-0.3,0.9-0.7,1.1-1.1c0.2-0.5,0.3-1.5,0.3-3v-19.6h-4.1v-3h4.1v-2.1l0-1.4c0-2.9,1.1-5.3,3.2-7.3c2.1-1.9,5-2.9,8.6-2.9
			c2.5,0,4.3,0.5,5.5,1.4c1.2,0.9,1.8,2,1.8,3.1c0,0.9-0.4,1.7-1.1,2.4c-0.7,0.7-1.7,1-3,1c-1,0-1.9-0.3-2.5-0.8
			c-0.6-0.5-0.9-1.2-0.9-1.8c0-0.2,0.1-0.6,0.2-1.1c0.1-0.3,0.1-0.7,0.1-1c0-0.4-0.1-0.7-0.4-0.9c-0.3-0.3-0.7-0.5-1.2-0.5
			c-0.6,0-1.1,0.2-1.5,0.7s-0.6,1.3-0.6,2.3l0.1,5.3v3.6h4.2v3H279.9z"/>
		<path class="st1" d="M312.1,116.7h-15.5c0.2,3.8,1.2,6.7,3,8.9c1.4,1.7,3.1,2.5,5,2.5c1.2,0,2.3-0.3,3.3-1c1-0.7,2-1.9,3.2-3.6
			l1,0.7c-1.5,3.1-3.2,5.3-5.1,6.6c-1.9,1.3-4,2-6.4,2c-4.2,0-7.4-1.6-9.5-4.8c-1.7-2.6-2.6-5.8-2.6-9.7c0-4.7,1.3-8.5,3.8-11.3
			c2.6-2.8,5.5-4.2,9-4.2c2.9,0,5.4,1.2,7.5,3.5C310.8,108.6,311.9,112.1,312.1,116.7z M304.6,114.7c0-3.2-0.2-5.5-0.5-6.7
			c-0.4-1.2-0.9-2.1-1.6-2.8c-0.4-0.4-1-0.5-1.7-0.5c-1,0-1.9,0.5-2.6,1.5c-1.2,1.8-1.8,4.3-1.8,7.4v1.1H304.6z"/>
		<path class="st1" d="M333.5,102.8l0.5,9.7h-1c-1.2-2.9-2.5-4.8-3.8-5.9c-1.3-1-2.6-1.6-4-1.6c-0.8,0-1.5,0.3-2.1,0.8
			c-0.6,0.6-0.9,1.2-0.9,1.9c0,0.5,0.2,1.1,0.6,1.6c0.6,0.8,2.5,2.2,5.4,4.3c3,2,4.9,3.7,5.9,5.1c0.9,1.4,1.4,3,1.4,4.7
			c0,1.6-0.4,3.1-1.2,4.6s-1.9,2.7-3.3,3.5c-1.4,0.8-3,1.2-4.8,1.2c-1.4,0-3.2-0.4-5.4-1.3c-0.6-0.2-1-0.3-1.2-0.3
			c-0.7,0-1.2,0.5-1.7,1.5h-1l-0.5-10.2h1c0.9,2.7,2.2,4.7,3.7,6c1.6,1.3,3.1,2,4.5,2c1,0,1.8-0.3,2.4-0.9c0.6-0.6,0.9-1.3,0.9-2.2
			c0-1-0.3-1.8-0.9-2.5s-2-1.8-4.1-3.2c-3.1-2.1-5.1-3.8-6-4.9c-1.3-1.7-2-3.5-2-5.5c0-2.2,0.8-4.2,2.3-5.9c1.5-1.8,3.7-2.6,6.5-2.6
			c1.5,0,3,0.4,4.5,1.1c0.5,0.3,1,0.5,1.3,0.5c0.4,0,0.7-0.1,0.9-0.2c0.2-0.2,0.6-0.6,1.1-1.3H333.5z"/>
		<path class="st1" d="M357.6,102.8l0.5,9.7h-1c-1.2-2.9-2.5-4.8-3.8-5.9c-1.3-1-2.6-1.6-4-1.6c-0.8,0-1.5,0.3-2.1,0.8
			c-0.6,0.6-0.9,1.2-0.9,1.9c0,0.5,0.2,1.1,0.6,1.6c0.6,0.8,2.5,2.2,5.4,4.3c3,2,4.9,3.7,5.9,5.1c0.9,1.4,1.4,3,1.4,4.7
			c0,1.6-0.4,3.1-1.2,4.6s-1.9,2.7-3.3,3.5c-1.4,0.8-3,1.2-4.8,1.2c-1.4,0-3.2-0.4-5.4-1.3c-0.6-0.2-1-0.3-1.2-0.3
			c-0.7,0-1.2,0.5-1.7,1.5h-1l-0.5-10.2h1c0.9,2.7,2.2,4.7,3.7,6c1.6,1.3,3.1,2,4.5,2c1,0,1.8-0.3,2.4-0.9c0.6-0.6,0.9-1.3,0.9-2.2
			c0-1-0.3-1.8-0.9-2.5s-2-1.8-4.1-3.2c-3.1-2.1-5.1-3.8-6-4.9c-1.3-1.7-2-3.5-2-5.5c0-2.2,0.8-4.2,2.3-5.9c1.5-1.8,3.7-2.6,6.5-2.6
			c1.5,0,3,0.4,4.5,1.1c0.5,0.3,1,0.5,1.3,0.5c0.4,0,0.7-0.1,0.9-0.2c0.2-0.2,0.6-0.6,1.1-1.3H357.6z"/>
		<path class="st1" d="M374.9,103.6V126c0,2,0.2,3.3,0.7,3.8c0.5,0.6,1.4,0.9,2.7,1v1.1h-15.3v-1.1c1.3,0,2.2-0.4,2.8-1.1
			c0.4-0.5,0.6-1.7,0.6-3.7v-16.5c0-2-0.2-3.3-0.7-3.8c-0.5-0.6-1.4-0.9-2.7-1v-1.1H374.9z M370.7,89.9c1.3,0,2.4,0.5,3.3,1.4
			c0.9,0.9,1.4,2,1.4,3.3s-0.5,2.4-1.4,3.3c-0.9,0.9-2,1.4-3.3,1.4c-1.3,0-2.4-0.5-3.3-1.4s-1.4-2-1.4-3.3s0.5-2.4,1.4-3.3
			C368.3,90.3,369.4,89.9,370.7,89.9z"/>
		<path class="st1" d="M394.5,102.7c2.5,0,4.8,0.6,6.9,1.9s3.7,3.1,4.8,5.4c1.1,2.3,1.6,4.9,1.6,7.7c0,4-1,7.4-3.1,10.1
			c-2.5,3.3-5.9,4.9-10.2,4.9c-4.3,0-7.5-1.5-9.8-4.5s-3.5-6.4-3.5-10.4c0-4.1,1.2-7.6,3.5-10.6
			C387.1,104.3,390.4,102.7,394.5,102.7z M394.6,104.9c-1,0-1.9,0.4-2.6,1.2c-0.7,0.8-1.2,2.3-1.5,4.6c-0.2,2.3-0.3,5.5-0.3,9.6
			c0,2.2,0.1,4.2,0.4,6.1c0.2,1.4,0.7,2.5,1.4,3.3s1.6,1.1,2.5,1.1c0.9,0,1.7-0.3,2.3-0.8c0.8-0.7,1.3-1.6,1.6-2.9
			c0.4-1.9,0.6-5.8,0.6-11.6c0-3.4-0.2-5.8-0.6-7.1c-0.4-1.3-0.9-2.2-1.7-2.8C396.1,105.1,395.4,104.9,394.6,104.9z"/>
		<path class="st1" d="M423.7,103.6v3.7c1.5-1.6,2.8-2.7,4.2-3.4c1.3-0.7,2.8-1.1,4.3-1.1c1.8,0,3.4,0.5,4.6,1.5
			c1.2,1,2,2.3,2.4,3.8c0.3,1.2,0.5,3.4,0.5,6.6v11c0,2.2,0.2,3.5,0.6,4.1c0.4,0.5,1.2,0.9,2.5,1v1.1h-14.3v-1.1
			c1.1-0.1,1.8-0.6,2.3-1.3c0.3-0.5,0.5-1.8,0.5-3.8v-12.6c0-2.3-0.1-3.8-0.3-4.4s-0.5-1.1-0.9-1.4c-0.4-0.3-0.9-0.5-1.4-0.5
			c-1.7,0-3.4,1.2-4.8,3.7v15.2c0,2.1,0.2,3.5,0.6,4s1.1,0.9,2.2,1.1v1.1h-14.3v-1.1c1.2-0.1,2-0.5,2.5-1.2c0.3-0.4,0.5-1.8,0.5-3.9
			v-16c0-2.1-0.2-3.5-0.6-4s-1.2-0.9-2.5-1v-1.1H423.7z"/>
		<path class="st1" d="M462.2,127.7c-3.5,3-6.5,4.6-9.3,4.6c-1.6,0-3-0.5-4-1.6c-1.1-1.1-1.6-2.4-1.6-4c0-2.2,0.9-4.1,2.8-5.8
			c1.9-1.7,5.9-4,12.1-6.9v-2.8c0-2.1-0.1-3.5-0.3-4c-0.2-0.6-0.7-1-1.3-1.5c-0.6-0.4-1.4-0.6-2.2-0.6c-1.3,0-2.4,0.3-3.2,0.9
			c-0.5,0.4-0.8,0.8-0.8,1.3c0,0.4,0.3,0.9,0.8,1.6c0.8,0.9,1.2,1.7,1.2,2.5c0,1-0.4,1.8-1.1,2.5c-0.7,0.7-1.7,1-2.9,1
			c-1.3,0-2.3-0.4-3.2-1.2c-0.9-0.8-1.3-1.7-1.3-2.7c0-1.5,0.6-2.8,1.7-4.2c1.2-1.3,2.8-2.3,4.8-3s4.2-1.1,6.4-1.1
			c2.7,0,4.8,0.6,6.4,1.7c1.6,1.1,2.6,2.4,3,3.7c0.3,0.8,0.4,2.8,0.4,5.8v11c0,1.3,0.1,2.1,0.2,2.4c0.1,0.3,0.3,0.6,0.5,0.7
			c0.2,0.2,0.4,0.2,0.7,0.2c0.5,0,1.1-0.4,1.6-1.1l0.9,0.7c-1,1.5-2.1,2.6-3.1,3.3c-1.1,0.7-2.3,1-3.7,1c-1.6,0-2.9-0.4-3.8-1.1
			S462.4,129.3,462.2,127.7z M462.2,125.5V116c-2.4,1.4-4.3,3-5.4,4.6c-0.8,1.1-1.2,2.2-1.2,3.3c0,0.9,0.3,1.7,1,2.5
			c0.5,0.5,1.2,0.8,2.1,0.8C459.7,127.2,460.9,126.6,462.2,125.5z"/>
		<path class="st1" d="M488.7,90.8V126c0,2,0.2,3.3,0.7,3.8c0.5,0.6,1.4,0.9,2.7,1v1.1h-15.3v-1.1c1.3,0,2.2-0.4,2.8-1.1
			c0.4-0.5,0.6-1.7,0.6-3.7V96.7c0-2-0.2-3.2-0.7-3.8c-0.5-0.6-1.4-0.9-2.7-1v-1.1H488.7z"/>
		<path class="st1" d="M512.7,102.8l0.5,9.7h-1c-1.2-2.9-2.5-4.8-3.8-5.9c-1.3-1-2.6-1.6-4-1.6c-0.8,0-1.5,0.3-2.1,0.8
			c-0.6,0.6-0.9,1.2-0.9,1.9c0,0.5,0.2,1.1,0.6,1.6c0.6,0.8,2.5,2.2,5.4,4.3c3,2,4.9,3.7,5.9,5.1c0.9,1.4,1.4,3,1.4,4.7
			c0,1.6-0.4,3.1-1.2,4.6s-1.9,2.7-3.3,3.5c-1.4,0.8-3,1.2-4.8,1.2c-1.4,0-3.2-0.4-5.4-1.3c-0.6-0.2-1-0.3-1.2-0.3
			c-0.7,0-1.2,0.5-1.7,1.5h-1l-0.5-10.2h1c0.9,2.7,2.2,4.7,3.7,6c1.6,1.3,3.1,2,4.5,2c1,0,1.8-0.3,2.4-0.9c0.6-0.6,0.9-1.3,0.9-2.2
			c0-1-0.3-1.8-0.9-2.5s-2-1.8-4.1-3.2c-3.1-2.1-5.1-3.8-6-4.9c-1.3-1.7-2-3.5-2-5.5c0-2.2,0.8-4.2,2.3-5.9c1.5-1.8,3.7-2.6,6.5-2.6
			c1.5,0,3,0.4,4.5,1.1c0.5,0.3,1,0.5,1.3,0.5c0.4,0,0.7-0.1,0.9-0.2c0.2-0.2,0.6-0.6,1.1-1.3H512.7z"/>
	</g>
	<rect x="384.1" y="155" class="st2" width="108.8" height="1.2"/>
	<rect x="384.1" y="162.3" class="st2" width="108.8" height="1.2"/>
	<rect x="192.1" y="155" class="st2" width="108.8" height="1.2"/>
	<rect x="192.1" y="162.3" class="st2" width="108.8" height="1.2"/>
</g>
<g>
	<path class="st0" d="M705.9,188.6l0.1,0.1C706,188.8,705.8,188.7,705.9,188.6L705.9,188.6z M664.5,132.9l-1-0.5L664.5,132.9
		L664.5,132.9z M663.5,132.4l-1-0.5L663.5,132.4L663.5,132.4z M662.6,131.9l-1-0.5L662.6,131.9L662.6,131.9z M661.6,131.4l-1-0.3
		L661.6,131.4L661.6,131.4z M659.7,130.5l0.1,0.1C659.8,130.6,659.6,130.5,659.7,130.5L659.7,130.5z M658.7,130l0.1,0.1
		C658.9,130.1,658.7,130,658.7,130L658.7,130z M657.8,129.5l0.1,0.1C657.9,129.6,657.7,129.5,657.8,129.5L657.8,129.5z M656.8,129
		l0.1,0.1C656.9,129.1,656.8,129.1,656.8,129L656.8,129z M726.5,92.9L726.5,92.9L726.5,92.9z M664.5,132.9c1.6,0.1,6.5,2.2,8.2,2.9
		c16,6.3,16.6,6.6,30.8,14c4.8,2.5,19.2,10.7,22.6,11.5l-21.3-25.8c-1.6-1.9-2.8-3.3-4.4-5.2c-5.5-7.1-26.2-30.9-29.3-37.1
		c-1.9-3.8-8.5-17.8-7-20.8c3.8,0.3,1.2,3.7,5.9,13.3c4.2,8.5,14.5,20.3,20.8,28.2c1.6,2,2.9,3.7,4.5,5.6l11,13
		c5.6,6,10.5,12.6,15.7,19c2.3,2.8,6.3,8.9,10.4,9.3L727,96.3c0,3.2,1.5,12.4,2.1,16.1c0.9,5.5,1.6,11,2.6,16.1
		c2,10.1,2.3,14.6,3.3,24.6l0.6,9.1c4.3-2.9,4.1-6.2,10.7-7.1c4.7-0.6,4.5-0.1,5.2,0.9c-3.1,0-7.1,1.3-8.5,3
		c-1.2,1.4-3.4,6.1-3.5,8.5c6.5,0,15.9-2.7,20.8-4.7c3.4-1.4,6-2.3,9-4l7.9-5.3l2-2.4l-2.7-0.5c-6.9-0.1-15.3-1.3-21.4-4.1
		c-8.9-4.2-8.6-9.6-5.1-18.9c3.3-8.7,9.8-20.2,15.1-28.1c1.1-1.6,5.6-7.5,6-8.9c-1.4,0.3-3.6,1.4-5.1,2.1c-4.4,2-13.4,5.6-18,3.7
		c-1.5-0.6-2.8-2.1-3.9-3.3c-5.5-5.7-3.7-12.2-3.2-17.4c-6.5-0.5-17.8-6.9-22.5-11.6c-1.1-1.1-1.5-2-2.5-2.8
		c-0.8,1.7-1.4,4.7-3.8,9.6c-1.6,3.2-3,5.5-5.1,8.3c-1.3,1.7-1.8,2.1-3.1,3.6c-8.2,9.2-7.5,5.6-11.9,3.5c-2.7-1.3-4.8-1-8.2-5.2
		c-4.9-6.1-4.6-9.1-3.8-15.5c1.2-11.1-0.3-10.7-1.9-17.2c-2.2,0.6-3.6,4.8-8.5,6.4c-4.3,1.4-9.6-0.8-11.3-2.9
		c-2.5-3.1-2.1-14.2-6-20.4c-0.7-1.1-0.7-1.4-2.1-1.8c-0.9,4-2.4,5.7-3.5,12.4c-0.7,4.3-0.1,10.5-0.3,15.5c-0.1,2.5-0.5,4.1-0.5,7.2
		c0,3.3,1.6,9.4-1.2,13.7c-1.4,2.2-3,2.6-4.1,4.1c4.4,1.2,13.1,11,15.8,15.5l5.7,10.2c1.1,2.1,5.2,8.9,3.1,11
		c-3.1,3.1-7-3.4-9.5-4.1c-4.4-1.2-1.9,3.5-12.1,0.1c-10.7-3.6-6.8-4-18.3-5.2c-2.3-0.3-5.1-0.5-7.2-1c0.9,1.4,6.9,4.7,8.7,5.7
		c5.6,3.3,11.4,8.4,15.3,13.6c1.7,2.3,5.6,7.3,0.1,8.6c0.7,2.6,3.4,3.7,5.2,5.4c1.9,1.7,3.7,3.3,6,4.5c6.7,3.6,12.4,3.7,9.5,9.8
		c-6.9,0-8.1,0.2-14.2,2.7c-1.7,0.7-2.6,1.3-4.1,1.7c0.6,2.2,2.7,3.4,4.4,4.7c7.2,5.8,5.9,5.8,17.3,10.1l29.3,7.8l1-1.9
		c1.5,5.5,8.1,3-3.4,18.2c-1.2,1.6-3.3,3.9-3.8,5.8l12.7-5.1c11.6-4.8,22.8-13.6,29.6-23.8c0.8,0.6,2.9,3.2,4,4.2
		c1.5,1.5,2.6,2.6,4.1,4.1c1.6,1.6,2.7,2.3,4.3,3.8c8.8,8.4,25.8,15.7,37,20.7c5.9,2.6,23.6,11,20.3-0.6
		c-4.4-15.5-13.4-9.6-21.8-10.5c-6.5-0.6-9.1-0.1-14.2-2.1c-9.8-3.9-21.8-12.4-29.9-19.6c-2.2-2-1.6-2.4-4.7-3.4
		c-8.4-2.8-12.6-2.4-17.6,4.5l-6.5,10.4c0.5-5.9,6-14.6,12.8-18.4c2.9-1.6,3.9-2.2,8.3-2.2c-1.4-1.9-26.6-16.4-30.3-18.3
		C695.4,148.3,666.4,134.5,664.5,132.9L664.5,132.9z"/>
</g>
<g>
	<g>
		<path class="st3" d="M833.9,201.7h7.7v0.1c0,2.9-0.8,5.1-2.4,6.8s-3.8,2.5-6.6,2.5c-2.7,0-4.8-0.8-6.4-2.4
			c-1.6-1.6-2.4-3.8-2.4-6.4c0-1.5,0.3-2.8,0.8-4.1c0.5-1.3,1.3-2.4,2.3-3.4c0.9-0.9,2-1.6,3.2-2c1.2-0.5,2.4-0.7,3.8-0.7
			c1.7,0,3.2,0.3,4.5,0.9c1.3,0.6,2.4,1.5,3.4,2.8l-1.6,1.5c-0.9-1.1-1.8-1.9-2.8-2.4c-1-0.5-2.2-0.8-3.4-0.8
			c-2.3,0-4.1,0.8-5.6,2.4c-1.5,1.6-2.2,3.6-2.2,6c0,2.1,0.6,3.7,1.9,5c1.3,1.2,2.9,1.9,5,1.9c1.7,0,3.2-0.5,4.5-1.6
			c1.2-1.1,1.9-2.4,2.1-4h-5.7L833.9,201.7z"/>
		<path class="st3" d="M849.6,205.4c0-1.9,0.6-3.4,1.8-4.7c1.2-1.3,2.7-1.9,4.6-1.9c1.6,0,3,0.5,4.1,1.6c1.1,1,1.6,2.3,1.6,3.9
			c0,2-0.6,3.7-1.8,4.9c-1.2,1.3-2.7,1.9-4.6,1.9c-1.7,0-3.1-0.5-4.2-1.6S849.6,207.1,849.6,205.4z M855.9,200.4
			c-1.2,0-2.3,0.5-3.1,1.4s-1.2,2.1-1.2,3.5c0,1.2,0.4,2.3,1.1,3s1.6,1.1,2.8,1.1c1.2,0,2.3-0.5,3.1-1.4s1.2-2.1,1.2-3.5
			c0-1.2-0.4-2.2-1.1-3C858,200.8,857,200.4,855.9,200.4z"/>
		<path class="st3" d="M888.1,211.3l-4.6-18.9h2.2l3,13.2l6.5-13.9l3.3,13.9l5.8-13.2h2.2l-8.6,18.9l-3.4-13.5L888.1,211.3z"/>
		<path class="st3" d="M912.5,210.6l1.5-11.3h2l-1.5,11.3H912.5z M914.1,193.9c0-0.4,0.1-0.7,0.4-0.9s0.6-0.4,1-0.4
			c0.4,0,0.7,0.1,1,0.4c0.3,0.3,0.4,0.6,0.4,0.9c0,0.4-0.1,0.7-0.4,1s-0.6,0.4-1,0.4c-0.4,0-0.7-0.1-1-0.4S914.1,194.2,914.1,193.9z
			"/>
		<path class="st3" d="M925.3,210.6l1.3-9.7h-2.1l0.2-1.6h2.1l0.6-4.6h2l-0.6,4.6h2.5l-0.2,1.6h-2.5l-1.3,9.7H925.3z"/>
		<path class="st3" d="M938.4,210.6l2.5-19.2h2l-1.4,9.7c0.6-0.8,1.2-1.3,1.9-1.7c0.7-0.4,1.5-0.6,2.3-0.6c1.1,0,1.9,0.3,2.6,0.9
			s0.9,1.4,0.9,2.4c0,0.2,0,0.4,0,0.6s0,0.4-0.1,0.7l-0.9,7.2h-2l0.9-7c0-0.1,0-0.1,0-0.2c0-0.4,0.1-0.7,0.1-0.8
			c0-0.7-0.2-1.2-0.6-1.6c-0.4-0.4-1-0.5-1.8-0.5c-1,0-1.9,0.4-2.5,1.1c-0.6,0.7-1.1,1.8-1.2,3.2l-0.8,5.7H938.4z"/>
		<path class="st3" d="M975.1,210.6l2.1-16.2h-4.6l0.2-2h11.4l-0.3,2h-4.6l-2.1,16.2H975.1z"/>
		<path class="st3" d="M990.8,210.6l2.5-19.2h2l-1.4,9.7c0.6-0.8,1.2-1.3,1.9-1.7c0.7-0.4,1.5-0.6,2.3-0.6c1.1,0,1.9,0.3,2.6,0.9
			s0.9,1.4,0.9,2.4c0,0.2,0,0.4,0,0.6s0,0.4-0.1,0.7l-0.9,7.2h-2l0.9-7c0-0.1,0-0.1,0-0.2c0-0.4,0.1-0.7,0.1-0.8
			c0-0.7-0.2-1.2-0.6-1.6c-0.4-0.4-1-0.5-1.8-0.5c-1,0-1.9,0.4-2.5,1.1c-0.6,0.7-1.1,1.8-1.2,3.2l-0.8,5.7H990.8z"/>
		<path class="st3" d="M1021.6,205.2l-9.1,0v0.2c0,1.2,0.3,2.2,0.9,2.9c0.6,0.7,1.5,1,2.5,1c0.7,0,1.3-0.2,1.8-0.5s1.1-0.8,1.6-1.5
			l1.4,1.1c-0.7,0.9-1.4,1.5-2.2,1.9s-1.7,0.6-2.6,0.6c-1.7,0-3-0.5-4-1.5c-1-1-1.5-2.4-1.5-4.1c0-1.9,0.6-3.5,1.7-4.7
			c1.2-1.2,2.6-1.9,4.4-1.9c1.6,0,2.8,0.5,3.7,1.5c0.9,1,1.3,2.3,1.3,4.1c0,0.2,0,0.4,0,0.5S1021.6,205.1,1021.6,205.2z
			 M1019.7,203.6c0-1-0.3-1.8-0.8-2.4s-1.3-0.8-2.3-0.8c-1,0-1.8,0.3-2.5,0.9s-1.2,1.4-1.4,2.3H1019.7z"/>
		<path class="st3" d="M1043.7,210.6l2.4-18.2h2.9c1.6,0,2.8,0.1,3.4,0.2c0.7,0.2,1.2,0.4,1.7,0.8c0.5,0.4,0.9,0.9,1.2,1.6
			s0.4,1.3,0.4,2.1c0,0.9-0.2,1.7-0.5,2.5c-0.3,0.7-0.8,1.3-1.5,1.8c-0.5,0.4-1.1,0.7-1.9,0.9s-1.9,0.3-3.4,0.3h-0.8h-0.8l-1,8
			H1043.7z M1047.2,200.7h1.5c0.9,0,1.6,0,2.1-0.1c0.5-0.1,0.8-0.2,1.2-0.3c0.6-0.3,1-0.6,1.3-1.2s0.4-1.1,0.4-1.8
			c0-0.5-0.1-1-0.3-1.4c-0.2-0.4-0.5-0.7-0.9-1c-0.3-0.2-0.6-0.3-1-0.4c-0.4-0.1-1-0.1-1.8-0.1h-0.7h-0.9L1047.2,200.7z"/>
		<path class="st3" d="M1070.4,201.1c-0.2-0.1-0.4-0.2-0.7-0.2s-0.4-0.1-0.7-0.1c-0.9,0-1.6,0.4-2.1,1.1c-0.5,0.7-0.9,1.9-1.1,3.4
			l-0.7,5.4h-1.9l1.5-11.3h2l-0.3,1.8c0.5-0.8,1-1.3,1.6-1.7s1.1-0.5,1.8-0.5c0.2,0,0.4,0,0.6,0.1s0.4,0.1,0.6,0.2L1070.4,201.1z"/>
		<path class="st3" d="M1077.8,205.4c0-1.9,0.6-3.4,1.8-4.7c1.2-1.3,2.7-1.9,4.6-1.9c1.6,0,3,0.5,4.1,1.6c1.1,1,1.6,2.3,1.6,3.9
			c0,2-0.6,3.7-1.8,4.9c-1.2,1.3-2.7,1.9-4.6,1.9c-1.7,0-3.1-0.5-4.2-1.6S1077.8,207.1,1077.8,205.4z M1084.1,200.4
			c-1.2,0-2.3,0.5-3.1,1.4s-1.2,2.1-1.2,3.5c0,1.2,0.4,2.3,1.1,3s1.6,1.1,2.8,1.1c1.2,0,2.3-0.5,3.1-1.4s1.2-2.1,1.2-3.5
			c0-1.2-0.4-2.2-1.1-3C1086.2,200.8,1085.2,200.4,1084.1,200.4z"/>
		<path class="st3" d="M1097.5,208.9l1.3-1.5c0.4,0.7,0.9,1.2,1.4,1.5c0.5,0.3,1.1,0.5,1.7,0.5c0.7,0,1.3-0.2,1.7-0.5
			c0.4-0.3,0.6-0.8,0.6-1.3c0-0.6-0.6-1.2-1.8-1.7c-0.3-0.1-0.5-0.3-0.7-0.3c-1.1-0.5-1.8-1-2.2-1.5c-0.4-0.4-0.5-1-0.5-1.7
			c0-1,0.4-1.9,1.2-2.6c0.8-0.7,1.8-1,3-1c0.8,0,1.5,0.1,2.1,0.4c0.6,0.3,1.2,0.7,1.7,1.3l-1.2,1.4c-0.3-0.5-0.8-0.8-1.2-1
			c-0.5-0.2-1-0.4-1.6-0.4c-0.6,0-1.1,0.2-1.5,0.5c-0.4,0.3-0.6,0.7-0.6,1.2c0,0.6,0.7,1.2,2.1,1.8l0.2,0.1c1.1,0.5,1.9,1,2.2,1.4
			c0.4,0.5,0.6,1.1,0.6,1.8c0,1.1-0.4,2.1-1.1,2.7c-0.7,0.7-1.8,1-3.1,1c-1,0-1.8-0.2-2.5-0.5
			C1098.7,210.2,1098.1,209.7,1097.5,208.9z"/>
	</g>
	<g>
		<path class="st3" d="M876.5,74.4v7.1c0,1.4,0.1,2.2,0.2,2.6c0.1,0.4,0.4,0.6,0.8,0.8c0.4,0.2,1.1,0.3,2.1,0.3v0.7h-11.5v-0.7
			c1,0,1.7-0.1,2.1-0.3c0.4-0.2,0.6-0.5,0.8-0.8s0.2-1.2,0.2-2.6V65c0-1.4-0.1-2.2-0.2-2.6c-0.1-0.4-0.4-0.6-0.8-0.8
			c-0.4-0.2-1.1-0.3-2.1-0.3v-0.7h10.5c2.7,0,4.7,0.2,6,0.6c1.3,0.4,2.3,1.2,3.1,2.3s1.2,2.5,1.2,4c0,1.9-0.6,3.4-1.8,4.6
			c-0.8,0.8-1.8,1.3-3.2,1.7l5.4,8.5c0.7,1.1,1.2,1.8,1.5,2.1c0.5,0.4,1,0.6,1.6,0.6v0.7h-7.1L878,74.4H876.5z M876.5,62V73h0.9
			c1.5,0,2.7-0.2,3.5-0.5s1.4-0.9,1.8-1.7c0.4-0.8,0.7-1.9,0.7-3.2c0-1.9-0.4-3.3-1.2-4.3c-0.8-0.9-2.1-1.4-3.9-1.4H876.5z"/>
		<path class="st3" d="M906.3,76.5h-8.5c0.1,2.3,0.6,4.1,1.6,5.5c0.8,1,1.7,1.5,2.8,1.5c0.7,0,1.3-0.2,1.8-0.6
			c0.5-0.4,1.1-1.2,1.7-2.2l0.6,0.4c-0.8,1.9-1.8,3.3-2.8,4.1c-1,0.8-2.2,1.2-3.5,1.2c-2.3,0-4-1-5.2-3c-1-1.6-1.4-3.6-1.4-6
			c0-2.9,0.7-5.2,2.1-6.9c1.4-1.7,3-2.6,4.9-2.6c1.6,0,2.9,0.7,4.1,2.2C905.6,71.5,906.2,73.7,906.3,76.5z M902.2,75.3
			c0-2-0.1-3.4-0.3-4.1c-0.2-0.7-0.5-1.3-0.9-1.7c-0.2-0.2-0.5-0.3-0.9-0.3c-0.6,0-1,0.3-1.4,1c-0.7,1.1-1,2.6-1,4.5v0.7H902.2z"/>
		<path class="st3" d="M916.8,83.3c-1.9,1.9-3.6,2.8-5.1,2.8c-0.9,0-1.6-0.3-2.2-1c-0.6-0.7-0.9-1.5-0.9-2.4c0-1.3,0.5-2.5,1.5-3.6
			c1-1.1,3.2-2.5,6.7-4.2v-1.8c0-1.3-0.1-2.1-0.2-2.5c-0.1-0.3-0.4-0.6-0.7-0.9c-0.4-0.3-0.8-0.4-1.2-0.4c-0.7,0-1.3,0.2-1.8,0.5
			c-0.3,0.2-0.4,0.5-0.4,0.8c0,0.3,0.2,0.6,0.5,1c0.4,0.5,0.6,1,0.6,1.5c0,0.6-0.2,1.1-0.6,1.6c-0.4,0.4-0.9,0.6-1.6,0.6
			c-0.7,0-1.3-0.2-1.8-0.7c-0.5-0.5-0.7-1-0.7-1.7c0-0.9,0.3-1.7,0.9-2.6s1.5-1.4,2.6-1.9c1.1-0.4,2.3-0.7,3.5-0.7
			c1.5,0,2.6,0.4,3.5,1.1c0.9,0.7,1.4,1.5,1.7,2.3c0.2,0.5,0.2,1.7,0.2,3.6v6.8c0,0.8,0,1.3,0.1,1.5c0.1,0.2,0.1,0.4,0.2,0.5
			c0.1,0.1,0.2,0.1,0.4,0.1c0.3,0,0.6-0.2,0.9-0.7l0.5,0.4c-0.6,0.9-1.1,1.6-1.7,2c-0.6,0.4-1.3,0.6-2,0.6c-0.9,0-1.6-0.2-2.1-0.7
			S916.9,84.2,916.8,83.3z M916.8,81.9v-5.8c-1.3,0.9-2.3,1.8-3,2.8c-0.4,0.7-0.6,1.3-0.6,2c0,0.6,0.2,1.1,0.5,1.5
			c0.3,0.3,0.7,0.5,1.2,0.5C915.5,83,916.1,82.6,916.8,81.9z"/>
		<path class="st3" d="M931.3,60.6v21.6c0,1.2,0.1,2,0.4,2.4c0.3,0.3,0.8,0.5,1.5,0.6v0.7h-8.4v-0.7c0.7,0,1.2-0.2,1.5-0.7
			c0.2-0.3,0.3-1,0.3-2.3v-18c0-1.2-0.1-2-0.4-2.3c-0.3-0.3-0.7-0.5-1.5-0.6v-0.7H931.3z"/>
		<path class="st3" d="M951.3,62.1v10.3h0.4c1.4,0,2.5-0.5,3.1-1.5c0.6-1,1.1-2.5,1.2-4.5h0.6v13.2h-0.6c-0.1-1.4-0.4-2.6-0.8-3.5
			c-0.4-0.9-0.9-1.5-1.5-1.9s-1.4-0.5-2.5-0.5v7.1c0,1.4,0.1,2.2,0.2,2.6c0.1,0.3,0.3,0.6,0.6,0.8c0.3,0.2,0.8,0.3,1.4,0.3h1.3
			c2.1,0,3.8-0.5,5.1-1.6c1.3-1.1,2.2-2.8,2.7-5h0.6l-1,8h-19.5v-0.7h0.7c0.7,0,1.2-0.1,1.6-0.4c0.3-0.2,0.5-0.5,0.7-0.9
			c0.1-0.3,0.2-1.1,0.2-2.3V64.9c0-1.1,0-1.8-0.1-2.1c-0.1-0.4-0.3-0.8-0.6-1c-0.4-0.3-1-0.5-1.7-0.5h-0.7v-0.7h18.8v7.5H961
			c-0.3-1.8-0.8-3.1-1.4-3.9c-0.6-0.8-1.4-1.4-2.5-1.8c-0.6-0.2-1.8-0.3-3.5-0.3H951.3z"/>
		<path class="st3" d="M975.7,68l0.2,5.9h-0.6c-0.7-1.8-1.4-3-2.1-3.6c-0.7-0.6-1.4-1-2.2-1c-0.5,0-0.8,0.2-1.2,0.5
			c-0.3,0.3-0.5,0.7-0.5,1.2c0,0.3,0.1,0.7,0.3,1c0.4,0.5,1.3,1.4,3,2.6s2.7,2.3,3.2,3.1c0.5,0.9,0.8,1.8,0.8,2.9
			c0,1-0.2,1.9-0.6,2.8s-1,1.6-1.8,2.1c-0.8,0.5-1.7,0.7-2.6,0.7c-0.7,0-1.7-0.3-3-0.8c-0.3-0.1-0.6-0.2-0.7-0.2
			c-0.4,0-0.7,0.3-0.9,0.9h-0.5l-0.3-6.3h0.6c0.5,1.6,1.2,2.9,2.1,3.7c0.9,0.8,1.7,1.2,2.5,1.2c0.5,0,1-0.2,1.3-0.5
			c0.3-0.4,0.5-0.8,0.5-1.3c0-0.6-0.2-1.1-0.5-1.5s-1.1-1.1-2.2-2c-1.7-1.3-2.8-2.3-3.3-3c-0.7-1-1.1-2.1-1.1-3.4
			c0-1.3,0.4-2.6,1.2-3.6c0.8-1.1,2-1.6,3.6-1.6c0.8,0,1.7,0.2,2.4,0.7c0.3,0.2,0.5,0.3,0.7,0.3c0.2,0,0.4,0,0.5-0.1
			c0.1-0.1,0.3-0.4,0.6-0.8H975.7z"/>
		<path class="st3" d="M985.3,62.1v6.4h3.7v1.8h-3.7V81c0,1,0,1.7,0.1,1.9c0.1,0.3,0.2,0.5,0.4,0.7c0.2,0.2,0.4,0.3,0.6,0.3
			c0.7,0,1.4-0.6,2-1.8l0.5,0.4c-0.9,2.4-2.4,3.6-4.4,3.6c-1,0-1.8-0.3-2.5-0.9s-1.1-1.3-1.3-2.1c-0.1-0.4-0.2-1.6-0.2-3.4v-9.4h-2
			v-0.7c1.4-1.1,2.6-2.3,3.6-3.5s1.8-2.6,2.6-4.1H985.3z"/>
		<path class="st3" d="M999,83.3c-1.9,1.9-3.6,2.8-5.1,2.8c-0.9,0-1.6-0.3-2.2-1c-0.6-0.7-0.9-1.5-0.9-2.4c0-1.3,0.5-2.5,1.5-3.6
			c1-1.1,3.2-2.5,6.7-4.2v-1.8c0-1.3-0.1-2.1-0.2-2.5c-0.1-0.3-0.4-0.6-0.7-0.9c-0.4-0.3-0.8-0.4-1.2-0.4c-0.7,0-1.3,0.2-1.8,0.5
			c-0.3,0.2-0.4,0.5-0.4,0.8c0,0.3,0.2,0.6,0.5,1c0.4,0.5,0.6,1,0.6,1.5c0,0.6-0.2,1.1-0.6,1.6c-0.4,0.4-0.9,0.6-1.6,0.6
			c-0.7,0-1.3-0.2-1.8-0.7c-0.5-0.5-0.7-1-0.7-1.7c0-0.9,0.3-1.7,0.9-2.6s1.5-1.4,2.6-1.9c1.1-0.4,2.3-0.7,3.5-0.7
			c1.5,0,2.6,0.4,3.5,1.1c0.9,0.7,1.4,1.5,1.7,2.3c0.2,0.5,0.2,1.7,0.2,3.6v6.8c0,0.8,0,1.3,0.1,1.5c0.1,0.2,0.1,0.4,0.2,0.5
			c0.1,0.1,0.2,0.1,0.4,0.1c0.3,0,0.6-0.2,0.9-0.7l0.5,0.4c-0.6,0.9-1.1,1.6-1.7,2c-0.6,0.4-1.3,0.6-2,0.6c-0.9,0-1.6-0.2-2.1-0.7
			S999.1,84.2,999,83.3z M999,81.9v-5.8c-1.3,0.9-2.3,1.8-3,2.8c-0.4,0.7-0.6,1.3-0.6,2c0,0.6,0.2,1.1,0.5,1.5
			c0.3,0.3,0.7,0.5,1.2,0.5C997.6,83,998.3,82.6,999,81.9z"/>
		<path class="st3" d="M1013.6,62.1v6.4h3.7v1.8h-3.7V81c0,1,0,1.7,0.1,1.9c0.1,0.3,0.2,0.5,0.4,0.7c0.2,0.2,0.4,0.3,0.6,0.3
			c0.7,0,1.4-0.6,2-1.8l0.5,0.4c-0.9,2.4-2.4,3.6-4.4,3.6c-1,0-1.8-0.3-2.5-0.9s-1.1-1.3-1.3-2.1c-0.1-0.4-0.2-1.6-0.2-3.4v-9.4h-2
			v-0.7c1.4-1.1,2.6-2.3,3.6-3.5s1.8-2.6,2.6-4.1H1013.6z"/>
		<path class="st3" d="M1031.9,76.5h-8.5c0.1,2.3,0.6,4.1,1.6,5.5c0.8,1,1.7,1.5,2.8,1.5c0.7,0,1.3-0.2,1.8-0.6
			c0.5-0.4,1.1-1.2,1.7-2.2l0.6,0.4c-0.8,1.9-1.8,3.3-2.8,4.1c-1,0.8-2.2,1.2-3.5,1.2c-2.3,0-4-1-5.2-3c-1-1.6-1.4-3.6-1.4-6
			c0-2.9,0.7-5.2,2.1-6.9c1.4-1.7,3-2.6,4.9-2.6c1.6,0,2.9,0.7,4.1,2.2C1031.2,71.5,1031.8,73.7,1031.9,76.5z M1027.8,75.3
			c0-2-0.1-3.4-0.3-4.1c-0.2-0.7-0.5-1.3-0.9-1.7c-0.2-0.2-0.5-0.3-0.9-0.3c-0.6,0-1,0.3-1.4,1c-0.7,1.1-1,2.6-1,4.5v0.7H1027.8z"/>
	</g>
	<g>
		<text transform="matrix(1 0 0 1 921.6656 170.7689)" class="st3" style="font-family:'TimesNewRomanPS-BoldMT'; font-size:34px;">Inc.</text>
	</g>
	<g>
		<path class="st3" d="M793.5,113.3v11.4c0,2.2,0.1,3.6,0.4,4.2s0.8,1,1.5,1.4s2,0.5,3.8,0.5v1.1h-20.9v-1.1c1.9,0,3.2-0.2,3.9-0.5
			c0.7-0.4,1.2-0.8,1.4-1.4s0.4-2,0.4-4.2V98.1c0-2.2-0.1-3.6-0.4-4.2s-0.8-1-1.4-1.4c-0.7-0.3-2-0.5-3.8-0.5v-1.1h17.9
			c5.9,0,10.1,1,12.7,3.1c2.6,2.1,3.8,4.7,3.8,7.9c0,2.7-0.8,4.9-2.5,6.8c-1.7,1.9-3.9,3.2-6.8,3.9
			C801.4,113.1,798.1,113.3,793.5,113.3z M793.5,93.2V111c0.7,0,1.2,0.1,1.5,0.1c2.5,0,4.4-0.7,5.7-2.2c1.3-1.5,2-3.7,2-6.8
			c0-3-0.7-5.3-2-6.7s-3.3-2.1-6-2.1H793.5z"/>
		<path class="st3" d="M828.4,103.6v6.4c1.9-2.9,3.5-4.9,4.9-5.8c1.4-1,2.8-1.4,4.1-1.4c1.1,0,2,0.3,2.7,1c0.7,0.7,1,1.7,1,3
			c0,1.4-0.3,2.4-1,3.1c-0.7,0.7-1.4,1.1-2.4,1.1c-1.1,0-2-0.3-2.8-1s-1.3-1.1-1.4-1.2c-0.2-0.1-0.4-0.2-0.7-0.2
			c-0.6,0-1.1,0.2-1.7,0.7c-0.8,0.7-1.5,1.7-1.9,2.9c-0.6,2-1,4.1-1,6.5v6.5l0,1.7c0,1.2,0.1,1.9,0.2,2.2c0.2,0.5,0.6,0.9,1.1,1.2
			c0.5,0.3,1.3,0.4,2.4,0.5v1.1h-15.3v-1.1c1.2-0.1,2.1-0.4,2.5-1c0.4-0.6,0.7-2.1,0.7-4.6v-15.7c0-1.6-0.1-2.6-0.2-3.1
			c-0.2-0.6-0.5-1-0.9-1.2c-0.4-0.3-1.1-0.4-2-0.5v-1.1H828.4z"/>
		<path class="st3" d="M856.4,102.7c2.5,0,4.8,0.6,6.9,1.9s3.7,3.1,4.8,5.4c1.1,2.3,1.6,4.9,1.6,7.7c0,4-1,7.4-3.1,10.1
			c-2.5,3.3-5.9,4.9-10.2,4.9c-4.3,0-7.5-1.5-9.8-4.5s-3.5-6.4-3.5-10.4c0-4.1,1.2-7.6,3.5-10.6
			C849.1,104.3,852.3,102.7,856.4,102.7z M856.5,104.9c-1,0-1.9,0.4-2.6,1.2c-0.7,0.8-1.2,2.3-1.5,4.6c-0.2,2.3-0.3,5.5-0.3,9.6
			c0,2.2,0.1,4.2,0.4,6.1c0.2,1.4,0.7,2.5,1.4,3.3s1.6,1.1,2.5,1.1c0.9,0,1.7-0.3,2.3-0.8c0.8-0.7,1.3-1.6,1.6-2.9
			c0.4-1.9,0.6-5.8,0.6-11.6c0-3.4-0.2-5.8-0.6-7.1c-0.4-1.3-0.9-2.2-1.7-2.8C858.1,105.1,857.4,104.9,856.5,104.9z"/>
		<path class="st3" d="M886.5,106.6v19.6c0,1.9,0.2,3.1,0.6,3.6c0.6,0.7,1.8,1.1,3.6,1v1.1H874v-1.1c1.3,0,2.2-0.2,2.7-0.4
			c0.5-0.3,0.9-0.7,1.1-1.1c0.2-0.5,0.3-1.5,0.3-3v-19.6H874v-3h4.1v-2.1l0-1.4c0-2.9,1.1-5.3,3.2-7.3c2.1-1.9,5-2.9,8.6-2.9
			c2.5,0,4.3,0.5,5.5,1.4c1.2,0.9,1.8,2,1.8,3.1c0,0.9-0.4,1.7-1.1,2.4c-0.7,0.7-1.7,1-3,1c-1,0-1.9-0.3-2.5-0.8
			c-0.6-0.5-0.9-1.2-0.9-1.8c0-0.2,0.1-0.6,0.2-1.1c0.1-0.3,0.1-0.7,0.1-1c0-0.4-0.1-0.7-0.4-0.9c-0.3-0.3-0.7-0.5-1.2-0.5
			c-0.6,0-1.1,0.2-1.5,0.7s-0.6,1.3-0.6,2.3l0.1,5.3v3.6h4.2v3H886.5z"/>
		<path class="st3" d="M918.7,116.7h-15.5c0.2,3.8,1.2,6.7,3,8.9c1.4,1.7,3.1,2.5,5,2.5c1.2,0,2.3-0.3,3.3-1c1-0.7,2-1.9,3.2-3.6
			l1,0.7c-1.5,3.1-3.2,5.3-5.1,6.6c-1.9,1.3-4,2-6.4,2c-4.2,0-7.4-1.6-9.5-4.8c-1.7-2.6-2.6-5.8-2.6-9.7c0-4.7,1.3-8.5,3.8-11.3
			c2.6-2.8,5.5-4.2,9-4.2c2.9,0,5.4,1.2,7.5,3.5C917.4,108.6,918.5,112.1,918.7,116.7z M911.2,114.7c0-3.2-0.2-5.5-0.5-6.7
			c-0.4-1.2-0.9-2.1-1.6-2.8c-0.4-0.4-1-0.5-1.7-0.5c-1,0-1.9,0.5-2.6,1.5c-1.2,1.8-1.8,4.3-1.8,7.4v1.1H911.2z"/>
		<path class="st3" d="M940.1,102.8l0.5,9.7h-1c-1.2-2.9-2.5-4.8-3.8-5.9c-1.3-1-2.6-1.6-4-1.6c-0.8,0-1.5,0.3-2.1,0.8
			c-0.6,0.6-0.9,1.2-0.9,1.9c0,0.5,0.2,1.1,0.6,1.6c0.6,0.8,2.5,2.2,5.4,4.3c3,2,4.9,3.7,5.9,5.1c0.9,1.4,1.4,3,1.4,4.7
			c0,1.6-0.4,3.1-1.2,4.6s-1.9,2.7-3.3,3.5c-1.4,0.8-3,1.2-4.8,1.2c-1.4,0-3.2-0.4-5.4-1.3c-0.6-0.2-1-0.3-1.2-0.3
			c-0.7,0-1.2,0.5-1.7,1.5h-1l-0.5-10.2h1c0.9,2.7,2.2,4.7,3.7,6c1.6,1.3,3.1,2,4.5,2c1,0,1.8-0.3,2.4-0.9c0.6-0.6,0.9-1.3,0.9-2.2
			c0-1-0.3-1.8-0.9-2.5s-2-1.8-4.1-3.2c-3.1-2.1-5.1-3.8-6-4.9c-1.3-1.7-2-3.5-2-5.5c0-2.2,0.8-4.2,2.3-5.9c1.5-1.8,3.7-2.6,6.5-2.6
			c1.5,0,3,0.4,4.5,1.1c0.5,0.3,1,0.5,1.3,0.5c0.4,0,0.7-0.1,0.9-0.2c0.2-0.2,0.6-0.6,1.1-1.3H940.1z"/>
		<path class="st3" d="M964.3,102.8l0.5,9.7h-1c-1.2-2.9-2.5-4.8-3.8-5.9c-1.3-1-2.6-1.6-4-1.6c-0.8,0-1.5,0.3-2.1,0.8
			c-0.6,0.6-0.9,1.2-0.9,1.9c0,0.5,0.2,1.1,0.6,1.6c0.6,0.8,2.5,2.2,5.4,4.3c3,2,4.9,3.7,5.9,5.1c0.9,1.4,1.4,3,1.4,4.7
			c0,1.6-0.4,3.1-1.2,4.6s-1.9,2.7-3.3,3.5c-1.4,0.8-3,1.2-4.8,1.2c-1.4,0-3.2-0.4-5.4-1.3c-0.6-0.2-1-0.3-1.2-0.3
			c-0.7,0-1.2,0.5-1.7,1.5h-1l-0.5-10.2h1c0.9,2.7,2.2,4.7,3.7,6c1.6,1.3,3.1,2,4.5,2c1,0,1.8-0.3,2.4-0.9c0.6-0.6,0.9-1.3,0.9-2.2
			c0-1-0.3-1.8-0.9-2.5s-2-1.8-4.1-3.2c-3.1-2.1-5.1-3.8-6-4.9c-1.3-1.7-2-3.5-2-5.5c0-2.2,0.8-4.2,2.3-5.9c1.5-1.8,3.7-2.6,6.5-2.6
			c1.5,0,3,0.4,4.5,1.1c0.5,0.3,1,0.5,1.3,0.5c0.4,0,0.7-0.1,0.9-0.2c0.2-0.2,0.6-0.6,1.1-1.3H964.3z"/>
		<path class="st3" d="M981.5,103.6V126c0,2,0.2,3.3,0.7,3.8c0.5,0.6,1.4,0.9,2.7,1v1.1h-15.3v-1.1c1.3,0,2.2-0.4,2.8-1.1
			c0.4-0.5,0.6-1.7,0.6-3.7v-16.5c0-2-0.2-3.3-0.7-3.8c-0.5-0.6-1.4-0.9-2.7-1v-1.1H981.5z M977.3,89.9c1.3,0,2.4,0.5,3.3,1.4
			c0.9,0.9,1.4,2,1.4,3.3s-0.5,2.4-1.4,3.3c-0.9,0.9-2,1.4-3.3,1.4c-1.3,0-2.4-0.5-3.3-1.4s-1.4-2-1.4-3.3s0.5-2.4,1.4-3.3
			C974.9,90.3,976,89.9,977.3,89.9z"/>
		<path class="st3" d="M1001.1,102.7c2.5,0,4.8,0.6,6.9,1.9s3.7,3.1,4.8,5.4c1.1,2.3,1.6,4.9,1.6,7.7c0,4-1,7.4-3.1,10.1
			c-2.5,3.3-5.9,4.9-10.2,4.9c-4.3,0-7.5-1.5-9.8-4.5s-3.5-6.4-3.5-10.4c0-4.1,1.2-7.6,3.5-10.6C993.7,104.3,997,102.7,1001.1,102.7
			z M1001.2,104.9c-1,0-1.9,0.4-2.6,1.2c-0.7,0.8-1.2,2.3-1.5,4.6c-0.2,2.3-0.3,5.5-0.3,9.6c0,2.2,0.1,4.2,0.4,6.1
			c0.2,1.4,0.7,2.5,1.4,3.3s1.6,1.1,2.5,1.1c0.9,0,1.7-0.3,2.3-0.8c0.8-0.7,1.3-1.6,1.6-2.9c0.4-1.9,0.6-5.8,0.6-11.6
			c0-3.4-0.2-5.8-0.6-7.1c-0.4-1.3-0.9-2.2-1.7-2.8C1002.7,105.1,1002,104.9,1001.2,104.9z"/>
		<path class="st3" d="M1030.3,103.6v3.7c1.5-1.6,2.8-2.7,4.2-3.4c1.3-0.7,2.8-1.1,4.3-1.1c1.8,0,3.4,0.5,4.6,1.5
			c1.2,1,2,2.3,2.4,3.8c0.3,1.2,0.5,3.4,0.5,6.6v11c0,2.2,0.2,3.5,0.6,4.1c0.4,0.5,1.2,0.9,2.5,1v1.1H1035v-1.1
			c1.1-0.1,1.8-0.6,2.3-1.3c0.3-0.5,0.5-1.8,0.5-3.8v-12.6c0-2.3-0.1-3.8-0.3-4.4s-0.5-1.1-0.9-1.4c-0.4-0.3-0.9-0.5-1.4-0.5
			c-1.7,0-3.4,1.2-4.8,3.7v15.2c0,2.1,0.2,3.5,0.6,4s1.1,0.9,2.2,1.1v1.1h-14.3v-1.1c1.2-0.1,2-0.5,2.5-1.2c0.3-0.4,0.5-1.8,0.5-3.9
			v-16c0-2.1-0.2-3.5-0.6-4s-1.2-0.9-2.5-1v-1.1H1030.3z"/>
		<path class="st3" d="M1068.8,127.7c-3.5,3-6.5,4.6-9.3,4.6c-1.6,0-3-0.5-4-1.6c-1.1-1.1-1.6-2.4-1.6-4c0-2.2,0.9-4.1,2.8-5.8
			c1.9-1.7,5.9-4,12.1-6.9v-2.8c0-2.1-0.1-3.5-0.3-4c-0.2-0.6-0.7-1-1.3-1.5c-0.6-0.4-1.4-0.6-2.2-0.6c-1.3,0-2.4,0.3-3.2,0.9
			c-0.5,0.4-0.8,0.8-0.8,1.3c0,0.4,0.3,0.9,0.8,1.6c0.8,0.9,1.2,1.7,1.2,2.5c0,1-0.4,1.8-1.1,2.5c-0.7,0.7-1.7,1-2.9,1
			c-1.3,0-2.3-0.4-3.2-1.2c-0.9-0.8-1.3-1.7-1.3-2.7c0-1.5,0.6-2.8,1.7-4.2c1.2-1.3,2.8-2.3,4.8-3s4.2-1.1,6.4-1.1
			c2.7,0,4.8,0.6,6.4,1.7c1.6,1.1,2.6,2.4,3,3.7c0.3,0.8,0.4,2.8,0.4,5.8v11c0,1.3,0.1,2.1,0.2,2.4c0.1,0.3,0.3,0.6,0.5,0.7
			c0.2,0.2,0.4,0.2,0.7,0.2c0.5,0,1.1-0.4,1.6-1.1l0.9,0.7c-1,1.5-2.1,2.6-3.1,3.3c-1.1,0.7-2.3,1-3.7,1c-1.6,0-2.9-0.4-3.8-1.1
			S1069,129.3,1068.8,127.7z M1068.8,125.5V116c-2.4,1.4-4.3,3-5.4,4.6c-0.8,1.1-1.2,2.2-1.2,3.3c0,0.9,0.3,1.7,1,2.5
			c0.5,0.5,1.2,0.8,2.1,0.8C1066.3,127.2,1067.5,126.6,1068.8,125.5z"/>
		<path class="st3" d="M1095.3,90.8V126c0,2,0.2,3.3,0.7,3.8c0.5,0.6,1.4,0.9,2.7,1v1.1h-15.3v-1.1c1.3,0,2.2-0.4,2.8-1.1
			c0.4-0.5,0.6-1.7,0.6-3.7V96.7c0-2-0.2-3.2-0.7-3.8c-0.5-0.6-1.4-0.9-2.7-1v-1.1H1095.3z"/>
		<path class="st3" d="M1119.3,102.8l0.5,9.7h-1c-1.2-2.9-2.5-4.8-3.8-5.9c-1.3-1-2.6-1.6-4-1.6c-0.8,0-1.5,0.3-2.1,0.8
			c-0.6,0.6-0.9,1.2-0.9,1.9c0,0.5,0.2,1.1,0.6,1.6c0.6,0.8,2.5,2.2,5.4,4.3c3,2,4.9,3.7,5.9,5.1c0.9,1.4,1.4,3,1.4,4.7
			c0,1.6-0.4,3.1-1.2,4.6s-1.9,2.7-3.3,3.5c-1.4,0.8-3,1.2-4.8,1.2c-1.4,0-3.2-0.4-5.4-1.3c-0.6-0.2-1-0.3-1.2-0.3
			c-0.7,0-1.2,0.5-1.7,1.5h-1l-0.5-10.2h1c0.9,2.7,2.2,4.7,3.7,6c1.6,1.3,3.1,2,4.5,2c1,0,1.8-0.3,2.4-0.9c0.6-0.6,0.9-1.3,0.9-2.2
			c0-1-0.3-1.8-0.9-2.5s-2-1.8-4.1-3.2c-3.1-2.1-5.1-3.8-6-4.9c-1.3-1.7-2-3.5-2-5.5c0-2.2,0.8-4.2,2.3-5.9c1.5-1.8,3.7-2.6,6.5-2.6
			c1.5,0,3,0.4,4.5,1.1c0.5,0.3,1,0.5,1.3,0.5c0.4,0,0.7-0.1,0.9-0.2c0.2-0.2,0.6-0.6,1.1-1.3H1119.3z"/>
	</g>
	<rect x="990.7" y="155" class="st3" width="108.8" height="1.2"/>
	<rect x="990.7" y="162.3" class="st3" width="108.8" height="1.2"/>
	<rect x="798.7" y="155" class="st3" width="108.8" height="1.2"/>
	<rect x="798.7" y="162.3" class="st3" width="108.8" height="1.2"/>
</g>
</svg>
