<svg xmlns="http://www.w3.org/2000/svg" viewBox="0 0 36 36">
 <g>
  <title>Layer 1</title>
  <path stroke="null" d="m17.94995,0.0204c-9.94105,0 -17.99989,8.02399 -17.99989,17.92207c0,9.89953 8.05883,17.92207 17.99989,17.92207c9.94105,0 17.99989,-8.02254 17.99989,-17.92207c0,-9.89808 -8.05956,-17.92207 -17.99989,-17.92207zm1.03212,7.26781c0.81648,-0.95415 2.19727,-1.66157 3.3361,-1.70742c0.14546,1.32168 -0.3896,2.64701 -1.17904,3.60042c-0.79236,0.95269 -2.08835,1.69432 -3.36095,1.59606c-0.17104,-1.29403 0.47001,-2.64482 1.20389,-3.48907zm6.48142,18.0487c-0.94513,1.37481 -1.92462,2.74453 -3.46767,2.77219c-1.51747,0.02838 -2.00575,-0.89519 -3.73886,-0.89519c-1.73457,0 -2.27694,0.86826 -3.71328,0.92431c-1.48897,0.05531 -2.62342,-1.48253 -3.57586,-2.85297c-1.94801,-2.80057 -3.43405,-7.91482 -1.43561,-11.3675c0.98972,-1.71615 2.76303,-2.79912 4.68618,-2.82896c1.46484,-0.02693 2.84563,0.98253 3.73886,0.98253c0.89543,0 2.57371,-1.21251 4.33898,-1.03348c0.73827,0.02984 2.81127,0.29549 4.14308,2.23507c-0.10672,0.06696 -2.47576,1.43886 -2.44725,4.29547c0.03143,3.41265 3.00644,4.54584 3.04079,4.5633c-0.02778,0.07715 -0.47732,1.61644 -1.56937,3.20523z" id="svg_1"/>
 </g>
</svg>