<svg xmlns="http://www.w3.org/2000/svg" viewBox="0 0 36 36"><defs><style>.cls-1{fill:#1da1f2;}</style></defs><title>r.ca social media icons 2019b</title><g id="icon-twitter_-_transparent" data-name="icon-twitter - transparent"><path class="cls-1" d="M18,0A18,18,0,1,0,36,18,18,18,0,0,0,18,0Zm9.82,14.36c0,.19,0,.39,0,.58A12.74,12.74,0,0,1,15,27.76h0a12.55,12.55,0,0,1-6.88-2,9.46,9.46,0,0,0,1.07.06,9,9,0,0,0,5.6-1.92,4.52,4.52,0,0,1-4.21-3.13,4.89,4.89,0,0,0,.85.08,4.27,4.27,0,0,0,1.19-.16A4.52,4.52,0,0,1,9,16.23v-.05a4.59,4.59,0,0,0,2,.56,4.51,4.51,0,0,1-1.4-6,12.79,12.79,0,0,0,9.29,4.71,4.5,4.5,0,0,1,7.67-4.11,8.89,8.89,0,0,0,2.86-1.1,4.48,4.48,0,0,1-2,2.5A9.22,9.22,0,0,0,30.06,12,9.4,9.4,0,0,1,27.81,14.35Z"/></g></svg>