<svg aria-hidden="true" style="position: absolute; width: 0; height: 0; overflow: hidden;" version="1.1" xmlns="http://www.w3.org/2000/svg" xmlns:xlink="http://www.w3.org/1999/xlink">
<defs>
<symbol id="icon-computer" viewBox="0 0 32 32">
<path d="M3.097 10.323h2.065v1.032h-2.065z"></path>
<path d="M30.452 8.258c0.854 0 1.548-0.695 1.548-1.548v-5.161c0-0.854-0.695-1.548-1.548-1.548h-7.226c-0.854 0-1.548 0.695-1.548 1.548v5.161c0 0.854 0.695 1.548 1.548 1.548h1.548v1.032h-1.032v1.032h2.581v5.161h-2.13c-0.412-0.402-0.919-0.71-1.486-0.879 0.003-0.052 0.004-0.103 0.004-0.153 0-2.277-1.852-4.129-4.129-4.129-1.413 0-2.726 0.735-3.478 1.91-0.53-0.238-1.103-0.362-1.684-0.362-1.713 0-3.255 1.080-3.859 2.663-0.392 0.084-0.758 0.235-1.089 0.433h-3.826v-1.548h2.065c0.854 0 1.548-0.695 1.548-1.548v-10.323c0-0.854-0.695-1.548-1.548-1.548h-5.161c-0.854 0-1.548 0.695-1.548 1.548v10.323c0 0.854 0.695 1.548 1.548 1.548h2.065v2.581h3.761c-0.22 0.313-0.39 0.659-0.502 1.032h-2.227v5.677h-2.065c-0.854 0-1.548 0.695-1.548 1.548v4.645h-1.032v1.548c0 0.854 0.695 1.548 1.548 1.548h8.258c0.854 0 1.548-0.695 1.548-1.548v-1.548h-1.032v-4.645c0-0.854-0.695-1.548-1.548-1.548h-3.097v-4.645h1.032c0 1.992 1.621 3.613 3.613 3.613h11.355c1.816 0 3.32-1.349 3.572-3.097h2.106v4.129h-3.613v9.29h8.258v-9.29h-3.613v-5.161h-3.14c-0.054-0.363-0.165-0.709-0.321-1.032h2.429v-6.194h2.581v-1.032h-1.032v-1.032zM7.226 8.258h-6.194v-5.161h6.194zM1.548 1.032h5.161c0.285 0 0.516 0.231 0.516 0.516v0.516h-6.194v-0.516c0-0.285 0.231-0.516 0.516-0.516zM1.032 11.871v-2.581h6.194v2.581c0 0.285-0.231 0.516-0.516 0.516h-5.161c-0.285 0-0.516-0.231-0.516-0.516zM10.323 30.452c0 0.285-0.231 0.516-0.516 0.516h-8.258c-0.285 0-0.516-0.231-0.516-0.516v-0.516h9.29zM9.29 24.258v4.645h-7.226v-4.645c0-0.285 0.231-0.516 0.516-0.516h6.194c0.285 0 0.516 0.231 0.516 0.516zM24.774 30.968v-3.097h6.194v3.097zM30.968 26.839h-6.194v-3.097h6.194zM21.677 20.645h-11.355c-1.423 0-2.581-1.158-2.581-2.581 0-1.305 0.977-2.405 2.271-2.56l0.339-0.041 0.095-0.328c0.382-1.315 1.605-2.233 2.972-2.233 0.57 0 1.129 0.16 1.62 0.462l0.493 0.304 0.246-0.525c0.508-1.087 1.608-1.789 2.803-1.789 1.708 0 3.097 1.389 3.097 3.097 0 0.142-0.013 0.294-0.041 0.477l-0.078 0.511 0.51 0.077c1.248 0.191 2.189 1.286 2.189 2.548 0 1.423-1.158 2.581-2.581 2.581zM23.226 1.032h7.226c0.285 0 0.516 0.231 0.516 0.516v3.613h-8.258v-3.613c0-0.285 0.231-0.516 0.516-0.516zM22.71 6.71v-0.516h8.258v0.516c0 0.285-0.231 0.516-0.516 0.516h-7.226c-0.285 0-0.516-0.231-0.516-0.516zM27.871 9.29h-2.065v-1.032h2.065z"></path>
<path d="M25.806 24.774h1.032v1.032h-1.032z"></path>
<path d="M28.903 28.903h1.032v1.032h-1.032z"></path>
<path d="M27.871 24.774h2.065v1.032h-2.065z"></path>
<path d="M25.806 28.903h2.065v1.032h-2.065z"></path>
</symbol>
<symbol id="icon-user-experience" viewBox="0 0 32 32">
<path d="M29.9 16.004c0.673-1.342 1.203-2.692 1.571-4.021 1.154-4.166 0.595-7.655-1.573-9.823s-5.657-2.727-9.823-1.573c-1.33 0.368-2.679 0.898-4.021 1.571-1.67-0.838-3.342-1.451-4.954-1.805-3.743-0.82-6.897-0.179-8.882 1.807-1.274 1.274-2.013 3.064-2.137 5.178-0.111 1.901 0.274 4.082 1.114 6.329-0.689 0.545-1.133 1.388-1.133 2.333s0.444 1.788 1.133 2.333c-0.84 2.247-1.225 4.429-1.114 6.329 0.124 2.113 0.863 3.903 2.137 5.178 1.423 1.423 3.419 2.157 5.831 2.157 0.484 0 0.985-0.030 1.502-0.089 2.068-0.239 4.277-0.943 6.507-2.064 1.341 0.673 2.69 1.202 4.018 1.57 1.418 0.393 2.757 0.587 3.993 0.587 2.395 0 4.4-0.73 5.83-2.16 1.985-1.985 2.627-5.14 1.807-8.883-0.353-1.611-0.967-3.283-1.805-4.953zM20.326 1.492c3.826-1.059 6.989-0.586 8.908 1.332s2.392 5.082 1.332 8.908c-0.297 1.072-0.704 2.158-1.211 3.244-0.908-1.629-2.025-3.242-3.319-4.782 0.396-0.505 0.634-1.141 0.634-1.832 0-0.668-0.216-1.299-0.625-1.824l-0.741 0.576c0.28 0.36 0.427 0.791 0.427 1.248 0 1.122-0.913 2.035-2.035 2.035s-2.035-0.913-2.035-2.035 0.913-2.035 2.035-2.035c0.366 0 0.725 0.098 1.038 0.284l0.48-0.807c-0.458-0.272-0.983-0.416-1.518-0.416-0.691 0-1.327 0.238-1.832 0.634-1.54-1.294-3.153-2.411-4.782-3.32 1.085-0.507 2.172-0.914 3.244-1.211zM2.883 2.824c2.539-2.539 7.194-2.444 12.148-0.124-2.418 1.349-4.79 3.155-6.954 5.318-1.604 1.604-3.017 3.328-4.203 5.127-0.267-0.078-0.549-0.119-0.837-0.119-0.355 0-0.696 0.063-1.012 0.178-1.627-4.434-1.322-8.199 0.858-10.379zM8.073 31.054c-2.124 0-3.93-0.618-5.191-1.878-2.18-2.18-2.485-5.945-0.858-10.379 0.316 0.115 0.657 0.177 1.012 0.177 0.29 0 0.571-0.043 0.836-0.121 1.186 1.8 2.599 3.524 4.204 5.129 2.163 2.163 4.534 3.968 6.952 5.317-2.483 1.162-4.872 1.756-6.955 1.755zM16.056 28.788c-2.536-1.332-5.041-3.196-7.315-5.47-1.528-1.528-2.876-3.166-4.012-4.874 0.774-0.537 1.282-1.432 1.282-2.444 0-0.088-0.004-0.177-0.011-0.265l-0.936 0.083c0.005 0.060 0.008 0.121 0.008 0.182 0 1.122-0.913 2.035-2.035 2.035s-2.035-0.913-2.035-2.035 0.913-2.035 2.035-2.035c0.775 0 1.472 0.431 1.82 1.124l0.839-0.421c-0.229-0.458-0.564-0.837-0.966-1.115 1.136-1.707 2.483-3.344 4.010-4.871 2.275-2.275 4.78-4.139 7.317-5.471 1.727 0.909 3.474 2.081 5.166 3.5-0.317 0.473-0.502 1.041-0.502 1.651 0 1.64 1.334 2.974 2.974 2.974 0.611 0 1.178-0.185 1.651-0.502 1.419 1.693 2.591 3.44 3.5 5.167-1.332 2.537-3.197 5.043-5.471 7.318-0.25 0.25-0.507 0.499-0.767 0.742-0.518-0.438-1.188-0.704-1.918-0.704-0.668 0-1.299 0.216-1.824 0.625l0.577 0.741c0.359-0.28 0.791-0.427 1.248-0.427 1.122 0 2.035 0.913 2.035 2.035s-0.913 2.035-2.035 2.035-2.035-0.913-2.035-2.035c0-0.366 0.098-0.725 0.284-1.038l-0.807-0.48c-0.272 0.458-0.416 0.983-0.416 1.518 0 0.471 0.111 0.916 0.306 1.313-0.658 0.42-1.315 0.802-1.968 1.145zM29.234 29.176c-1.918 1.919-5.082 2.392-8.908 1.333-1.071-0.297-2.157-0.704-3.241-1.21 0.495-0.276 0.989-0.573 1.483-0.889 0.54 0.551 1.292 0.894 2.123 0.894 1.64 0 2.974-1.334 2.974-2.974 0-0.571-0.162-1.105-0.442-1.558 0.277-0.259 0.551-0.524 0.817-0.79 2.164-2.164 3.97-4.536 5.318-6.954 2.32 4.954 2.415 9.609-0.124 12.148z"></path>
<path d="M23.759 20.852h-0.97v-2.366c0-1.046-0.703-1.976-1.71-2.26l-0.351-0.099-0.255 0.904 0.351 0.099c0.604 0.17 1.026 0.728 1.026 1.356v2.366h-1.69v-1.283h-0.939v1.283h-4.226v0.939h8.765z"></path>
<path d="M17.611 16.224l1.957 0.552 0.255-0.904-1.918-0.541v-1.247c0.868-0.592 1.44-1.589 1.44-2.717v-1.377c0-1.812-1.474-3.287-3.287-3.287s-3.287 1.475-3.287 3.287v1.377c0 1.128 0.572 2.125 1.44 2.717v1.247l-3.173 0.895c-1.007 0.284-1.71 1.213-1.71 2.26v2.366h-0.97v0.939h5.697v-0.939h-1.158v-1.283h-0.939v1.283h-1.69v-2.366c0-0.628 0.422-1.185 1.026-1.356l3.212-0.906c0.396 0.433 0.954 0.683 1.553 0.683s1.158-0.251 1.553-0.684zM16.058 7.642c1.294 0 2.348 1.053 2.348 2.348v0.523l-0.987-1.306h-3.574c0.323-0.911 1.193-1.565 2.213-1.565zM13.711 11.367v-1.221h3.241l1.376 1.82c-0.266 1.005-1.183 1.748-2.27 1.748-1.294 0-2.348-1.053-2.348-2.348zM15.151 15.535v-1.010c0.288 0.083 0.593 0.129 0.908 0.129s0.619-0.045 0.908-0.129v1.010c-0.221 0.273-0.551 0.433-0.908 0.433s-0.687-0.16-0.908-0.433z"></path>
<path d="M18.538 18.437l-1.323-0.373 0.255-0.904 1.323 0.373z"></path>
<path d="M20.6 18.042l-0.255 0.904-0.904-0.255 0.255-0.904z"></path>
<path d="M23.227 7.893h0.939v0.939h-0.939z"></path>
<path d="M20.222 25.861h0.939v0.939h-0.939z"></path>
<path d="M2.567 15.531h0.939v0.939h-0.939z"></path>
</symbol>
<symbol id="icon-realtor" viewBox="0 0 32 32">
<path d="M27.082 14.857c-0.413-0.347-1.005-0.37-1.441-0.055l-0.489 0.353c-0.090-0.217-0.245-0.406-0.453-0.539-0.38-0.242-0.855-0.248-1.242-0.011-0.202 0.124-0.36 0.303-0.438 0.48l-1.111 1.992c-0.148-0.108-0.345-0.133-0.514-0.049l-2.727 1.36-4.266-5.688c-0.061-0.082-0.146-0.143-0.242-0.175l-1.93-0.643c0.473-0.156 0.889-0.463 1.172-0.889 0.385-0.575 0.483-1.312 0.264-1.969l-0.137-0.412c-0.043-0.13-0.065-0.264-0.065-0.399v-3.733c1.181-1.148 1.477-2.801 1.493-2.899 0.024-0.145-0.017-0.293-0.112-0.405s-0.235-0.176-0.382-0.176h-5.495c-0.419-0.003-4.149-0.008-5.489 1.318-0.337 0.334-0.516 0.743-0.516 1.182 0 3.056 1.469 7.009 1.532 7.176 0.074 0.195 0.261 0.324 0.468 0.324 0.005 0 0.011 0 0.016-0.001 0.141-0.005 0.265-0.072 0.354-0.172l0.673 0.898-3.13 0.79c-0.201 0.051-0.35 0.221-0.374 0.428l-1.5 13c-0.016 0.142 0.028 0.283 0.123 0.39s0.23 0.168 0.373 0.168v1.5c0 0.827 0.673 1.5 1.5 1.5h1.5v1.5h1v-3.5h1.463c0.277 0 0.5-0.224 0.5-0.5v-2.5h3.037v2.5c0 0.276 0.223 0.5 0.5 0.5h1v3.5h1v-3.5h0.463c0.277 0 0.5-0.224 0.5-0.5v-7.8l3.685 3.655c0.141 0.141 0.354 0.183 0.538 0.109l5.892-2.366c0.149-0.060 0.261-0.189 0.299-0.345 0.018-0.074 0.018-0.149 0.003-0.222 0.776-0.387 1.801-1.044 2.276-1.607l1.18-1.396c0.202-0.239 0.299-0.543 0.273-0.855s-0.172-0.595-0.412-0.797zM12.579 8.929l0.137 0.412c0.122 0.366 0.067 0.777-0.148 1.097-0.233 0.352-0.626 0.562-1.048 0.562h-4.808l-0.984-1.313 1.108-3.694c0.798-0.019 2.748-0.109 4.725-0.504 0.332-0.066 0.63-0.172 0.902-0.303v3.027c0 0.243 0.039 0.483 0.116 0.715zM9.433 15.942l-0.47 0.94-0.47-0.94 0.47-1.88zM3.963 3.5c0-0.109 0.023-0.276 0.219-0.47 0.86-0.851 3.578-1.030 4.683-1.030 0.034 0 0.067 0 0.098 0.001h4.849c-0.271 0.81-0.95 2.211-2.447 2.51-2.418 0.484-4.877 0.49-4.901 0.49-0.221 0-0.415 0.145-0.479 0.356l-1.045 3.482c-0.427-1.41-0.977-3.569-0.977-5.338zM4.5 28.5h-1.5c-0.276 0-0.5-0.224-0.5-0.5v-1.5h1.5v0.5c0 0.276 0.223 0.5 0.5 0.5zM6.463 26.5h-1.463v-8h-1v7h-1.939l1.396-12.1 3.006-0.759zM7.463 23.5v-11.5h0.985l-0.97 3.879c-0.029 0.116-0.016 0.238 0.037 0.344l1 2c0.085 0.169 0.258 0.276 0.447 0.276s0.363-0.107 0.447-0.276l1-2c0.053-0.107 0.067-0.229 0.037-0.345l-0.97-3.879h1.022v11.5zM18.119 21.913l-4.303-4.268c-0.143-0.142-0.358-0.183-0.544-0.107s-0.307 0.26-0.307 0.462v8.5h-1.463v-13.806l2.194 0.731 4.062 5.416-0.052 0.026 0.447 0.895 3.34-1.666 1.569 1.834zM27.072 16.382l-1.18 1.397c-0.377 0.446-1.407 1.109-2.125 1.442l-1.157-1.352 1.301-2.335c0.014-0.031 0.038-0.059 0.067-0.076 0.080-0.050 0.148-0.020 0.182 0.002s0.088 0.072 0.078 0.165l-0.049 0.426c-0.023 0.197 0.073 0.387 0.244 0.488s0.385 0.090 0.545-0.026l1.247-0.899c0.064-0.046 0.151-0.043 0.211 0.008l0.614 0.519c0.047 0.040 0.058 0.090 0.060 0.116s0 0.078-0.040 0.125z"></path>
<path d="M8.5 28h1v3h-1z"></path>
<path d="M30.658 7.526l-2.658-0.886v-0.64h0.5c0.217 0 0.409-0.139 0.476-0.345s-0.006-0.431-0.181-0.559l-1.294-0.941v-2.655c0-0.276-0.224-0.5-0.5-0.5h-2c-0.276 0-0.5 0.224-0.5 0.5v0.472l-1.206-0.877c-0.175-0.128-0.413-0.128-0.588 0l-5.5 4c-0.175 0.128-0.248 0.353-0.181 0.559s0.259 0.346 0.476 0.346h0.5v6h-1.5v1h14c0.276 0 0.5-0.223 0.5-0.5v-4.5c0-0.215-0.137-0.406-0.342-0.474zM23 2.118l1.706 1.24c0.152 0.111 0.353 0.126 0.521 0.042s0.273-0.257 0.273-0.446v-0.954h1v2.409c0 0.16 0.076 0.31 0.206 0.404l0.256 0.186h-7.925zM24 12h-2v-3h2zM25 12v-3.5c0-0.277-0.224-0.5-0.5-0.5h-3c-0.276 0-0.5 0.223-0.5 0.5v3.5h-2v-6h8v6zM30 12h-2v-4.306l2 0.667z"></path>
</symbol>
</defs>
</svg>