<?xml version="1.0" encoding="utf-8"?>
<!-- Generator: Adobe Illustrator 23.1.0, SVG Export Plug-In . SVG Version: 6.00 Build 0)  -->
<svg version="1.1" id="Layer_1" xmlns="http://www.w3.org/2000/svg" xmlns:xlink="http://www.w3.org/1999/xlink" x="0px" y="0px"
	 viewBox="0 0 323.2 128.7" style="enable-background:new 0 0 323.2 128.7;" xml:space="preserve">
<style type="text/css">
	.st0{fill-rule:evenodd;clip-rule:evenodd;fill:#C43029;}
	.st1{fill:#393033;}
	.st2{fill:#07579F;}
	.st3{fill:#939598;}
</style>
<g>
	<path class="st0" d="M57.4,107.2L57.4,107.2C57.4,107.2,57.3,107.2,57.4,107.2L57.4,107.2z M31.8,72.7l-0.6-0.3L31.8,72.7
		L31.8,72.7z M31.2,72.4l-0.6-0.3L31.2,72.4L31.2,72.4z M30.6,72.1L30,71.8L30.6,72.1L30.6,72.1z M30,71.8l-0.6-0.2L30,71.8L30,71.8
		z M28.8,71.2L28.8,71.2C28.9,71.3,28.8,71.2,28.8,71.2L28.8,71.2z M28.2,70.9L28.2,70.9C28.3,71,28.2,70.9,28.2,70.9L28.2,70.9z
		 M27.6,70.6L27.6,70.6C27.7,70.7,27.6,70.6,27.6,70.6L27.6,70.6z M27,70.3L27,70.3C27.1,70.4,27,70.3,27,70.3L27,70.3z M70.1,48
		L70.1,48L70.1,48z M31.8,72.7c1,0.1,4,1.4,5.1,1.8c9.9,3.9,10.3,4.1,19,8.6c2.9,1.5,11.9,6.6,14,7.1l-13.2-16c-1-1.2-1.8-2-2.7-3.2
		c-3.4-4.4-16.2-19.1-18.1-22.9c-1.2-2.4-5.2-11-4.4-12.9c2.3,0.2,0.7,2.3,3.7,8.2c2.6,5.2,9,12.6,12.9,17.5c1,1.3,1.8,2.3,2.8,3.5
		l6.8,8.1c3.5,3.7,6.5,7.8,9.7,11.7c1.4,1.8,3.9,5.5,6.4,5.7l-3.3-39.8c0,2,1,7.7,1.3,10c0.5,3.4,1,6.8,1.6,10
		c1.2,6.3,1.4,9.1,2.1,15.2l0.3,5.6c2.7-1.8,2.5-3.8,6.6-4.4c2.9-0.4,2.8-0.1,3.2,0.5c-1.9,0-4.4,0.8-5.3,1.9
		c-0.7,0.9-2.1,3.8-2.2,5.3c4,0,9.8-1.7,12.9-2.9c2.1-0.8,3.7-1.4,5.5-2.5l4.9-3.3l1.3-1.5l-1.6-0.3c-4.3,0-9.5-0.8-13.2-2.6
		c-5.5-2.6-5.3-5.9-3.1-11.7c2.1-5.4,6.1-12.5,9.4-17.4c0.7-1,3.4-4.6,3.7-5.5c-0.8,0.2-2.2,0.9-3.2,1.3c-2.7,1.2-8.3,3.5-11.1,2.3
		c-0.9-0.4-1.7-1.3-2.4-2c-3.4-3.5-2.3-7.5-2-10.8C75,37,68,33,65.1,30.1c-0.7-0.7-0.9-1.3-1.5-1.7c-0.5,1-0.9,2.9-2.4,5.9
		c-1,2-1.9,3.4-3.2,5.1c-0.8,1.1-1.1,1.3-1.9,2.2c-5,5.7-4.7,3.5-7.4,2.2c-1.7-0.8-3-0.6-5.1-3.2c-3.1-3.8-2.8-5.6-2.4-9.6
		c0.8-6.9-0.2-6.6-1.1-10.7c-1.4,0.4-2.2,3-5.2,4c-2.7,0.9-6-0.5-7-1.8c-1.5-1.9-1.3-8.8-3.7-12.6c-0.4-0.7-0.5-0.9-1.3-1.1
		c-0.6,2.5-1.5,3.5-2.2,7.6c-0.4,2.6,0,6.5-0.2,9.6c-0.1,1.5-0.3,2.5-0.3,4.5c0,2,1,5.8-0.7,8.5c-0.9,1.3-1.9,1.6-2.5,2.5
		c2.7,0.7,8.1,6.8,9.8,9.6l3.5,6.3c0.7,1.3,3.2,5.5,1.9,6.8c-1.9,1.9-4.3-2.1-5.9-2.5c-2.7-0.7-1.2,2.2-7.5,0.1
		c-6.6-2.2-4.2-2.4-11.3-3.2C6,58.3,4.3,58.1,3,57.8c0.6,0.9,4.2,2.9,5.4,3.6c3.5,2.1,7.1,5.2,9.5,8.4c1.1,1.4,3.5,4.5,0,5.3
		c0.4,1.6,2.1,2.3,3.2,3.3c1.2,1.1,2.3,2,3.7,2.8c4.2,2.2,7.6,2.3,5.8,6c-4.2,0-5,0.1-8.7,1.7c-1,0.4-1.6,0.8-2.5,1
		c0.4,1.4,1.7,2.1,2.7,2.9c4.5,3.6,3.7,3.6,10.7,6.2l18.1,4.8l0.6-1.2c0.9,3.4,5,1.8-2.1,11.3c-0.7,1-2.1,2.4-2.3,3.6l7.9-3.1
		c7.1-3,14.1-8.4,18.3-14.7c0.5,0.3,1.8,2,2.5,2.6c0.9,0.9,1.6,1.6,2.5,2.5c1,1,1.7,1.4,2.7,2.4c5.4,5.2,16,9.7,22.9,12.8
		c3.6,1.6,14.6,6.8,12.5-0.3c-2.7-9.6-8.3-6-13.5-6.5c-4-0.4-5.6,0-8.8-1.3c-6.1-2.4-13.5-7.7-18.5-12.1c-1.4-1.2-1-1.5-2.9-2.1
		c-5.2-1.7-7.8-1.5-10.8,2.8l-4,6.4c0.3-3.7,3.7-9,7.9-11.4c1.8-1,2.4-1.4,5.1-1.4C69.9,92.9,54.3,83.9,52,82.8
		C50.9,82.2,33,73.7,31.8,72.7L31.8,72.7z"/>
</g>
<g>
	<g>
		<path class="st1" d="M136.5,115.2h4.7v0.1c0,1.8-0.5,3.2-1.5,4.2c-1,1-2.4,1.5-4.1,1.5c-1.7,0-3-0.5-4-1.5c-1-1-1.5-2.3-1.5-4
			c0-0.9,0.2-1.8,0.5-2.6c0.3-0.8,0.8-1.5,1.4-2.1c0.6-0.6,1.2-1,2-1.3c0.7-0.3,1.5-0.4,2.3-0.4c1.1,0,2,0.2,2.8,0.6
			c0.8,0.4,1.5,0.9,2.1,1.7l-1,0.9c-0.5-0.7-1.1-1.2-1.7-1.5c-0.6-0.3-1.3-0.5-2.1-0.5c-1.4,0-2.6,0.5-3.5,1.5
			c-0.9,1-1.4,2.2-1.4,3.7c0,1.3,0.4,2.3,1.2,3.1c0.8,0.8,1.8,1.2,3.1,1.2c1.1,0,2-0.3,2.8-1c0.8-0.6,1.2-1.5,1.3-2.5h-3.5
			L136.5,115.2z"/>
		<path class="st1" d="M146.2,117.5c0-1.2,0.4-2.1,1.1-2.9c0.8-0.8,1.7-1.2,2.8-1.2c1,0,1.9,0.3,2.5,1c0.7,0.6,1,1.4,1,2.4
			c0,1.2-0.4,2.3-1.1,3s-1.7,1.2-2.8,1.2c-1.1,0-1.9-0.3-2.6-1C146.5,119.4,146.2,118.5,146.2,117.5z M150.1,114.4
			c-0.8,0-1.4,0.3-1.9,0.9c-0.5,0.6-0.8,1.3-0.8,2.2c0,0.8,0.2,1.4,0.7,1.9c0.4,0.5,1,0.7,1.7,0.7c0.8,0,1.4-0.3,1.9-0.9
			s0.8-1.3,0.8-2.2c0-0.8-0.2-1.4-0.7-1.9C151.3,114.7,150.8,114.4,150.1,114.4z"/>
		<path class="st1" d="M169.9,121.1l-2.8-11.7h1.4l1.9,8.1l4-8.6l2.1,8.6l3.6-8.1h1.4l-5.3,11.7l-2.1-8.4L169.9,121.1z"/>
		<path class="st1" d="M185,120.7l0.9-7h1.2l-0.9,7H185z M186,110.4c0-0.2,0.1-0.4,0.2-0.6c0.2-0.2,0.4-0.2,0.6-0.2
			c0.2,0,0.4,0.1,0.6,0.2c0.2,0.2,0.2,0.4,0.2,0.6c0,0.2-0.1,0.4-0.2,0.6c-0.2,0.2-0.4,0.2-0.6,0.2c-0.2,0-0.4-0.1-0.6-0.2
			S186,110.6,186,110.4z"/>
		<path class="st1" d="M192.9,120.7l0.8-6h-1.3l0.1-1h1.3l0.4-2.8h1.2l-0.4,2.8h1.5l-0.1,1H195l-0.8,6H192.9z"/>
		<path class="st1" d="M201,120.7l1.6-11.9h1.2l-0.8,6c0.4-0.5,0.8-0.8,1.2-1c0.4-0.2,0.9-0.3,1.4-0.3c0.7,0,1.2,0.2,1.6,0.6
			c0.4,0.4,0.6,0.9,0.6,1.5c0,0.1,0,0.2,0,0.4c0,0.1,0,0.3,0,0.4l-0.6,4.4h-1.2l0.6-4.3c0,0,0-0.1,0-0.1c0-0.3,0-0.4,0-0.5
			c0-0.4-0.1-0.7-0.4-1c-0.3-0.2-0.6-0.3-1.1-0.3c-0.6,0-1.2,0.2-1.6,0.7c-0.4,0.5-0.6,1.1-0.8,2l-0.5,3.5H201z"/>
		<path class="st1" d="M222.1,120.7l0.8-6h-1.3l0.1-1h1.3l0.4-2.8h1.2l-0.4,2.8h1.5l-0.1,1h-1.5l-0.8,6H222.1z"/>
		<path class="st1" d="M230.2,120.7l1.6-11.9h1.2l-0.8,6c0.4-0.5,0.8-0.8,1.2-1c0.4-0.2,0.9-0.3,1.4-0.3c0.7,0,1.2,0.2,1.6,0.6
			c0.4,0.4,0.6,0.9,0.6,1.5c0,0.1,0,0.2,0,0.4c0,0.1,0,0.3,0,0.4l-0.6,4.4h-1.2l0.6-4.3c0,0,0-0.1,0-0.1c0-0.3,0-0.4,0-0.5
			c0-0.4-0.1-0.7-0.4-1c-0.3-0.2-0.6-0.3-1.1-0.3c-0.6,0-1.2,0.2-1.6,0.7c-0.4,0.5-0.6,1.1-0.8,2l-0.5,3.5H230.2z"/>
		<path class="st1" d="M249.2,117.4l-5.6,0v0.1c0,0.8,0.2,1.3,0.6,1.8c0.4,0.4,0.9,0.6,1.6,0.6c0.4,0,0.8-0.1,1.1-0.3
			c0.3-0.2,0.7-0.5,1-0.9l0.8,0.7c-0.4,0.5-0.9,0.9-1.3,1.2c-0.5,0.3-1,0.4-1.6,0.4c-1,0-1.9-0.3-2.5-0.9c-0.6-0.6-0.9-1.5-0.9-2.6
			c0-1.2,0.4-2.1,1.1-2.9c0.7-0.8,1.6-1.2,2.7-1.2c1,0,1.7,0.3,2.3,0.9c0.5,0.6,0.8,1.4,0.8,2.5c0,0.1,0,0.3,0,0.3
			C249.3,117.3,249.3,117.3,249.2,117.4z M248.1,116.4c0-0.6-0.2-1.1-0.5-1.5c-0.3-0.3-0.8-0.5-1.4-0.5c-0.6,0-1.1,0.2-1.6,0.5
			c-0.4,0.4-0.7,0.8-0.9,1.4H248.1z"/>
		<path class="st1" d="M262.9,120.7l1.5-11.2h1.8c1,0,1.7,0.1,2.1,0.2c0.4,0.1,0.8,0.3,1.1,0.5c0.3,0.3,0.6,0.6,0.7,1
			c0.2,0.4,0.3,0.8,0.3,1.3c0,0.6-0.1,1.1-0.3,1.5c-0.2,0.4-0.5,0.8-0.9,1.1c-0.3,0.3-0.7,0.4-1.2,0.5c-0.4,0.1-1.2,0.2-2.1,0.2
			h-0.5h-0.5l-0.6,4.9H262.9z M265.1,114.6h0.9c0.6,0,1,0,1.3-0.1s0.5-0.1,0.7-0.2c0.3-0.2,0.6-0.4,0.8-0.7c0.2-0.3,0.3-0.7,0.3-1.1
			c0-0.3-0.1-0.6-0.2-0.9c-0.1-0.3-0.3-0.5-0.6-0.6c-0.2-0.1-0.4-0.2-0.6-0.2c-0.2,0-0.6-0.1-1.1-0.1h-0.4h-0.6L265.1,114.6z"/>
		<path class="st1" d="M279.4,114.8c-0.1-0.1-0.3-0.1-0.4-0.2c-0.1,0-0.3-0.1-0.4-0.1c-0.5,0-1,0.2-1.3,0.7
			c-0.3,0.4-0.5,1.1-0.7,2.1l-0.4,3.3H275l0.9-7h1.2l-0.2,1.1c0.3-0.5,0.6-0.8,1-1c0.3-0.2,0.7-0.3,1.1-0.3c0.1,0,0.2,0,0.3,0
			s0.2,0.1,0.4,0.1L279.4,114.8z"/>
		<path class="st1" d="M284,117.5c0-1.2,0.4-2.1,1.1-2.9c0.8-0.8,1.7-1.2,2.8-1.2c1,0,1.9,0.3,2.5,1c0.7,0.6,1,1.4,1,2.4
			c0,1.2-0.4,2.3-1.1,3s-1.7,1.2-2.8,1.2c-1.1,0-1.9-0.3-2.6-1C284.3,119.4,284,118.5,284,117.5z M287.9,114.4
			c-0.8,0-1.4,0.3-1.9,0.9c-0.5,0.6-0.8,1.3-0.8,2.2c0,0.8,0.2,1.4,0.7,1.9c0.4,0.5,1,0.7,1.7,0.7c0.8,0,1.4-0.3,1.9-0.9
			s0.8-1.3,0.8-2.2c0-0.8-0.2-1.4-0.7-1.9C289.2,114.7,288.6,114.4,287.9,114.4z"/>
		<path class="st1" d="M296.2,119.7l0.8-0.9c0.3,0.4,0.5,0.7,0.9,0.9s0.7,0.3,1.1,0.3c0.4,0,0.8-0.1,1-0.3s0.4-0.5,0.4-0.8
			c0-0.4-0.4-0.7-1.1-1.1c-0.2-0.1-0.3-0.2-0.4-0.2c-0.7-0.3-1.1-0.6-1.3-0.9c-0.2-0.3-0.3-0.6-0.3-1c0-0.6,0.2-1.2,0.7-1.6
			c0.5-0.4,1.1-0.6,1.8-0.6c0.5,0,0.9,0.1,1.3,0.3c0.4,0.2,0.8,0.4,1.1,0.8l-0.7,0.9c-0.2-0.3-0.5-0.5-0.8-0.6
			c-0.3-0.1-0.6-0.2-1-0.2c-0.4,0-0.7,0.1-0.9,0.3c-0.2,0.2-0.4,0.4-0.4,0.7c0,0.4,0.4,0.8,1.3,1.1l0.1,0.1c0.7,0.3,1.2,0.6,1.4,0.9
			s0.4,0.7,0.4,1.1c0,0.7-0.2,1.3-0.7,1.7c-0.5,0.4-1.1,0.6-1.9,0.6c-0.6,0-1.1-0.1-1.6-0.3C296.9,120.5,296.5,120.1,296.2,119.7z"
			/>
	</g>
	<g>
		<path class="st2" d="M162.8,36.5v4.4c0,0.8,0,1.4,0.1,1.6c0.1,0.2,0.3,0.4,0.5,0.5c0.2,0.1,0.7,0.2,1.3,0.2v0.4h-7.1v-0.4
			c0.6,0,1.1-0.1,1.3-0.2c0.2-0.1,0.4-0.3,0.5-0.5c0.1-0.2,0.1-0.7,0.1-1.6V30.8c0-0.8,0-1.4-0.1-1.6c-0.1-0.2-0.3-0.4-0.5-0.5
			s-0.7-0.2-1.3-0.2V28h6.5c1.7,0,2.9,0.1,3.7,0.4c0.8,0.3,1.4,0.7,1.9,1.4c0.5,0.7,0.7,1.5,0.7,2.5c0,1.2-0.4,2.1-1.1,2.9
			c-0.5,0.5-1.1,0.8-2,1.1l3.3,5.3c0.4,0.7,0.7,1.1,0.9,1.3c0.3,0.2,0.6,0.4,1,0.4v0.4h-4.4l-4.5-7.1H162.8z M162.8,28.9v6.8h0.6
			c1,0,1.7-0.1,2.1-0.3c0.5-0.2,0.8-0.5,1.1-1.1c0.3-0.5,0.4-1.2,0.4-2c0-1.2-0.2-2.1-0.7-2.6c-0.5-0.6-1.3-0.9-2.4-0.9H162.8z"/>
		<path class="st2" d="M181.2,37.9H176c0.1,1.4,0.4,2.6,1,3.4c0.5,0.6,1,1,1.7,1c0.4,0,0.8-0.1,1.1-0.4c0.3-0.3,0.7-0.7,1.1-1.4
			l0.3,0.3c-0.5,1.2-1.1,2-1.7,2.5s-1.4,0.7-2.2,0.7c-1.4,0-2.5-0.6-3.2-1.8c-0.6-1-0.9-2.2-0.9-3.7c0-1.8,0.4-3.2,1.3-4.3
			c0.9-1.1,1.9-1.6,3-1.6c1,0,1.8,0.4,2.5,1.3S181.2,36.1,181.2,37.9z M178.7,37.1c0-1.2-0.1-2.1-0.2-2.5c-0.1-0.5-0.3-0.8-0.6-1
			c-0.1-0.1-0.3-0.2-0.6-0.2c-0.4,0-0.6,0.2-0.9,0.6c-0.4,0.7-0.6,1.6-0.6,2.8v0.4H178.7z"/>
		<path class="st2" d="M187.7,42.1c-1.2,1.2-2.2,1.7-3.1,1.7c-0.5,0-1-0.2-1.4-0.6c-0.4-0.4-0.5-0.9-0.5-1.5c0-0.8,0.3-1.6,0.9-2.2
			c0.6-0.7,2-1.5,4.1-2.6v-1.1c0-0.8,0-1.3-0.1-1.5c-0.1-0.2-0.2-0.4-0.4-0.6c-0.2-0.2-0.5-0.2-0.7-0.2c-0.4,0-0.8,0.1-1.1,0.3
			c-0.2,0.1-0.3,0.3-0.3,0.5c0,0.2,0.1,0.4,0.3,0.6c0.3,0.3,0.4,0.6,0.4,1c0,0.4-0.1,0.7-0.4,1s-0.6,0.4-1,0.4
			c-0.4,0-0.8-0.1-1.1-0.4c-0.3-0.3-0.4-0.6-0.4-1c0-0.6,0.2-1.1,0.6-1.6c0.4-0.5,0.9-0.9,1.6-1.2s1.4-0.4,2.2-0.4
			c0.9,0,1.6,0.2,2.2,0.6c0.5,0.4,0.9,0.9,1,1.4c0.1,0.3,0.1,1.1,0.1,2.2V41c0,0.5,0,0.8,0.1,0.9c0,0.1,0.1,0.2,0.2,0.3
			c0.1,0.1,0.1,0.1,0.2,0.1c0.2,0,0.4-0.1,0.5-0.4l0.3,0.3c-0.3,0.6-0.7,1-1.1,1.2c-0.4,0.3-0.8,0.4-1.2,0.4c-0.5,0-1-0.1-1.3-0.4
			C188,43.1,187.8,42.6,187.7,42.1z M187.7,41.2v-3.6c-0.8,0.5-1.4,1.1-1.8,1.7c-0.3,0.4-0.4,0.8-0.4,1.3c0,0.4,0.1,0.7,0.3,0.9
			c0.2,0.2,0.4,0.3,0.7,0.3C186.9,41.9,187.3,41.6,187.7,41.2z"/>
		<path class="st2" d="M196.7,28v13.4c0,0.8,0.1,1.2,0.2,1.5s0.5,0.3,0.9,0.4v0.4h-5.2v-0.4c0.4,0,0.7-0.2,0.9-0.4
			c0.1-0.2,0.2-0.6,0.2-1.4V30.3c0-0.8-0.1-1.2-0.2-1.4c-0.2-0.2-0.5-0.3-0.9-0.4V28H196.7z"/>
		<path class="st2" d="M209,28.9v6.4h0.3c0.9,0,1.5-0.3,1.9-0.9c0.4-0.6,0.6-1.5,0.8-2.8h0.4v8.2H212c-0.1-0.9-0.3-1.6-0.5-2.2
			c-0.3-0.6-0.6-0.9-0.9-1.1c-0.3-0.2-0.9-0.3-1.5-0.3v4.4c0,0.9,0,1.4,0.1,1.6c0.1,0.2,0.2,0.3,0.4,0.5c0.2,0.1,0.5,0.2,0.9,0.2
			h0.8c1.3,0,2.3-0.3,3.1-1c0.8-0.7,1.3-1.7,1.7-3.1h0.4l-0.6,5h-12v-0.4h0.5c0.4,0,0.7-0.1,1-0.2c0.2-0.1,0.3-0.3,0.4-0.6
			c0.1-0.2,0.1-0.7,0.1-1.5V30.7c0-0.7,0-1.1-0.1-1.3c-0.1-0.3-0.2-0.5-0.4-0.6c-0.3-0.2-0.6-0.3-1.1-0.3h-0.5V28h11.6v4.6H215
			c-0.2-1.1-0.5-1.9-0.8-2.4c-0.4-0.5-0.9-0.9-1.5-1.1c-0.4-0.1-1.1-0.2-2.2-0.2H209z"/>
		<path class="st2" d="M224.1,32.6l0.2,3.7h-0.3c-0.4-1.1-0.9-1.8-1.3-2.2c-0.4-0.4-0.9-0.6-1.3-0.6c-0.3,0-0.5,0.1-0.7,0.3
			c-0.2,0.2-0.3,0.5-0.3,0.7c0,0.2,0.1,0.4,0.2,0.6c0.2,0.3,0.8,0.9,1.8,1.6c1,0.8,1.7,1.4,2,1.9c0.3,0.5,0.5,1.1,0.5,1.8
			c0,0.6-0.1,1.2-0.4,1.8c-0.3,0.6-0.6,1-1.1,1.3c-0.5,0.3-1,0.5-1.6,0.5c-0.5,0-1.1-0.2-1.8-0.5c-0.2-0.1-0.3-0.1-0.4-0.1
			c-0.2,0-0.4,0.2-0.6,0.6h-0.3l-0.2-3.9h0.3c0.3,1,0.7,1.8,1.3,2.3c0.5,0.5,1,0.8,1.5,0.8c0.3,0,0.6-0.1,0.8-0.3
			c0.2-0.2,0.3-0.5,0.3-0.8c0-0.4-0.1-0.7-0.3-1s-0.7-0.7-1.4-1.2c-1-0.8-1.7-1.4-2-1.9c-0.5-0.6-0.7-1.3-0.7-2.1
			c0-0.8,0.3-1.6,0.8-2.2c0.5-0.7,1.2-1,2.2-1c0.5,0,1,0.1,1.5,0.4c0.2,0.1,0.3,0.2,0.5,0.2c0.1,0,0.2,0,0.3-0.1s0.2-0.2,0.4-0.5
			H224.1z"/>
		<path class="st2" d="M230,28.9v3.9h2.3V34H230v6.6c0,0.6,0,1,0.1,1.2c0.1,0.2,0.1,0.3,0.3,0.4s0.3,0.2,0.4,0.2
			c0.4,0,0.9-0.4,1.3-1.1l0.3,0.3c-0.6,1.5-1.5,2.2-2.7,2.2c-0.6,0-1.1-0.2-1.5-0.6c-0.4-0.4-0.7-0.8-0.8-1.3
			c-0.1-0.3-0.1-1-0.1-2.1V34h-1.3v-0.4c0.9-0.7,1.6-1.4,2.2-2.2c0.6-0.8,1.1-1.6,1.6-2.5H230z"/>
		<path class="st2" d="M238.5,42.1c-1.2,1.2-2.2,1.7-3.1,1.7c-0.5,0-1-0.2-1.4-0.6c-0.4-0.4-0.5-0.9-0.5-1.5c0-0.8,0.3-1.6,0.9-2.2
			c0.6-0.7,2-1.5,4.1-2.6v-1.1c0-0.8,0-1.3-0.1-1.5c-0.1-0.2-0.2-0.4-0.4-0.6c-0.2-0.2-0.5-0.2-0.7-0.2c-0.4,0-0.8,0.1-1.1,0.3
			c-0.2,0.1-0.3,0.3-0.3,0.5c0,0.2,0.1,0.4,0.3,0.6c0.3,0.3,0.4,0.6,0.4,1c0,0.4-0.1,0.7-0.4,1s-0.6,0.4-1,0.4
			c-0.4,0-0.8-0.1-1.1-0.4c-0.3-0.3-0.4-0.6-0.4-1c0-0.6,0.2-1.1,0.6-1.6c0.4-0.5,0.9-0.9,1.6-1.2s1.4-0.4,2.2-0.4
			c0.9,0,1.6,0.2,2.2,0.6c0.5,0.4,0.9,0.9,1,1.4c0.1,0.3,0.1,1.1,0.1,2.2V41c0,0.5,0,0.8,0.1,0.9c0,0.1,0.1,0.2,0.2,0.3
			c0.1,0.1,0.1,0.1,0.2,0.1c0.2,0,0.4-0.1,0.5-0.4l0.3,0.3c-0.3,0.6-0.7,1-1.1,1.2c-0.4,0.3-0.8,0.4-1.2,0.4c-0.5,0-1-0.1-1.3-0.4
			C238.8,43.1,238.6,42.6,238.5,42.1z M238.5,41.2v-3.6c-0.8,0.5-1.4,1.1-1.8,1.7c-0.3,0.4-0.4,0.8-0.4,1.3c0,0.4,0.1,0.7,0.3,0.9
			c0.2,0.2,0.4,0.3,0.7,0.3C237.7,41.9,238,41.6,238.5,41.2z"/>
		<path class="st2" d="M247.5,28.9v3.9h2.3V34h-2.3v6.6c0,0.6,0,1,0.1,1.2c0.1,0.2,0.1,0.3,0.3,0.4s0.3,0.2,0.4,0.2
			c0.4,0,0.9-0.4,1.3-1.1l0.3,0.3c-0.6,1.5-1.5,2.2-2.7,2.2c-0.6,0-1.1-0.2-1.5-0.6c-0.4-0.4-0.7-0.8-0.8-1.3
			c-0.1-0.3-0.1-1-0.1-2.1V34h-1.3v-0.4c0.9-0.7,1.6-1.4,2.2-2.2c0.6-0.8,1.1-1.6,1.6-2.5H247.5z"/>
		<path class="st2" d="M258.8,37.9h-5.3c0.1,1.4,0.4,2.6,1,3.4c0.5,0.6,1,1,1.7,1c0.4,0,0.8-0.1,1.1-0.4c0.3-0.3,0.7-0.7,1.1-1.4
			l0.3,0.3c-0.5,1.2-1.1,2-1.7,2.5s-1.4,0.7-2.2,0.7c-1.4,0-2.5-0.6-3.2-1.8c-0.6-1-0.9-2.2-0.9-3.7c0-1.8,0.4-3.2,1.3-4.3
			c0.9-1.1,1.9-1.6,3-1.6c1,0,1.8,0.4,2.5,1.3S258.8,36.1,258.8,37.9z M256.3,37.1c0-1.2-0.1-2.1-0.2-2.5c-0.1-0.5-0.3-0.8-0.6-1
			c-0.1-0.1-0.3-0.2-0.6-0.2c-0.4,0-0.6,0.2-0.9,0.6c-0.4,0.7-0.6,1.6-0.6,2.8v0.4H256.3z"/>
	</g>
	<g>
		<g>
			<path class="st2" d="M194.1,95.7v0.4h-7.3v-0.4h0.5c0.4,0,0.7-0.1,1-0.2c0.2-0.1,0.3-0.3,0.4-0.5c0.1-0.2,0.1-0.6,0.1-1.3v-9.2
				c0-0.7,0-1.2-0.1-1.3c-0.1-0.2-0.2-0.3-0.5-0.5c-0.2-0.1-0.5-0.2-0.9-0.2h-0.5v-0.4h7.3v0.4h-0.5c-0.4,0-0.7,0.1-1,0.2
				c-0.2,0.1-0.3,0.3-0.4,0.5c-0.1,0.2-0.1,0.6-0.1,1.3v9.2c0,0.7,0,1.2,0.1,1.3c0.1,0.2,0.2,0.3,0.5,0.5c0.2,0.1,0.5,0.2,0.9,0.2
				H194.1z"/>
			<path class="st2" d="M199.8,82.2l6.9,8.6v-6c0-0.8-0.1-1.4-0.4-1.7c-0.3-0.4-0.9-0.6-1.7-0.6v-0.4h4.6v0.4
				c-0.6,0.1-1,0.2-1.2,0.3c-0.2,0.1-0.4,0.3-0.5,0.6c-0.1,0.3-0.2,0.7-0.2,1.4v11.6h-0.3l-9.4-11.6v8.8c0,0.8,0.2,1.3,0.5,1.6
				c0.4,0.3,0.8,0.4,1.3,0.4h0.3v0.4h-4.9v-0.4c0.8,0,1.3-0.2,1.6-0.5c0.3-0.3,0.5-0.8,0.5-1.6v-9.8l-0.3-0.4
				c-0.3-0.4-0.6-0.6-0.8-0.7c-0.2-0.1-0.6-0.2-1-0.2v-0.4H199.8z"/>
			<path class="st2" d="M223.8,81.9v4.8h-0.4c-0.3-1.3-0.9-2.2-1.7-2.9c-0.8-0.7-1.8-1-2.8-1c-0.9,0-1.7,0.3-2.4,0.7
				c-0.7,0.5-1.3,1.2-1.6,2c-0.4,1-0.6,2.2-0.6,3.4c0,1.2,0.2,2.4,0.5,3.4c0.3,1,0.8,1.8,1.5,2.3c0.7,0.5,1.5,0.8,2.6,0.8
				c0.9,0,1.7-0.2,2.4-0.6s1.5-1,2.3-2v1.2c-0.8,0.8-1.6,1.4-2.4,1.8c-0.8,0.4-1.8,0.5-3,0.5c-1.5,0-2.8-0.3-4-0.9
				c-1.2-0.6-2-1.5-2.7-2.6c-0.6-1.1-0.9-2.3-0.9-3.6c0-1.3,0.3-2.6,1-3.8c0.7-1.2,1.6-2.1,2.8-2.8c1.2-0.7,2.4-1,3.8-1
				c1,0,2,0.2,3.1,0.6c0.6,0.2,1,0.4,1.2,0.4c0.2,0,0.4-0.1,0.6-0.2c0.2-0.2,0.3-0.4,0.3-0.8H223.8z"/>
			<path class="st2" d="M227.5,92.9c0.5,0,0.9,0.2,1.2,0.5s0.5,0.7,0.5,1.2s-0.2,0.9-0.5,1.2c-0.3,0.3-0.7,0.5-1.2,0.5
				c-0.5,0-0.9-0.2-1.2-0.5c-0.3-0.3-0.5-0.7-0.5-1.2s0.2-0.9,0.5-1.2S227.1,92.9,227.5,92.9z"/>
		</g>
	</g>
	<g>
		<path class="st2" d="M111.5,60.6v7c0,1.4,0.1,2.2,0.3,2.6s0.5,0.6,0.9,0.9c0.4,0.2,1.2,0.3,2.4,0.3v0.7h-12.9v-0.7
			c1.2,0,2-0.1,2.4-0.3c0.4-0.2,0.7-0.5,0.9-0.9c0.2-0.3,0.3-1.2,0.3-2.6V51.2c0-1.4-0.1-2.2-0.3-2.6c-0.2-0.4-0.5-0.6-0.9-0.9
			s-1.2-0.3-2.4-0.3v-0.7h11.1c3.6,0,6.3,0.6,7.8,1.9c1.6,1.3,2.4,2.9,2.4,4.9c0,1.6-0.5,3.1-1.5,4.2c-1,1.2-2.4,2-4.2,2.4
			C116.4,60.5,114.4,60.6,111.5,60.6z M111.5,48.2v11c0.4,0,0.7,0,0.9,0c1.5,0,2.7-0.5,3.5-1.4c0.8-0.9,1.2-2.3,1.2-4.2
			c0-1.9-0.4-3.3-1.2-4.1c-0.8-0.9-2.1-1.3-3.7-1.3H111.5z"/>
		<path class="st2" d="M133.1,54.6v4c1.2-1.8,2.2-3,3-3.6c0.9-0.6,1.7-0.9,2.5-0.9c0.7,0,1.3,0.2,1.7,0.6c0.4,0.4,0.6,1,0.6,1.8
			c0,0.8-0.2,1.5-0.6,1.9c-0.4,0.5-0.9,0.7-1.5,0.7c-0.7,0-1.2-0.2-1.7-0.6s-0.8-0.7-0.9-0.7c-0.1-0.1-0.3-0.1-0.4-0.1
			c-0.4,0-0.7,0.1-1,0.4c-0.5,0.4-0.9,1-1.2,1.8c-0.4,1.2-0.6,2.5-0.6,4v4l0,1c0,0.7,0,1.2,0.1,1.4c0.1,0.3,0.4,0.6,0.7,0.7
			c0.3,0.2,0.8,0.3,1.5,0.3v0.7h-9.4v-0.7c0.8-0.1,1.3-0.3,1.5-0.6s0.4-1.3,0.4-2.8v-9.7c0-1,0-1.6-0.1-1.9
			c-0.1-0.3-0.3-0.6-0.5-0.8s-0.7-0.3-1.3-0.3v-0.7H133.1z"/>
		<path class="st2" d="M150.4,54.1c1.5,0,2.9,0.4,4.2,1.2c1.3,0.8,2.3,1.9,3,3.3c0.7,1.4,1,3,1,4.8c0,2.5-0.6,4.6-1.9,6.2
			c-1.5,2-3.6,3-6.3,3c-2.6,0-4.7-0.9-6.1-2.8s-2.1-4-2.1-6.4c0-2.5,0.7-4.7,2.2-6.6C145.9,55,147.9,54.1,150.4,54.1z M150.5,55.4
			c-0.6,0-1.2,0.2-1.6,0.7c-0.5,0.5-0.8,1.4-0.9,2.8c-0.1,1.4-0.2,3.4-0.2,5.9c0,1.3,0.1,2.6,0.3,3.7c0.1,0.9,0.4,1.6,0.9,2
			c0.4,0.5,1,0.7,1.5,0.7c0.6,0,1-0.2,1.4-0.5c0.5-0.4,0.8-1,1-1.8c0.3-1.2,0.4-3.6,0.4-7.2c0-2.1-0.1-3.6-0.4-4.4
			c-0.2-0.8-0.6-1.4-1-1.7C151.4,55.5,151,55.4,150.5,55.4z"/>
		<path class="st2" d="M169,56.4v12.1c0,1.2,0.1,1.9,0.4,2.2c0.4,0.5,1.1,0.7,2.2,0.6v0.7h-10.3v-0.7c0.8,0,1.3-0.1,1.7-0.3
			c0.3-0.2,0.6-0.4,0.7-0.7c0.1-0.3,0.2-0.9,0.2-1.9V56.4h-2.5v-1.8h2.5v-1.3l0-0.9c0-1.8,0.7-3.3,2-4.5c1.3-1.2,3.1-1.8,5.3-1.8
			c1.5,0,2.7,0.3,3.4,0.9c0.7,0.6,1.1,1.2,1.1,1.9c0,0.6-0.2,1-0.7,1.5c-0.5,0.4-1.1,0.6-1.8,0.6c-0.6,0-1.2-0.2-1.5-0.5
			c-0.4-0.3-0.6-0.7-0.6-1.1c0-0.1,0-0.3,0.1-0.7c0-0.2,0.1-0.4,0.1-0.6c0-0.3-0.1-0.5-0.2-0.6c-0.2-0.2-0.4-0.3-0.7-0.3
			c-0.4,0-0.7,0.2-0.9,0.4c-0.2,0.3-0.4,0.8-0.4,1.4l0,3.3v2.2h2.6v1.8H169z"/>
		<path class="st2" d="M188.9,62.7h-9.6c0.1,2.3,0.7,4.2,1.9,5.5c0.9,1,1.9,1.6,3.1,1.6c0.7,0,1.4-0.2,2-0.6c0.6-0.4,1.3-1.2,2-2.3
			l0.6,0.4c-0.9,1.9-2,3.3-3.1,4.1s-2.5,1.2-4,1.2c-2.6,0-4.6-1-5.9-3c-1.1-1.6-1.6-3.6-1.6-6c0-2.9,0.8-5.2,2.4-7
			c1.6-1.7,3.4-2.6,5.5-2.6c1.8,0,3.3,0.7,4.6,2.2C188.1,57.7,188.8,59.9,188.9,62.7z M184.3,61.5c0-2-0.1-3.4-0.3-4.1
			c-0.2-0.7-0.6-1.3-1-1.7c-0.3-0.2-0.6-0.3-1-0.3c-0.6,0-1.2,0.3-1.6,1c-0.7,1.1-1.1,2.6-1.1,4.6v0.7H184.3z"/>
		<path class="st2" d="M202.1,54.1l0.3,6h-0.6c-0.8-1.8-1.5-3-2.4-3.6c-0.8-0.6-1.6-1-2.4-1c-0.5,0-0.9,0.2-1.3,0.5
			c-0.4,0.3-0.5,0.7-0.5,1.2c0,0.3,0.1,0.7,0.4,1c0.4,0.5,1.5,1.4,3.3,2.6c1.8,1.2,3,2.3,3.6,3.2c0.6,0.9,0.9,1.8,0.9,2.9
			c0,1-0.2,1.9-0.7,2.9s-1.2,1.7-2.1,2.2c-0.9,0.5-1.9,0.7-2.9,0.7c-0.8,0-2-0.3-3.3-0.8c-0.4-0.1-0.6-0.2-0.8-0.2
			c-0.4,0-0.8,0.3-1,0.9h-0.6l-0.3-6.3h0.6c0.6,1.6,1.3,2.9,2.3,3.7c1,0.8,1.9,1.2,2.8,1.2c0.6,0,1.1-0.2,1.5-0.6
			c0.4-0.4,0.6-0.8,0.6-1.3c0-0.6-0.2-1.1-0.6-1.6s-1.2-1.1-2.5-2c-1.9-1.3-3.1-2.3-3.7-3c-0.8-1-1.2-2.2-1.2-3.4
			c0-1.3,0.5-2.6,1.4-3.7c0.9-1.1,2.3-1.6,4-1.6c0.9,0,1.9,0.2,2.8,0.7c0.3,0.2,0.6,0.3,0.8,0.3c0.2,0,0.4,0,0.5-0.1
			c0.1-0.1,0.4-0.4,0.7-0.8H202.1z"/>
		<path class="st2" d="M217,54.1l0.3,6h-0.6c-0.8-1.8-1.5-3-2.4-3.6c-0.8-0.6-1.6-1-2.4-1c-0.5,0-0.9,0.2-1.3,0.5
			c-0.4,0.3-0.5,0.7-0.5,1.2c0,0.3,0.1,0.7,0.4,1c0.4,0.5,1.5,1.4,3.3,2.6c1.8,1.2,3,2.3,3.6,3.2c0.6,0.9,0.9,1.8,0.9,2.9
			c0,1-0.2,1.9-0.7,2.9s-1.2,1.7-2.1,2.2c-0.9,0.5-1.9,0.7-2.9,0.7c-0.8,0-2-0.3-3.3-0.8c-0.4-0.1-0.6-0.2-0.8-0.2
			c-0.4,0-0.8,0.3-1,0.9h-0.6l-0.3-6.3h0.6c0.6,1.6,1.3,2.9,2.3,3.7c1,0.8,1.9,1.2,2.8,1.2c0.6,0,1.1-0.2,1.5-0.6
			c0.4-0.4,0.6-0.8,0.6-1.3c0-0.6-0.2-1.1-0.6-1.6s-1.2-1.1-2.5-2c-1.9-1.3-3.1-2.3-3.7-3c-0.8-1-1.2-2.2-1.2-3.4
			c0-1.3,0.5-2.6,1.4-3.7c0.9-1.1,2.3-1.6,4-1.6c0.9,0,1.9,0.2,2.8,0.7c0.3,0.2,0.6,0.3,0.8,0.3c0.2,0,0.4,0,0.5-0.1
			c0.1-0.1,0.4-0.4,0.7-0.8H217z"/>
		<path class="st2" d="M227.7,54.6v13.9c0,1.2,0.1,2,0.4,2.4s0.8,0.5,1.7,0.6v0.7h-9.4v-0.7c0.8,0,1.3-0.2,1.7-0.7
			c0.2-0.3,0.4-1,0.4-2.3V58.2c0-1.2-0.1-2-0.4-2.4c-0.3-0.3-0.8-0.5-1.7-0.6v-0.7H227.7z M225.1,46.1c0.8,0,1.5,0.3,2.1,0.9
			s0.8,1.3,0.8,2c0,0.8-0.3,1.5-0.9,2c-0.6,0.6-1.3,0.8-2,0.8c-0.8,0-1.5-0.3-2-0.8c-0.6-0.6-0.8-1.2-0.8-2c0-0.8,0.3-1.5,0.8-2
			S224.3,46.1,225.1,46.1z"/>
		<path class="st2" d="M239.8,54.1c1.5,0,2.9,0.4,4.2,1.2c1.3,0.8,2.3,1.9,3,3.3c0.7,1.4,1,3,1,4.8c0,2.5-0.6,4.6-1.9,6.2
			c-1.5,2-3.6,3-6.3,3c-2.6,0-4.7-0.9-6.1-2.8s-2.1-4-2.1-6.4c0-2.5,0.7-4.7,2.2-6.6C235.3,55,237.2,54.1,239.8,54.1z M239.8,55.4
			c-0.6,0-1.2,0.2-1.6,0.7c-0.5,0.5-0.8,1.4-0.9,2.8c-0.1,1.4-0.2,3.4-0.2,5.9c0,1.3,0.1,2.6,0.3,3.7c0.1,0.9,0.4,1.6,0.9,2
			c0.4,0.5,1,0.7,1.5,0.7c0.6,0,1-0.2,1.4-0.5c0.5-0.4,0.8-1,1-1.8c0.3-1.2,0.4-3.6,0.4-7.2c0-2.1-0.1-3.6-0.4-4.4
			c-0.2-0.8-0.6-1.4-1-1.7C240.8,55.5,240.4,55.4,239.8,55.4z"/>
		<path class="st2" d="M257.8,54.6v2.3c0.9-1,1.8-1.7,2.6-2.1c0.8-0.4,1.7-0.7,2.7-0.7c1.1,0,2.1,0.3,2.8,0.9s1.2,1.4,1.5,2.3
			c0.2,0.7,0.3,2.1,0.3,4.1v6.8c0,1.3,0.1,2.2,0.4,2.5c0.2,0.3,0.8,0.5,1.5,0.6v0.7h-8.8v-0.7c0.7-0.1,1.1-0.4,1.4-0.8
			c0.2-0.3,0.3-1.1,0.3-2.3v-7.8c0-1.4-0.1-2.3-0.2-2.7c-0.1-0.4-0.3-0.7-0.6-0.9c-0.3-0.2-0.6-0.3-0.9-0.3c-1.1,0-2.1,0.8-3,2.3
			v9.4c0,1.3,0.1,2.1,0.4,2.5c0.2,0.3,0.7,0.6,1.4,0.7v0.7h-8.8v-0.7c0.7-0.1,1.3-0.3,1.6-0.7c0.2-0.3,0.3-1.1,0.3-2.4v-9.9
			c0-1.3-0.1-2.1-0.4-2.5s-0.8-0.5-1.5-0.6v-0.7H257.8z"/>
		<path class="st2" d="M281.6,69.5c-2.1,1.9-4,2.8-5.7,2.8c-1,0-1.8-0.3-2.5-1c-0.7-0.7-1-1.5-1-2.5c0-1.3,0.6-2.5,1.7-3.6
			s3.6-2.5,7.5-4.3v-1.8c0-1.3-0.1-2.2-0.2-2.5s-0.4-0.6-0.8-0.9c-0.4-0.3-0.8-0.4-1.3-0.4c-0.8,0-1.5,0.2-2,0.5
			c-0.3,0.2-0.5,0.5-0.5,0.8c0,0.3,0.2,0.6,0.5,1c0.5,0.5,0.7,1.1,0.7,1.6c0,0.6-0.2,1.1-0.7,1.6c-0.5,0.4-1.1,0.6-1.8,0.6
			c-0.8,0-1.4-0.2-2-0.7c-0.5-0.5-0.8-1-0.8-1.7c0-0.9,0.4-1.8,1.1-2.6c0.7-0.8,1.7-1.4,3-1.9s2.6-0.7,4-0.7c1.7,0,3,0.4,3.9,1.1
			c1,0.7,1.6,1.5,1.9,2.3c0.2,0.5,0.3,1.7,0.3,3.6v6.8c0,0.8,0,1.3,0.1,1.5c0.1,0.2,0.2,0.4,0.3,0.5s0.3,0.1,0.4,0.1
			c0.3,0,0.7-0.2,1-0.7l0.6,0.4c-0.6,0.9-1.3,1.6-1.9,2c-0.7,0.4-1.4,0.6-2.3,0.6c-1,0-1.8-0.2-2.3-0.7S281.8,70.5,281.6,69.5z
			 M281.6,68.1v-5.9c-1.5,0.9-2.6,1.8-3.4,2.8c-0.5,0.7-0.7,1.4-0.7,2c0,0.6,0.2,1.1,0.6,1.5c0.3,0.3,0.7,0.5,1.3,0.5
			C280.1,69.2,280.8,68.8,281.6,68.1z"/>
		<path class="st2" d="M298,46.7v21.7c0,1.2,0.1,2,0.4,2.4c0.3,0.3,0.8,0.5,1.7,0.6v0.7h-9.4v-0.7c0.8,0,1.3-0.2,1.7-0.7
			c0.2-0.3,0.4-1,0.4-2.3V50.3c0-1.2-0.1-2-0.4-2.3c-0.3-0.3-0.8-0.5-1.7-0.6v-0.7H298z"/>
		<path class="st2" d="M312.8,54.1l0.3,6h-0.6c-0.8-1.8-1.5-3-2.4-3.6c-0.8-0.6-1.6-1-2.4-1c-0.5,0-0.9,0.2-1.3,0.5
			c-0.4,0.3-0.5,0.7-0.5,1.2c0,0.3,0.1,0.7,0.4,1c0.4,0.5,1.5,1.4,3.3,2.6c1.8,1.2,3,2.3,3.6,3.2c0.6,0.9,0.9,1.8,0.9,2.9
			c0,1-0.2,1.9-0.7,2.9s-1.2,1.7-2.1,2.2c-0.9,0.5-1.9,0.7-2.9,0.7c-0.8,0-2-0.3-3.3-0.8c-0.4-0.1-0.6-0.2-0.8-0.2
			c-0.4,0-0.8,0.3-1,0.9h-0.6l-0.3-6.3h0.6c0.6,1.6,1.3,2.9,2.3,3.7c1,0.8,1.9,1.2,2.8,1.2c0.6,0,1.1-0.2,1.5-0.6
			c0.4-0.4,0.6-0.8,0.6-1.3c0-0.6-0.2-1.1-0.6-1.6s-1.2-1.1-2.5-2c-1.9-1.3-3.1-2.3-3.7-3c-0.8-1-1.2-2.2-1.2-3.4
			c0-1.3,0.5-2.6,1.4-3.7c0.9-1.1,2.3-1.6,4-1.6c0.9,0,1.9,0.2,2.8,0.7c0.3,0.2,0.6,0.3,0.8,0.3c0.2,0,0.4,0,0.5-0.1
			c0.1-0.1,0.4-0.4,0.7-0.8H312.8z"/>
	</g>
	<rect x="233.4" y="86.3" class="st3" width="67.2" height="0.8"/>
	<rect x="233.4" y="90.8" class="st3" width="67.2" height="0.8"/>
	<rect x="114.7" y="86.3" class="st3" width="67.2" height="0.8"/>
	<rect x="114.7" y="90.8" class="st3" width="67.2" height="0.8"/>
</g>
</svg>
