<svg xmlns="http://www.w3.org/2000/svg" version="1.1" xmlns:xlink="http://www.w3.org/1999/xlink" width="512" height="512" x="0" y="0" viewBox="0 0 64 64" style="enable-background:new 0 0 512 512" xml:space="preserve" class=""><g><defs><linearGradient id="a" x1="32" x2="32" y1="62.419" y2=".903" gradientUnits="userSpaceOnUse"><stop stop-opacity="1" stop-color="#10579f" offset="0"></stop><stop stop-opacity="1" stop-color="#10579f" offset="1"></stop></linearGradient><linearGradient xlink:href="#a" id="b" x1="13.5" x2="13.5" y1="62.419" y2=".903"></linearGradient><linearGradient xlink:href="#a" id="c" x1="50.5" x2="50.5" y1="62.419" y2=".903"></linearGradient><linearGradient xlink:href="#a" id="d" x1="44" x2="44" y1="62.419" y2=".903"></linearGradient><linearGradient xlink:href="#a" id="e" x1="20" x2="20" y1="62.419" y2=".903"></linearGradient><linearGradient xlink:href="#a" id="f" x1="46" x2="46" y1="62.419" y2=".903"></linearGradient><linearGradient xlink:href="#a" id="g" x1="51" x2="51" y1="62.419" y2=".903"></linearGradient><linearGradient xlink:href="#a" id="h" x1="41" x2="41" y1="62.419" y2=".903"></linearGradient><linearGradient xlink:href="#a" id="i" x1="27" x2="27" y1="62.419" y2=".903"></linearGradient><linearGradient xlink:href="#a" id="j" x1="21" x2="21" y1="62.419" y2=".903"></linearGradient><linearGradient xlink:href="#a" id="k" x1="11" x2="11" y1="62.419" y2=".903"></linearGradient><linearGradient xlink:href="#a" id="l" x1="26" x2="26" y1="62.419" y2=".903"></linearGradient><linearGradient xlink:href="#a" id="m" x1="19" x2="19" y1="62.419" y2=".903"></linearGradient><linearGradient xlink:href="#a" id="n" x1="24" x2="24" y1="62.419" y2=".903"></linearGradient><linearGradient xlink:href="#a" id="o" x1="17" x2="17" y1="62.419" y2=".903"></linearGradient><linearGradient xlink:href="#a" id="p" x1="13" x2="13" y1="62.419" y2=".903"></linearGradient></defs><g data-name="Money Bag"><path d="M32 17a8 8 0 1 0 8 8 8.009 8.009 0 0 0-8-8Zm0 14a6 6 0 1 1 6-6 6.006 6.006 0 0 1-6 6Z" style="fill:url(#a)" fill=""></path><path d="M56 2H8a3 3 0 0 0-3 3v32a3 3 0 0 0 3 3h29v-2H8a1 1 0 0 1-1-1V13a1 1 0 0 1 1-1h48a1 1 0 0 1 1 1v24a1 1 0 0 1-1 1h-1v2h1a3 3 0 0 0 3-3V5a3 3 0 0 0-3-3ZM8 4h48a1 1 0 0 1 1 1v1.184A2.966 2.966 0 0 0 56 6H8a2.966 2.966 0 0 0-1 .184V5a1 1 0 0 1 1-1Zm48 6H8a2.966 2.966 0 0 0-1 .184V9a1 1 0 0 1 1-1h48a1 1 0 0 1 1 1v1.184A2.966 2.966 0 0 0 56 10Z" style="fill:url(#a)" fill=""></path><path d="M16 16h-4a1 1 0 0 0-1 1v4h2v-3h3Z" style="fill:url(#b)" fill=""></path><path d="M53 21v-4a1 1 0 0 0-1-1h-4v2h3v3Z" style="fill:url(#c)" fill=""></path><path d="M11 29v4a1 1 0 0 0 1 1h4v-2h-3v-3Z" style="fill:url(#b)" fill=""></path><path d="M43 24h2v2h-2z" style="fill:url(#d)" fill=""></path><path d="M19 24h2v2h-2z" style="fill:url(#e)" fill=""></path><path d="M52 39.624V38h-1.181l2.118-5.649A1 1 0 0 0 52 31a1.924 1.924 0 0 1-1-.368A3.8 3.8 0 0 0 49 30a3.052 3.052 0 0 0-2.252 1.342c-.248.277-.577.658-.748.658s-.5-.381-.748-.658A3.052 3.052 0 0 0 43 30a3.8 3.8 0 0 0-2 .632A1.924 1.924 0 0 1 40 31a1 1 0 0 0-.937 1.351L41.181 38H40v1.624A12 12 0 0 0 34 50v5a7.008 7.008 0 0 0 7 7h10a7.008 7.008 0 0 0 7-7v-5a12 12 0 0 0-6-10.376Zm-10.665-6.911a6.715 6.715 0 0 0 .665-.345A1.924 1.924 0 0 1 43 32c.171 0 .5.381.748.658A3.052 3.052 0 0 0 46 34a3.052 3.052 0 0 0 2.252-1.342c.248-.277.577-.658.748-.658a1.924 1.924 0 0 1 1 .368 6.715 6.715 0 0 0 .661.345L48.683 38h-5.366ZM56 55a5.006 5.006 0 0 1-5 5H41a5.006 5.006 0 0 1-5-5v-5a10.012 10.012 0 0 1 6.21-9.249A4.008 4.008 0 0 0 42 42v1h2v-1a2 2 0 0 1 4 0v1h2v-1a4.008 4.008 0 0 0-.21-1.249A10.012 10.012 0 0 1 56 50Z" style="fill:url(#f)" fill=""></path><path d="M46 48a1 1 0 0 1 1 1h2a3 3 0 0 0-2-2.816V45h-2v1.184A2.993 2.993 0 0 0 46 52a1 1 0 1 1-1 1h-2a3 3 0 0 0 2 2.816V57h2v-1.184A2.993 2.993 0 0 0 46 50a1 1 0 0 1 0-2Z" style="fill:url(#f)" fill=""></path><path d="M50 50h2v2h-2z" style="fill:url(#g)" fill=""></path><path d="M40 50h2v2h-2z" style="fill:url(#h)" fill=""></path><path d="M22 44h10v2H22z" style="fill:url(#i)" fill=""></path><path d="M14 48h14v2H14z" style="fill:url(#j)" fill=""></path><path d="M10 48h2v2h-2z" style="fill:url(#k)" fill=""></path><path d="M22 52h8v2h-8z" style="fill:url(#l)" fill=""></path><path d="M18 52h2v2h-2z" style="fill:url(#m)" fill=""></path><path d="M20 56h8v2h-8z" style="fill:url(#n)" fill=""></path><path d="M16 56h2v2h-2z" style="fill:url(#o)" fill=""></path><path d="M12 56h2v2h-2z" style="fill:url(#p)" fill=""></path></g></g></svg>