<svg xmlns="http://www.w3.org/2000/svg" version="1.1" xmlns:xlink="http://www.w3.org/1999/xlink" width="512" height="512" x="0" y="0" viewBox="0 0 500 500" style="enable-background:new 0 0 512 512" xml:space="preserve" class=""><g><path fill-rule="evenodd" d="M272.526 454.582c-8.531 0-15.485-6.948-15.485-15.502s6.954-15.514 15.485-15.514 15.543 6.96 15.543 15.514-7.012 15.502-15.543 15.502zm100.565-303.428-.993 12.166-3.857-.421c-12.5-1.373-23.86 7.742-25.185 20.206-.643 6.048 1.052 12.008 4.908 16.776 0 .035.058.082.117.117-.058.035-.117.059-.175.094-4.733 3.821-7.713 9.256-8.414 15.304-.643 6.054 1.11 12.008 4.908 16.782.059.029.059.076.117.111-.058.035-.117.064-.117.088a22.713 22.713 0 0 0-3.448 32.215c-.058.029-.117.053-.117.082-4.791 3.827-7.772 9.262-8.414 15.31-.351 2.81-.117 5.61.584 8.28l-3.623 32.273-11.103 23.081c-1.61 3.241-5.618 4.704-8.94 3.109-2.396-1.18-3.039-2.337-3.272-3.097-.818-2.495.409-6.469 2.162-10.401l6.136-12.33.351-1.771 2.98-43.194c.234-3.635-2.513-6.784-6.135-7.035-3.681-.257-6.778 2.489-7.071 6.13l-2.863 41.991-1.578 3.009c-1.285 2.46-2.688 5.113-3.915 7.877l-10.869 21.644c-3.869 7.789-14.415 5.289-16.128-.146-.76-2.431-.234-5.703.876-9.233l11.161-22.766.526-1.601 1.402-40.103c.117-3.646-2.746-6.697-6.369-6.813-3.623-.134-6.72 2.729-6.837 6.369l-1.227 37.602a118.75 118.75 0 0 1-2.629 4.885c-2.922 5.382-6.194 11.418-8.298 17.548l-7.538 15.473c-2.744 5.583-10.388 6.869-14.784 1.847 7.224-11.535 10.239-26.841 14.375-39.747 4.149-12.984 7.655-83.075 6.019-110.376h24.542c12.914 0 23.432-10.5 23.432-23.397v-1.77c0-12.902-10.518-23.403-23.432-23.403h-39.969c-8.308 0-12.356 3.481-18.757 7.766l9.759-24.449c3.272-8.303 8.298-14.468 15.719-19.418l17.413-11.593c7.596-5.072 13.206-11.149 17.647-19.131l13.615-24.513c35.548 9.049 67.125 27.876 92.208 55.307-8.881 9.366-13.79 20.258-14.9 33.266zm16.244 30.198c-1.636-2.028-3.915-3.284-6.486-3.564l-16.011-1.771c-2.618-.275-5.028.432-7.071 2.075-6.836 5.497-3.388 16.177 4.908 17.098l16.069 1.77c5.317.584 10.051-3.243 10.635-8.537.294-2.542-.407-5.049-2.044-7.071zm-8.589 103.954c.584-5.288-3.272-10.056-8.531-10.647l-16.069-1.759c-2.488-.302-5.071.46-7.071 2.074-6.798 5.488-3.356 16.182 4.967 17.086l16.069 1.77c5.259.58 10.05-3.236 10.635-8.524zm-25.653 46.098c2.396-4.909 3.565-9.309 4.032-14.731l.935-10.67c-5.363-.587-10.537-.699-15.427-3.202l-2.279 20.323c-.077 1.386-1.442 4.507-1.928 5.721-5.142 12.856-4.558 15.742-.117 17.881 3.331 1.601 7.304.199 8.882-3.109zm29.217-78.395c.584-5.282-3.273-10.056-8.531-10.635l-16.069-1.771c-2.522-.286-5.03.457-7.07 2.08-6.715 5.343-3.521 16.163 4.967 17.092l16.069 1.765c5.233.58 10.028-3.264 10.634-8.531zm3.564-32.29c.493-5.362-3.336-10.072-8.531-10.641l-16.069-1.765c-2.508-.305-5.044.466-7.071 2.075-6.705 5.324-3.544 16.163 4.967 17.098l16.011 1.771c5.286.568 10.085-3.244 10.693-8.538zm-174.19 133.042c4.324-2.302 8.122-4.301 10.284-7.725 6.437-10.046 9.307-25.098 13.206-37.205 4.149-12.745 7.772-96.287 4.85-111.737-.742-4.001 2.413-7.807 6.486-7.807h31.846c5.668 0 10.226-4.575 10.226-10.197v-1.77c0-5.621-4.558-10.209-10.226-10.209h-39.969c-2.162 0-3.857.52-5.668 1.718l-46.805 31.204c-8.882 5.931-14.55 13.819-17.296 24.151l-10.051 37.62c-2.279 8.49-6.019 15.52-11.804 22.14l-55.512 63.413a187.281 187.281 0 0 0 49.961 51.281c8.752 6.094 15.592 9.924 25.068 14.673l30.035-47.22c4.091-6.387 10.051-9.549 15.369-12.33zM189.258 45.418c8.531 0 15.485 6.96 15.485 15.514s-6.954 15.508-15.485 15.508c-8.59 0-15.543-6.954-15.543-15.508s6.953-15.514 15.543-15.514zm216.731 72.674c-5.051-6.264-10.023-11.532-15.719-17.174l-2.454-2.367c-21.328-20.107-46.864-35.399-74.62-44.62-.059-.018-.117-.041-.117-.058-6.618-2.11-12.403-3.807-19.225-5.323-2.863-.625-5.785.689-7.188 3.243l-16.069 28.884c-3.389 6.159-7.538 10.658-13.44 14.568l-17.355 11.593c-9.642 6.416-16.42 14.754-20.686 25.501l-16.829 42.253-21.737 14.457c-11.512 7.684-19.166 18.36-22.731 31.735l-9.992 37.614c-1.753 6.556-4.558 11.745-8.999 16.852l-52.707 60.263c-15.193-27.341-23.665-58.551-23.665-91.034 0-70.915 40.144-135.672 103.019-167.442 5.201 7.602 13.907 12.598 23.782 12.598 15.836 0 28.691-12.873 28.691-28.703s-12.855-28.714-28.691-28.714c-17.593 0-30.847 15.85-28.457 32.413C92.784 98.405 49.251 168.099 49.251 244.478c0 79.229 46.734 151.05 118.796 183.283 2.941 1.316 6.464.327 8.239-2.478l33.19-52.1c3.161-4.996 10.717-7.545 16.595-11.283 9.449 10.271 25.964 9.087 34.009-2.086 9.478 11.26 29.168 11.025 36.989-4.418l.526-.993c8.374 8.433 22.284 8.318 29.977-1.052 9.365 10.844 27.049 9.347 33.541-3.997l5.902-12.224c5.199-10.819 5.206-18.728 6.194-30.128 18.019-1.612 27.307-22.915 15.66-37.146 4.616-3.664 7.83-9.092 8.531-15.403a22.677 22.677 0 0 0-4.967-16.905c0-.023.059-.047.117-.076 4.733-3.827 7.772-9.267 8.414-15.31 1.11-10.435-4.967-16.652-4.967-16.887 15.679-12.444 8.809-37.572-10.81-40.495l1.11-12.511c.76-9.414 4.149-17.378 10.343-24.262 25.711 32.407 40.904 73.182 40.904 116.47 0 85.933-57.09 159.676-139.54 181.343-4.791-9.174-14.433-15.456-25.477-15.456-15.836 0-28.691 12.885-28.691 28.714s12.855 28.703 28.691 28.703c15.903 0 28.691-12.735 28.691-29.176 87.921-23.192 149.532-102.986 149.532-194.129-.001-45.915-15.895-90.798-44.761-126.384z" clip-rule="evenodd" fill="#10579f" opacity="1" data-original="#000000"></path></g></svg>