<svg width="512" height="512" viewBox="0 0 512 512" fill="none" xmlns="http://www.w3.org/2000/svg">
<path d="M255 160.61C270.12 160.61 284.61 152.99 295.8 139.16C306.02 126.53 311.88 110.6 311.88 95.44C311.88 64.9 287.43 41.87 255 41.87C222.57 41.87 198.12 64.87 198.12 95.44C198.12 110.6 203.98 126.53 214.2 139.16C225.39 153 239.88 160.61 255 160.61ZM255 58.37C278.4 58.37 295.38 73.96 295.38 95.44C295.38 122.44 273.29 144.11 255 144.11C232.63 144.11 214.62 117.48 214.62 95.44C214.62 74 231.6 58.37 255 58.37Z" fill="#10579F"/>
<path d="M187.69 239.79L181.9 322.38C181.824 323.461 181.961 324.546 182.304 325.574C182.648 326.601 183.19 327.551 183.9 328.369C184.611 329.188 185.475 329.858 186.445 330.342C187.414 330.826 188.469 331.114 189.55 331.19H190.13C192.217 331.188 194.226 330.396 195.753 328.973C197.279 327.55 198.211 325.602 198.36 323.52L204.15 241C204.226 239.919 204.089 238.834 203.746 237.806C203.402 236.779 202.86 235.829 202.15 235.011C201.439 234.193 200.575 233.522 199.605 233.038C198.636 232.554 197.581 232.266 196.5 232.19C195.419 232.114 194.334 232.251 193.306 232.594C192.279 232.938 191.329 233.48 190.511 234.19C189.693 234.901 189.022 235.765 188.539 236.735C188.055 237.704 187.766 238.759 187.69 239.84V239.79Z" fill="#10579F"/>
<path d="M366.89 331.18C369.128 330.982 371.197 329.904 372.642 328.183C374.087 326.462 374.791 324.239 374.6 322C374.6 322 365.88 259.47 364.6 238.49C362.23 200.82 339.22 170.6 303.27 165.1C290.63 163.16 267.67 161.7 255.67 161.69C239.289 161.974 222.934 163.105 206.67 165.08C189.809 167.388 174.366 175.76 163.23 188.63C151.53 202.14 146.3 219.41 145.23 238.53C144.03 259.53 136.08 322.09 136.08 322.09C135.946 323.175 136.029 324.275 136.324 325.327C136.619 326.379 137.12 327.363 137.798 328.22C138.476 329.077 139.317 329.791 140.273 330.32C141.23 330.849 142.281 331.183 143.368 331.302C144.454 331.421 145.553 331.323 146.601 331.014C147.65 330.705 148.626 330.191 149.474 329.501C150.321 328.812 151.024 327.96 151.54 326.997C152.056 326.034 152.376 324.978 152.48 323.89C152.48 323.89 160.55 260.65 161.7 239.44C163.34 209.38 181.13 185.22 208.92 181.44C224.431 179.556 240.028 178.475 255.65 178.2C266.83 178.2 289.02 179.62 300.76 181.42C313.668 183.374 325.47 189.827 334.08 199.64C343.24 210.16 347.21 224.29 348.08 239.49C349.35 260.73 358.21 323.98 358.21 323.98C358.531 326.032 359.59 327.896 361.188 329.222C362.787 330.547 364.814 331.244 366.89 331.18Z" fill="#10579F"/>
<path d="M313.26 232.14C312.174 232.215 311.113 232.504 310.139 232.99C309.165 233.477 308.297 234.151 307.585 234.975C306.873 235.798 306.331 236.755 305.99 237.789C305.65 238.823 305.517 239.914 305.6 241L311.4 323.58C311.544 325.663 312.473 327.613 313.998 329.038C315.523 330.463 317.532 331.257 319.62 331.26H320.21C322.392 331.104 324.422 330.088 325.857 328.437C327.291 326.785 328.011 324.632 327.86 322.45L322.06 239.86C321.99 238.775 321.707 237.714 321.227 236.739C320.746 235.763 320.078 234.892 319.261 234.175C318.444 233.458 317.493 232.909 316.463 232.56C315.433 232.211 314.345 232.068 313.26 232.14Z" fill="#10579F"/>
<path d="M307.64 405.88L347.32 367.2C348.422 366.126 349.201 364.764 349.57 363.27C349.938 361.776 349.882 360.209 349.406 358.745C348.931 357.281 348.056 355.98 346.879 354.988C345.703 353.995 344.273 353.352 342.75 353.13L287.92 345.13L263.4 295.48C262.719 294.098 261.665 292.935 260.357 292.122C259.049 291.308 257.54 290.877 256 290.877C254.46 290.877 252.95 291.308 251.643 292.122C250.335 292.935 249.281 294.098 248.6 295.48L224.08 345.16L169.25 353.16C167.727 353.382 166.297 354.025 165.12 355.018C163.944 356.01 163.069 357.311 162.593 358.775C162.118 360.239 162.062 361.806 162.43 363.3C162.799 364.794 163.578 366.156 164.68 367.23L204.36 405.91L195 460.48C194.735 462.001 194.902 463.567 195.483 464.998C196.064 466.429 197.035 467.668 198.285 468.574C199.535 469.481 201.015 470.018 202.556 470.125C204.096 470.232 205.636 469.905 207 469.18L256 443.4L305 469.18C306.185 469.8 307.502 470.126 308.84 470.13C310.041 470.128 311.228 469.864 312.317 469.357C313.405 468.85 314.371 468.111 315.145 467.192C315.919 466.273 316.483 465.197 316.798 464.037C317.113 462.878 317.172 461.664 316.97 460.48L307.64 405.88ZM252.16 426.78C242.58 431.66 214.08 446.78 214.08 446.78L221.35 404.37C221.576 403.052 221.478 401.699 221.065 400.428C220.653 399.156 219.937 398.004 218.98 397.07L188.17 367.07L230.75 360.88C232.073 360.687 233.329 360.176 234.41 359.39C235.492 358.604 236.367 357.568 236.96 356.37L255.96 317.78L274.96 356.37C275.553 357.568 276.428 358.604 277.509 359.39C278.591 360.176 279.847 360.687 281.17 360.88L323.75 367.07L292.94 397.07C291.983 398.004 291.267 399.156 290.854 400.428C290.441 401.699 290.344 403.052 290.57 404.37L297.84 446.78C297.84 446.78 269.34 431.64 259.76 426.78C258.592 426.15 257.287 425.82 255.96 425.82C254.633 425.82 253.327 426.15 252.16 426.78Z" fill="#10579F"/>
<path d="M482.63 378.21L442.54 372.38L424.61 336.06C423.931 334.678 422.878 333.514 421.571 332.7C420.264 331.886 418.755 331.455 417.215 331.455C415.675 331.455 414.166 331.886 412.859 332.7C411.552 333.514 410.499 334.678 409.82 336.06L391.89 372.38L351.8 378.21C350.277 378.432 348.847 379.075 347.67 380.068C346.494 381.06 345.619 382.361 345.144 383.825C344.668 385.289 344.612 386.856 344.98 388.35C345.349 389.844 346.128 391.206 347.23 392.28L376.23 420.56L369.38 460.48C369.115 462.001 369.282 463.567 369.863 464.998C370.444 466.429 371.415 467.668 372.665 468.575C373.915 469.481 375.395 470.018 376.936 470.125C378.476 470.232 380.016 469.905 381.38 469.18L417.23 450.33L453.09 469.18C454.275 469.8 455.592 470.126 456.93 470.13C458.131 470.128 459.318 469.864 460.407 469.357C461.496 468.85 462.461 468.111 463.235 467.192C464.009 466.273 464.573 465.197 464.888 464.037C465.203 462.878 465.262 461.664 465.06 460.48L458.21 420.56L487.21 392.28C488.312 391.206 489.091 389.844 489.46 388.35C489.828 386.856 489.772 385.289 489.296 383.825C488.821 382.361 487.946 381.06 486.769 380.068C485.593 379.075 484.163 378.432 482.64 378.21H482.63ZM413.38 433.71C407.09 436.87 388.47 446.8 388.47 446.8L393.23 419.07C393.456 417.752 393.358 416.399 392.946 415.128C392.533 413.856 391.817 412.704 390.86 411.77L370.71 392.13L398.55 388.13C399.875 387.938 401.132 387.426 402.215 386.639C403.297 385.851 404.17 384.812 404.76 383.61L417.21 358.39L429.66 383.61C430.253 384.811 431.129 385.849 432.213 386.637C433.296 387.424 434.555 387.937 435.88 388.13L463.71 392.13L443.57 411.77C442.612 412.703 441.895 413.855 441.482 415.127C441.069 416.399 440.972 417.752 441.2 419.07L446 446.8C446 446.8 427.39 436.87 421.1 433.71C419.914 433.071 418.587 432.737 417.24 432.737C415.893 432.737 414.566 433.071 413.38 433.71Z" fill="#10579F"/>
<path d="M160.2 378.21L120.11 372.38L102.18 336.06C101.501 334.678 100.448 333.514 99.1409 332.7C97.8338 331.886 96.3248 331.455 94.785 331.455C93.2452 331.455 91.7362 331.886 90.4291 332.7C89.1221 333.514 88.0692 334.678 87.39 336.06L69.46 372.38L29.37 378.21C27.8472 378.432 26.4168 379.075 25.2405 380.068C24.0643 381.06 23.189 382.361 22.7136 383.825C22.2382 385.289 22.1816 386.856 22.5503 388.35C22.919 389.844 23.6983 391.206 24.8 392.28L53.8 420.56L47 460.48C46.7351 462.001 46.9025 463.567 47.4833 464.998C48.0641 466.429 49.0349 467.668 50.2852 468.575C51.5356 469.481 53.0152 470.018 54.5559 470.125C56.0965 470.232 57.6363 469.905 59 469.18L94.86 450.33L130.71 469.18C131.895 469.8 133.212 470.126 134.55 470.13C135.751 470.128 136.938 469.864 138.027 469.357C139.116 468.85 140.081 468.111 140.855 467.192C141.629 466.273 142.193 465.197 142.508 464.037C142.824 462.878 142.882 461.664 142.68 460.48L135.83 420.56L164.83 392.28C165.932 391.206 166.711 389.844 167.08 388.35C167.448 386.856 167.392 385.289 166.916 383.825C166.441 382.361 165.566 381.06 164.389 380.068C163.213 379.075 161.783 378.432 160.26 378.21H160.2ZM91 433.71L66.05 446.8L70.8 419.07C71.0278 417.752 70.931 416.399 70.5181 415.127C70.1051 413.855 69.3884 412.703 68.43 411.77L48.29 392.13L76.12 388.13C77.4453 387.937 78.7038 387.424 79.7872 386.637C80.8707 385.849 81.7467 384.811 82.34 383.61L94.79 358.39L107.24 383.61C107.83 384.812 108.703 385.851 109.785 386.639C110.867 387.426 112.125 387.938 113.45 388.13L141.29 392.13L121.14 411.77C120.183 412.704 119.467 413.856 119.054 415.128C118.642 416.399 118.544 417.752 118.77 419.07L123.53 446.8L98.62 433.71C97.4731 433.008 96.1546 432.637 94.81 432.637C93.4654 432.637 92.1469 433.008 91 433.71Z" fill="#10579F"/>
</svg>
