<svg width="512" height="512" viewBox="0 0 512 512" fill="none" xmlns="http://www.w3.org/2000/svg">
<g clip-path="url(#clip0_11_10)">
<path d="M255.107 65.06C260.669 65.06 265.178 60.551 265.178 54.989V10.071C265.178 4.509 260.669 0 255.107 0C249.545 0 245.036 4.509 245.036 10.071V54.989C245.037 60.551 249.546 65.06 255.107 65.06Z" fill="#10579F"/>
<path d="M501.28 345.985L483.489 328.244C477.16 321.923 468.725 318.441 459.737 318.441C453.99 318.441 448.473 319.871 443.584 322.55L410.058 289.064L411.691 287.433C425.292 273.805 425.287 251.66 411.69 238.078C406.831 233.21 400.768 229.964 394.159 228.598C395.069 225.457 395.548 222.167 395.548 218.8C395.548 209.445 391.914 200.673 385.336 194.122C380.476 189.254 374.414 186.008 367.805 184.642C368.715 181.501 369.194 178.212 369.194 174.844C369.194 165.488 365.56 156.717 358.971 150.156C353.995 145.186 347.878 142.04 341.455 140.701C344.891 128.854 341.955 115.525 332.635 106.189C324.877 98.464 314.35 95.144 304.205 96.22L237.77 83.645C227.638 81.723 214.985 80.452 206.998 87.737C206.494 88.197 205.98 88.726 205.474 89.315C193.09 84.801 178.646 87.489 168.729 97.395C162.15 103.966 158.526 112.734 158.526 122.084C158.526 125.452 159.003 128.741 159.912 131.883C153.31 133.248 147.255 136.49 142.412 141.342C135.82 147.907 132.185 156.665 132.178 166.004C132.175 169.38 132.654 172.68 133.568 175.83C126.963 177.192 120.904 180.428 116.046 185.28C109.454 191.865 105.824 200.638 105.824 209.983C105.824 217.141 107.961 223.96 111.921 229.72C106.921 231.415 102.341 234.236 98.506 238.067C84.896 251.66 84.891 273.806 98.515 287.454L100.142 289.074L66.612 322.543C54.151 316.676 38.798 318.874 28.515 329.144L10.713 346.896C4.38104 353.22 0.895043 361.656 0.894043 370.649C0.894043 379.643 4.38104 388.08 10.713 394.405L32.93 416.595C36.865 420.526 43.242 420.522 47.172 416.587C51.103 412.652 51.099 406.275 47.164 402.345L24.947 380.155C22.425 377.636 21.036 374.26 21.036 370.65C21.036 367.041 22.425 363.666 24.941 361.153L42.744 343.4C47.192 338.957 54 338.295 59.17 341.386C59.534 341.933 59.955 342.453 60.437 342.936C61.3 343.801 62.285 344.464 63.331 344.949L165.424 446.892C165.909 447.949 166.575 448.944 167.444 449.814C168.29 450.661 169.255 451.316 170.279 451.798C172.438 454.239 173.631 457.357 173.631 460.683C173.631 464.293 172.242 467.668 169.72 470.187L151.935 487.951C146.68 493.183 138.132 493.182 132.893 487.967L110.676 465.748C106.743 461.815 100.367 461.815 96.434 465.748C92.501 469.681 92.501 476.057 96.434 479.99L118.667 502.225C125.211 508.742 133.805 511.999 142.403 511.999C151.003 511.999 159.607 508.737 166.159 502.214L183.955 484.439C190.287 478.114 193.774 469.678 193.774 460.683C193.774 454.264 191.989 448.134 188.67 442.848L226.406 405.158C226.446 405.117 226.486 405.076 226.527 405.035C230.848 400.568 242.881 401.404 254.518 402.212C262.786 402.787 272.004 403.426 281.01 402.388L322.334 443.663C319.657 448.544 318.228 454.054 318.228 459.792C318.228 468.777 321.715 477.208 328.047 483.533L345.844 501.308C352.172 507.629 360.607 511.111 369.595 511.111C378.582 511.111 387.017 507.63 393.346 501.308L501.287 393.498C507.619 387.174 511.106 378.738 511.106 369.744C511.105 360.751 507.618 352.315 501.28 345.985ZM234.02 103.435L277.707 111.704L251.558 137.843C247.513 135.899 241.969 132.273 235.887 126.455C227.562 118.491 221.607 109.296 221.065 103.561C221.064 103.558 221.064 103.555 221.064 103.552C221.064 103.551 221.063 103.55 221.063 103.549C221.024 103.137 221.014 102.808 221.019 102.557C222.336 102.237 225.834 101.882 234.02 103.435ZM182.962 111.646C188.064 106.549 195.99 105.961 201.755 109.865C205.022 123.563 216.707 135.978 221.964 141.008C225.86 144.736 238.361 155.913 250.979 158.985C252.686 161.432 253.615 164.349 253.615 167.427C253.615 171.392 252.09 175.099 249.311 177.875C246.54 180.651 242.827 182.179 238.855 182.179C234.882 182.179 231.169 180.651 228.385 177.862L228.384 177.861L228.379 177.856L182.961 132.52C180.192 129.755 178.667 126.048 178.667 122.084C178.668 118.119 180.193 114.412 182.962 111.646ZM156.646 155.593C159.417 152.818 163.126 151.289 167.092 151.289C171.063 151.289 174.784 152.821 177.573 155.607L214.145 192.106C219.904 197.874 219.904 207.26 214.165 213.008C211.379 215.783 207.653 217.311 203.674 217.311C199.695 217.311 195.969 215.783 193.195 213.02L193.194 213.019L165.449 185.28C165.406 185.237 165.359 185.197 165.315 185.153L156.635 176.477C153.85 173.695 152.317 169.981 152.32 166.019C152.324 162.07 153.852 158.375 156.646 155.593ZM130.28 199.531C133.053 196.762 136.77 195.237 140.748 195.237C144.693 195.237 148.378 196.74 151.139 199.461L178.969 227.278C181.744 230.042 183.273 233.745 183.273 237.705C183.273 241.664 181.744 245.367 178.958 248.142C176.186 250.91 172.473 252.435 168.502 252.435C164.525 252.435 160.8 250.906 158.024 248.142L147.935 238.065C147.933 238.062 147.93 238.06 147.928 238.058L130.281 220.432C127.499 217.653 125.967 213.941 125.967 209.981C125.967 206.022 127.499 202.309 130.28 199.531ZM112.74 252.317C115.525 249.535 119.247 248.003 123.22 248.003C127.192 248.003 130.913 249.534 133.697 252.314L143.8 262.405C146.576 265.169 148.104 268.872 148.104 272.832C148.104 276.792 146.575 280.494 143.779 283.28C141.008 286.055 137.295 287.584 133.323 287.584C129.35 287.584 125.637 286.056 122.846 283.26L121.581 282C121.564 281.983 121.551 281.965 121.535 281.949C121.516 281.931 121.496 281.915 121.477 281.897L112.75 273.204C106.991 267.433 106.986 258.064 112.74 252.317ZM317.974 366.775C314.043 362.839 307.666 362.836 303.732 366.766L294.772 375.715C286.258 384.229 270.831 383.157 255.912 382.122C239.711 380.996 222.958 379.834 212.117 390.964L175.022 428.014L82.259 335.387L115.087 302.618C120.513 305.944 126.774 307.727 133.325 307.727C142.684 307.727 151.46 304.099 158.015 297.532C164.614 290.96 168.249 282.189 168.249 272.833C168.249 272.746 168.243 272.66 168.243 272.573C168.33 272.574 168.417 272.579 168.504 272.579C177.85 272.579 186.619 268.962 193.183 262.406C199.782 255.834 203.417 247.062 203.417 237.707C203.417 237.62 203.411 237.534 203.411 237.447C203.499 237.447 203.587 237.453 203.676 237.453C213.019 237.453 221.793 233.84 228.401 227.259C235.261 220.388 238.654 211.342 238.589 202.315C238.679 202.316 238.769 202.321 238.859 202.321C248.218 202.32 256.993 198.693 263.558 192.116C270.137 185.545 273.761 176.777 273.761 167.427C273.761 160.888 271.983 154.637 268.668 149.222L297.441 120.461C299.585 118.326 302.229 116.986 305 116.433C305.3 116.401 305.596 116.353 305.889 116.295C310.335 115.682 315.004 117.054 318.404 120.44C324.163 126.209 324.163 135.595 318.425 141.343L309.662 150.07C309.633 150.099 309.602 150.125 309.573 150.154L299.48 160.23C295.544 164.16 295.54 170.537 299.471 174.472C303.403 178.408 309.779 178.411 313.713 174.481L322.511 165.695C322.513 165.693 322.515 165.691 322.517 165.689L323.847 164.364C329.622 158.642 338.978 158.654 344.747 164.415C347.523 167.179 349.052 170.882 349.052 174.842C349.052 178.801 347.523 182.504 344.725 185.29L335.912 194.121C335.911 194.122 335.91 194.123 335.909 194.125L325.817 204.176C321.876 208.101 321.863 214.478 325.788 218.418C329.713 222.359 336.089 222.371 340.03 218.447L350.168 208.35C352.939 205.574 356.652 204.046 360.624 204.046C364.597 204.046 368.311 205.574 371.102 208.37C373.878 211.135 375.406 214.838 375.406 218.798C375.406 222.757 373.878 226.46 371.086 229.24L353.516 246.817C349.584 250.751 349.585 257.127 353.518 261.059C355.485 263.025 358.061 264.007 360.638 264.007C363.216 264.007 365.794 263.023 367.76 261.056L376.371 252.442C376.42 252.395 376.473 252.354 376.522 252.305C379.293 249.529 383.006 248.001 386.978 248.001C390.951 248.001 394.664 249.529 397.445 252.315C403.198 258.062 403.193 267.432 397.445 273.19L388.69 281.935C388.687 281.938 388.683 281.941 388.68 281.944C388.677 281.947 388.674 281.951 388.671 281.954L374.775 295.833C370.84 299.764 370.836 306.141 374.766 310.076C376.733 312.045 379.313 313.03 381.892 313.03C384.467 313.03 387.043 312.048 389.009 310.085L395.806 303.296L428.383 335.835L335.628 428.477L302.394 395.283C304.711 393.793 306.928 392.041 309.009 389.96L317.964 381.016C321.901 377.087 321.905 370.71 317.974 366.775ZM487.052 379.247L379.111 487.057C376.586 489.579 373.206 490.968 369.594 490.968C365.982 490.968 362.602 489.579 360.076 487.056L342.279 469.281C339.757 466.763 338.368 463.393 338.368 459.792C338.368 456.192 339.757 452.822 342.279 450.303L450.22 342.493C452.746 339.97 456.125 338.581 459.738 338.581C463.35 338.581 466.73 339.97 469.262 342.499L487.053 360.24C489.575 362.759 490.964 366.133 490.964 369.743C490.963 373.354 489.574 376.729 487.052 379.247Z" fill="#10579F"/>
<path d="M121.378 56.57C123.344 58.532 125.918 59.512 128.492 59.512C131.072 59.512 133.653 58.526 135.62 56.555C139.549 52.618 139.543 46.242 135.606 42.313L98.9079 5.688C94.9719 1.759 88.5949 1.764 84.6659 5.702C80.7369 9.639 80.7429 16.015 84.6799 19.944L121.378 56.57Z" fill="#10579F"/>
<path d="M381.722 59.512C384.297 59.512 386.873 58.53 388.839 56.567L425.509 19.941C429.444 16.011 429.448 9.63399 425.517 5.69899C421.587 1.76399 415.211 1.75999 411.275 5.69099L374.605 42.317C370.67 46.247 370.666 52.624 374.597 56.559C376.564 58.528 379.143 59.512 381.722 59.512Z" fill="#10579F"/>
<path d="M62.8191 433.204C58.9201 437.17 58.9741 443.547 62.9411 447.446L62.9701 447.474C64.9271 449.398 67.4681 450.356 70.0081 450.356C72.6151 450.356 75.222 449.347 77.197 447.338C81.096 443.372 81.027 436.981 77.061 433.082C73.096 429.183 66.7201 429.238 62.8191 433.204Z" fill="#10579F"/>
<path d="M342.606 352.267C344.138 352.267 345.692 351.918 347.151 351.183C352.117 348.678 354.112 342.622 351.608 337.656C349.103 332.69 343.046 330.694 338.081 333.199L338.025 333.227C333.059 335.732 331.092 341.774 333.596 346.74C335.364 350.248 338.92 352.267 342.606 352.267Z" fill="#10579F"/>
</g>
<defs>
<clipPath id="clip0_11_10">
<rect width="512" height="512" fill="white"/>
</clipPath>
</defs>
</svg>
