<svg width="662" height="662" viewBox="0 0 662 662" fill="none" xmlns="http://www.w3.org/2000/svg">
<g clip-path="url(#clip0_11_17)">
<path d="M661.333 277.333H637.365L601.641 296.13C597.62 293.911 593.438 292.031 588.927 290.901L543.99 279.656V274.547C563.87 260.672 576 237.75 576 213.333V194.688C576 153.25 543.531 118.573 503.625 117.365C501.599 117.313 499.604 117.385 497.599 117.484L509.25 90.2083L452.766 33.7396L419.469 55.4115C406.818 48.2865 393.438 42.7396 379.542 38.849L371.318 0H290.026L281.802 38.8594C267.906 42.75 254.516 48.2969 241.875 55.4219L208.578 33.75L152.141 90.1875L163.594 117.484C163.156 117.464 162.74 117.385 162.302 117.375C141.875 116.781 122.635 124.234 108.021 138.422C93.3854 152.599 85.3333 171.625 85.3333 192V213.333C85.3333 237.75 97.4531 260.661 117.333 274.536V279.656L88.0208 286.984L34.8906 256H0V477.026L104.938 512H125.375L127.927 503.063L160.094 522.37C160.62 539.859 174.646 553.932 192.12 554.547C192.734 571.948 206.719 585.932 224.12 586.547C224.734 603.948 238.719 617.932 256.12 618.547C256.755 636.354 271.339 650.667 289.292 650.667C295.958 650.667 302.495 648.589 307.99 644.885L317.438 653.229C323.359 658.443 330.984 661.333 338.901 661.333H340.875C358.625 661.333 373.068 646.984 373.292 629.292C390.849 629.068 405.068 614.849 405.292 597.292C422.859 597.068 437.089 582.828 437.292 565.26C455.021 564.844 469.333 550.359 469.333 532.531C469.333 531.458 469.281 530.401 469.172 529.333L661.333 433.26V277.333ZM554.667 194.688V213.333C554.667 232.266 544.438 249.953 527.969 259.49L522.635 262.573L522.677 296.328L575.969 309.641L458.667 371.38V342.646C458.667 328.307 452.875 315.177 443.391 305.474L480 296.328V262.547L474.677 259.469C458.219 249.953 448 232.266 448 213.333V192C448 177.453 453.75 163.849 464.203 153.719C474.646 143.594 488.5 138.135 502.984 138.698C531.479 139.552 554.667 164.672 554.667 194.688ZM346.75 362.995L298.464 347.563C276.458 340.51 252.641 339.458 230.115 344.448L224 345.802V342.646C224 327.938 233.974 315.167 248.234 311.594L309.333 296.328V262.547L304.01 259.469C287.552 249.953 277.333 232.266 277.333 213.333V192C277.333 177.453 283.083 163.849 293.536 153.719C303.979 143.594 317.922 138.135 332.318 138.698C360.813 139.552 384 164.672 384 194.688V213.333C384 232.266 373.771 249.953 357.302 259.49L351.969 262.573L352.01 296.328L413.099 311.594C427.359 315.167 437.333 327.938 437.333 342.646V382.615L434.698 384H428.161L362.583 365.26C357.417 363.797 352.094 363.198 346.75 362.995ZM226.391 159.646C246.422 120.833 286.74 96 330.667 96C374.177 96 414.323 120.5 434.505 158.786C429.427 168.969 426.667 180.245 426.667 192V213.333C426.667 237.75 438.786 260.661 458.667 274.536V279.656L416 290.339L373.323 279.656V274.547C393.203 260.672 405.333 237.75 405.333 213.333V194.688C405.333 153.25 372.865 118.573 332.958 117.365C312.542 116.766 293.292 124.224 278.677 138.411C264.052 152.599 256 171.625 256 192V213.333C256 237.75 268.12 260.661 288 274.536V279.656L245.333 290.339L202.656 279.656V274.547C222.536 260.672 234.667 237.75 234.667 213.333V194.688C234.667 182.135 231.646 170.219 226.391 159.646ZM177.333 95.1354L211.411 61.0573L241.406 80.5781L247.146 77.0573C261.526 68.2448 277.068 61.7917 293.333 57.901L299.896 56.3281L307.318 21.3333H354.026L361.427 56.3177L367.99 57.8854C384.255 61.7813 399.797 68.2344 414.177 77.0469L419.917 80.5677L449.911 61.0469L483.948 95.0938L471.849 123.422C463.615 126.964 455.979 131.948 449.333 138.391C448.896 138.818 448.521 139.276 448.094 139.714C422.964 99.7656 378.536 74.6667 330.667 74.6667C282.453 74.6667 237.901 100 212.833 140.354C206.125 133.333 198.146 127.646 189.302 123.672L177.333 95.1354ZM138.667 296.328V262.547L133.344 259.469C116.885 249.953 106.667 232.266 106.667 213.333V192C106.667 177.453 112.417 163.849 122.87 153.719C133.313 143.594 147.198 138.135 161.651 138.698C190.146 139.552 213.333 164.672 213.333 194.688V213.333C213.333 232.266 203.104 249.953 186.635 259.49L181.302 262.573L181.344 296.328L217.943 305.474C208.458 315.177 202.667 328.307 202.667 342.646V350.547L169.396 357.943L170.26 354.922L170.667 335.208L114.411 302.391L138.667 296.328ZM21.3333 277.333H29.1094L105.823 322.078L67.1146 476.906L21.3333 461.641V277.333ZM108.396 490.667L87.401 483.672L125.005 333.271L149.333 347.458V350.505L109.292 490.667H108.396ZM181.333 521.375C181.333 518.229 182.604 515.146 184.833 512.917L203.583 494.167C205.813 491.938 208.896 490.667 212.042 490.667C218.635 490.667 224 496.031 224 502.625C224 505.771 222.729 508.854 220.5 511.083L201.75 529.833C199.521 532.063 196.438 533.333 193.292 533.333C186.698 533.333 181.333 527.969 181.333 521.375ZM213.333 553.375C213.333 550.229 214.604 547.146 216.833 544.917L235.583 526.167C237.813 523.938 240.896 522.667 244.042 522.667C250.635 522.667 256 528.031 256 534.625C256 537.771 254.729 540.854 252.5 543.083L233.75 561.833C231.521 564.063 228.438 565.333 225.292 565.333C218.698 565.333 213.333 559.969 213.333 553.375ZM245.333 585.375C245.333 582.229 246.604 579.146 248.833 576.917L267.583 558.167C269.813 555.938 272.896 554.667 276.042 554.667C282.635 554.667 288 560.031 288 566.625C288 569.771 286.729 572.854 284.5 575.083L265.75 593.833C263.521 596.063 260.438 597.333 257.292 597.333C250.698 597.333 245.333 591.969 245.333 585.375ZM289.292 629.333C282.698 629.333 277.333 623.969 277.333 617.375C277.333 614.229 278.604 611.146 280.833 608.917L299.583 590.167C301.813 587.938 304.896 586.667 308.042 586.667C314.635 586.667 320 592.031 320 598.625C320 601.771 318.729 604.854 316.5 607.083L297.75 625.833C295.521 628.063 292.438 629.333 289.292 629.333ZM340.875 640H338.901C336.182 640 333.578 639.01 331.552 637.214L323.573 630.177L331.583 622.167C334.443 619.307 336.661 615.906 338.302 612.255L348 620.328C350.536 622.443 352 625.557 352 628.875C352 635.01 347.01 640 340.875 640ZM436.531 544H434.688C432.01 544 429.396 543.052 427.349 541.333L369.505 493.13L355.839 509.526L412.01 556.328C414.536 558.443 416 561.557 416 564.875C416 571.01 411.01 576 404.875 576H402.547C399.958 576 397.427 575.083 395.432 573.417L337.495 525.141L323.828 541.536L380 588.344C382.536 590.443 384 593.557 384 596.875C384 603.01 379.01 608 372.875 608C368.781 608 364.792 606.547 361.651 603.938L337.844 584.094C332.599 573.375 321.823 565.901 309.203 565.453C308.589 548.052 294.604 534.068 277.203 533.453C276.589 516.052 262.604 502.068 245.203 501.453C244.578 483.646 229.995 469.333 212.042 469.333C203.276 469.333 194.698 472.885 188.5 479.083L169.75 497.833C168.63 498.953 167.703 500.224 166.76 501.484L133.995 481.823L162.719 381.292L234.729 365.281C253.62 361.057 273.536 361.974 291.958 367.87L307.672 372.896L254.401 399.531C242.229 405.63 234.667 417.875 234.667 431.49V433.599C234.667 453.302 250.698 469.333 270.401 469.333C276.875 469.333 283.245 467.573 288.781 464.234L328.5 440.417C336.479 435.635 347.188 436.682 354.078 442.88L444.203 523.99C446.615 526.177 448 529.281 448 532.531C448 538.859 442.859 544 436.531 544ZM640 420.073L460.297 509.932C459.714 509.313 459.104 508.724 458.464 508.151L368.354 427.042C360.458 419.917 350.25 416 339.615 416C331.839 416 324.203 418.115 317.516 422.125L277.781 445.953C275.552 447.297 273.005 448 270.401 448C262.453 448 256 441.547 256 433.599V431.49C256 425.995 259.052 421.068 263.958 418.615L323.458 388.865C333.641 383.766 345.729 382.625 356.703 385.781L423.734 404.927L439.969 405.333L640 300.052V420.073Z" fill="#10579F"/>
</g>
<defs>
<clipPath id="clip0_11_17">
<rect width="661.333" height="661.333" fill="white"/>
</clipPath>
</defs>
</svg>
